<svg width="150" height="193" viewBox="0 0 150 193" fill="none" xmlns="http://www.w3.org/2000/svg">
<path fill-rule="evenodd" clip-rule="evenodd" d="M43.9325 182.405C43.9325 182.083 43.933 181.755 43.9342 181.424C44.0101 159.259 46.6056 139.016 48.5836 128.064L55.3368 129.284C53.4409 139.781 50.7947 160.636 50.7949 182.405L43.9325 182.405Z" fill="#151515"/>
<path d="M43.9325 182.405C43.9325 182.083 43.933 181.755 43.9342 181.424C35.6976 180.918 25.9613 182.771 25.6465 192.321H50.7949V182.405L43.9325 182.405Z" fill="#151515"/>
<path fill-rule="evenodd" clip-rule="evenodd" d="M79.9406 182.499C79.9406 182.177 79.94 181.849 79.9389 181.518C79.863 159.353 77.2675 138.767 75.2894 127.815L68.5362 129.035C70.4322 139.532 73.0784 160.73 73.0781 182.499L79.9406 182.499Z" fill="#151515"/>
<path d="M79.9406 182.499C79.9406 182.177 79.94 181.849 79.9389 181.518C88.1754 181.012 97.9117 182.865 98.2266 192.416H73.0781V182.499L79.9406 182.499Z" fill="#151515"/>
<path d="M7.3294 60.5627C7.3294 53.8571 12.7653 48.4212 19.4709 48.4212H104.222C110.928 48.4212 116.364 53.8571 116.364 60.5627V117.521C116.364 124.227 110.928 129.662 104.222 129.662H104.116H104.01H103.904H103.798H103.693H103.588H103.482H103.377H103.272H103.168H103.063H102.959H102.854H102.75H102.646H102.542H102.438H102.335H102.231H102.128H102.025H101.922H101.819H101.717H101.614H101.512H101.409H101.307H101.205H101.103H101.002H100.9H100.799H100.697H100.596H100.495H100.394H100.293H100.193H100.092H99.992H99.8918H99.7918H99.6919H99.5921H99.4924H99.3929H99.2935H99.1942H99.0951H98.9961H98.8973H98.7985H98.6999H98.6015H98.5031H98.4049H98.3068H98.2089H98.111H98.0133H97.9158H97.8183H97.721H97.6238H97.5267H97.4298H97.333H97.2363H97.1397H97.0433H96.947H96.8507H96.7547H96.6587H96.5629H96.4671H96.3716H96.2761H96.1807H96.0855H95.9903H95.8953H95.8005H95.7057H95.611H95.5165H95.4221H95.3278H95.2336H95.1395H95.0455H94.9517H94.8579H94.7643H94.6708H94.5774H94.4841H94.3909H94.2979H94.2049H94.1121H94.0193H93.9267H93.8342H93.7418H93.6495H93.5573H93.4652H93.3732H93.2813H93.1895H93.0978H93.0063H92.9148H92.8234H92.7322H92.641H92.55H92.459H92.3682H92.2774H92.1868H92.0962H92.0058H91.9154H91.8252H91.735H91.645H91.555H91.4651H91.3754H91.2857H91.1961H91.1067H91.0173H90.928H90.8388H90.7497H90.6607H90.5718H90.4829H90.3942H90.3055H90.217H90.1285H90.0402H89.9519H89.8637H89.7756H89.6876H89.5996H89.5118H89.424H89.3364H89.2488H89.1613H89.0739H88.9865H88.8993H88.8121H88.7251H88.6381H88.5511H88.4643H88.3776H88.2909H88.2043H88.1178H88.0314H87.945H87.8588H87.7726H87.6865H87.6004H87.5145H87.4286H87.3428H87.257H87.1714H87.0858H87.0003H86.9149H86.8295H86.7442H86.659H86.5739H86.4888H86.4038H86.3189H86.234H86.1493H86.0646H85.9799H85.8953H85.8108H85.7264H85.642H85.5577H85.4735H85.3893H85.3052H85.2211H85.1372H85.0533H84.9694H84.8856H84.8019H84.7182H84.6347H84.5511H84.4676H84.3842H84.3009H84.2176H84.1344H84.0512H83.9681H83.885H83.802H83.7191H83.6362H83.5534H83.4706H83.3879H83.3052H83.2226H83.1401H83.0576H82.9751H82.8927H82.8104H82.7281H82.6459H82.5637H82.4816H82.3995H82.3174H82.2355H82.1535H82.0716H81.9898H81.908H81.8263H81.7446H81.6629H81.5813H81.4998H81.4183H81.3368H81.2554H81.174H81.0927H81.0114H80.9301H80.8489H80.7677H80.6866H80.6055H80.5245H80.4435H80.3625H80.2816H80.2007H80.1199H80.0391H79.9583H79.8775H79.7969H79.7162H79.6356H79.555H79.4744H79.3939H79.3134H79.2329H79.1525H79.0721H78.9918H78.9114H78.8311H78.7509H78.6706H78.5904H78.5102H78.4301H78.35H78.2699H78.1898H78.1098H78.0298H77.9498H77.8698H77.7899H77.71H77.6301H77.5502H77.4704H77.3906H77.3108H77.231H77.1513H77.0716H76.9919H76.9122H76.8325H76.7529H76.6733H76.5937H76.5141H76.4345H76.355H76.2754H76.1959H76.1164H76.0369H75.9575H75.878H75.7986H75.7191H75.6397H75.5603H75.4809H75.4016H75.3222H75.2429H75.1635H75.0842H75.0049H74.9256H74.8463H74.767H74.6877H74.6084H74.5292H74.4499H74.3706H74.2914H74.2122H74.1329H74.0537H73.9745H73.8952H73.816H73.7368H73.6576H73.5784H73.4992H73.42H73.3408H73.2616H73.1823H73.1031H73.0239H72.9447H72.8655H72.7863H72.7071H72.6279H72.5486H72.4694H72.3902H72.3109H72.2317H72.1525H72.0732H71.9939H71.9147H71.8354H71.7561H71.6768H71.5975H71.5182H71.4389H71.3596H71.2803H71.2009H71.1216H71.0422H70.9628H70.8834H70.804H70.7246H70.6451H70.5657H70.4862H70.4067H70.3272H70.2477H70.1682H70.0886H70.0091H69.9295H69.8499H69.7703H69.6906H69.611H69.5313H69.4516H69.3719H69.2921H69.2124H69.1326H69.0528H68.973H68.8931H68.8132H68.7333H68.6534H68.5734H68.4935H68.4134H68.3334H68.2534H68.1733H68.0932H68.013H67.9328H67.8526H67.7724H67.6921H67.6118H67.5315H67.4512H67.3708H67.2904H67.2099H67.1294H67.0489H66.9683H66.8878H66.8071H66.7265H66.6458H66.5651H66.4843H66.4035H66.3226H66.2418H66.1608H66.0799H65.9989H65.9179H65.8368H65.7557H65.6745H65.5933H65.5121H65.4308H65.3494H65.2681H65.1867H65.1052H65.0237H64.9421H64.8605H64.7789H64.6972H64.6155H64.5337H64.4519H64.37H64.2881H64.2061H64.1241H64.042H63.9599H63.8777H63.7955H63.7132H63.6309H63.5485H63.4661H63.3836H63.301H63.2184H63.1358H63.0531H62.9703H62.8875H62.8046H62.7217H62.6387H62.5556H62.4725H62.3894H62.3062H62.2229H62.1395H62.0561H61.9727H61.8891H61.8055H61.7219H61.6382H61.5544H61.4706H61.3867H61.3027H61.2187H61.1346H61.0504H60.9662H60.8819H60.7975H60.7131H60.6286H60.544H60.4594H60.3747H60.2899H60.2051C48.4491 129.662 37.3684 134.157 26.9281 139.293C24.0257 140.721 21.3609 141.672 19.4709 141.672C12.7653 141.672 7.3294 136.236 7.3294 129.53V60.5627ZM20.5003 55.8912C17.3518 55.8912 14.7994 58.4436 14.7994 61.5921V128.158C14.7994 131.306 17.3518 133.859 20.5003 133.859C20.8937 133.859 21.4269 133.71 22.0069 133.502C22.6088 133.286 23.3339 132.979 24.1418 132.606C25.7587 131.86 27.7406 130.84 29.7935 129.735C38.186 125.218 47.467 122.536 56.9705 122.536H103.193C106.341 122.536 108.894 119.983 108.894 116.835V61.5921C108.894 58.4436 106.341 55.8912 103.193 55.8912H20.5003Z" fill="#485DF2" stroke="#151515" stroke-width="1.10802"/>
<path d="M52.3244 103.626C55.5263 101.745 63.1995 99.5846 68.2767 105.992C66.2291 104.53 60.1721 102.01 52.3244 103.626Z" fill="#151515" stroke="#151515" stroke-width="1.66203" stroke-linecap="round" stroke-linejoin="round"/>
<path d="M55.3804 55.2364C54.5807 54.668 53.4316 54.4109 52.153 54.3884C50.8661 54.3656 49.407 54.5796 47.9494 54.9942C45.0453 55.8202 42.0724 57.4655 40.4658 59.726C40.3816 59.8445 40.3812 60.0033 40.4648 60.1222C40.5484 60.2411 40.698 60.2944 40.838 60.2552C45.8026 58.8653 49.7637 58.4993 52.3264 58.4518C53.4524 58.431 54.7487 58.1881 55.5617 57.747C55.9569 57.5326 56.3301 57.2208 56.4089 56.7812C56.4925 56.3143 56.2185 55.8871 55.755 55.5177C55.6402 55.4262 55.5156 55.3325 55.3804 55.2364Z" fill="#151515" stroke="white" stroke-width="1.10802"/>
<path d="M84.6336 67.6309C82.9622 65.4178 79.943 63.8593 77.0162 63.1177C75.5471 62.7454 74.0824 62.5738 72.7967 62.6338C71.5194 62.6934 70.3782 62.9836 69.5952 63.5749C69.4629 63.6749 69.341 63.7721 69.229 63.8669C68.7763 64.2496 68.5149 64.6846 68.612 65.1488C68.7034 65.586 69.0855 65.8868 69.4868 66.0897C70.3121 66.5071 71.6149 66.7123 72.7411 66.7006C75.3041 66.6738 79.2741 66.925 84.2769 68.1706C84.418 68.2057 84.5659 68.1481 84.6461 68.0268C84.7262 67.9055 84.7212 67.7469 84.6336 67.6309Z" fill="#151515" stroke="white" stroke-width="1.10802"/>
<path d="M68.8123 78.7123C70.0764 64.3144 80.5332 66.7557 79.6109 80.4732C79.5333 81.6284 79.3831 82.6787 79.174 83.6249C77.0864 93.0723 69.1213 92.1454 68.7276 81.7247C68.6925 80.7958 68.7175 79.7914 68.8123 78.7123Z" fill="#151515" stroke="#151515" stroke-width="1.10802"/>
<path d="M52.9006 78.8021C51.6365 64.4042 41.1797 66.8455 42.102 80.5631C42.1796 81.7183 42.3298 82.7685 42.5389 83.7147C44.6265 93.1621 52.5916 92.2352 52.9853 81.8145C53.0204 80.8856 52.9954 79.8813 52.9006 78.8021Z" fill="#151515" stroke="#151515" stroke-width="1.10802"/>
<path d="M47.7626 77.7187L52.6235 73.9443L53.5957 79.4343L47.7626 77.7187Z" fill="white"/>
<path d="M74.8701 77.7187L79.7309 73.9443L80.7031 79.4343L74.8701 77.7187Z" fill="white"/>
<path d="M52.4879 108.399C49.3125 105.516 47.5998 110.598 46.2983 118.361C44.6109 118.429 42.0438 119.494 45.2736 123.205C49.311 127.844 55.4488 127.781 57.7504 127.758C60.052 127.734 63.1409 122.178 60.9346 116.523C59.1695 111.998 55.0687 113.156 53.239 114.3C54.0471 113.294 55.0282 110.706 52.4879 108.399Z" fill="#151515"/>
<path d="M55.4985 117.553L54.1946 114.177C56.8905 112.459 64.1727 108.215 66.9471 108.302C69.7214 108.388 69.3454 110.792 68.5885 111.739C67.0077 113.718 55.4985 117.553 55.4985 117.553Z" fill="#151515" stroke="#151515" stroke-width="1.10802" stroke-linecap="round" stroke-linejoin="round"/>
<path d="M4.78963 111.462C5.43237 110.784 6.35645 110.533 7.20726 110.719L7.17439 108.944L4.78963 111.462Z" fill="#151515"/>
<path fill-rule="evenodd" clip-rule="evenodd" d="M6.11064 118.667C6.19022 118.221 6.49907 117.48 7.31273 116.414L7.20726 110.719C6.35645 110.533 5.43237 110.784 4.78963 111.462L4.78688 111.465C2.8038 113.562 1.41946 115.658 1.04384 117.763C0.617158 120.155 1.55679 122.141 3.24265 123.504C4.76001 124.731 6.83935 125.441 8.97653 125.883C11.171 126.337 13.7184 126.563 16.4097 126.635C27.1149 126.922 41.3291 124.78 48.2618 123.112C49.6436 122.78 50.4944 121.39 50.1621 120.008C49.8297 118.627 48.4401 117.776 47.0583 118.108C40.4372 119.7 26.6868 121.762 16.5473 121.49C14.0274 121.423 11.8086 121.213 10.0183 120.843C8.17072 120.461 7.04669 119.961 6.47852 119.502C6.07885 119.179 6.05077 119.003 6.11064 118.667Z" fill="#151515"/>
<path d="M116.453 111.859C122.629 111.859 121.371 137.536 121.257 150.975" stroke="#151515" stroke-width="8.31015"/>
<path d="M125.375 145.657C124.268 143.441 123.275 142.264 122.386 141.783C118.45 139.658 116.358 147.592 116.393 152.065C116.429 156.732 119.723 156.637 121.773 156.637C124.518 156.637 130.008 154.921 125.375 145.657Z" fill="#151515" stroke="#151515" stroke-width="1.10802"/>
<path d="M115.94 150.46C114.739 153.892 120.572 153.892 120.744 149.603" stroke="white" stroke-width="1.10802" stroke-linecap="round"/>
<path d="M119.799 34.6517C119.002 34.4687 118.377 34.0163 117.925 33.2944C117.473 32.5726 117.338 31.8133 117.521 31.0165C117.733 30.094 118.263 29.421 119.11 28.9977L121.064 27.9894C123.939 26.6189 126.253 25.3845 128.006 24.2862C132.473 21.5596 134.956 19.106 135.457 16.9255C135.919 14.9127 135.643 13.0393 134.629 11.3055C133.656 9.58122 131.765 8.39653 128.955 7.75139C127.488 7.41438 126.127 7.47713 124.873 7.93964C123.661 8.41179 122.396 9.11456 121.078 10.048C120.45 10.4776 119.716 10.5961 118.877 10.4035C118.081 10.2205 117.43 9.78427 116.927 9.09471C116.474 8.37283 116.349 7.5716 116.551 6.691C116.734 5.89426 117.48 5.05015 118.788 4.15868C120.158 3.19296 121.876 2.4397 123.942 1.89891C126.009 1.35812 128.133 1.33807 130.313 1.83878C133.081 2.47429 135.388 3.57791 137.234 5.14962C139.122 6.73097 140.422 8.66285 141.134 10.9453C141.846 13.2277 141.904 15.6688 141.307 18.2687C140.825 20.3654 140.024 22.1238 138.903 23.5439C137.783 24.9641 136.758 25.9649 135.83 26.5464C134.944 27.1375 133.536 27.9839 131.605 29.0857L124.682 32.992C122.307 34.3007 120.679 34.8539 119.799 34.6517ZM115.552 44.2051C114.588 43.9836 113.868 43.4652 113.393 42.6498C112.97 41.8021 112.874 40.8751 113.105 39.8687C113.345 38.8203 113.935 37.9845 114.872 37.3611C115.82 36.6957 116.776 36.4738 117.74 36.6952C118.663 36.9071 119.357 37.4417 119.822 38.299C120.297 39.1143 120.424 40.0042 120.202 40.9687C119.942 42.1009 119.343 42.9787 118.406 43.6021C117.51 44.2352 116.559 44.4361 115.552 44.2051Z" fill="black"/>
<path d="M101.999 33.8082C101.523 33.7569 101.129 33.5372 100.817 33.1489C100.504 32.7607 100.373 32.3288 100.425 31.8532C100.484 31.3025 100.745 30.8749 101.209 30.5704L102.274 29.8496C103.85 28.8548 105.109 27.9778 106.052 27.2185C108.459 25.3258 109.733 23.7286 109.874 22.427C110.003 21.2255 109.713 20.156 109.004 19.2185C108.32 18.2838 107.139 17.726 105.462 17.5451C104.586 17.4506 103.8 17.581 103.103 17.9363C102.431 18.2944 101.745 18.7901 101.044 19.4234C100.708 19.7164 100.29 19.8359 99.7894 19.7819C99.3138 19.7306 98.9058 19.522 98.5654 19.1561C98.2528 18.7679 98.1248 18.311 98.1815 17.7853C98.2328 17.3097 98.6078 16.7678 99.3065 16.1594C100.036 15.5037 100.982 14.9474 102.145 14.4905C103.309 14.0336 104.541 13.8753 105.843 14.0157C107.495 14.1939 108.912 14.6759 110.093 15.4617C111.299 16.2502 112.188 17.283 112.76 18.5601C113.331 19.8372 113.533 21.2517 113.365 22.8036C113.23 24.0551 112.886 25.1322 112.333 26.0348C111.78 26.9374 111.254 27.5896 110.755 27.9916C110.281 28.3963 109.521 28.9853 108.475 29.7588L104.722 32.5067C103.432 33.4311 102.525 33.8649 101.999 33.8082ZM100.191 39.6526C99.6153 39.5905 99.1613 39.339 98.829 38.898C98.5245 38.4346 98.4046 37.9026 98.4694 37.3019C98.5369 36.6761 98.8216 36.1497 99.3234 35.7227C99.828 35.2707 100.368 35.0757 100.944 35.1378C101.495 35.1972 101.935 35.4599 102.264 35.9259C102.596 36.3669 102.732 36.8753 102.669 37.451C102.597 38.1268 102.309 38.6783 101.807 39.1053C101.331 39.5349 100.792 39.7174 100.191 39.6526Z" fill="black"/>
<path d="M130.906 49.9314C130.499 49.6797 130.239 49.3113 130.124 48.8261C130.01 48.3409 130.079 47.8949 130.331 47.4881C130.622 47.0171 131.042 46.7443 131.592 46.6698L132.864 46.4799C134.715 46.2633 136.23 46.0163 137.408 45.7388C140.397 45.0714 142.235 44.1811 142.924 43.0678C143.56 42.0401 143.761 40.9504 143.526 39.7986C143.313 38.66 142.489 37.6469 141.054 36.7594C140.305 36.2958 139.539 36.0738 138.757 36.0933C137.997 36.1261 137.164 36.2766 136.258 36.545C135.828 36.6643 135.4 36.5915 134.972 36.3266C134.565 36.0749 134.287 35.7106 134.138 35.2335C134.024 34.7484 134.106 34.281 134.384 33.8314C134.636 33.4246 135.208 33.0977 136.101 32.8508C137.042 32.5744 138.135 32.4814 139.382 32.5718C140.629 32.6622 141.809 33.0518 142.922 33.7407C144.335 34.6149 145.405 35.6616 146.131 36.8806C146.878 38.1128 147.234 39.4282 147.197 40.8267C147.161 42.2253 146.732 43.5883 145.911 44.9157C145.248 45.9862 144.473 46.809 143.584 47.3841C142.695 47.9592 141.939 48.3202 141.315 48.4672C140.713 48.6274 139.773 48.8304 138.496 49.0764L133.924 49.9337C132.362 50.2103 131.356 50.2096 130.906 49.9314ZM126.751 54.4216C126.259 54.1169 125.958 53.694 125.849 53.1527C125.774 52.6033 125.896 52.0717 126.214 51.5578C126.545 51.0226 127.029 50.6708 127.666 50.5025C128.316 50.3127 128.888 50.3702 129.38 50.6748C129.851 50.9663 130.135 51.3933 130.231 51.956C130.34 52.4972 130.242 53.0141 129.937 53.5065C129.58 54.0845 129.082 54.4577 128.445 54.6261C127.83 54.8077 127.265 54.7395 126.751 54.4216Z" fill="black"/>
</svg>
