<svg width="152" height="171" viewBox="0 0 152 171" fill="none" xmlns="http://www.w3.org/2000/svg">
<path fill-rule="evenodd" clip-rule="evenodd" d="M56.414 160.139C56.414 159.799 56.4146 159.453 56.4158 159.104C56.4958 135.731 59.2328 114.384 61.3188 102.835L68.4402 104.121C66.4409 115.19 63.6504 137.182 63.6506 160.139L56.414 160.139Z" fill="#151515"/>
<path d="M56.414 160.139C56.414 159.799 56.4146 159.453 56.4158 159.104C47.7301 158.571 37.4629 160.525 37.1309 170.596H63.6506V160.139L56.414 160.139Z" fill="#151515"/>
<path fill-rule="evenodd" clip-rule="evenodd" d="M94.3868 160.237C94.3868 159.897 94.3862 159.552 94.385 159.202C94.305 135.829 91.568 114.12 89.482 102.571L82.3606 103.858C84.3599 114.926 87.1504 137.28 87.1502 160.237L94.3868 160.237Z" fill="#151515"/>
<path d="M94.3868 160.237C94.3868 159.897 94.3862 159.552 94.385 159.202C103.071 158.669 113.338 160.623 113.67 170.694H87.1502V160.237L94.3868 160.237Z" fill="#151515"/>
<path d="M17.5923 31.6519C17.5923 24.4579 23.4242 18.626 30.6183 18.626H119.991C127.185 18.626 133.017 24.4579 133.017 31.6519V91.7161C133.017 98.9101 127.185 104.742 119.991 104.742H119.862H119.733H119.605H119.477H119.349H119.221H119.093H118.966H118.839H118.712H118.585H118.459H118.333H118.206H118.081H117.955H117.829H117.704H117.579H117.454H117.329H117.205H117.081H116.957H116.833H116.709H116.586H116.462H116.339H116.216H116.094H115.971H115.849H115.727H115.605H115.483H115.361H115.24H115.119H114.998H114.877H114.756H114.636H114.516H114.396H114.276H114.156H114.037H113.917H113.798H113.679H113.56H113.442H113.323H113.205H113.087H112.969H112.851H112.734H112.616H112.499H112.382H112.265H112.148H112.032H111.916H111.799H111.683H111.567H111.452H111.336H111.221H111.106H110.991H110.876H110.761H110.646H110.532H110.418H110.304H110.19H110.076H109.962H109.849H109.736H109.623H109.51H109.397H109.284H109.172H109.059H108.947H108.835H108.723H108.611H108.5H108.388H108.277H108.166H108.055H107.944H107.833H107.722H107.612H107.502H107.391H107.281H107.171H107.062H106.952H106.843H106.733H106.624H106.515H106.406H106.297H106.189H106.08H105.972H105.863H105.755H105.647H105.539H105.431H105.324H105.216H105.109H105.002H104.895H104.788H104.681H104.574H104.467H104.361H104.254H104.148H104.042H103.936H103.83H103.724H103.618H103.513H103.407H103.302H103.197H103.092H102.987H102.882H102.777H102.672H102.568H102.463H102.359H102.255H102.151H102.047H101.943H101.839H101.735H101.631H101.528H101.425H101.321H101.218H101.115H101.012H100.909H100.806H100.703H100.601H100.498H100.396H100.293H100.191H100.089H99.987H99.885H99.7831H99.6813H99.5796H99.478H99.3765H99.275H99.1737H99.0724H98.9712H98.8701H98.7691H98.6681H98.5673H98.4665H98.3658H98.2652H98.1646H98.0642H97.9638H97.8635H97.7633H97.6631H97.563H97.463H97.3631H97.2632H97.1634H97.0637H96.9641H96.8645H96.765H96.6656H96.5662H96.4669H96.3676H96.2685H96.1694H96.0703H95.9713H95.8724H95.7736H95.6748H95.576H95.4774H95.3787H95.2802H95.1817H95.0832H94.9849H94.8865H94.7883H94.69H94.5919H94.4938H94.3957H94.2977H94.1997H94.1018H94.004H93.9061H93.8084H93.7107H93.613H93.5154H93.4178H93.3202H93.2228H93.1253H93.0279H92.9305H92.8332H92.7359H92.6387H92.5415H92.4443H92.3472H92.2501H92.153H92.056H91.959H91.8621H91.7651H91.6682H91.5714H91.4746H91.3778H91.281H91.1843H91.0876H90.9909H90.8942H90.7976H90.701H90.6044H90.5079H90.4113H90.3148H90.2183H90.1218H90.0254H89.929H89.8326H89.7362H89.6398H89.5435H89.4471H89.3508H89.2545H89.1582H89.0619H88.9656H88.8694H88.7731H88.6769H88.5807H88.4845H88.3883H88.2921H88.1959H88.0997H88.0035H87.9073H87.8111H87.715H87.6188H87.5227H87.4265H87.3303H87.2342H87.138H87.0418H86.9457H86.8495H86.7533H86.6572H86.561H86.4648H86.3686H86.2724H86.1762H86.08H85.9837H85.8875H85.7913H85.695H85.5987H85.5024H85.4062H85.3098H85.2135H85.1172H85.0208H84.9245H84.8281H84.7317H84.6352H84.5388H84.4423H84.3458H84.2493H84.1528H84.0562H83.9596H83.863H83.7664H83.6697H83.573H83.4763H83.3796H83.2828H83.186H83.0892H82.9923H82.8954H82.7985H82.7016H82.6046H82.5075H82.4105H82.3134H82.2162H82.1191H82.0219H81.9246H81.8273H81.73H81.6326H81.5352H81.4378H81.3403H81.2427H81.1451H81.0475H80.9498H80.8521H80.7543H80.6565H80.5587H80.4607H80.3628H80.2648H80.1667H80.0686H79.9704H79.8722H79.7739H79.6756H79.5772H79.4787H79.3802H79.2817H79.183H79.0844H78.9856H78.8868H78.7879H78.689H78.59H78.491H78.3919H78.2927H78.1934H78.0941H77.9948H77.8953H77.7958H77.6962H77.5965H77.4968H77.397H77.2972H77.1972H77.0972H76.9971H76.897H76.7967H76.6964H76.596H76.4955H76.395H76.2944H76.1937H76.0929H75.992H75.8911H75.79H75.6889H75.5877H75.4864H75.3851H75.2836H75.1821H75.0804H74.9787H74.8769H74.775H74.673H74.571H74.4688H74.3665H74.2642H74.1617H74.0592H73.9566H73.8538H73.751H73.6481H73.5451H73.4419H73.3387H73.2354H73.132H73.0284H72.9248H72.8211H72.7172H72.6133H72.5093H72.4051H72.3009H72.1965H72.092H71.9874H71.8828H71.778H71.673H71.568H71.4629H71.3576H71.2523H71.1468H71.0412H70.9355H70.8297H70.7238H70.6177H70.5115H70.4052H70.2988H70.1923H70.0856H69.9789H69.872H69.7649H69.6578H69.5505H69.4431H69.3356H69.228H69.1202H69.0123H68.9042H68.7961H68.6878H68.5794H68.4708H68.3621H68.2533H68.1443H68.0352H67.926H67.8166H67.7071H67.5975H67.4877H67.3778H67.2678H67.1576H67.0472H66.9367H66.8261H66.7154H66.6045H66.4934H66.3822C58.7093 104.742 51.3307 107.374 44.8261 111.379C42.332 112.915 39.6471 114.426 37.1426 115.553C34.6266 116.684 32.3368 117.406 30.6183 117.406C23.4242 117.406 17.5923 111.574 17.5923 104.38V31.6519ZM31.7037 26.9481C28.5064 26.9481 25.9144 29.5401 25.9144 32.7374V102.933C25.9144 106.13 28.5064 108.722 31.7037 108.722C31.9702 108.722 32.3082 108.65 32.6845 108.536C33.0681 108.421 33.5199 108.254 34.0245 108.047C35.034 107.633 36.2753 107.048 37.6412 106.362C40.3742 104.99 43.6272 103.204 46.564 101.545C51.9768 98.4861 58.0602 96.7817 64.2691 96.7817H118.905C122.103 96.7817 124.695 94.1898 124.695 90.9924V32.7374C124.695 29.5401 122.103 26.9481 118.905 26.9481H31.7037Z" fill="#485DF2" stroke="#151515" stroke-width="0.723664"/>
<path d="M96.1085 61.3232C93.6808 66.6182 87.1238 67.3456 84.1487 67.0475L82.7959 76.7072L82.7207 77.2439" stroke="#C4C4C4" stroke-width="1.44733" stroke-linecap="round"/>
<path d="M95.9281 60.5991C93.4676 65.9542 86.822 66.69 83.8067 66.3884L82.4356 76.1579L82.3594 76.7006" stroke="#151515" stroke-width="0.723664" stroke-linecap="round"/>
<path d="M29.5314 63.1318C31.3685 68.4268 36.3306 69.1542 38.582 68.8561" stroke="#C3C3C3" stroke-width="1.44733" stroke-linecap="round"/>
<path d="M29.8921 62.4082C31.7293 67.7031 36.6914 68.4306 38.9428 68.1325L40.0234 78.3288" stroke="#151515" stroke-width="0.723664" stroke-linecap="round"/>
<path d="M62.7505 31.1539C65.0961 31.3994 66.6735 31.1131 67.8618 30.3171C68.4455 29.9262 68.8666 29.4568 69.2037 29.0178C69.3687 28.803 69.5214 28.5847 69.6556 28.3928L69.6612 28.3847C69.7986 28.1883 69.919 28.0161 70.0464 27.8478C70.5076 27.2381 71.05 26.6827 72.2328 26.3201C73.4986 25.932 75.5508 25.7513 79.0465 26.159C79.7929 26.2461 80.4628 25.658 80.5428 24.8456C80.6228 24.0331 80.0825 23.3039 79.3361 23.2169C75.6959 22.7924 73.2456 22.9354 71.4957 23.472C69.6627 24.034 68.676 25.0044 67.9479 25.9667C67.7867 26.1798 67.6385 26.3918 67.5093 26.5766L67.4924 26.6007C67.3539 26.7989 67.2372 26.9649 67.118 27.12C66.8871 27.4207 66.6816 27.6333 66.4371 27.7971C65.9688 28.1108 65.0826 28.4254 63.0107 28.2085C62.5709 28.188 61.5554 28.1839 61.0117 28.3319L61.6915 31.2909C61.7696 31.205 62.0645 31.0625 62.6385 31.1371C62.6747 31.1418 62.712 31.1474 62.7505 31.1539Z" fill="#C3C3C3"/>
<path d="M53.8674 30.9781L53.5584 30.8672L51.5351 30.1209C44.5553 28.0141 41.1133 31.3226 40.4785 32.9885C40.2302 33.6401 39.4586 33.9818 38.7551 33.7519C38.0516 33.5219 37.6826 32.8073 37.9309 32.1557C39.117 29.0429 44.0537 25.3949 52.0358 27.6472L52.0374 27.6394C52.089 27.6554 52.1686 27.681 52.2708 27.715C53.1353 27.9696 54.0349 28.2931 54.9688 28.6935C55.0675 28.7358 55.1581 28.7878 55.2398 28.8476C55.3593 28.9013 55.4743 28.9548 55.5833 29.0077V30.4347V31.5879C55.0283 31.3937 54.5388 31.2189 53.9625 31.0123C53.9306 31.0021 53.8989 30.9907 53.8674 30.9781Z" fill="#C3C3C3"/>
<path d="M54.0887 30.6786L53.7545 30.5561L51.566 29.7312C44.0165 27.4026 40.2935 31.0594 39.6068 32.9006C39.3383 33.6208 38.5037 33.9985 37.7428 33.7444C36.9819 33.4902 36.5827 32.7003 36.8513 31.9801C38.1342 28.5397 43.4739 24.5078 52.1076 26.9971L52.1093 26.9885C52.1651 27.0061 52.2513 27.0345 52.3617 27.072C53.2968 27.3534 54.2699 27.711 55.2801 28.1535C55.3868 28.2003 55.4848 28.2577 55.5732 28.3239C55.7024 28.3832 55.8268 28.4423 55.9447 28.5008V30.078V31.3526C55.3444 31.138 54.8149 30.9448 54.1916 30.7164C54.1571 30.7051 54.1228 30.6925 54.0887 30.6786Z" fill="#151515"/>
<path fill-rule="evenodd" clip-rule="evenodd" d="M37.0224 32.3087C38.2572 28.8099 43.4407 24.6254 51.9118 27.2061L52.1051 27.265L52.1053 27.2639L52.1552 27.2817L52.1583 27.2828L52.1614 27.2838C53.0801 27.5759 54.0369 27.9474 55.0311 28.4076C55.1238 28.4506 55.2088 28.5032 55.2853 28.5637L55.3007 28.5759L55.3185 28.5845C55.41 28.6289 55.4989 28.6731 55.5845 28.7169V31.3298C55.4753 31.2883 55.3678 31.2474 55.2609 31.2065L55.2865 31.6035C55.4223 31.6553 55.5599 31.7075 55.7015 31.761L55.9463 31.8534V29.4818V28.4974L55.8494 28.4466C55.736 28.3872 55.6169 28.3273 55.4937 28.2673C55.3992 28.1946 55.2954 28.1313 55.1831 28.0793C54.1771 27.6136 53.2072 27.2368 52.2742 26.94C52.1657 26.9011 52.08 26.8713 52.0234 26.8524L51.8266 26.7868L51.8238 26.802C43.3029 24.2935 37.9783 28.5131 36.6812 32.1883C36.5674 32.5106 36.5611 32.8448 36.6437 33.1517L36.9497 33.1002C36.8953 32.8714 36.9383 32.547 37.0224 32.3087Z" fill="white"/>
<path d="M62.3202 30.2524C64.8179 30.4926 66.4975 30.2124 67.7628 29.4338C68.3844 29.0513 68.8327 28.5922 69.1918 28.1627C69.3674 27.9526 69.53 27.739 69.6729 27.5512L69.6789 27.5434C69.8252 27.3512 69.9534 27.1828 70.089 27.0181C70.5801 26.4217 71.1577 25.8784 72.4171 25.5236C73.765 25.1439 75.9502 24.9672 79.6725 25.3661C80.4673 25.4512 81.1807 24.8759 81.2658 24.0811C81.351 23.2864 80.7757 22.573 79.9809 22.4879C76.1047 22.0726 73.4956 22.2125 71.6323 22.7374C69.6804 23.2872 68.6298 24.2365 67.8545 25.1779C67.6829 25.3863 67.525 25.5938 67.3875 25.7745L67.3695 25.7981C67.222 25.992 67.0977 26.1544 66.9709 26.3061C66.725 26.6003 66.5062 26.8083 66.2458 26.9685C65.7471 27.2754 64.8035 27.5832 62.5973 27.371C62.129 27.3509 61.0477 27.3469 60.4688 27.4917L61.1926 30.3864C61.2757 30.3023 61.5897 30.163 62.201 30.236C62.2396 30.2406 62.2793 30.246 62.3202 30.2524Z" fill="#151515"/>
<path fill-rule="evenodd" clip-rule="evenodd" d="M79.9989 22.3078C76.1131 21.8914 73.4775 22.0291 71.5819 22.563C69.5867 23.1251 68.5066 24.0998 67.7136 25.0627C67.5397 25.2738 67.3801 25.4835 67.243 25.6637L67.2422 25.6647L67.2243 25.6883C67.0764 25.8826 66.9545 26.0418 66.8308 26.1899C66.5919 26.4756 66.3875 26.6679 66.1496 26.8142C65.6989 27.0916 64.8012 27.4011 62.6133 27.1907L62.6086 27.1902L62.6038 27.19C62.3654 27.1798 61.9731 27.1737 61.5667 27.1885C61.1636 27.2032 60.7325 27.2387 60.4236 27.3159L60.248 27.3598L61.0938 30.7419L61.3199 30.5134C61.3199 30.5134 61.3242 30.5095 61.3331 30.5035C61.3426 30.4973 61.3563 30.4894 61.3747 30.4808L61.3105 30.1169L60.6886 27.6301C60.9417 27.5863 61.2606 27.5617 61.5798 27.5501C61.9731 27.5358 62.3531 27.5416 62.5835 27.5513C64.8046 27.7644 65.7932 27.4584 66.3393 27.1224C66.6223 26.9482 66.8554 26.7245 67.1084 26.4219C67.2383 26.2665 67.365 26.1009 67.5122 25.9075L67.5302 25.8838C67.6679 25.7028 67.8238 25.498 67.9929 25.2927C68.7504 24.3728 69.7715 23.4489 71.68 22.9113C73.5112 22.3955 76.0938 22.2533 79.9603 22.6675C80.6558 22.742 81.1591 23.3662 81.0846 24.0616C81.0384 24.4935 80.9051 24.9482 80.5495 25.1395C80.9911 24.8898 81.3862 24.6431 81.4444 24.1002C81.5402 23.2061 80.893 22.4036 79.9989 22.3078Z" fill="white"/>
<path d="M55.4023 28.939C55.4023 32.1955 55.4412 35.85 58.1911 31.6527" stroke="#151515" stroke-width="0.542748" stroke-linecap="round"/>
<path d="M60.6494 27.853C63.0013 34.366 58.207 36.3561 58.207 30.7477" stroke="#151515" stroke-width="0.542748" stroke-linecap="round"/>
<path d="M81.8349 83.7565C76.8296 90.1489 66.7646 98.9294 57.7731 92.0787C57.3839 91.7821 57.0212 91.4608 56.6872 91.1201M55.9639 81.2237C53.0408 83.6594 53.7618 88.1355 56.6872 91.1201M56.6872 91.1201C46.7369 97.1443 42.9376 89.9077 42.5758 88.0985C42.214 86.2894 41.1285 82.4901 45.6514 79.4146" stroke="black" stroke-width="0.723664" stroke-linecap="round"/>
<ellipse cx="47.6251" cy="85.0229" rx="2.89466" ry="3.79924" fill="#E7E4E4"/>
<ellipse cx="61.3742" cy="85.2038" rx="3.61832" ry="4.70382" fill="#E7E4E4"/>
<path d="M66.4654 68.8701C64.8447 64.6461 57.9877 61.1674 54.7463 66.7579C52.5022 62.9066 46.518 63.5277 45.5206 68.6216C45.1466 71.1062 46.393 71.1063 47.64 70.7335M66.4654 68.8701C69.8312 75.206 46.767 81.4178 47.64 70.7335M66.4654 68.8701C60.9181 67.5763 59.3929 72.9639 55.12 70.9054M47.64 70.7335C48.887 70.3607 51.8949 68.9027 54.372 70.4851C54.6308 70.6504 54.8798 70.7897 55.12 70.9054M55.12 70.9054C54.8707 70.9724 54.3221 71.2802 54.1226 71.9759" stroke="black" stroke-width="0.723664" stroke-linecap="round" stroke-linejoin="round"/>
<path d="M47.4434 67.1121C47.8655 66.509 49.2163 65.4115 51.2426 65.8457" stroke="#D2D2D2" stroke-width="0.723664" stroke-linecap="round"/>
<path d="M56.127 66.5692C56.4285 65.9058 59.0216 64.0365 61.1926 65.4838" stroke="#D2D2D2" stroke-width="0.723664" stroke-linecap="round"/>
<path d="M62.0977 65.8457L63.0022 66.3885" stroke="#D2D2D2" stroke-width="0.723664" stroke-linecap="round"/>
<path d="M51.2422 74.8914C52.5086 75.4341 55.9822 75.8683 59.0216 74.7104" stroke="#D2D2D2" stroke-width="0.723664" stroke-linecap="round"/>
<path d="M58.479 71.4541C58.2898 71.6953 57.9683 72.3225 58.1953 72.9014" stroke="black" stroke-width="0.723664" stroke-linecap="round" stroke-linejoin="round"/>
<rect x="60.6489" y="37.8037" width="29.6702" height="11.2168" rx="5.6084" stroke="#151515" stroke-width="0.723664"/>
<mask id="mask0_1111_281" style="mask-type:alpha" maskUnits="userSpaceOnUse" x="60" y="37" width="31" height="13">
<rect x="60.2871" y="37.4419" width="30.3939" height="11.9405" rx="5.97023" fill="#D9D9D9"/>
</mask>
<g mask="url(#mask0_1111_281)">
<path d="M79.3194 43.4556C79.3141 43.8377 79.2981 44.2313 79.2709 44.636C79.2027 45.651 79.0708 46.5737 78.8871 47.4051C77.0528 55.7057 70.0546 54.8914 69.7086 45.7355C69.6778 44.9194 69.6998 44.0369 69.783 43.0888C70.7009 32.6338 77.1357 32.2846 78.884 39.282L75.1052 42.2161L79.3194 43.4556Z" fill="#151515" stroke="#151515" stroke-width="0.723664"/>
</g>
<rect x="29.5318" y="37.8037" width="29.6702" height="11.2168" rx="5.6084" stroke="#151515" stroke-width="0.723664"/>
<mask id="mask1_1111_281" style="mask-type:alpha" maskUnits="userSpaceOnUse" x="29" y="37" width="31" height="13">
<rect x="29.1699" y="37.4419" width="30.3939" height="11.9405" rx="5.97023" fill="#D9D9D9"/>
</mask>
<g mask="url(#mask1_1111_281)">
<path d="M48.4908 39.9874C46.042 31.894 39.0009 34.8241 39.7146 45.4387C39.7828 46.4537 39.9147 47.3765 40.0984 48.2078C41.9327 56.5084 48.9309 55.6941 49.2769 46.5382C49.3035 45.8334 49.2908 45.0792 49.2331 44.2758L44.6891 42.9393L48.4908 39.9874Z" fill="#151515" stroke="#151515" stroke-width="0.723664"/>
</g>
<path d="M6.57695 67.6693C6.64326 67.6373 6.71748 67.6094 6.79847 67.5874C7.49558 67.2564 8.30057 66.1723 7.57122 63.7821C8.57324 66.0714 9.89016 66.3705 10.6348 66.168C10.7106 66.132 10.7852 66.1049 10.8563 66.0861C10.79 66.118 10.7158 66.146 10.6348 66.168C9.93771 66.4989 9.13266 67.5829 9.86201 69.9731C8.85999 67.6838 7.54312 67.3848 6.79847 67.5874C6.72265 67.6234 6.6481 67.6504 6.57695 67.6693Z" fill="#FFEF9B"/>
<path d="M6.57695 67.6693C6.64326 67.6373 6.71748 67.6094 6.79847 67.5874C7.49558 67.2564 8.30057 66.1723 7.57122 63.7821C8.57324 66.0714 9.89016 66.3705 10.6348 66.168C10.7106 66.132 10.7852 66.1049 10.8563 66.0861C10.79 66.118 10.7158 66.146 10.6348 66.168C9.93771 66.4989 9.13266 67.5829 9.86201 69.9731C8.85999 67.6838 7.54312 67.3848 6.79847 67.5874C6.72265 67.6234 6.6481 67.6504 6.57695 67.6693Z" fill="#FFEF9B"/>
<path d="M6.57695 67.6693C6.64326 67.6373 6.71748 67.6094 6.79847 67.5874C7.49558 67.2564 8.30057 66.1723 7.57122 63.7821C8.57324 66.0714 9.89016 66.3705 10.6348 66.168C10.7106 66.132 10.7852 66.1049 10.8563 66.0861C10.79 66.118 10.7158 66.146 10.6348 66.168C9.93771 66.4989 9.13266 67.5829 9.86201 69.9731C8.85999 67.6838 7.54312 67.3848 6.79847 67.5874C6.72265 67.6234 6.6481 67.6504 6.57695 67.6693Z" stroke="#151515" stroke-width="0.723664" stroke-linejoin="round"/>
<path d="M5.5436 77.3351C5.66925 77.2745 5.80988 77.2216 5.96333 77.1798C7.28423 76.553 8.81023 74.501 7.43088 69.979C9.32687 74.3098 11.8213 74.8744 13.2322 74.4905C13.3759 74.4224 13.5171 74.3711 13.6519 74.3353C13.5263 74.3958 13.3856 74.4488 13.2322 74.4905C11.9113 75.1173 10.3852 77.1691 11.7645 81.691C9.86853 77.3602 7.37416 76.7959 5.96333 77.1798C5.81966 77.248 5.67841 77.2993 5.5436 77.3351Z" fill="#FFEF9B"/>
<path d="M5.5436 77.3351C5.66925 77.2745 5.80988 77.2216 5.96333 77.1798C7.28423 76.553 8.81023 74.501 7.43088 69.979C9.32687 74.3098 11.8213 74.8744 13.2322 74.4905C13.3759 74.4224 13.5171 74.3711 13.6519 74.3353C13.5263 74.3958 13.3856 74.4488 13.2322 74.4905C11.9113 75.1173 10.3852 77.1691 11.7645 81.691C9.86853 77.3602 7.37416 76.7959 5.96333 77.1798C5.81966 77.248 5.67841 77.2993 5.5436 77.3351Z" fill="#FFEF9B"/>
<path d="M5.5436 77.3351C5.66925 77.2745 5.80988 77.2216 5.96333 77.1798C7.28423 76.553 8.81023 74.501 7.43088 69.979C9.32687 74.3098 11.8213 74.8744 13.2322 74.4905C13.3759 74.4224 13.5171 74.3711 13.6519 74.3353C13.5263 74.3958 13.3856 74.4488 13.2322 74.4905C11.9113 75.1173 10.3852 77.1691 11.7645 81.691C9.86853 77.3602 7.37416 76.7959 5.96333 77.1798C5.81966 77.248 5.67841 77.2993 5.5436 77.3351Z" stroke="#151515" stroke-width="0.723664" stroke-linejoin="round"/>
<path d="M102.01 6.27766C102.12 6.29031 102.237 6.31444 102.358 6.35158C103.512 6.49121 105.41 5.75839 106.405 2.12697C105.839 5.84938 107.275 7.29031 108.387 7.63179C108.512 7.64698 108.629 7.67249 108.735 7.70572C108.625 7.69307 108.508 7.66893 108.387 7.63179C107.233 7.49211 105.335 8.2247 104.34 11.8561C104.906 8.13371 103.47 6.69301 102.358 6.35158C102.233 6.33639 102.116 6.31089 102.01 6.27766Z" fill="#FFEF9B"/>
<path d="M102.01 6.27766C102.12 6.29031 102.237 6.31444 102.358 6.35158C103.512 6.49121 105.41 5.75839 106.405 2.12697C105.839 5.84938 107.275 7.29031 108.387 7.63179C108.512 7.64698 108.629 7.67249 108.735 7.70572C108.625 7.69307 108.508 7.66893 108.387 7.63179C107.233 7.49211 105.335 8.2247 104.34 11.8561C104.906 8.13371 103.47 6.69301 102.358 6.35158C102.233 6.33639 102.116 6.31089 102.01 6.27766Z" fill="#FFEF9B"/>
<path d="M102.01 6.27766C102.12 6.29031 102.237 6.31444 102.358 6.35158C103.512 6.49121 105.41 5.75839 106.405 2.12697C105.839 5.84938 107.275 7.29031 108.387 7.63179C108.512 7.64698 108.629 7.67249 108.735 7.70572C108.625 7.69307 108.508 7.66893 108.387 7.63179C107.233 7.49211 105.335 8.2247 104.34 11.8561C104.906 8.13371 103.47 6.69301 102.358 6.35158C102.233 6.33639 102.116 6.31089 102.01 6.27766Z" stroke="#151515" stroke-width="0.723664" stroke-linejoin="round"/>
<path d="M92.915 17.7568C93.1238 17.7808 93.3455 17.8265 93.5746 17.8969C95.7615 18.1617 99.3568 16.7764 101.24 9.90683C100.169 16.9488 102.891 19.6758 104.997 20.3225C105.235 20.3513 105.456 20.3997 105.657 20.4626C105.448 20.4386 105.226 20.3929 104.997 20.3225C102.81 20.0576 99.2151 21.4424 97.3321 28.312C98.4033 21.27 95.6805 18.5435 93.5746 17.8969C93.3367 17.8681 93.1155 17.8197 92.915 17.7568Z" fill="#FFEF9B"/>
<path d="M92.915 17.7568C93.1238 17.7808 93.3455 17.8265 93.5746 17.8969C95.7615 18.1617 99.3568 16.7764 101.24 9.90683C100.169 16.9488 102.891 19.6758 104.997 20.3225C105.235 20.3513 105.456 20.3997 105.657 20.4626C105.448 20.4386 105.226 20.3929 104.997 20.3225C102.81 20.0576 99.2151 21.4424 97.3321 28.312C98.4033 21.27 95.6805 18.5435 93.5746 17.8969C93.3367 17.8681 93.1155 17.8197 92.915 17.7568Z" fill="#FFEF9B"/>
<path d="M92.915 17.7568C93.1238 17.7808 93.3455 17.8265 93.5746 17.8969C95.7615 18.1617 99.3568 16.7764 101.24 9.90683C100.169 16.9488 102.891 19.6758 104.997 20.3225C105.235 20.3513 105.456 20.3997 105.657 20.4626C105.448 20.4386 105.226 20.3929 104.997 20.3225C102.81 20.0576 99.2151 21.4424 97.3321 28.312C98.4033 21.27 95.6805 18.5435 93.5746 17.8969C93.3367 17.8681 93.1155 17.8197 92.915 17.7568Z" stroke="#151515" stroke-width="0.723664" stroke-linejoin="round"/>
<path fill-rule="evenodd" clip-rule="evenodd" d="M34.3526 106.616C23.3199 109.06 16.6758 105.156 14.3049 100.909C13.099 98.7492 12.8882 96.3933 13.6482 94.2844C14.2382 92.6471 15.4762 90.9921 17.5915 89.6464L17.4098 83.6211C12.9012 85.5904 9.87915 88.7344 8.54215 92.4443C7.20968 96.1417 7.65344 100.129 9.56583 103.555C13.4315 110.479 22.879 114.717 35.5266 111.915L34.3526 106.616Z" fill="#151515"/>
<path d="M41.8392 95.8465C38.4906 92.8061 36.6845 98.1648 35.312 106.351C33.5327 106.423 30.8255 107.546 34.2315 111.46C38.489 116.352 44.9615 116.285 47.3886 116.261C49.8157 116.236 53.0731 110.377 50.7464 104.413C48.8851 99.642 44.5607 100.862 42.6312 102.069C43.4833 101.008 44.518 98.2788 41.8392 95.8465Z" fill="#151515"/>
<path d="M45.0139 105.499L43.6389 101.939C46.4817 100.127 54.1611 95.6526 57.0867 95.7436C60.0123 95.8346 59.6159 98.3691 58.8176 99.3685C57.1507 101.455 45.0139 105.499 45.0139 105.499Z" fill="#151515" stroke="#151515" stroke-width="0.723664" stroke-linecap="round" stroke-linejoin="round"/>
<path fill-rule="evenodd" clip-rule="evenodd" d="M133.017 84.2987L133.017 78.3285C137.18 80.0881 139.601 81.3957 142.337 83.0747C144.393 84.3361 146.119 85.6241 147.369 86.9313C148.561 88.1766 149.668 89.8007 149.709 91.7165C149.756 93.8796 148.461 95.45 146.906 96.4405C145.411 97.3929 143.388 98.0296 141.025 98.4664C136.254 99.3483 129.147 99.5762 119.521 99.0488L119.818 93.6294C129.313 94.1497 135.908 93.8928 140.039 93.1293C142.127 92.7434 143.355 92.2673 143.99 91.8633C144.091 91.7985 144.166 91.7442 144.22 91.7009C144.133 91.5215 143.927 91.1846 143.448 90.6832C142.646 89.8458 141.353 88.8385 139.499 87.7007C137.072 86.2118 136.94 85.9618 133.017 84.2987ZM144.348 91.5736C144.347 91.5736 144.339 91.5825 144.329 91.6006C144.345 91.5828 144.35 91.5737 144.348 91.5736Z" fill="#151515"/>
<path d="M114.755 82.3392C118.445 79.7238 119.594 85.2609 119.971 93.5528C121.729 93.8386 124.281 95.2791 120.429 98.7544C115.614 103.099 109.196 102.254 106.79 101.937C104.383 101.62 101.855 95.412 104.882 89.7717C107.304 85.2593 111.45 86.9911 113.22 88.421C112.502 87.2655 111.803 84.4315 114.755 82.3392Z" fill="#151515"/>
<path d="M117.12 93.392C116.139 90.9235 112.963 85.794 107.891 86.6281" stroke="white" stroke-width="0.723664" stroke-linecap="round"/>
</svg>
