<svg width="46" height="45" viewBox="0 0 46 45" fill="none" xmlns="http://www.w3.org/2000/svg">
<path d="M44.784 22.5C44.784 34.765 34.8412 44.7078 22.5762 44.7078C10.3111 44.7078 0.36838 34.765 0.36838 22.5C0.36838 10.235 10.3111 0.292208 22.5762 0.292208C34.8412 0.292208 44.784 10.235 44.784 22.5Z" fill="#E66549" stroke="#141414" stroke-width="0.584416"/>
<path d="M34.1603 17.1645C34.1571 17.3927 34.1475 17.6277 34.1313 17.8693C34.0906 18.4753 34.0118 19.0263 33.9021 19.5226C32.8069 24.4787 28.6285 23.9924 28.422 18.5258C28.4035 18.0385 28.4167 17.5116 28.4664 16.9455C29.0144 10.7032 32.8565 10.4947 33.9003 14.6726L31.6441 16.4245L34.1603 17.1645Z" fill="#151515"/>
<path d="M19.694 14.662C18.2319 9.82967 14.0279 11.5791 14.454 17.9168C14.4947 18.5228 14.5735 19.0737 14.6832 19.5701C15.7784 24.5261 19.9568 24.0399 20.1633 18.5732C20.1792 18.1524 20.1716 17.7021 20.1372 17.2224L17.4241 16.4245L19.694 14.662Z" fill="#151515"/>
<path d="M34.1603 17.1645C34.1571 17.3927 34.1475 17.6277 34.1313 17.8693C34.0906 18.4753 34.0118 19.0263 33.9021 19.5226C32.8069 24.4787 28.6285 23.9924 28.422 18.5258C28.4035 18.0385 28.4167 17.5116 28.4664 16.9455C29.0144 10.7032 32.8565 10.4947 33.9003 14.6726L31.6441 16.4245L34.1603 17.1645Z" stroke="#151515" stroke-width="0.584416"/>
<path d="M19.694 14.662C18.2319 9.82967 14.0279 11.5791 14.454 17.9168C14.4947 18.5228 14.5735 19.0737 14.6832 19.5701C15.7784 24.5261 19.9568 24.0399 20.1633 18.5732C20.1792 18.1524 20.1716 17.7021 20.1372 17.2224L17.4241 16.4245L19.694 14.662Z" stroke="#151515" stroke-width="0.584416"/>
<path d="M21.222 7.98381C21.0095 7.51499 20.5564 7.0951 19.9827 6.74734C19.4054 6.39732 18.6874 6.10911 17.9172 5.91226C16.3826 5.52008 14.6006 5.48113 13.2755 6.08175C13.206 6.11324 13.1639 6.18509 13.1705 6.26108C13.177 6.33708 13.2307 6.40071 13.3045 6.4199C15.922 7.1004 17.8143 7.98019 18.9886 8.63521C19.5046 8.923 20.1564 9.15515 20.6413 9.16978C20.8771 9.1769 21.1286 9.1341 21.2804 8.95559C21.4415 8.76602 21.4301 8.50004 21.3175 8.21018C21.2896 8.13841 21.2579 8.06303 21.222 7.98381Z" fill="#151515"/>
<path d="M35.4102 5.12241C34.0339 4.65065 32.2637 4.85903 30.7734 5.39549C30.0254 5.66476 29.3381 6.02 28.7967 6.42339C28.2588 6.82417 27.8477 7.28528 27.6808 7.7722C27.6526 7.85447 27.6282 7.93254 27.6072 8.00663C27.5227 8.30589 27.5367 8.57175 27.7151 8.74512C27.8832 8.90837 28.1376 8.92704 28.3717 8.89752C28.853 8.83679 29.4798 8.54366 29.966 8.20806C31.0726 7.44425 32.8726 6.38834 35.4135 5.46179C35.4851 5.43566 35.5325 5.3672 35.5318 5.29093C35.531 5.21466 35.4823 5.14714 35.4102 5.12241Z" fill="#151515"/>
<path d="M37.123 31.2759C32.263 28.3959 19.033 26.6859 11.923 31.2759" stroke="black" stroke-width="0.584416" stroke-linecap="round"/>
<path d="M36.8816 29.7437C37.3916 30.5237 37.8536 32.0657 35.6216 31.9937" stroke="black" stroke-width="0.584416" stroke-linecap="round"/>
<path d="M13.4899 31.805C12.5616 31.8873 10.9838 31.5683 12.0989 29.6335" stroke="black" stroke-width="0.584416" stroke-linecap="round"/>
</svg>
