<svg width="50" height="50" viewBox="0 0 50 50" fill="none" xmlns="http://www.w3.org/2000/svg">
<mask id="path-1-inside-1_1342_239" fill="white">
<path fill-rule="evenodd" clip-rule="evenodd" d="M25 50C38.8071 50 50 38.8071 50 25C50 11.1929 38.8071 0 25 0C11.1929 0 0 11.1929 0 25C0 38.8071 11.1929 50 25 50Z"/>
</mask>
<path fill-rule="evenodd" clip-rule="evenodd" d="M25 50C38.8071 50 50 38.8071 50 25C50 11.1929 38.8071 0 25 0C11.1929 0 0 11.1929 0 25C0 38.8071 11.1929 50 25 50Z" fill="#63635E"/>
<path d="M49.4156 25C49.4156 38.4844 38.4844 49.4156 25 49.4156V50.5844C39.1299 50.5844 50.5844 39.1299 50.5844 25H49.4156ZM25 0.584416C38.4844 0.584416 49.4156 11.5156 49.4156 25H50.5844C50.5844 10.8701 39.1299 -0.584416 25 -0.584416V0.584416ZM0.584416 25C0.584416 11.5156 11.5156 0.584416 25 0.584416V-0.584416C10.8701 -0.584416 -0.584416 10.8701 -0.584416 25H0.584416ZM25 49.4156C11.5156 49.4156 0.584416 38.4844 0.584416 25H-0.584416C-0.584416 39.1299 10.8701 50.5844 25 50.5844V49.4156Z" fill="#141414" mask="url(#path-1-inside-1_1342_239)"/>
<path fill-rule="evenodd" clip-rule="evenodd" d="M20.7305 7.49529C20.2643 7.16395 19.5945 7.01412 18.8493 7.00096C18.0992 6.98771 17.2487 7.1124 16.399 7.35408C14.7063 7.83558 12.9735 8.79458 12.037 10.1122C11.9879 10.1813 11.9877 10.2738 12.0364 10.3431C12.0852 10.4124 12.1723 10.4435 12.2539 10.4206C15.1477 9.61047 17.4566 9.39715 18.9503 9.36948C19.6067 9.35732 20.3623 9.21579 20.8361 8.95867C21.0665 8.83367 21.284 8.65194 21.3299 8.39569C21.3787 8.12357 21.219 7.87457 20.9488 7.65921C20.8819 7.60589 20.8092 7.55127 20.7305 7.49529ZM38.3803 9.99933C37.4061 8.70939 35.6462 7.80096 33.9402 7.36867C33.0839 7.15169 32.2302 7.05167 31.4808 7.08663C30.7363 7.12136 30.0711 7.29052 29.6147 7.63522C29.5376 7.69345 29.4665 7.75016 29.4012 7.80539C29.1374 8.02848 28.985 8.282 29.0416 8.5526C29.0949 8.80741 29.3176 8.98277 29.5515 9.10104C30.0326 9.34433 30.792 9.46393 31.4484 9.45708C32.9423 9.4415 35.2564 9.58788 38.1724 10.3139C38.2546 10.3344 38.3408 10.3008 38.3876 10.2301C38.4343 10.1594 38.4314 10.067 38.3803 9.99933Z" fill="#151515"/>
<path d="M35.7966 20.8224C35.793 21.0759 35.7824 21.337 35.7644 21.6055C35.7191 22.2788 35.6316 22.891 35.5097 23.4425C34.2929 28.9492 29.6502 28.409 29.4207 22.3349C29.4002 21.7935 29.4148 21.2081 29.47 20.5791C30.079 13.6431 34.3479 13.4114 35.5077 18.0536L33.0008 20.0001L35.7966 20.8224Z" fill="#151515"/>
<path d="M19.7229 18.0418C18.0983 12.6726 13.4273 14.6164 13.9007 21.6582C13.946 22.3316 14.0335 22.9437 14.1554 23.4952C15.3722 29.002 20.0149 28.4617 20.2444 22.3876C20.2621 21.9201 20.2536 21.4197 20.2154 20.8867L17.2008 20.0001L19.7229 18.0418Z" fill="#151515"/>
<path d="M35.7966 20.8224C35.793 21.0759 35.7824 21.337 35.7644 21.6055C35.7191 22.2788 35.6316 22.891 35.5097 23.4425C34.2929 28.9492 29.6502 28.409 29.4207 22.3349C29.4002 21.7935 29.4148 21.2081 29.47 20.5791C30.079 13.6431 34.3479 13.4114 35.5077 18.0536L33.0008 20.0001L35.7966 20.8224Z" stroke="#151515" stroke-width="0.584416"/>
<path d="M19.7229 18.0418C18.0983 12.6726 13.4273 14.6164 13.9007 21.6582C13.946 22.3316 14.0335 22.9437 14.1554 23.4952C15.3722 29.002 20.0149 28.4617 20.2444 22.3876C20.2621 21.9201 20.2536 21.4197 20.2154 20.8867L17.2008 20.0001L19.7229 18.0418Z" stroke="#151515" stroke-width="0.584416"/>
</svg>
