<svg width="46" height="51" viewBox="0 0 46 51" fill="none" xmlns="http://www.w3.org/2000/svg">
<mask id="path-1-inside-1_1111_489" fill="white">
<path fill-rule="evenodd" clip-rule="evenodd" d="M22.5762 50.0908C35.0026 50.0908 45.0762 40.0172 45.0762 27.5908C45.0762 15.1644 35.0026 5.09082 22.5762 5.09082C10.1498 5.09082 0.0761719 15.1644 0.0761719 27.5908C0.0761719 40.0172 10.1498 50.0908 22.5762 50.0908Z"/>
</mask>
<path fill-rule="evenodd" clip-rule="evenodd" d="M22.5762 50.0908C35.0026 50.0908 45.0762 40.0172 45.0762 27.5908C45.0762 15.1644 35.0026 5.09082 22.5762 5.09082C10.1498 5.09082 0.0761719 15.1644 0.0761719 27.5908C0.0761719 40.0172 10.1498 50.0908 22.5762 50.0908Z" fill="#30D89B"/>
<path d="M44.5047 27.5908C44.5047 39.7016 34.687 49.5194 22.5762 49.5194V50.6623C35.3182 50.6623 45.6476 40.3328 45.6476 27.5908H44.5047ZM22.5762 5.66225C34.687 5.66225 44.5047 15.48 44.5047 27.5908H45.6476C45.6476 14.8488 35.3182 4.51939 22.5762 4.51939V5.66225ZM0.6476 27.5908C0.6476 15.48 10.4654 5.66225 22.5762 5.66225V4.51939C9.83418 4.51939 -0.495257 14.8488 -0.495257 27.5908H0.6476ZM22.5762 49.5194C10.4654 49.5194 0.6476 39.7016 0.6476 27.5908H-0.495257C-0.495257 40.3328 9.83418 50.6623 22.5762 50.6623V49.5194Z" fill="#141414" mask="url(#path-1-inside-1_1111_489)"/>
<path fill-rule="evenodd" clip-rule="evenodd" d="M15.1328 4.27681C14.7133 3.97861 14.1104 3.84376 13.4397 3.83192C12.7646 3.81999 11.9992 3.93221 11.2345 4.14973C9.71104 4.58307 8.15151 5.44617 7.30867 6.63202C7.26449 6.69419 7.26428 6.77746 7.30816 6.83985C7.35204 6.90224 7.43047 6.9302 7.50392 6.90964C10.1083 6.18047 12.1863 5.98849 13.5307 5.96358C14.1214 5.95264 14.8014 5.82526 15.2279 5.59386C15.4352 5.48136 15.631 5.3178 15.6723 5.08718C15.7162 4.84227 15.5725 4.61817 15.3293 4.42434C15.2691 4.37636 15.2037 4.3272 15.1328 4.27681ZM31.0177 6.53046C30.1409 5.36951 28.557 4.55192 27.0216 4.16286C26.2509 3.96757 25.4826 3.87756 24.8081 3.90902C24.138 3.94028 23.5394 4.09253 23.1286 4.40275C23.0592 4.45516 22.9953 4.5062 22.9365 4.55591C22.699 4.75669 22.5619 4.98485 22.6128 5.2284C22.6608 5.45772 22.8612 5.61555 23.0717 5.72199C23.5047 5.94095 24.1882 6.04859 24.7789 6.04243C26.1235 6.0284 28.2061 6.16015 30.8305 6.81361C30.9046 6.83203 30.9821 6.80181 31.0242 6.73818C31.0663 6.67455 31.0636 6.59132 31.0177 6.53046Z" fill="#151515"/>
<path d="M13.4397 3.83192L13.4347 4.11759L13.4397 3.83192ZM15.1328 4.27681L15.2983 4.04393V4.04393L15.1328 4.27681ZM11.2345 4.14973L11.1564 3.87491L11.2345 4.14973ZM7.30867 6.63202L7.54156 6.79755L7.54156 6.79755L7.30867 6.63202ZM7.30816 6.83985L7.07445 7.00421L7.07445 7.00422L7.30816 6.83985ZM7.50392 6.90964L7.42689 6.6345L7.42689 6.6345L7.50392 6.90964ZM13.5307 5.96358L13.5254 5.67792L13.5307 5.96358ZM15.2279 5.59386L15.3642 5.84498V5.84498L15.2279 5.59386ZM15.6723 5.08718L15.9536 5.13755V5.13755L15.6723 5.08718ZM15.3293 4.42434L15.5074 4.20092L15.5074 4.20092L15.3293 4.42434ZM27.0216 4.16286L26.9514 4.43982V4.43982L27.0216 4.16286ZM31.0177 6.53046L30.7897 6.70265L30.7897 6.70266L31.0177 6.53046ZM24.8081 3.90902L24.7948 3.62362L24.8081 3.90902ZM23.1286 4.40275L23.3008 4.63074V4.63074L23.1286 4.40275ZM22.9365 4.55591L23.121 4.77408V4.77408L22.9365 4.55591ZM22.6128 5.2284L22.8925 5.1699V5.1699L22.6128 5.2284ZM23.0717 5.72199L22.9428 5.97696L23.0717 5.72199ZM24.7789 6.04243L24.7759 5.75673L24.7789 6.04243ZM30.8305 6.81361L30.8996 6.53636V6.53636L30.8305 6.81361ZM31.0242 6.73818L31.2626 6.89571V6.89571L31.0242 6.73818ZM13.4347 4.11759C14.0791 4.12896 14.615 4.25927 14.9673 4.5097L15.2983 4.04393C14.8116 3.69795 14.1418 3.55856 13.4448 3.54625L13.4347 4.11759ZM11.3127 4.42454C12.0558 4.21317 12.7929 4.10625 13.4347 4.11759L13.4448 3.54625C12.7364 3.53374 11.9426 3.65125 11.1564 3.87491L11.3127 4.42454ZM7.54156 6.79755C8.33252 5.68469 9.82306 4.84826 11.3127 4.42454L11.1564 3.87491C9.59902 4.31789 7.97051 5.20766 7.07579 6.4665L7.54156 6.79755ZM7.54186 6.67549C7.56763 6.71213 7.56751 6.76103 7.54156 6.79755L7.07579 6.4665C6.96146 6.62735 6.96093 6.8428 7.07445 7.00421L7.54186 6.67549ZM7.42689 6.6345C7.47003 6.62242 7.51609 6.63885 7.54186 6.67549L7.07445 7.00422C7.18798 7.16563 7.39092 7.23798 7.58095 7.18477L7.42689 6.6345ZM13.5254 5.67792C12.1592 5.70323 10.0569 5.89817 7.42689 6.6345L7.58095 7.18477C10.1597 6.46278 12.2134 6.27375 13.536 6.24925L13.5254 5.67792ZM15.0916 5.34273C14.7213 5.54365 14.0927 5.66741 13.5254 5.67792L13.536 6.24925C14.1501 6.23787 14.8815 6.10687 15.3642 5.84498L15.0916 5.34273ZM15.3911 5.03681C15.3738 5.13322 15.2806 5.24016 15.0916 5.34273L15.3642 5.84498C15.5898 5.72256 15.8882 5.50239 15.9536 5.13755L15.3911 5.03681ZM15.1512 4.64777C15.3671 4.81985 15.4067 4.94946 15.3911 5.03681L15.9536 5.13755C16.0256 4.73507 15.7778 4.41649 15.5074 4.20092L15.1512 4.64777ZM14.9673 4.5097C15.0343 4.55732 15.0955 4.60333 15.1512 4.64777L15.5074 4.20092C15.4427 4.14939 15.3731 4.09708 15.2983 4.04393L14.9673 4.5097ZM26.9514 4.43982C28.4527 4.82023 29.9668 5.61316 30.7897 6.70265L31.2457 6.35826C30.3149 5.12585 28.6613 4.2836 27.0918 3.8859L26.9514 4.43982ZM24.8214 4.19443C25.4627 4.16451 26.2025 4.25005 26.9514 4.43982L27.0918 3.8859C26.2993 3.68509 25.5025 3.59061 24.7948 3.62362L24.8214 4.19443ZM23.3008 4.63074C23.6458 4.37022 24.1776 4.22446 24.8214 4.19443L24.7948 3.62362C24.0984 3.6561 23.433 3.81483 22.9564 4.17475L23.3008 4.63074ZM23.121 4.77408C23.1754 4.72805 23.2352 4.68028 23.3008 4.63074L22.9564 4.17475C22.8832 4.23005 22.8151 4.28435 22.752 4.33773L23.121 4.77408ZM22.8925 5.1699C22.8743 5.08305 22.9102 4.95234 23.121 4.77408L22.752 4.33773C22.4879 4.56104 22.2494 4.88666 22.3331 5.28689L22.8925 5.1699ZM23.2007 5.46703C23.0087 5.36998 22.9125 5.26577 22.8925 5.1699L22.3331 5.28689C22.409 5.64968 22.7137 5.86112 22.9428 5.97696L23.2007 5.46703ZM24.7759 5.75673C24.2086 5.76265 23.5766 5.65714 23.2007 5.46703L22.9428 5.97696C23.4328 6.22477 24.1677 6.33454 24.7819 6.32813L24.7759 5.75673ZM30.8996 6.53636C28.2493 5.87647 26.1423 5.74248 24.7759 5.75673L24.7819 6.32813C26.1046 6.31433 28.1629 6.44383 30.7615 7.09085L30.8996 6.53636ZM30.7858 6.58065C30.8105 6.54328 30.8561 6.52553 30.8996 6.53636L30.7615 7.09085C30.953 7.13854 31.1538 7.06035 31.2626 6.89571L30.7858 6.58065ZM30.7897 6.70266C30.7627 6.66691 30.7611 6.61802 30.7858 6.58065L31.2626 6.89571C31.3714 6.73107 31.3646 6.51573 31.2457 6.35825L30.7897 6.70266Z" fill="white"/>
<path fill-rule="evenodd" clip-rule="evenodd" d="M28.4317 13.7785C27.3878 9.60062 23.5458 9.80914 22.9978 16.0515C22.9481 16.6176 22.9349 17.1444 22.9533 17.6317C23.0156 19.2803 23.4391 20.476 24.0304 21.206C25.0384 20.9294 26.1989 20.8213 27.3274 21.1274C27.7964 20.5586 28.1907 19.7273 28.4335 18.6286C28.5432 18.1322 28.6219 17.5813 28.6627 16.9753C28.6789 16.7336 28.6885 16.4987 28.6916 16.2705L26.1754 15.5304L28.4317 13.7785ZM14.2253 13.768L11.9555 15.5304L14.6685 16.3283C14.7029 16.808 14.7105 17.2584 14.6946 17.6792C14.6291 19.4137 14.1637 20.6468 13.5238 21.3638C12.5634 21.1051 11.4677 21.0009 10.3944 21.2615C9.89301 20.6918 9.46986 19.8319 9.21444 18.676C9.10475 18.1797 9.02599 17.6287 8.98525 17.0227C8.55914 10.685 12.7632 8.9356 14.2253 13.768Z" fill="#151515"/>
<path d="M22.9978 16.0515L23.1401 16.064L22.9978 16.0515ZM28.4317 13.7785L28.5193 13.8914L28.5928 13.8342L28.5703 13.7439L28.4317 13.7785ZM22.9533 17.6317L22.8106 17.6371V17.6371L22.9533 17.6317ZM24.0304 21.206L23.9194 21.2959L23.9781 21.3685L24.0682 21.3437L24.0304 21.206ZM27.3274 21.1274L27.29 21.2653L27.3789 21.2894L27.4376 21.2183L27.3274 21.1274ZM28.4335 18.6286L28.573 18.6594V18.6594L28.4335 18.6286ZM28.6627 16.9753L28.8052 16.9848L28.8052 16.9848L28.6627 16.9753ZM28.6916 16.2705L28.8345 16.2725L28.836 16.164L28.732 16.1334L28.6916 16.2705ZM26.1754 15.5304L26.0878 15.4176L25.8674 15.5887L26.1351 15.6675L26.1754 15.5304ZM11.9555 15.5304L11.8679 15.4176L11.6475 15.5887L11.9152 15.6675L11.9555 15.5304ZM14.2253 13.768L14.3129 13.8808L14.3904 13.8206L14.362 13.7266L14.2253 13.768ZM14.6685 16.3283L14.811 16.3181L14.8039 16.2193L14.7088 16.1913L14.6685 16.3283ZM14.6946 17.6792L14.5518 17.6738L14.6946 17.6792ZM13.5238 21.3638L13.4866 21.5017L13.5717 21.5246L13.6304 21.4589L13.5238 21.3638ZM10.3944 21.2615L10.2871 21.3559L10.3442 21.4207L10.4281 21.4003L10.3944 21.2615ZM9.21444 18.676L9.07494 18.7069H9.07494L9.21444 18.676ZM8.98525 17.0227L8.84271 17.0323L8.98525 17.0227ZM23.1401 16.064C23.276 14.5164 23.6152 13.3536 24.0567 12.5437C24.4987 11.7328 25.0361 11.2871 25.5657 11.1454C26.0902 11.0051 26.6367 11.1551 27.123 11.5988C27.6119 12.0449 28.0367 12.787 28.2931 13.8132L28.5703 13.7439C28.3047 12.6811 27.8578 11.8825 27.3156 11.3878C26.7708 10.8907 26.1268 10.6995 25.4919 10.8694C24.862 11.0379 24.2709 11.5536 23.8058 12.407C23.3401 13.2613 22.9936 14.4653 22.8555 16.039L23.1401 16.064ZM23.0961 17.6263C23.0779 17.1455 23.0909 16.6246 23.1401 16.064L22.8555 16.039C22.8053 16.6106 22.7919 17.1434 22.8106 17.6371L23.0961 17.6263ZM24.1414 21.1161C23.5759 20.4178 23.1577 19.2559 23.0961 17.6263L22.8106 17.6371C22.8736 19.3048 23.3024 20.5341 23.9194 21.2959L24.1414 21.1161ZM24.0682 21.3437C25.0599 21.0716 26.1932 20.9677 27.29 21.2653L27.3648 20.9895C26.2045 20.6748 25.017 20.7871 23.9926 21.0682L24.0682 21.3437ZM28.294 18.5978C28.0547 19.6806 27.6683 20.4894 27.2171 21.0365L27.4376 21.2183C27.9245 20.6278 28.3267 19.7741 28.573 18.6594L28.294 18.5978ZM28.5202 16.9657C28.4798 17.5652 28.402 18.109 28.294 18.5978L28.573 18.6594C28.6844 18.1554 28.764 17.5973 28.8052 16.9848L28.5202 16.9657ZM28.5488 16.2685C28.5456 16.4941 28.5362 16.7265 28.5202 16.9657L28.8052 16.9848C28.8216 16.7407 28.8313 16.5033 28.8345 16.2725L28.5488 16.2685ZM26.1351 15.6675L28.6513 16.4075L28.732 16.1334L26.2158 15.3934L26.1351 15.6675ZM28.344 13.6657L26.0878 15.4176L26.2631 15.6432L28.5193 13.8914L28.344 13.6657ZM12.0431 15.6432L14.3129 13.8808L14.1377 13.6552L11.8679 15.4176L12.0431 15.6432ZM14.7088 16.1913L11.9958 15.3934L11.9152 15.6675L14.6282 16.4654L14.7088 16.1913ZM14.8374 17.6846C14.8535 17.2582 14.8457 16.8026 14.811 16.3181L14.526 16.3386C14.56 16.8134 14.5675 17.2585 14.5518 17.6738L14.8374 17.6846ZM13.6304 21.4589C14.3 20.7086 14.7711 19.4387 14.8374 17.6846L14.5518 17.6738C14.487 19.3887 14.0273 20.585 13.4172 21.2687L13.6304 21.4589ZM10.4281 21.4003C11.4716 21.147 12.542 21.2473 13.4866 21.5017L13.5609 21.2258C12.5848 20.9629 11.4638 20.8549 10.3607 21.1227L10.4281 21.4003ZM9.07494 18.7069C9.33404 19.8794 9.76568 20.7634 10.2871 21.3559L10.5016 21.1671C10.0203 20.6202 9.60569 19.7845 9.35393 18.6452L9.07494 18.7069ZM8.84271 17.0323C8.88389 17.6448 8.96357 18.2029 9.07494 18.7069L9.35393 18.6452C9.24593 18.1565 9.16809 17.6127 9.12778 17.0131L8.84271 17.0323ZM14.362 13.7266C13.9912 12.5012 13.4405 11.6712 12.8119 11.2297C12.1764 10.7834 11.4697 10.7416 10.8303 11.0803C10.1986 11.415 9.64894 12.1117 9.28441 13.112C8.91913 14.1143 8.73516 15.4326 8.84271 17.0323L9.12778 17.0131C9.02229 15.444 9.20403 14.167 9.55285 13.2098C9.90244 12.2506 10.4152 11.6236 10.9641 11.3328C11.5052 11.0461 12.097 11.0768 12.6477 11.4636C13.2052 11.8551 13.7283 12.6186 14.0885 13.8094L14.362 13.7266Z" fill="#151515"/>
<path d="M15.916 22.3708C14.476 21.4108 10.948 20.0668 8.35602 22.3708" stroke="#151515" stroke-width="0.571429" stroke-linecap="round"/>
<path d="M21.6758 22.2033C23.1158 21.2433 26.6438 19.8993 29.2358 22.2033" stroke="#151515" stroke-width="0.571429" stroke-linecap="round"/>
<path d="M10.7291 34.5146C6.03765 32.3503 7.21049 25.6025 10.7291 27.3558V34.5146Z" fill="#F4F4F4"/>
<path d="M10.7291 27.3558V34.5146C11.8272 35.0212 13.1614 35.455 14.6062 35.7773V28.8623C13.0694 28.4694 11.7724 27.8757 10.7291 27.3558Z" fill="#F4F4F4"/>
<path d="M14.6062 28.8623V35.7773C16.045 36.0983 17.5933 36.3085 19.1271 36.3697V29.253C17.4464 29.392 15.9364 29.2024 14.6062 28.8623Z" fill="#F4F4F4"/>
<path d="M27.3343 34.5148C31.1277 31.8087 28.5208 26.2672 25.7732 27.1438L26.8809 34.8276C27.0381 34.7286 27.1893 34.6244 27.3343 34.5148Z" fill="#F4F4F4"/>
<path d="M25.2972 27.356C24.5087 27.7722 23.7442 28.1104 23.004 28.3809L23.3502 36.108C24.6848 35.8625 25.898 35.4469 26.8809 34.8276L25.7732 27.1438C25.6146 27.1944 25.4555 27.2646 25.2972 27.356Z" fill="#F4F4F4"/>
<path d="M19.1271 29.253V36.3697C20.5834 36.4278 22.0265 36.3515 23.3502 36.108L23.004 28.3809C21.626 28.8845 20.3326 29.1533 19.1271 29.253Z" fill="#F4F4F4"/>
<path d="M10.7291 27.3558C7.21049 25.6025 6.03765 32.3503 10.7291 34.5146M10.7291 27.3558V34.5146M10.7291 27.3558C11.7724 27.8757 13.0694 28.4694 14.6062 28.8623M10.7291 34.5146C11.8272 35.0212 13.1614 35.455 14.6062 35.7773M14.6062 28.8623V35.7773M14.6062 28.8623C15.9364 29.2024 17.4464 29.392 19.1271 29.253M14.6062 35.7773C16.045 36.0983 17.5933 36.3085 19.1271 36.3697M19.1271 29.253V36.3697M19.1271 29.253C20.3326 29.1533 21.626 28.8845 23.004 28.3809M19.1271 36.3697C20.5834 36.4278 22.0265 36.3515 23.3501 36.108M23.004 28.3809C23.7442 28.1104 24.5087 27.7722 25.2972 27.356C25.4555 27.2646 25.6146 27.1944 25.7732 27.1438M23.004 28.3809L23.3501 36.108M23.3501 36.108C24.6848 35.8625 25.898 35.4469 26.8809 34.8276M25.7732 27.1438C28.5208 26.2672 31.1277 31.8087 27.3343 34.5148C27.1893 34.6244 27.0381 34.7286 26.8809 34.8276M25.7732 27.1438L26.8809 34.8276" stroke="black" stroke-width="0.571429"/>
<path d="M35.1406 3.48381C35.1969 3.47856 35.2579 3.4782 35.3221 3.48381C35.9128 3.43227 36.7821 2.87735 36.8938 0.999958C37.0055 2.87735 37.8749 3.4323 38.4656 3.48383C38.5298 3.47823 38.5908 3.47858 38.6471 3.48383C38.5908 3.48908 38.5298 3.48944 38.4656 3.48383C37.8749 3.53534 37.0057 4.09014 36.894 5.96753C36.7822 4.09014 35.9128 3.53532 35.3221 3.48381C35.2579 3.48941 35.1969 3.48906 35.1406 3.48381Z" fill="#FFDC27" stroke="#151515" stroke-width="0.571429" stroke-linejoin="round"/>
<path d="M31.9277 10.0582C32.031 10.0483 32.1427 10.0477 32.2605 10.0582C33.3434 9.96122 34.9371 8.91666 35.1419 5.38273C35.3467 8.91666 36.9406 9.96126 38.0235 10.0583C38.1413 10.0477 38.253 10.0484 38.3563 10.0583C38.2531 10.0681 38.1413 10.0688 38.0235 10.0583C36.9406 10.1552 35.347 11.1995 35.1422 14.7335C34.9374 11.1995 33.3435 10.1552 32.2605 10.0582C32.1427 10.0688 32.031 10.0681 31.9277 10.0582Z" fill="#FFDC27" stroke="#151515" stroke-width="0.571429" stroke-linejoin="round"/>
</svg>
