<svg width="136" height="130" viewBox="0 0 136 130" fill="none" xmlns="http://www.w3.org/2000/svg">
<mask id="path-1-inside-1_1111_231" fill="white">
<path fill-rule="evenodd" clip-rule="evenodd" d="M30.9014 68.1163C47.9678 68.1163 61.8029 54.2812 61.8029 37.2149C61.8029 20.1485 47.9678 6.31348 30.9014 6.31348C13.835 6.31348 0 20.1485 0 37.2149C0 54.2812 13.835 68.1163 30.9014 68.1163Z"/>
</mask>
<path fill-rule="evenodd" clip-rule="evenodd" d="M30.9014 68.1163C47.9678 68.1163 61.8029 54.2812 61.8029 37.2149C61.8029 20.1485 47.9678 6.31348 30.9014 6.31348C13.835 6.31348 0 20.1485 0 37.2149C0 54.2812 13.835 68.1163 30.9014 68.1163Z" fill="#30D89B"/>
<path d="M61.0002 37.2149C61.0002 53.838 47.5245 67.3136 30.9014 67.3136V68.9189C48.4111 68.9189 62.6055 54.7245 62.6055 37.2149H61.0002ZM30.9014 7.11611C47.5245 7.11611 61.0002 20.5918 61.0002 37.2149H62.6055C62.6055 19.7052 48.4111 5.51084 30.9014 5.51084V7.11611ZM0.802634 37.2149C0.802634 20.5918 14.2783 7.11611 30.9014 7.11611V5.51084C13.3918 5.51084 -0.802634 19.7052 -0.802634 37.2149H0.802634ZM30.9014 67.3136C14.2783 67.3136 0.802634 53.838 0.802634 37.2149H-0.802634C-0.802634 54.7245 13.3918 68.9189 30.9014 68.9189V67.3136Z" fill="#141414" mask="url(#path-1-inside-1_1111_231)"/>
<path fill-rule="evenodd" clip-rule="evenodd" d="M20.68 5.19619C20.1038 4.78664 19.2759 4.60143 18.3548 4.58517C17.4276 4.56879 16.3763 4.72292 15.3261 5.02165C13.2338 5.6168 11.0919 6.80218 9.93438 8.43082C9.8737 8.51621 9.87341 8.63057 9.93367 8.71625C9.99394 8.80194 10.1017 8.84034 10.2025 8.81209C13.7794 7.81067 16.6333 7.54699 18.4797 7.51279C19.2909 7.49776 20.2249 7.32282 20.8106 7.00501C21.0953 6.85051 21.3643 6.62587 21.421 6.30914C21.4812 5.97278 21.2838 5.665 20.9499 5.39881C20.8672 5.3329 20.7774 5.26538 20.68 5.19619ZM42.4962 8.29133C41.292 6.69689 39.1168 5.57401 37.0081 5.03968C35.9496 4.77148 34.8944 4.64786 33.9681 4.69106C33.0478 4.73399 32.2256 4.94309 31.6614 5.36915C31.5661 5.44113 31.4783 5.51122 31.3976 5.57949C31.0715 5.85525 30.8831 6.16861 30.953 6.50309C31.0189 6.81804 31.2942 7.0348 31.5833 7.18099C32.178 7.48171 33.1166 7.62954 33.9279 7.62108C35.7746 7.60181 38.6349 7.78275 42.2393 8.68021C42.3409 8.70552 42.4475 8.66401 42.5052 8.57662C42.563 8.48923 42.5594 8.37492 42.4962 8.29133Z" fill="#151515"/>
<path d="M18.3548 4.58517L18.3477 4.98642L18.3548 4.58517ZM20.68 5.19619L20.4475 5.5233L20.4475 5.5233L20.68 5.19619ZM15.3261 5.02165L15.4359 5.40765L15.3261 5.02165ZM9.93438 8.43082L9.60727 8.19833L9.60727 8.19833L9.93438 8.43082ZM9.93367 8.71625L9.60541 8.94712L9.60541 8.94712L9.93367 8.71625ZM10.2025 8.81209L10.0943 8.42564L10.0943 8.42564L10.2025 8.81209ZM18.4797 7.51279L18.4723 7.11154L18.4797 7.51279ZM20.8106 7.00501L21.002 7.35774V7.35774L20.8106 7.00501ZM21.421 6.30914L21.026 6.23839V6.23839L21.421 6.30914ZM20.9499 5.39881L21.2 5.08498L21.2 5.08498L20.9499 5.39881ZM37.0081 5.03968L37.1066 4.65066V4.65066L37.0081 5.03968ZM42.4962 8.29133L42.176 8.5332L42.176 8.53321L42.4962 8.29133ZM33.9681 4.69106L33.9494 4.29018L33.9681 4.69106ZM31.6614 5.36915L31.4196 5.0489V5.0489L31.6614 5.36915ZM31.3976 5.57949L31.6567 5.88594L31.6567 5.88594L31.3976 5.57949ZM30.953 6.50309L31.3458 6.42093L31.3458 6.42093L30.953 6.50309ZM31.5833 7.18099L31.4022 7.53912L31.5833 7.18099ZM33.9279 7.62108L33.9238 7.21978L33.9279 7.62108ZM42.2393 8.68021L42.3362 8.29078H42.3362L42.2393 8.68021ZM18.3477 4.98642C19.2318 5.00204 19.9657 5.18086 20.4475 5.5233L20.9125 4.86907C20.2419 4.39242 19.32 4.20083 18.3618 4.18391L18.3477 4.98642ZM15.4359 5.40765C16.4558 5.11756 17.4672 4.97087 18.3477 4.98642L18.3618 4.18391C17.388 4.16671 16.2969 4.32828 15.2163 4.63564L15.4359 5.40765ZM10.2615 8.66332C11.3462 7.1372 13.3911 5.98928 15.4359 5.40765L15.2163 4.63564C13.0764 5.24432 10.8377 6.46716 9.60727 8.19833L10.2615 8.66332ZM10.2619 8.48538C10.2995 8.5388 10.2993 8.61009 10.2615 8.66332L9.60727 8.19833C9.44807 8.42232 9.44732 8.72234 9.60541 8.94712L10.2619 8.48538ZM10.0943 8.42564C10.1572 8.40803 10.2244 8.43197 10.2619 8.48538L9.60541 8.94712C9.7635 9.1719 10.0461 9.27264 10.3107 9.19855L10.0943 8.42564ZM18.4723 7.11154C16.5952 7.14631 13.7072 7.41413 10.0943 8.42564L10.3107 9.19855C13.8516 8.2072 16.6713 7.94768 18.4871 7.91404L18.4723 7.11154ZM20.6192 6.65228C20.1124 6.92726 19.2506 7.09712 18.4723 7.11154L18.4871 7.91404C19.3312 7.8984 20.3374 7.71837 21.002 7.35774L20.6192 6.65228ZM21.026 6.23839C21.003 6.36661 20.8782 6.51172 20.6192 6.65228L21.002 7.35774C21.3124 7.18929 21.7255 6.88514 21.816 6.37989L21.026 6.23839ZM20.6997 5.71263C20.9954 5.94829 21.0466 6.12335 21.026 6.23839L21.816 6.37989C21.9159 5.82221 21.5723 5.38172 21.2 5.08498L20.6997 5.71263ZM20.4475 5.5233C20.5394 5.58861 20.6233 5.65171 20.6997 5.71263L21.2 5.08498C21.1111 5.01409 21.0154 4.94216 20.9125 4.86907L20.4475 5.5233ZM36.9095 5.4287C38.9703 5.95089 41.0476 7.03912 42.176 8.5332L42.8165 8.04946C41.5365 6.35465 39.2633 5.19713 37.1066 4.65066L36.9095 5.4287ZM33.9868 5.09194C34.8664 5.05091 35.8817 5.16825 36.9095 5.4287L37.1066 4.65066C36.0176 4.37471 34.9224 4.2448 33.9494 4.29018L33.9868 5.09194ZM31.9033 5.68939C32.375 5.33315 33.1034 5.13315 33.9868 5.09194L33.9494 4.29018C32.9921 4.33484 32.0761 4.55303 31.4196 5.0489L31.9033 5.68939ZM31.6567 5.88594C31.7313 5.82284 31.8134 5.75734 31.9033 5.68939L31.4196 5.0489C31.3189 5.12493 31.2253 5.19961 31.1385 5.27305L31.6567 5.88594ZM31.3458 6.42093C31.3219 6.30653 31.368 6.13006 31.6567 5.88594L31.1385 5.27304C30.7749 5.58043 30.4442 6.03069 30.5602 6.58524L31.3458 6.42093ZM31.7644 6.82286C31.5014 6.68987 31.3725 6.54843 31.3458 6.42093L30.5602 6.58524C30.6653 7.08766 31.087 7.37973 31.4022 7.53912L31.7644 6.82286ZM33.9238 7.21978C33.1453 7.2279 32.2789 7.08307 31.7644 6.82286L31.4022 7.53912C32.077 7.88036 33.0879 8.03118 33.9321 8.02237L33.9238 7.21978ZM42.3362 8.29078C38.6956 7.38429 35.801 7.2002 33.9238 7.21978L33.9321 8.02237C35.7481 8.00343 38.5742 8.18121 42.1423 9.06963L42.3362 8.29078ZM42.1704 8.35536C42.2064 8.30087 42.2729 8.275 42.3362 8.29078L42.1423 9.06963C42.409 9.13603 42.6885 9.02715 42.84 8.79788L42.1704 8.35536ZM42.176 8.53321C42.1366 8.48109 42.1344 8.40983 42.1704 8.35536L42.84 8.79788C42.9915 8.56862 42.9821 8.26875 42.8165 8.04945L42.176 8.53321Z" fill="white"/>
<path fill-rule="evenodd" clip-rule="evenodd" d="M38.9444 18.2457C37.5108 12.5078 32.2342 12.7942 31.4815 21.3673C31.4133 22.1448 31.3952 22.8684 31.4205 23.5377C31.506 25.8016 32.0876 27.4436 32.8995 28.4463C34.2842 28.066 35.8784 27.9171 37.4288 28.3373C38.0725 27.5562 38.6136 26.4149 38.9469 24.9067C39.0976 24.225 39.2057 23.4684 39.2617 22.6361C39.284 22.3042 39.2971 21.9815 39.3015 21.6681L35.8457 20.6517L38.9444 18.2457ZM19.4334 18.2312L16.3161 20.6517L20.0421 21.7476C20.0893 22.4064 20.0998 23.0249 20.078 23.6029C19.9879 25.985 19.3488 27.6785 18.47 28.6632C17.151 28.308 15.6461 28.1649 14.172 28.5227C13.4835 27.7403 12.9023 26.5594 12.5515 24.9719C12.4009 24.2902 12.2927 23.5335 12.2367 22.7012C11.6515 13.9971 17.4253 11.5944 19.4334 18.2312Z" fill="#151515"/>
<path d="M31.4815 21.3673L31.6814 21.3849V21.3849L31.4815 21.3673ZM38.9444 18.2457L39.0675 18.4042L39.1708 18.324L39.1391 18.197L38.9444 18.2457ZM31.4205 23.5377L31.621 23.5301L31.4205 23.5377ZM32.8995 28.4463L32.7436 28.5726L32.8261 28.6745L32.9526 28.6398L32.8995 28.4463ZM37.4288 28.3373L37.3763 28.531L37.5013 28.5649L37.5836 28.465L37.4288 28.3373ZM38.9469 24.9067L39.1429 24.95L38.9469 24.9067ZM39.2617 22.6361L39.4619 22.6495V22.6495L39.2617 22.6361ZM39.3015 21.6681L39.5021 21.6709L39.5042 21.5186L39.3581 21.4756L39.3015 21.6681ZM35.8457 20.6517L35.7227 20.4932L35.4131 20.7336L35.7891 20.8442L35.8457 20.6517ZM16.3161 20.6517L16.193 20.4932L15.8834 20.7336L16.2595 20.8442L16.3161 20.6517ZM19.4334 18.2312L19.5564 18.3897L19.6654 18.3051L19.6254 18.1731L19.4334 18.2312ZM20.0421 21.7476L20.2422 21.7332L20.2323 21.5944L20.0987 21.5551L20.0421 21.7476ZM20.078 23.6029L19.8774 23.5953L20.078 23.6029ZM18.47 28.6632L18.4178 28.857L18.5373 28.8892L18.6197 28.7968L18.47 28.6632ZM14.172 28.5227L14.0214 28.6553L14.1015 28.7463L14.2194 28.7177L14.172 28.5227ZM12.5515 24.9719L12.7474 24.9286L12.5515 24.9719ZM12.2367 22.7012L12.0365 22.7147L12.2367 22.7012ZM31.6814 21.3849C31.868 19.2599 32.3338 17.6635 32.9397 16.5519C33.5464 15.4389 34.2837 14.8278 35.0095 14.6337C35.7281 14.4414 36.4771 14.6468 37.1441 15.2554C37.8147 15.8673 38.3977 16.8856 38.7497 18.2943L39.1391 18.197C38.7742 16.7368 38.1601 15.6392 37.4146 14.9589C36.6655 14.2754 35.7795 14.0123 34.9058 14.246C34.0391 14.4779 33.2265 15.1872 32.5874 16.3598C31.9474 17.5338 31.4714 19.1881 31.2816 21.3498L31.6814 21.3849ZM31.621 23.5301C31.5961 22.8699 31.6138 22.1547 31.6814 21.3849L31.2816 21.3498C31.2127 22.135 31.1943 22.867 31.22 23.5452L31.621 23.5301ZM33.0554 28.32C32.2797 27.362 31.7055 25.7673 31.621 23.5301L31.22 23.5452C31.3065 25.836 31.8955 27.5253 32.7436 28.5726L33.0554 28.32ZM32.9526 28.6398C34.3143 28.2658 35.8705 28.1228 37.3763 28.531L37.4813 28.1437C35.8862 27.7113 34.254 27.8662 32.8464 28.2528L32.9526 28.6398ZM38.751 24.8634C38.4226 26.3493 37.8925 27.459 37.2739 28.2097L37.5836 28.465C38.2524 27.6533 38.8046 26.4806 39.1429 24.95L38.751 24.8634ZM39.0615 22.6226C39.0061 23.4458 38.8993 24.1924 38.751 24.8634L39.1429 24.95C39.2959 24.2576 39.4053 23.4909 39.4619 22.6495L39.0615 22.6226ZM39.1008 21.6653C39.0965 21.975 39.0836 22.2942 39.0615 22.6226L39.4619 22.6495C39.4844 22.3142 39.4977 21.988 39.5021 21.6709L39.1008 21.6653ZM35.7891 20.8442L39.2448 21.8606L39.3581 21.4756L35.9023 20.4592L35.7891 20.8442ZM38.8213 18.0872L35.7227 20.4932L35.9688 20.8102L39.0675 18.4042L38.8213 18.0872ZM16.4392 20.8102L19.5564 18.3897L19.3103 18.0728L16.193 20.4932L16.4392 20.8102ZM20.0987 21.5551L16.3727 20.4592L16.2595 20.8442L19.9854 21.9401L20.0987 21.5551ZM20.2785 23.6104C20.3006 23.0247 20.2899 22.3988 20.2422 21.7332L19.8419 21.7619C19.8887 22.4139 19.899 23.0251 19.8774 23.5953L20.2785 23.6104ZM18.6197 28.7968C19.5403 27.7653 20.1874 26.0201 20.2785 23.6104L19.8774 23.5953C19.7885 25.9499 19.1573 27.5918 18.3203 28.5296L18.6197 28.7968ZM14.2194 28.7177C15.6517 28.37 17.1209 28.5077 18.4178 28.857L18.5222 28.4695C17.181 28.1082 15.6406 27.9597 14.1247 28.3277L14.2194 28.7177ZM12.3556 25.0152C12.7115 26.626 13.3046 27.8409 14.0214 28.6553L14.3227 28.3902C13.6623 27.6398 13.0931 26.4928 12.7474 24.9286L12.3556 25.0152ZM12.0365 22.7147C12.0931 23.5561 12.2026 24.3228 12.3556 25.0152L12.7474 24.9286C12.5992 24.2576 12.4923 23.511 12.437 22.6878L12.0365 22.7147ZM19.6254 18.1731C19.1161 16.4895 18.3593 15.3487 17.4948 14.7415C16.6207 14.1277 15.6483 14.07 14.7686 14.5361C13.8998 14.9964 13.1443 15.9544 12.6434 17.3287C12.1415 18.706 11.8888 20.5172 12.0365 22.7147L12.437 22.6878C12.2921 20.5332 12.5417 18.78 13.0205 17.4661C13.5004 16.1494 14.2041 15.2894 14.9565 14.8907C15.6982 14.4977 16.5092 14.5397 17.2641 15.07C18.0287 15.6069 18.7467 16.6545 19.2413 18.2894L19.6254 18.1731Z" fill="#151515"/>
<path d="M21.7539 30.046C19.7762 28.7275 14.9309 26.8817 11.371 30.046" stroke="#151515" stroke-width="0.802634" stroke-linecap="round"/>
<path d="M29.666 29.8155C31.6437 28.4971 36.4891 26.6512 40.0489 29.8155" stroke="#151515" stroke-width="0.802634" stroke-linecap="round"/>
<path d="M14.6305 46.7234C8.18739 43.751 9.79817 34.4836 14.6305 36.8916V46.7234Z" fill="#F4F4F4"/>
<path d="M14.6305 36.8916V46.7234C16.1387 47.4192 17.9712 48.015 19.9554 48.4576V38.9606C17.8448 38.421 16.0635 37.6056 14.6305 36.8916Z" fill="#F4F4F4"/>
<path d="M19.9554 38.9606V48.4576C21.9314 48.8984 24.0579 49.1872 26.1644 49.2712V39.4971C23.8561 39.688 21.7823 39.4276 19.9554 38.9606Z" fill="#F4F4F4"/>
<path d="M37.4361 46.7237C42.646 43.0072 39.0657 35.3965 35.2922 36.6003L36.8135 47.1533C37.0293 47.0174 37.237 46.8742 37.4361 46.7237Z" fill="#F4F4F4"/>
<path d="M34.6384 36.8919C33.5555 37.4635 32.5055 37.928 31.4889 38.2995L31.9643 48.9118C33.7973 48.5746 35.4636 48.0039 36.8135 47.1533L35.2922 36.6003C35.0743 36.6698 34.8559 36.7663 34.6384 36.8919Z" fill="#F4F4F4"/>
<path d="M26.1644 39.4971V49.2712C28.1644 49.351 30.1464 49.2463 31.9643 48.9118L31.4889 38.2995C29.5964 38.9911 27.8201 39.3602 26.1644 39.4971Z" fill="#F4F4F4"/>
<path d="M14.6305 36.8916C9.79817 34.4836 8.18739 43.751 14.6305 46.7234M14.6305 36.8916V46.7234M14.6305 36.8916C16.0635 37.6056 17.8448 38.421 19.9554 38.9606M14.6305 46.7234C16.1387 47.4192 17.9712 48.015 19.9554 48.4576M19.9554 38.9606V48.4576M19.9554 38.9606C21.7823 39.4276 23.8561 39.688 26.1644 39.4971M19.9554 48.4576C21.9314 48.8984 24.0579 49.1872 26.1644 49.2712M26.1644 39.4971V49.2712M26.1644 39.4971C27.8201 39.3602 29.5964 38.9911 31.4889 38.2995M26.1644 49.2712C28.1644 49.351 30.1464 49.2463 31.9643 48.9118M31.4889 38.2995C32.5055 37.928 33.5555 37.4635 34.6384 36.8919C34.8559 36.7663 35.0743 36.6698 35.2922 36.6003M31.4889 38.2995L31.9643 48.9118M31.9643 48.9118C33.7973 48.5746 35.4636 48.0039 36.8135 47.1533M35.2922 36.6003C39.0657 35.3965 42.646 43.0072 37.4361 46.7237C37.237 46.8742 37.0293 47.0174 36.8135 47.1533M35.2922 36.6003L36.8135 47.1533" stroke="black" stroke-width="0.802634"/>
<path d="M48.1562 4.10559C48.2336 4.09837 48.3173 4.09789 48.4055 4.10558C49.2168 4.03481 50.4106 3.27269 50.564 0.694279C50.7175 3.27269 51.9115 4.03484 52.7228 4.10562C52.811 4.09792 52.8947 4.09841 52.9721 4.10562C52.8947 4.11283 52.811 4.11331 52.7228 4.10562C51.9115 4.17635 50.7177 4.93831 50.5643 7.51672C50.4108 4.93831 49.2168 4.17632 48.4055 4.10558C48.3173 4.11328 48.2336 4.1128 48.1562 4.10559Z" fill="#FFDC27" stroke="#151515" stroke-width="0.802634" stroke-linejoin="round"/>
<path d="M43.7441 13.135C43.8859 13.1215 44.0394 13.1206 44.2012 13.135C45.6884 13.0018 47.8771 11.5672 48.1584 6.71376C48.4397 11.5672 50.6288 13.0019 52.1161 13.1351C52.2778 13.1206 52.4313 13.1215 52.5731 13.1351C52.4313 13.1487 52.2778 13.1496 52.1161 13.1351C50.6288 13.2682 48.4401 14.7025 48.1588 19.556C47.8776 14.7025 45.6885 13.2682 44.2012 13.135C44.0394 13.1495 43.886 13.1486 43.7441 13.135Z" fill="#FFDC27" stroke="#151515" stroke-width="0.802634" stroke-linejoin="round"/>
<mask id="path-13-inside-2_1111_231" fill="white">
<path fill-rule="evenodd" clip-rule="evenodd" d="M104.745 68.1153C121.812 68.1153 135.647 54.2803 135.647 37.2139C135.647 20.1475 121.812 6.3125 104.745 6.3125C87.6788 6.3125 73.8438 20.1475 73.8438 37.2139C73.8438 54.2803 87.6788 68.1153 104.745 68.1153Z"/>
</mask>
<path fill-rule="evenodd" clip-rule="evenodd" d="M104.745 68.1153C121.812 68.1153 135.647 54.2803 135.647 37.2139C135.647 20.1475 121.812 6.3125 104.745 6.3125C87.6788 6.3125 73.8438 20.1475 73.8438 37.2139C73.8438 54.2803 87.6788 68.1153 104.745 68.1153Z" fill="#FFF734"/>
<path d="M134.844 37.2139C134.844 53.837 121.368 67.3127 104.745 67.3127V68.9179C122.255 68.9179 136.449 54.7235 136.449 37.2139H134.844ZM104.745 7.11513C121.368 7.11513 134.844 20.5908 134.844 37.2139H136.449C136.449 19.7042 122.255 5.50987 104.745 5.50987V7.11513ZM74.6464 37.2139C74.6464 20.5908 88.1221 7.11513 104.745 7.11513V5.50987C87.2355 5.50987 73.0411 19.7042 73.0411 37.2139H74.6464ZM104.745 67.3127C88.1221 67.3127 74.6464 53.837 74.6464 37.2139H73.0411C73.0411 54.7235 87.2355 68.9179 104.745 68.9179V67.3127Z" fill="#141414" mask="url(#path-13-inside-2_1111_231)"/>
<path fill-rule="evenodd" clip-rule="evenodd" d="M103.299 6.9247C102.723 6.51515 101.895 6.32995 100.974 6.31368C100.047 6.29731 98.9955 6.45143 97.9453 6.75016C95.8529 7.34532 93.7111 8.5307 92.5535 10.1593C92.4928 10.2447 92.4926 10.3591 92.5528 10.4448C92.6131 10.5305 92.7208 10.5689 92.8217 10.5406C96.3986 9.53918 99.2524 9.27551 101.099 9.24131C101.91 9.22628 102.844 9.05133 103.43 8.73353C103.714 8.57902 103.983 8.35439 104.04 8.03766C104.1 7.70129 103.903 7.39352 103.569 7.12732C103.486 7.06142 103.397 6.9939 103.299 6.9247ZM125.115 10.0198C123.911 8.4254 121.736 7.30253 119.627 6.76819C118.569 6.5 117.514 6.37637 116.587 6.41958C115.667 6.46251 114.845 6.6716 114.281 7.09766C114.185 7.16965 114.097 7.23974 114.017 7.30801C113.691 7.58376 113.502 7.89712 113.572 8.2316C113.638 8.54656 113.913 8.76331 114.202 8.90951C114.797 9.21023 115.736 9.35806 116.547 9.34959C118.394 9.33033 121.254 9.51127 124.858 10.4087C124.96 10.434 125.067 10.3925 125.124 10.3051C125.182 10.2177 125.179 10.1034 125.115 10.0198Z" fill="#151515"/>
<path d="M100.974 6.31368L100.967 6.71494L100.974 6.31368ZM103.299 6.9247L103.067 7.25181L103.067 7.25181L103.299 6.9247ZM97.9453 6.75016L98.0551 7.13617L97.9453 6.75016ZM92.5535 10.1593L92.2264 9.92684L92.2264 9.92684L92.5535 10.1593ZM92.5528 10.4448L92.2246 10.6756L92.2246 10.6756L92.5528 10.4448ZM92.8217 10.5406L92.7135 10.1542L92.7135 10.1542L92.8217 10.5406ZM101.099 9.24131L101.091 8.84006L101.099 9.24131ZM103.43 8.73353L103.621 9.08626V9.08626L103.43 8.73353ZM104.04 8.03766L103.645 7.96691V7.96691L104.04 8.03766ZM103.569 7.12732L103.819 6.8135L103.819 6.8135L103.569 7.12732ZM119.627 6.76819L119.726 6.37917V6.37917L119.627 6.76819ZM125.115 10.0198L124.795 10.2617L124.795 10.2617L125.115 10.0198ZM116.587 6.41958L116.569 6.0187L116.587 6.41958ZM114.281 7.09766L114.039 6.77742V6.77742L114.281 7.09766ZM114.017 7.30801L114.276 7.61446L114.276 7.61446L114.017 7.30801ZM113.572 8.2316L113.965 8.14945L113.965 8.14944L113.572 8.2316ZM114.202 8.90951L114.021 9.26764L114.202 8.90951ZM116.547 9.34959L116.543 8.9483L116.547 9.34959ZM124.858 10.4087L124.955 10.0193H124.955L124.858 10.4087ZM100.967 6.71494C101.851 6.73055 102.585 6.90937 103.067 7.25181L103.532 6.59759C102.861 6.12094 101.939 5.92935 100.981 5.91243L100.967 6.71494ZM98.0551 7.13617C99.0749 6.84607 100.086 6.69939 100.967 6.71494L100.981 5.91243C100.007 5.89523 98.916 6.05679 97.8355 6.36416L98.0551 7.13617ZM92.8806 10.3918C93.9653 8.86572 96.0103 7.7178 98.0551 7.13617L97.8355 6.36416C95.6956 6.97284 93.4568 8.19568 92.2264 9.92684L92.8806 10.3918ZM92.8811 10.2139C92.9186 10.2673 92.9185 10.3386 92.8806 10.3918L92.2264 9.92684C92.0672 10.1508 92.0665 10.4509 92.2246 10.6756L92.8811 10.2139ZM92.7135 10.1542C92.7764 10.1365 92.8435 10.1605 92.8811 10.2139L92.2246 10.6756C92.3826 10.9004 92.6652 11.0012 92.9299 10.9271L92.7135 10.1542ZM101.091 8.84006C99.2144 8.87483 96.3263 9.14265 92.7135 10.1542L92.9299 10.9271C96.4708 9.93571 99.2905 9.67619 101.106 9.64255L101.091 8.84006ZM103.238 8.38079C102.732 8.65578 101.87 8.82564 101.091 8.84006L101.106 9.64255C101.95 9.62692 102.957 9.44689 103.621 9.08626L103.238 8.38079ZM103.645 7.96691C103.622 8.09512 103.497 8.24024 103.238 8.38079L103.621 9.08626C103.932 8.91781 104.345 8.61366 104.435 8.10841L103.645 7.96691ZM103.319 7.44114C103.615 7.6768 103.666 7.85186 103.645 7.96691L104.435 8.10841C104.535 7.55072 104.191 7.11023 103.819 6.8135L103.319 7.44114ZM103.067 7.25181C103.159 7.31713 103.242 7.38023 103.319 7.44114L103.819 6.8135C103.73 6.74261 103.634 6.67067 103.532 6.59759L103.067 7.25181ZM119.529 7.15722C121.589 7.67941 123.667 8.76764 124.795 10.2617L125.436 9.77798C124.156 8.08316 121.882 6.92565 119.726 6.37917L119.529 7.15722ZM116.606 6.82046C117.486 6.77943 118.501 6.89677 119.529 7.15722L119.726 6.37917C118.637 6.10322 117.541 5.97331 116.569 6.0187L116.606 6.82046ZM114.522 7.41791C114.994 7.06166 115.723 6.86167 116.606 6.82046L116.569 6.0187C115.611 6.06335 114.695 6.28155 114.039 6.77742L114.522 7.41791ZM114.276 7.61446C114.35 7.55135 114.432 7.48585 114.522 7.4179L114.039 6.77742C113.938 6.85344 113.844 6.92813 113.758 7.00156L114.276 7.61446ZM113.965 8.14944C113.941 8.03504 113.987 7.85858 114.276 7.61446L113.758 7.00156C113.394 7.30895 113.063 7.7592 113.179 8.31376L113.965 8.14944ZM114.384 8.55138C114.121 8.41838 113.992 8.27694 113.965 8.14945L113.179 8.31376C113.284 8.81618 113.706 9.10824 114.021 9.26764L114.384 8.55138ZM116.543 8.9483C115.764 8.95642 114.898 8.81158 114.384 8.55138L114.021 9.26764C114.696 9.60887 115.707 9.7597 116.551 9.75089L116.543 8.9483ZM124.955 10.0193C121.315 9.11281 118.42 8.92871 116.543 8.9483L116.551 9.75089C118.367 9.73194 121.193 9.90972 124.761 10.7981L124.955 10.0193ZM124.79 10.0839C124.826 10.0294 124.892 10.0035 124.955 10.0193L124.761 10.7981C125.028 10.8645 125.308 10.7557 125.459 10.5264L124.79 10.0839ZM124.795 10.2617C124.756 10.2096 124.754 10.1383 124.79 10.0839L125.459 10.5264C125.611 10.2971 125.601 9.99727 125.436 9.77797L124.795 10.2617Z" fill="white"/>
<path d="M121.92 23.3966C121.916 23.71 121.903 24.0327 121.881 24.3646C121.825 25.1969 121.717 25.9535 121.566 26.6352C120.062 33.4419 114.323 32.7741 114.039 25.2662C114.014 24.5969 114.032 23.8733 114.1 23.0959C114.853 14.5226 120.13 14.2363 121.563 19.9742L118.465 22.3802L121.92 23.3966Z" fill="#151515"/>
<path d="M102.052 19.9596C100.044 13.323 94.2707 15.7256 94.8559 24.4298C94.9118 25.262 95.02 26.0187 95.1707 26.7004C96.6748 33.507 102.413 32.8393 102.697 25.3314C102.719 24.7534 102.708 24.1349 102.661 23.4762L98.935 22.3802L102.052 19.9596Z" fill="#151515"/>
<path d="M121.92 23.3966C121.916 23.71 121.903 24.0327 121.881 24.3646C121.825 25.1969 121.717 25.9535 121.566 26.6352C120.062 33.4419 114.323 32.7741 114.039 25.2662C114.014 24.5969 114.032 23.8733 114.1 23.0959C114.853 14.5226 120.13 14.2363 121.563 19.9742L118.465 22.3802L121.92 23.3966Z" stroke="#151515" stroke-width="0.802634"/>
<path d="M102.052 19.9596C100.044 13.323 94.2707 15.7256 94.8559 24.4298C94.9118 25.262 95.02 26.0187 95.1707 26.7004C96.6748 33.507 102.413 32.8393 102.697 25.3314C102.719 24.7534 102.708 24.1349 102.661 23.4762L98.935 22.3802L102.052 19.9596Z" stroke="#151515" stroke-width="0.802634"/>
<path d="M90.5293 42.4061C91.7654 45.9907 120.565 47.4739 125.139 42.4061M124.15 40.9229L126.375 43.7658" stroke="black" stroke-width="0.802634" stroke-linecap="round"/>
<path d="M91.6429 40.9219L89.418 43.8884" stroke="black" stroke-width="0.802634" stroke-linecap="round"/>
<path d="M100.204 98.8369C100.204 115.682 86.5489 129.337 69.7042 129.337C52.8594 129.337 39.2041 115.682 39.2041 98.8369C39.2041 81.9922 52.8594 68.3369 69.7042 68.3369C86.5489 68.3369 100.204 81.9922 100.204 98.8369Z" fill="#E66549" stroke="#141414" stroke-width="0.802634"/>
<path d="M86.0161 90.7062C86.0117 91.0196 85.9987 91.3423 85.9763 91.6742C85.9204 92.5064 85.8122 93.2631 85.6616 93.9448C84.1575 100.751 78.4188 100.084 78.1351 92.5758C78.1099 91.9065 78.1279 91.1829 78.1962 90.4054C78.9489 81.8322 84.2255 81.5459 85.6591 87.2838L82.5604 89.6898L86.0161 90.7062Z" fill="#151515"/>
<path d="M66.1482 87.2692C64.1401 80.6326 58.3664 83.0352 58.9516 91.7393C59.0076 92.5716 59.1157 93.3283 59.2664 94.01C60.7705 100.817 66.5091 100.149 66.7928 92.6409C66.8146 92.063 66.8041 91.4445 66.7569 90.7857L63.0307 89.6898L66.1482 87.2692Z" fill="#151515"/>
<path d="M86.0161 90.7062C86.0117 91.0196 85.9987 91.3423 85.9763 91.6742C85.9204 92.5064 85.8122 93.2631 85.6616 93.9448C84.1575 100.751 78.4188 100.084 78.1351 92.5758C78.1099 91.9065 78.1279 91.1829 78.1962 90.4054C78.9489 81.8322 84.2255 81.5459 85.6591 87.2838L82.5604 89.6898L86.0161 90.7062Z" stroke="#151515" stroke-width="0.802634"/>
<path d="M66.1482 87.2692C64.1401 80.6326 58.3664 83.0352 58.9516 91.7393C59.0076 92.5716 59.1157 93.3283 59.2664 94.01C60.7705 100.817 66.5091 100.149 66.7928 92.6409C66.8146 92.063 66.8041 91.4445 66.7569 90.7857L63.0307 89.6898L66.1482 87.2692Z" stroke="#151515" stroke-width="0.802634"/>
<path d="M68.2458 78.0982C67.954 77.4543 67.3318 76.8777 66.5439 76.4001C65.7509 75.9193 64.7649 75.5235 63.7071 75.2532C61.5995 74.7145 59.1521 74.6611 57.3322 75.4859C57.2368 75.5292 57.179 75.6279 57.1879 75.7322C57.1969 75.8366 57.2706 75.924 57.372 75.9504C60.967 76.8849 63.5658 78.0932 65.1786 78.9928C65.8872 79.3881 66.7824 79.7069 67.4484 79.727C67.7722 79.7368 68.1177 79.678 68.3261 79.4329C68.5474 79.1725 68.5317 78.8072 68.3771 78.4091C68.3388 78.3105 68.2951 78.207 68.2458 78.0982Z" fill="#151515"/>
<path d="M87.7316 74.168C85.8414 73.5201 83.4102 73.8063 81.3635 74.543C80.3361 74.9128 79.3923 75.4007 78.6487 75.9547C77.9099 76.5052 77.3453 77.1384 77.1161 77.8072C77.0774 77.9202 77.0438 78.0274 77.0151 78.1291C76.899 78.5402 76.9182 78.9053 77.1633 79.1434C77.3941 79.3676 77.7435 79.3932 78.0649 79.3527C78.7261 79.2693 79.5868 78.8667 80.2546 78.4058C81.7744 77.3568 84.2465 75.9066 87.7361 74.6341C87.8345 74.5982 87.8996 74.5042 87.8986 74.3994C87.8976 74.2947 87.8307 74.2019 87.7316 74.168Z" fill="#151515"/>
<path d="M90.084 110.891C83.4093 106.935 65.2392 104.587 55.4744 110.891" stroke="black" stroke-width="0.802634" stroke-linecap="round"/>
<path d="M89.7536 108.786C90.454 109.858 91.0885 111.975 88.0231 111.877" stroke="black" stroke-width="0.802634" stroke-linecap="round"/>
<path d="M57.6262 111.616C56.3513 111.729 54.1843 111.291 55.7158 108.634" stroke="black" stroke-width="0.802634" stroke-linecap="round"/>
</svg>
