<svg width="46" height="46" viewBox="0 0 46 46" fill="none" xmlns="http://www.w3.org/2000/svg">
<mask id="path-1-inside-1_1111_539" fill="white">
<path fill-rule="evenodd" clip-rule="evenodd" d="M22.5762 46C35.0026 46 45.0762 35.9264 45.0762 23.5C45.0762 11.0736 35.0026 1 22.5762 1C10.1498 1 0.0761719 11.0736 0.0761719 23.5C0.0761719 35.9264 10.1498 46 22.5762 46Z"/>
</mask>
<path fill-rule="evenodd" clip-rule="evenodd" d="M22.5762 46C35.0026 46 45.0762 35.9264 45.0762 23.5C45.0762 11.0736 35.0026 1 22.5762 1C10.1498 1 0.0761719 11.0736 0.0761719 23.5C0.0761719 35.9264 10.1498 46 22.5762 46Z" fill="#FFF734"/>
<path d="M44.4918 23.5C44.4918 35.6036 34.6798 45.4156 22.5762 45.4156V46.5844C35.3253 46.5844 45.6606 36.2492 45.6606 23.5H44.4918ZM22.5762 1.58442C34.6798 1.58442 44.4918 11.3964 44.4918 23.5H45.6606C45.6606 10.7508 35.3253 0.415584 22.5762 0.415584V1.58442ZM0.660587 23.5C0.660587 11.3964 10.4725 1.58442 22.5762 1.58442V0.415584C9.827 0.415584 -0.508244 10.7508 -0.508244 23.5H0.660587ZM22.5762 45.4156C10.4725 45.4156 0.660587 35.6036 0.660587 23.5H-0.508244C-0.508244 36.2492 9.827 46.5844 22.5762 46.5844V45.4156Z" fill="#141414" mask="url(#path-1-inside-1_1111_539)"/>
<path fill-rule="evenodd" clip-rule="evenodd" d="M21.5215 1.44576C21.1019 1.14756 20.4991 1.01271 19.8284 1.00086C19.1533 0.988939 18.3879 1.10116 17.6232 1.31867C16.0997 1.75202 14.5402 2.61512 13.6973 3.80097C13.6532 3.86314 13.653 3.94641 13.6968 4.0088C13.7407 4.07118 13.8191 4.09915 13.8926 4.07858C16.497 3.34942 18.575 3.15743 19.9194 3.13253C20.51 3.12159 21.1901 2.99421 21.6166 2.7628C21.8239 2.65031 22.0197 2.48675 22.061 2.25613C22.1049 2.01121 21.9611 1.78711 21.718 1.59329C21.6578 1.5453 21.5924 1.49614 21.5215 1.44576ZM37.4063 3.6994C36.5295 2.53845 34.9457 1.72086 33.4103 1.3318C32.6396 1.13652 31.8712 1.04651 31.1968 1.07797C30.5267 1.10922 29.928 1.26147 29.5173 1.57169C29.4479 1.62411 29.384 1.67514 29.3252 1.72485C29.0877 1.92563 28.9505 2.1538 29.0015 2.39734C29.0494 2.62667 29.2499 2.78449 29.4604 2.89094C29.8934 3.1099 30.5768 3.21754 31.1676 3.21138C32.5121 3.19735 34.5948 3.32909 37.2192 3.98255C37.2932 4.00098 37.3708 3.97076 37.4129 3.90713C37.4549 3.84349 37.4523 3.76027 37.4063 3.6994Z" fill="#151515"/>
<path d="M19.8284 1.00086L19.8232 1.29302L19.8284 1.00086ZM21.5215 1.44576L21.6908 1.20758V1.20758L21.5215 1.44576ZM17.6232 1.31867L17.5432 1.03761V1.03761L17.6232 1.31867ZM13.6973 3.80097L13.9355 3.97025H13.9355L13.6973 3.80097ZM13.6968 4.0088L13.4578 4.1769L13.4578 4.1769L13.6968 4.0088ZM13.8926 4.07858L13.8138 3.79719L13.8138 3.79719L13.8926 4.07858ZM19.9194 3.13253L19.914 2.84037L19.9194 3.13253ZM21.6166 2.7628L21.7559 3.01964V3.01964L21.6166 2.7628ZM22.061 2.25613L22.3486 2.30764V2.30764L22.061 2.25613ZM21.718 1.59329L21.9001 1.36479L21.9001 1.36479L21.718 1.59329ZM33.4103 1.3318L33.3385 1.61506V1.61506L33.4103 1.3318ZM37.4063 3.6994L37.1732 3.87551L37.1732 3.87552L37.4063 3.6994ZM31.1968 1.07797L31.1832 0.786076L31.1968 1.07797ZM29.5173 1.57169L29.6934 1.80487V1.80487L29.5173 1.57169ZM29.3252 1.72485L29.5138 1.94798L29.5138 1.94798L29.3252 1.72485ZM29.0015 2.39734L29.2875 2.33752V2.33752L29.0015 2.39734ZM29.4604 2.89094L29.3285 3.1517L29.4604 2.89094ZM31.1676 3.21138L31.1645 2.91918L31.1676 3.21138ZM37.2192 3.98255L37.2898 3.699V3.699L37.2192 3.98255ZM37.4129 3.90713L37.6567 4.06824V4.06824L37.4129 3.90713ZM19.8232 1.29302C20.467 1.30439 21.0014 1.4346 21.3522 1.68393L21.6908 1.20758C21.2025 0.860518 20.5312 0.721019 19.8336 0.708699L19.8232 1.29302ZM17.7031 1.59973C18.4457 1.38851 19.1822 1.2817 19.8232 1.29302L19.8336 0.708699C19.1245 0.696176 18.33 0.813814 17.5432 1.03761L17.7031 1.59973ZM13.9355 3.97025C14.7253 2.85905 16.2143 2.02323 17.7031 1.59973L17.5432 1.03761C15.9851 1.48081 14.3551 2.37119 13.4592 3.63168L13.9355 3.97025ZM13.9358 3.8407C13.9632 3.87959 13.9631 3.9315 13.9355 3.97025L13.4592 3.63168C13.3432 3.79478 13.3427 4.01323 13.4578 4.1769L13.9358 3.8407ZM13.8138 3.79719C13.8596 3.78437 13.9085 3.80181 13.9358 3.8407L13.4578 4.1769C13.5729 4.34056 13.7787 4.41392 13.9714 4.35997L13.8138 3.79719ZM19.914 2.84037C18.5472 2.86569 16.4444 3.06069 13.8138 3.79719L13.9714 4.35997C16.5496 3.63814 18.6027 3.44918 19.9248 3.42469L19.914 2.84037ZM21.4772 2.50597C21.1082 2.70619 20.4807 2.82987 19.914 2.84037L19.9248 3.42469C20.5394 3.4133 21.272 3.28222 21.7559 3.01964L21.4772 2.50597ZM21.7734 2.20461C21.7566 2.29797 21.6658 2.40363 21.4772 2.50597L21.7559 3.01964C21.982 2.89698 22.2827 2.67553 22.3486 2.30764L21.7734 2.20461ZM21.5358 1.82179C21.7511 1.99338 21.7884 2.12084 21.7734 2.20461L22.3486 2.30764C22.4214 1.90158 22.1712 1.58085 21.9001 1.36479L21.5358 1.82179ZM21.3522 1.68393C21.4191 1.73149 21.4802 1.77744 21.5358 1.82179L21.9001 1.36479C21.8353 1.31317 21.7656 1.26079 21.6908 1.20758L21.3522 1.68393ZM33.3385 1.61506C34.839 1.99527 36.3515 2.78764 37.1732 3.87551L37.6395 3.52329C36.7075 2.28926 35.0523 1.44645 33.482 1.04855L33.3385 1.61506ZM31.2104 1.36986C31.8509 1.33998 32.5901 1.42542 33.3385 1.61506L33.482 1.04855C32.6891 0.84762 31.8916 0.75303 31.1832 0.786076L31.2104 1.36986ZM29.6934 1.80487C30.0368 1.54548 30.5672 1.39986 31.2104 1.36986L31.1832 0.786076C30.4862 0.818589 29.8192 0.977463 29.3412 1.33852L29.6934 1.80487ZM29.5138 1.94798C29.5682 1.90204 29.6279 1.85434 29.6934 1.80487L29.3412 1.33852C29.2679 1.39387 29.1997 1.44825 29.1365 1.50172L29.5138 1.94798ZM29.2875 2.33752C29.2701 2.25422 29.3036 2.12573 29.5138 1.94798L29.1365 1.50172C28.8718 1.72554 28.631 2.05338 28.7155 2.45716L29.2875 2.33752ZM29.5923 2.63018C29.4008 2.53334 29.3069 2.43035 29.2875 2.33752L28.7155 2.45716C28.792 2.82299 29.099 3.03564 29.3285 3.1517L29.5923 2.63018ZM31.1645 2.91918C30.5977 2.9251 29.9669 2.81964 29.5923 2.63018L29.3285 3.1517C29.8198 3.40016 30.556 3.50998 31.1706 3.50357L31.1645 2.91918ZM37.2898 3.699C34.639 3.03897 32.5314 2.90492 31.1645 2.91918L31.1706 3.50357C32.4929 3.48977 34.5506 3.61922 37.1486 4.2661L37.2898 3.699ZM37.1691 3.74602C37.1953 3.70635 37.2437 3.68751 37.2898 3.699L37.1486 4.2661C37.3428 4.31445 37.5463 4.23517 37.6567 4.06824L37.1691 3.74602ZM37.1732 3.87552C37.1445 3.83757 37.1429 3.78568 37.1691 3.74602L37.6567 4.06824C37.767 3.9013 37.7601 3.68296 37.6395 3.52329L37.1732 3.87552Z" fill="white"/>
<path d="M35.0821 13.4399C35.0789 13.6681 35.0694 13.9031 35.0532 14.1447C35.0124 14.7507 34.9337 15.3017 34.824 15.798C33.7288 20.7541 29.5504 20.2678 29.3438 14.8012C29.3254 14.3139 29.3386 13.787 29.3883 13.2209C29.9363 6.97856 33.7783 6.77006 34.8222 10.948L32.566 12.6998L35.0821 13.4399Z" fill="#151515"/>
<path d="M20.6159 10.9373C19.1537 6.10506 14.9498 7.85448 15.3759 14.1922C15.4166 14.7982 15.4954 15.3491 15.6051 15.8455C16.7002 20.8015 20.8787 20.3153 21.0852 14.8486C21.1011 14.4278 21.0935 13.9775 21.0591 13.4978L18.346 12.6998L20.6159 10.9373Z" fill="#151515"/>
<path d="M35.0821 13.4399C35.0789 13.6681 35.0694 13.9031 35.0532 14.1447C35.0124 14.7507 34.9337 15.3017 34.824 15.798C33.7288 20.7541 29.5504 20.2678 29.3438 14.8012C29.3254 14.3139 29.3386 13.787 29.3883 13.2209C29.9363 6.97856 33.7783 6.77006 34.8222 10.948L32.566 12.6998L35.0821 13.4399Z" stroke="#151515" stroke-width="0.584416"/>
<path d="M20.6159 10.9373C19.1537 6.10506 14.9498 7.85448 15.3759 14.1922C15.4166 14.7982 15.4954 15.3491 15.6051 15.8455C16.7002 20.8015 20.8787 20.3153 21.0852 14.8486C21.1011 14.4278 21.0935 13.9775 21.0591 13.4978L18.346 12.6998L20.6159 10.9373Z" stroke="#151515" stroke-width="0.584416"/>
<path d="M12.2246 27.2802C13.1246 29.8902 34.0946 30.9702 37.4246 27.2802M36.7046 26.2002L38.3246 28.2702" stroke="black" stroke-width="0.584416" stroke-linecap="round"/>
<path d="M13.036 26.2002L11.416 28.3602" stroke="black" stroke-width="0.584416" stroke-linecap="round"/>
</svg>
