<svg width="401" height="518" viewBox="0 0 401 518" fill="none" xmlns="http://www.w3.org/2000/svg">
<ellipse cx="182.066" cy="488.351" rx="181.882" ry="28.1318" transform="rotate(-0.384425 182.066 488.351)" fill="#EEEEEE" fill-opacity="0.5"/>
<ellipse cx="177.379" cy="480.499" rx="123.573" ry="19.1726" transform="rotate(-0.384425 177.379 480.499)" fill="#DDDDDD" fill-opacity="0.5"/>
<mask id="path-3-inside-1_1253_2527" fill="white">
<path fill-rule="evenodd" clip-rule="evenodd" d="M350.499 109.629C377.996 109.629 400.287 87.3383 400.287 59.8412C400.287 32.344 377.996 10.0532 350.499 10.0532C323.002 10.0532 300.711 32.344 300.711 59.8412C300.711 87.3383 323.002 109.629 350.499 109.629Z"/>
</mask>
<path fill-rule="evenodd" clip-rule="evenodd" d="M350.499 109.629C377.996 109.629 400.287 87.3383 400.287 59.8412C400.287 32.344 377.996 10.0532 350.499 10.0532C323.002 10.0532 300.711 32.344 300.711 59.8412C300.711 87.3383 323.002 109.629 350.499 109.629Z" fill="#30D89B"/>
<path d="M398.994 59.8412C398.994 86.6241 377.282 108.336 350.499 108.336V110.922C378.71 110.922 401.58 88.0525 401.58 59.8412H398.994ZM350.499 11.3464C377.282 11.3464 398.994 33.0583 398.994 59.8412H401.58C401.58 31.6298 378.71 8.76003 350.499 8.76003V11.3464ZM302.004 59.8412C302.004 33.0583 323.716 11.3464 350.499 11.3464V8.76003C322.288 8.76003 299.418 31.6298 299.418 59.8412H302.004ZM350.499 108.336C323.716 108.336 302.004 86.6241 302.004 59.8412H299.418C299.418 88.0525 322.288 110.922 350.499 110.922V108.336Z" fill="#141414" mask="url(#path-3-inside-1_1253_2527)"/>
<path fill-rule="evenodd" clip-rule="evenodd" d="M334.028 8.25248C333.099 7.59263 331.765 7.29423 330.281 7.26802C328.787 7.24164 327.093 7.48996 325.401 7.97127C322.03 8.93018 318.579 10.84 316.714 13.4641C316.616 13.6017 316.616 13.7859 316.713 13.924C316.81 14.062 316.984 14.1239 317.146 14.0784C322.909 12.4649 327.507 12.0401 330.482 11.985C331.789 11.9608 333.294 11.6789 334.238 11.1668C334.697 10.9179 335.13 10.556 335.221 10.0457C335.318 9.50372 335 9.00783 334.462 8.57894C334.329 8.47276 334.184 8.36397 334.028 8.25248ZM369.177 13.2393C367.237 10.6704 363.732 8.86123 360.335 8.00032C358.63 7.5682 356.929 7.36902 355.437 7.43864C353.954 7.50781 352.63 7.8447 351.721 8.53116C351.567 8.64714 351.426 8.76007 351.295 8.87006C350.77 9.31435 350.466 9.81924 350.579 10.3581C350.685 10.8656 351.129 11.2148 351.595 11.4504C352.553 11.9349 354.065 12.1731 355.372 12.1594C358.348 12.1284 362.956 12.4199 368.763 13.8659C368.927 13.9067 369.099 13.8398 369.192 13.699C369.285 13.5582 369.279 13.374 369.177 13.2393Z" fill="#151515"/>
<path d="M330.281 7.26802L330.27 7.91451L330.281 7.26802ZM334.028 8.25248L333.653 8.77952V8.77952L334.028 8.25248ZM325.401 7.97127L325.224 7.34934V7.34934L325.401 7.97127ZM316.714 13.4641L317.241 13.8387L317.241 13.8387L316.714 13.4641ZM316.713 13.924L317.242 13.552H317.242L316.713 13.924ZM317.146 14.0784L316.972 13.4557L316.972 13.4557L317.146 14.0784ZM330.482 11.985L330.47 11.3385H330.47L330.482 11.985ZM334.238 11.1668L334.546 11.7352L334.546 11.7352L334.238 11.1668ZM335.221 10.0457L334.585 9.93167V9.93167L335.221 10.0457ZM334.462 8.57894L334.865 8.07332L334.865 8.07332L334.462 8.57894ZM360.335 8.00032L360.176 8.62711L360.335 8.00032ZM369.177 13.2393L368.662 13.629L368.662 13.629L369.177 13.2393ZM355.437 7.43864L355.407 6.79274V6.79274L355.437 7.43864ZM351.721 8.53116L352.11 9.04713L352.11 9.04713L351.721 8.53116ZM351.295 8.87006L351.713 9.36381L351.713 9.36381L351.295 8.87006ZM350.579 10.3581L351.212 10.2258L351.212 10.2258L350.579 10.3581ZM351.595 11.4504L351.886 10.8734V10.8734L351.595 11.4504ZM355.372 12.1594L355.366 11.5129L355.372 12.1594ZM368.763 13.8659L368.607 14.4933L368.763 13.8659ZM369.192 13.699L368.652 13.3425L368.652 13.3425L369.192 13.699ZM330.27 7.91451C331.694 7.93967 332.877 8.22779 333.653 8.77952L334.402 7.72545C333.322 6.95747 331.836 6.64878 330.292 6.62152L330.27 7.91451ZM325.578 8.59319C327.221 8.1258 328.851 7.88946 330.27 7.91451L330.292 6.62152C328.723 6.59381 326.965 6.85412 325.224 7.34934L325.578 8.59319ZM317.241 13.8387C318.989 11.3798 322.284 9.53031 325.578 8.59319L325.224 7.34934C321.777 8.33004 318.17 10.3003 316.187 13.0895L317.241 13.8387ZM317.242 13.552C317.303 13.6381 317.302 13.7529 317.241 13.8387L316.187 13.0895C315.931 13.4504 315.93 13.9338 316.184 14.2959L317.242 13.552ZM316.972 13.4557C317.073 13.4274 317.181 13.4659 317.242 13.552L316.184 14.2959C316.439 14.6581 316.894 14.8204 317.321 14.701L316.972 13.4557ZM330.47 11.3385C327.446 11.3945 322.793 11.826 316.972 13.4557L317.321 14.701C323.026 13.1038 327.569 12.6856 330.494 12.6315L330.47 11.3385ZM333.93 10.5985C333.113 11.0416 331.725 11.3153 330.47 11.3385L330.494 12.6315C331.854 12.6063 333.475 12.3162 334.546 11.7352L333.93 10.5985ZM334.585 9.93167C334.548 10.1383 334.347 10.3721 333.93 10.5985L334.546 11.7352C335.046 11.4638 335.712 10.9737 335.858 10.1597L334.585 9.93167ZM334.059 9.08457C334.536 9.46426 334.618 9.74631 334.585 9.93167L335.858 10.1597C336.019 9.26112 335.465 8.55141 334.865 8.07332L334.059 9.08457ZM333.653 8.77952C333.801 8.88475 333.936 8.98642 334.059 9.08457L334.865 8.07332C334.722 7.9591 334.568 7.84319 334.402 7.72545L333.653 8.77952ZM360.176 8.62711C363.496 9.46845 366.843 11.2218 368.662 13.629L369.693 12.8496C367.631 10.119 363.969 8.25401 360.494 7.37354L360.176 8.62711ZM355.467 8.08453C356.884 8.01842 358.52 8.20748 360.176 8.62711L360.494 7.37354C358.739 6.92893 356.975 6.71962 355.407 6.79274L355.467 8.08453ZM352.11 9.04713C352.87 8.47315 354.044 8.15092 355.467 8.08453L355.407 6.79274C353.865 6.86469 352.389 7.21624 351.331 8.01518L352.11 9.04713ZM351.713 9.36381C351.833 9.26214 351.965 9.1566 352.11 9.04713L351.331 8.01518C351.169 8.13768 351.018 8.25801 350.878 8.37632L351.713 9.36381ZM351.212 10.2258C351.174 10.0415 351.248 9.75713 351.713 9.36381L350.878 8.37632C350.292 8.87158 349.759 9.59702 349.946 10.4905L351.212 10.2258ZM351.886 10.8734C351.463 10.6591 351.255 10.4312 351.212 10.2258L349.946 10.4905C350.116 11.3 350.795 11.7706 351.303 12.0274L351.886 10.8734ZM355.366 11.5129C354.111 11.526 352.716 11.2926 351.886 10.8734L351.303 12.0274C352.39 12.5772 354.019 12.8202 355.379 12.806L355.366 11.5129ZM368.92 13.2385C363.054 11.7779 358.39 11.4813 355.366 11.5129L355.379 12.806C358.305 12.7755 362.858 13.0619 368.607 14.4933L368.92 13.2385ZM368.652 13.3425C368.711 13.2547 368.818 13.213 368.92 13.2385L368.607 14.4933C369.037 14.6003 369.487 14.4249 369.731 14.0555L368.652 13.3425ZM368.662 13.629C368.598 13.5451 368.594 13.4303 368.652 13.3425L369.731 14.0555C369.975 13.6861 369.96 13.203 369.693 12.8496L368.662 13.629Z" fill="white"/>
<path fill-rule="evenodd" clip-rule="evenodd" d="M363.457 29.2777C361.147 20.0329 352.646 20.4943 351.433 34.3073C351.323 35.56 351.294 36.7258 351.335 37.8041C351.473 41.4518 352.41 44.0974 353.718 45.7128C355.948 45.1006 358.517 44.8613 361.014 45.5388C362.052 44.2801 362.924 42.4409 363.461 40.0099C363.704 38.9116 363.878 37.6924 363.968 36.3515C364.004 35.8168 364.025 35.2968 364.032 34.7919L358.465 33.1543L363.457 29.2777ZM332.021 29.2545L326.999 33.1543L333.002 34.92C333.078 35.9814 333.095 36.9779 333.06 37.9091C332.915 41.7472 331.885 44.4758 330.469 46.0624C328.344 45.4899 325.919 45.2594 323.544 45.836C322.435 44.5754 321.498 42.6727 320.933 40.115C320.691 39.0166 320.516 37.7975 320.426 36.4565C319.483 22.4324 328.786 18.5613 332.021 29.2545Z" fill="#151515"/>
<path d="M351.433 34.3073L351.755 34.3356V34.3356L351.433 34.3073ZM363.457 29.2777L363.655 29.5331L363.822 29.4038L363.771 29.1994L363.457 29.2777ZM351.335 37.8041L351.012 37.8163V37.8163L351.335 37.8041ZM353.718 45.7128L353.466 45.9163L353.599 46.0805L353.803 46.0246L353.718 45.7128ZM361.014 45.5388L360.929 45.8508L361.131 45.9054L361.263 45.7444L361.014 45.5388ZM363.461 40.0099L363.777 40.0797L363.461 40.0099ZM363.968 36.3515L364.291 36.3732V36.3732L363.968 36.3515ZM364.032 34.7919L364.356 34.7964L364.359 34.551L364.124 34.4817L364.032 34.7919ZM358.465 33.1543L358.266 32.8989L357.767 33.2863L358.373 33.4645L358.465 33.1543ZM326.999 33.1543L326.8 32.8989L326.302 33.2863L326.908 33.4645L326.999 33.1543ZM332.021 29.2545L332.22 29.5098L332.395 29.3735L332.331 29.1608L332.021 29.2545ZM333.002 34.92L333.324 34.8968L333.308 34.6731L333.093 34.6098L333.002 34.92ZM333.06 37.9091L333.383 37.9214L333.06 37.9091ZM330.469 46.0624L330.385 46.3745L330.577 46.4264L330.71 46.2776L330.469 46.0624ZM323.544 45.836L323.302 46.0496L323.431 46.1963L323.62 46.1502L323.544 45.836ZM320.933 40.115L320.618 40.1847L320.933 40.115ZM320.426 36.4565L320.104 36.4782L320.426 36.4565ZM351.755 34.3356C352.056 30.9119 352.806 28.3397 353.782 26.5488C354.76 24.7555 355.948 23.771 357.117 23.4581C358.275 23.1484 359.482 23.4792 360.557 24.4598C361.637 25.4457 362.576 27.0864 363.143 29.3561L363.771 29.1994C363.183 26.8467 362.194 25.0782 360.992 23.9822C359.785 22.8808 358.358 22.4569 356.95 22.8335C355.554 23.2071 354.245 24.35 353.215 26.2393C352.184 28.1308 351.417 30.7962 351.111 34.279L351.755 34.3356ZM351.658 37.7919C351.618 36.7282 351.646 35.5759 351.755 34.3356L351.111 34.279C351 35.5441 350.97 36.7235 351.012 37.8163L351.658 37.7919ZM353.969 45.5094C352.719 43.9659 351.794 41.3965 351.658 37.7919L351.012 37.8163C351.151 41.5071 352.1 44.2289 353.466 45.9163L353.969 45.5094ZM353.803 46.0246C355.997 45.4225 358.504 45.1928 360.929 45.8508L361.099 45.2267C358.529 44.5298 355.9 44.7787 353.632 45.4011L353.803 46.0246ZM363.145 39.9402C362.616 42.3351 361.762 44.1236 360.764 45.3331L361.263 45.7444C362.341 44.4367 363.232 42.5467 363.777 40.0797L363.145 39.9402ZM363.646 36.3298C363.557 37.6561 363.384 38.8591 363.145 39.9402L363.777 40.0797C364.023 38.9641 364.2 37.7287 364.291 36.3732L363.646 36.3298ZM363.709 34.7874C363.702 35.2864 363.681 35.8006 363.646 36.3298L364.291 36.3732C364.327 35.8329 364.349 35.3072 364.356 34.7964L363.709 34.7874ZM358.373 33.4645L363.941 35.1021L364.124 34.4817L358.556 32.8441L358.373 33.4645ZM363.259 29.0224L358.266 32.8989L358.663 33.4097L363.655 29.5331L363.259 29.0224ZM327.197 33.4097L332.22 29.5098L331.823 28.9991L326.8 32.8989L327.197 33.4097ZM333.093 34.6098L327.09 32.8441L326.908 33.4645L332.911 35.2301L333.093 34.6098ZM333.383 37.9214C333.418 36.9776 333.401 35.9692 333.324 34.8968L332.679 34.9431C332.755 35.9935 332.771 36.9783 332.737 37.8969L333.383 37.9214ZM330.71 46.2776C332.193 44.6156 333.236 41.8038 333.383 37.9214L332.737 37.8969C332.593 41.6907 331.576 44.336 330.228 45.8471L330.71 46.2776ZM323.62 46.1502C325.928 45.59 328.295 45.8117 330.385 46.3745L330.553 45.7502C328.392 45.1681 325.91 44.9289 323.468 45.5218L323.62 46.1502ZM320.618 40.1847C321.191 42.78 322.147 44.7374 323.302 46.0496L323.787 45.6224C322.723 44.4135 321.806 42.5654 321.249 40.0452L320.618 40.1847ZM320.104 36.4782C320.195 37.8338 320.371 39.0691 320.618 40.1847L321.249 40.0452C321.01 38.9641 320.838 37.7611 320.749 36.4348L320.104 36.4782ZM332.331 29.1608C331.51 26.4483 330.291 24.6101 328.898 23.6319C327.489 22.6428 325.923 22.5499 324.505 23.3009C323.106 24.0426 321.888 25.586 321.081 27.8003C320.273 30.0194 319.866 32.9375 320.104 36.4782L320.749 36.4348C320.515 32.9634 320.917 30.1386 321.689 28.0217C322.462 25.9002 323.596 24.5146 324.808 23.8722C326.003 23.239 327.31 23.3068 328.526 24.1611C329.758 25.0262 330.915 26.7141 331.712 29.3481L332.331 29.1608Z" fill="#151515"/>
<path d="M335.758 48.2906C332.571 46.1663 324.765 43.1923 319.029 48.2906" stroke="#151515" stroke-width="1.29319" stroke-linecap="round"/>
<path d="M348.508 47.921C351.694 45.7967 359.501 42.8227 365.237 47.921" stroke="#151515" stroke-width="1.29319" stroke-linecap="round"/>
<path d="M324.285 75.1624C313.903 70.3733 316.499 55.4418 324.285 59.3214V75.1624Z" fill="#F4F4F4"/>
<path d="M324.285 59.3214V75.1624C326.714 76.2834 329.667 77.2434 332.864 77.9565V62.655C329.463 61.7856 326.593 60.4719 324.285 59.3214Z" fill="#F4F4F4"/>
<path d="M332.864 62.655V77.9565C336.048 78.6667 339.474 79.132 342.868 79.2674V63.5195C339.149 63.827 335.807 63.4075 332.864 62.655Z" fill="#F4F4F4"/>
<path d="M361.028 75.1629C369.423 69.1748 363.654 56.9126 357.574 58.8522L360.025 75.8551C360.373 75.636 360.708 75.4053 361.028 75.1629Z" fill="#F4F4F4"/>
<path d="M356.521 59.3219C354.776 60.2428 353.084 60.9913 351.446 61.5898L352.212 78.6883C355.166 78.145 357.85 77.2254 360.025 75.8551L357.574 58.8522C357.223 58.9642 356.871 59.1196 356.521 59.3219Z" fill="#F4F4F4"/>
<path d="M342.868 63.5195V79.2674C346.09 79.396 349.283 79.2272 352.212 78.6883L351.446 61.5898C348.397 62.7041 345.535 63.2988 342.868 63.5195Z" fill="#F4F4F4"/>
<path d="M324.285 59.3214C316.499 55.4418 313.903 70.3733 324.285 75.1624M324.285 59.3214V75.1624M324.285 59.3214C326.593 60.4719 329.463 61.7856 332.864 62.655M324.285 75.1624C326.714 76.2834 329.667 77.2434 332.864 77.9565M332.864 62.655V77.9565M332.864 62.655C335.807 63.4075 339.149 63.827 342.868 63.5195M332.864 77.9565C336.048 78.6667 339.474 79.132 342.868 79.2674M342.868 63.5195V79.2674M342.868 63.5195C345.535 63.2988 348.397 62.7041 351.446 61.5898M342.868 79.2674C346.09 79.396 349.283 79.2272 352.212 78.6883M351.446 61.5898C353.084 60.9913 354.776 60.2428 356.521 59.3219C356.871 59.1196 357.223 58.9642 357.574 58.8522M351.446 61.5898L352.212 78.6883M352.212 78.6883C355.166 78.145 357.85 77.2254 360.025 75.8551M357.574 58.8522C363.654 56.9126 369.423 69.1748 361.028 75.1629C360.708 75.4053 360.373 75.636 360.025 75.8551M357.574 58.8522L360.025 75.8551" stroke="black" stroke-width="1.29319"/>
<path d="M378.305 6.49616C378.429 6.48454 378.564 6.48376 378.706 6.49616C380.013 6.38214 381.937 5.15421 382.184 0.999908C382.431 5.15421 384.355 6.38218 385.662 6.49621C385.804 6.48381 385.939 6.48459 386.064 6.49622C385.939 6.50784 385.804 6.50861 385.662 6.49621C384.355 6.61018 382.432 7.83784 382.184 11.9921C381.937 7.83784 380.013 6.61013 378.706 6.49616C378.564 6.50856 378.429 6.50779 378.305 6.49616Z" fill="#FFDC27" stroke="#151515" stroke-width="1.29319" stroke-linejoin="round"/>
<path d="M371.188 21.0444C371.416 21.0226 371.663 21.0211 371.924 21.0444C374.32 20.8298 377.847 18.5184 378.3 10.6986C378.753 18.5184 382.28 20.8299 384.676 21.0445C384.937 21.0212 385.184 21.0227 385.413 21.0445C385.184 21.0664 384.937 21.0679 384.676 21.0445C382.28 21.2591 378.754 23.57 378.3 31.3898C377.847 23.57 374.32 21.259 371.924 21.0444C371.663 21.0678 371.416 21.0663 371.188 21.0444Z" fill="#FFDC27" stroke="#151515" stroke-width="1.29319" stroke-linejoin="round"/>
<mask id="path-15-inside-2_1253_2527" fill="white">
<path fill-rule="evenodd" clip-rule="evenodd" d="M205.147 108.897C232.644 108.897 254.935 86.6059 254.935 59.1087C254.935 31.6116 232.644 9.3208 205.147 9.3208C177.65 9.3208 155.359 31.6116 155.359 59.1087C155.359 86.6059 177.65 108.897 205.147 108.897Z"/>
</mask>
<path fill-rule="evenodd" clip-rule="evenodd" d="M205.147 108.897C232.644 108.897 254.935 86.6059 254.935 59.1087C254.935 31.6116 232.644 9.3208 205.147 9.3208C177.65 9.3208 155.359 31.6116 155.359 59.1087C155.359 86.6059 177.65 108.897 205.147 108.897Z" fill="#FFF734"/>
<path d="M253.642 59.1087C253.642 85.8916 231.93 107.603 205.147 107.603V110.19C233.359 110.19 256.228 87.3201 256.228 59.1087H253.642ZM205.147 10.614C231.93 10.614 253.642 32.3258 253.642 59.1087H256.228C256.228 30.8974 233.359 8.02761 205.147 8.02761V10.614ZM156.653 59.1087C156.653 32.3258 178.364 10.614 205.147 10.614V8.02761C176.936 8.02761 154.066 30.8974 154.066 59.1087H156.653ZM205.147 107.603C178.364 107.603 156.653 85.8916 156.653 59.1087H154.066C154.066 87.3201 176.936 110.19 205.147 110.19V107.603Z" fill="#141414" mask="url(#path-15-inside-2_1253_2527)"/>
<path fill-rule="evenodd" clip-rule="evenodd" d="M202.817 10.3057C201.888 9.64585 200.554 9.34745 199.07 9.32124C197.576 9.29486 195.883 9.54318 194.19 10.0245C190.819 10.9834 187.368 12.8933 185.503 15.5173C185.406 15.6549 185.405 15.8391 185.502 15.9772C185.599 16.1152 185.773 16.1771 185.935 16.1316C191.698 14.5181 196.297 14.0933 199.271 14.0382C200.578 14.014 202.083 13.7321 203.027 13.2201C203.486 12.9711 203.919 12.6092 204.01 12.0989C204.107 11.5569 203.789 11.0611 203.251 10.6322C203.118 10.526 202.973 10.4172 202.817 10.3057ZM237.967 15.2926C236.026 12.7236 232.522 10.9145 229.124 10.0535C227.419 9.62143 225.718 9.42224 224.226 9.49186C222.743 9.56103 221.419 9.89792 220.51 10.5844C220.356 10.7004 220.215 10.8133 220.085 10.9233C219.559 11.3676 219.256 11.8725 219.368 12.4114C219.474 12.9188 219.918 13.2681 220.384 13.5036C221.342 13.9881 222.854 14.2263 224.161 14.2127C227.137 14.1816 231.745 14.4731 237.552 15.9191C237.716 15.9599 237.888 15.893 237.981 15.7522C238.074 15.6114 238.068 15.4272 237.967 15.2926Z" fill="#151515"/>
<path d="M199.07 9.32124L199.059 9.96774L199.07 9.32124ZM202.817 10.3057L202.442 10.8327V10.8327L202.817 10.3057ZM194.19 10.0245L194.014 9.40256V9.40257L194.19 10.0245ZM185.503 15.5173L186.03 15.8919L186.03 15.8919L185.503 15.5173ZM185.502 15.9772L186.031 15.6052H186.031L185.502 15.9772ZM185.935 16.1316L185.761 15.509L185.761 15.509L185.935 16.1316ZM199.271 14.0382L199.259 13.3917H199.259L199.271 14.0382ZM203.027 13.2201L203.335 13.7884L203.335 13.7884L203.027 13.2201ZM204.01 12.0989L203.374 11.9849V11.9849L204.01 12.0989ZM203.251 10.6322L203.654 10.1265L203.654 10.1265L203.251 10.6322ZM229.124 10.0535L228.965 10.6803L229.124 10.0535ZM237.967 15.2926L237.451 15.6823L237.451 15.6823L237.967 15.2926ZM224.226 9.49186L224.196 8.84597V8.84597L224.226 9.49186ZM220.51 10.5844L220.899 11.1004L220.899 11.1003L220.51 10.5844ZM220.085 10.9233L220.502 11.417L220.502 11.417L220.085 10.9233ZM219.368 12.4114L220.001 12.279L220.001 12.279L219.368 12.4114ZM220.384 13.5036L220.676 12.9266V12.9266L220.384 13.5036ZM224.161 14.2127L224.155 13.5661L224.161 14.2127ZM237.552 15.9191L237.396 16.5466L237.552 15.9191ZM237.981 15.7522L237.442 15.3957L237.442 15.3957L237.981 15.7522ZM199.059 9.96774C200.483 9.99289 201.666 10.281 202.442 10.8327L203.191 9.77867C202.111 9.01069 200.625 8.70201 199.082 8.67474L199.059 9.96774ZM194.367 10.6464C196.011 10.179 197.64 9.94269 199.059 9.96774L199.082 8.67474C197.512 8.64703 195.755 8.90734 194.014 9.40256L194.367 10.6464ZM186.03 15.8919C187.778 13.433 191.073 11.5835 194.367 10.6464L194.014 9.40257C190.566 10.3833 186.959 12.3535 184.976 15.1427L186.03 15.8919ZM186.031 15.6052C186.092 15.6913 186.091 15.8061 186.03 15.8919L184.976 15.1427C184.72 15.5036 184.719 15.987 184.973 16.3492L186.031 15.6052ZM185.761 15.509C185.862 15.4806 185.971 15.5192 186.031 15.6052L184.973 16.3492C185.228 16.7113 185.683 16.8736 186.11 16.7543L185.761 15.509ZM199.259 13.3917C196.235 13.4477 191.582 13.8792 185.761 15.509L186.11 16.7543C191.815 15.157 196.358 14.7389 199.283 14.6847L199.259 13.3917ZM202.719 12.6517C201.902 13.0948 200.514 13.3685 199.259 13.3917L199.283 14.6847C200.643 14.6595 202.265 14.3694 203.335 13.7884L202.719 12.6517ZM203.374 11.9849C203.337 12.1915 203.136 12.4253 202.719 12.6517L203.335 13.7884C203.836 13.517 204.501 13.0269 204.647 12.2129L203.374 11.9849ZM202.848 11.1378C203.325 11.5175 203.407 11.7995 203.374 11.9849L204.647 12.2129C204.808 11.3143 204.254 10.6046 203.654 10.1265L202.848 11.1378ZM202.442 10.8327C202.59 10.938 202.725 11.0396 202.848 11.1378L203.654 10.1265C203.511 10.0123 203.357 9.89642 203.191 9.77867L202.442 10.8327ZM228.965 10.6803C232.286 11.5217 235.632 13.275 237.451 15.6823L238.483 14.9029C236.42 12.1722 232.758 10.3072 229.283 9.42676L228.965 10.6803ZM224.256 10.1378C225.673 10.0716 227.309 10.2607 228.965 10.6803L229.283 9.42676C227.528 8.98215 225.764 8.77284 224.196 8.84597L224.256 10.1378ZM220.899 11.1003C221.659 10.5264 222.833 10.2041 224.256 10.1378L224.196 8.84597C222.654 8.91791 221.178 9.26947 220.12 10.0684L220.899 11.1003ZM220.502 11.417C220.622 11.3154 220.754 11.2098 220.899 11.1004L220.12 10.0684C219.958 10.1909 219.807 10.3112 219.667 10.4295L220.502 11.417ZM220.001 12.279C219.963 12.0947 220.037 11.8104 220.502 11.417L219.667 10.4295C219.081 10.9248 218.548 11.6502 218.735 12.5437L220.001 12.279ZM220.676 12.9266C220.252 12.7123 220.044 12.4844 220.001 12.279L218.735 12.5437C218.905 13.3532 219.584 13.8238 220.092 14.0806L220.676 12.9266ZM224.155 13.5661C222.9 13.5792 221.505 13.3458 220.676 12.9266L220.092 14.0806C221.179 14.6304 222.808 14.8734 224.168 14.8592L224.155 13.5661ZM237.709 15.2917C231.843 13.8312 227.179 13.5345 224.155 13.5661L224.168 14.8592C227.094 14.8287 231.647 15.1151 237.396 16.5466L237.709 15.2917ZM237.442 15.3957C237.5 15.3079 237.607 15.2663 237.709 15.2917L237.396 16.5466C237.826 16.6535 238.276 16.4781 238.52 16.1087L237.442 15.3957ZM237.451 15.6823C237.387 15.5983 237.384 15.4835 237.442 15.3957L238.52 16.1087C238.765 15.7393 238.749 15.2562 238.483 14.9029L237.451 15.6823Z" fill="white"/>
<path d="M232.821 36.8466C232.814 37.3515 232.793 37.8714 232.757 38.4062C232.667 39.7471 232.493 40.9663 232.25 42.0646C229.827 53.0314 220.581 51.9554 220.123 39.8588C220.083 38.7805 220.112 37.6147 220.222 36.362C221.435 22.549 229.936 22.0876 232.246 31.3325L227.253 35.209L232.821 36.8466Z" fill="#151515"/>
<path d="M200.81 31.3089C197.575 20.6161 188.272 24.4872 189.215 38.5112C189.305 39.8521 189.48 41.0713 189.722 42.1696C192.146 53.1364 201.392 52.0604 201.849 39.9638C201.884 39.0326 201.867 38.0361 201.791 36.9747L195.787 35.209L200.81 31.3089Z" fill="#151515"/>
<path d="M232.821 36.8466C232.814 37.3515 232.793 37.8714 232.757 38.4062C232.667 39.7471 232.493 40.9663 232.25 42.0646C229.827 53.0314 220.581 51.9554 220.123 39.8588C220.083 38.7805 220.112 37.6147 220.222 36.362C221.435 22.549 229.936 22.0876 232.246 31.3325L227.253 35.209L232.821 36.8466Z" stroke="#151515" stroke-width="1.29319"/>
<path d="M200.81 31.3089C197.575 20.6161 188.272 24.4872 189.215 38.5112C189.305 39.8521 189.48 41.0713 189.722 42.1696C192.146 53.1364 201.392 52.0604 201.849 39.9638C201.884 39.0326 201.867 38.0361 201.791 36.9747L195.787 35.209L200.81 31.3089Z" stroke="#151515" stroke-width="1.29319"/>
<path d="M182.242 67.4738C184.234 73.2492 230.636 75.639 238.005 67.4738M236.411 65.084L239.996 69.6645" stroke="black" stroke-width="1.29319" stroke-linecap="round"/>
<path d="M184.038 65.084L180.453 69.8636" stroke="black" stroke-width="1.29319" stroke-linecap="round"/>
<path d="M108.929 59.7577C108.929 86.8977 86.9279 108.899 59.7879 108.899C32.6479 108.899 10.6466 86.8977 10.6466 59.7577C10.6466 32.6177 32.6479 10.6163 59.7879 10.6163C86.9279 10.6163 108.929 32.6177 108.929 59.7577Z" fill="#E66549" stroke="#141414" stroke-width="1.29319"/>
<path d="M85.4227 47.952C85.4156 48.457 85.3946 48.9769 85.3586 49.5116C85.2685 50.8526 85.0942 52.0717 84.8515 53.1701C82.4281 64.1368 73.1821 63.0609 72.725 50.9643C72.6843 49.886 72.7134 48.7202 72.8233 47.4675C74.0361 33.6544 82.5377 33.193 84.8474 42.438L79.855 46.3145L85.4227 47.952Z" fill="#151515"/>
<path d="M53.4118 42.4144C50.1764 31.7215 40.8739 35.5927 41.8168 49.6166C41.9069 50.9576 42.0812 52.1768 42.3239 53.2751C44.7473 64.2418 53.9933 63.1659 54.4504 51.0693C54.4856 50.1381 54.4687 49.1416 54.3926 48.0802L48.389 46.3145L53.4118 42.4144Z" fill="#151515"/>
<path d="M85.4227 47.952C85.4156 48.457 85.3946 48.9769 85.3586 49.5116C85.2685 50.8526 85.0942 52.0717 84.8515 53.1701C82.4281 64.1368 73.1821 63.0609 72.725 50.9643C72.6843 49.886 72.7134 48.7202 72.8233 47.4675C74.0361 33.6544 82.5377 33.193 84.8474 42.438L79.855 46.3145L85.4227 47.952Z" stroke="#151515" stroke-width="1.29319"/>
<path d="M53.4118 42.4144C50.1764 31.7215 40.8739 35.5927 41.8168 49.6166C41.9069 50.9576 42.0812 52.1768 42.3239 53.2751C44.7473 64.2418 53.9933 63.1659 54.4504 51.0693C54.4856 50.1381 54.4687 49.1416 54.3926 48.0802L48.389 46.3145L53.4118 42.4144Z" stroke="#151515" stroke-width="1.29319"/>
<path d="M56.7942 27.6371C56.324 26.5997 55.3214 25.6706 54.0521 24.901C52.7745 24.1265 51.1858 23.4888 49.4814 23.0532C46.0857 22.1854 42.1424 22.0992 39.2103 23.4282C39.0566 23.4979 38.9634 23.6569 38.9779 23.8251C38.9923 23.9932 39.1111 24.134 39.2745 24.1765C45.0666 25.6823 49.2538 27.6291 51.8523 29.0785C52.994 29.7153 54.4363 30.229 55.5094 30.2614C56.0311 30.2772 56.5877 30.1824 56.9235 29.7874C57.2801 29.368 57.2548 28.7794 57.0056 28.138C56.9439 27.9792 56.8737 27.8124 56.7942 27.6371Z" fill="#151515"/>
<path d="M88.1878 21.3066C85.1424 20.2626 81.2253 20.7237 77.9276 21.9108C76.2723 22.5067 74.7516 23.2927 73.5535 24.1854C72.3632 25.0722 71.4536 26.0925 71.0843 27.17C71.0219 27.352 70.9678 27.5248 70.9215 27.6887C70.7345 28.3509 70.7654 28.9392 71.1603 29.3229C71.5321 29.6841 72.0952 29.7254 72.613 29.6601C73.6782 29.5257 75.065 28.8771 76.1409 28.1345C78.5896 26.4443 82.5726 24.1078 88.1951 22.0575C88.3536 21.9997 88.4585 21.8482 88.4569 21.6795C88.4552 21.5107 88.3474 21.3613 88.1878 21.3066Z" fill="#151515"/>
<path d="M91.9766 79.1777C81.2224 72.8049 51.9471 69.021 36.2141 79.1777" stroke="black" stroke-width="1.29319" stroke-linecap="round"/>
<path d="M91.443 75.7878C92.5716 77.5138 93.5939 80.9259 88.6549 80.7666" stroke="black" stroke-width="1.29319" stroke-linecap="round"/>
<path d="M39.6792 80.348C37.6251 80.5302 34.1337 79.8244 36.6012 75.543" stroke="black" stroke-width="1.29319" stroke-linecap="round"/>
<path d="M295.714 205.703C288.227 207.867 294.455 215.361 305.224 224.776C303.721 227.452 302.921 232.438 311.742 230.98C322.768 229.157 328.522 219.601 330.68 216.018C332.838 212.435 327.187 202.359 316.335 200.381C307.653 198.798 305.533 206.245 305.559 210.167C304.773 207.958 301.705 203.972 295.714 205.703Z" fill="#151515"/>
<path d="M312.746 209.768L306.28 208.567C306.192 202.758 306.57 187.447 309.348 183.237C312.127 179.027 315.487 181.9 316.231 183.975C317.786 188.307 312.746 209.768 312.746 209.768Z" fill="#151515" stroke="#151515" stroke-width="1.24706" stroke-linecap="round" stroke-linejoin="round"/>
<path d="M308.348 227.947C292.506 264.001 270.768 321.838 237.758 303.811" stroke="#151515" stroke-width="8.46805"/>
<path fill-rule="evenodd" clip-rule="evenodd" d="M169.165 466.965C169.165 466.271 164.93 465.566 164.928 464.852C169.165 407.452 173.566 390.362 164.928 351.352L154.623 353.978C163.084 392.008 158.793 410.416 154.391 466.965L169.165 466.965Z" fill="#151515"/>
<path d="M169.165 466.965C169.165 466.271 164.93 465.566 164.928 464.852C182.66 463.764 201.096 456.753 201.773 477.314L154.391 488.314L154.391 466.965L169.165 466.965Z" fill="#151515"/>
<path fill-rule="evenodd" clip-rule="evenodd" d="M116.236 456.383C116.236 455.688 112 454.984 111.998 454.269C111.835 406.551 121.323 395.811 113.633 347.669L103.328 350.296C110.841 397.458 101.462 409.515 101.461 456.382L116.236 456.383Z" fill="#151515"/>
<path d="M116.236 456.383C116.236 455.688 112 454.984 111.998 454.269C129.731 453.181 148.166 442.995 148.844 463.556L101.461 477.732L101.461 456.382L116.236 456.383Z" fill="#151515"/>
<path d="M125.769 195.311C121.137 194.954 113.959 194.932 104.85 196.577C110.94 189.336 126.352 187.019 131.222 191.166C131.443 191.354 131.645 191.535 131.829 191.71C134.718 194.451 129.697 195.614 125.769 195.311Z" fill="#151515"/>
<path d="M163.976 203.667C168.605 204.062 175.717 205.2 184.547 208.302C179.365 200.146 164.371 195.359 159.06 198.679C158.82 198.83 158.598 198.977 158.396 199.12C155.213 201.368 160.049 203.332 163.976 203.667Z" fill="#151515"/>
<path d="M104.85 196.577L104.972 197.183L103.268 197.491L104.376 196.174L104.85 196.577ZM125.769 195.311L125.803 194.697L125.769 195.311ZM131.829 191.71L132.247 191.267L132.247 191.267L131.829 191.71ZM131.222 191.166L130.83 191.632L131.222 191.166ZM184.547 208.302L185.063 207.979L186.006 209.463L184.355 208.883L184.547 208.302ZM163.976 203.667L164.014 203.053L163.976 203.667ZM158.396 199.12L158.034 198.614L158.034 198.614L158.396 199.12ZM159.06 198.679L159.394 199.204L159.06 198.679ZM104.728 195.97C113.893 194.315 121.124 194.336 125.803 194.697L125.735 195.926C121.15 195.572 114.025 195.548 104.972 197.183L104.728 195.97ZM131.412 192.153C131.237 191.987 131.043 191.813 130.83 191.632L131.614 190.7C131.843 190.895 132.054 191.084 132.247 191.267L131.412 192.153ZM130.83 191.632C129.75 190.712 128.016 190.102 125.847 189.856C123.694 189.611 121.182 189.733 118.618 190.207C113.469 191.16 108.245 193.506 105.323 196.98L104.376 196.174C107.544 192.407 113.072 189.975 118.369 188.995C121.028 188.503 123.663 188.371 125.959 188.631C128.241 188.891 130.26 189.547 131.614 190.7L130.83 191.632ZM125.803 194.697C127.717 194.844 129.843 194.627 131.103 194.085C131.753 193.805 132.005 193.513 132.058 193.306C132.099 193.146 132.076 192.784 131.412 192.153L132.247 191.267C133.026 192.007 133.46 192.817 133.249 193.638C133.05 194.41 132.342 194.904 131.608 195.219C130.098 195.869 127.75 196.081 125.735 195.926L125.803 194.697ZM184.355 208.883C175.58 205.8 168.52 204.672 163.937 204.281L164.014 203.053C168.691 203.452 175.855 204.6 184.738 207.721L184.355 208.883ZM158.034 198.614C158.247 198.464 158.477 198.311 158.727 198.155L159.394 199.204C159.162 199.35 158.95 199.49 158.757 199.626L158.034 198.614ZM158.727 198.155C160.204 197.231 162.281 196.908 164.571 197.02C166.876 197.133 169.47 197.69 172.046 198.607C177.178 200.434 182.367 203.737 185.063 207.979L184.03 208.625C181.544 204.711 176.646 201.543 171.657 199.767C169.173 198.883 166.7 198.357 164.538 198.251C162.361 198.144 160.573 198.467 159.394 199.204L158.727 198.155ZM163.937 204.281C161.923 204.109 159.622 203.519 158.203 202.632C157.512 202.2 156.869 201.597 156.763 200.8C156.651 199.953 157.175 199.221 158.034 198.614L158.757 199.626C158.025 200.144 157.96 200.499 157.982 200.664C158.01 200.878 158.225 201.208 158.836 201.59C160.021 202.33 162.101 202.89 164.014 203.053L163.937 204.281Z" fill="white"/>
<path d="M243.898 237.369C244.442 225.144 234.984 214.574 222.774 213.76L71.0905 203.648C58.8807 202.834 48.5423 212.084 47.999 224.309L43.4627 326.376C42.9194 338.601 52.3769 349.171 64.5867 349.985L64.8053 349.999L65.0236 350.014L65.2415 350.028L65.4591 350.043L65.6763 350.057L65.8931 350.072L66.1096 350.086L66.3257 350.101L66.5415 350.115L66.7569 350.129L66.972 350.144L67.1867 350.158L67.401 350.172L67.615 350.187L67.8287 350.201L68.042 350.215L68.255 350.229L68.4676 350.243L68.6799 350.258L68.8918 350.272L69.1034 350.286L69.3147 350.3L69.5256 350.314L69.7362 350.328L69.9465 350.342L70.1564 350.356L70.3659 350.37L70.5752 350.384L70.7841 350.398L70.9927 350.412L71.201 350.426L71.4089 350.44L71.6165 350.453L71.8238 350.467L72.0307 350.481L72.2374 350.495L72.4437 350.509L72.6496 350.522L72.8553 350.536L73.0607 350.55L73.2657 350.563L73.4704 350.577L73.6748 350.591L73.8789 350.604L74.0827 350.618L74.2862 350.631L74.4893 350.645L74.6922 350.658L74.8947 350.672L75.0969 350.685L75.2989 350.699L75.5005 350.712L75.7018 350.726L75.9028 350.739L76.1036 350.753L76.304 350.766L76.5041 350.779L76.7039 350.793L76.9035 350.806L77.1027 350.819L77.3017 350.832L77.5003 350.846L77.6987 350.859L77.8968 350.872L78.0945 350.885L78.292 350.898L78.4893 350.912L78.6862 350.925L78.8828 350.938L79.0792 350.951L79.2753 350.964L79.4711 350.977L79.6666 350.99L79.8618 351.003L80.0568 351.016L80.2515 351.029L80.4459 351.042L80.6401 351.055L80.834 351.068L81.0276 351.081L81.2209 351.094L81.414 351.107L81.6068 351.119L81.7993 351.132L81.9916 351.145L82.1836 351.158L82.3753 351.171L82.5668 351.183L82.7581 351.196L82.949 351.209L83.1397 351.222L83.3302 351.234L83.5204 351.247L83.7103 351.26L83.9 351.272L84.0895 351.285L84.2787 351.298L84.4676 351.31L84.6563 351.323L84.8448 351.335L85.033 351.348L85.2209 351.36L85.4086 351.373L85.5961 351.385L85.7834 351.398L85.9704 351.41L86.1571 351.423L86.3436 351.435L86.5299 351.448L86.716 351.46L86.9018 351.472L87.0874 351.485L87.2728 351.497L87.4579 351.509L87.6428 351.522L87.8275 351.534L88.0119 351.546L88.1961 351.559L88.3801 351.571L88.5639 351.583L88.7475 351.595L88.9308 351.608L89.1139 351.62L89.2968 351.632L89.4795 351.644L89.6619 351.656L89.8442 351.669L90.0262 351.681L90.2081 351.693L90.3897 351.705L90.5711 351.717L90.7523 351.729L90.9333 351.741L91.1141 351.753L91.2947 351.765L91.475 351.777L91.6552 351.789L91.8352 351.801L92.015 351.813L92.1946 351.825L92.3739 351.837L92.5531 351.849L92.7321 351.861L92.9109 351.873L93.0895 351.885L93.2679 351.897L93.4461 351.909L93.6242 351.921L93.802 351.932L93.9797 351.944L94.1571 351.956L94.3344 351.968L94.5115 351.98L94.6885 351.992L94.8652 352.003L95.0418 352.015L95.2182 352.027L95.3944 352.039L95.5704 352.05L95.7463 352.062L95.9219 352.074L96.0975 352.085L96.2728 352.097L96.448 352.109L96.623 352.12L96.7978 352.132L96.9725 352.144L97.147 352.155L97.3213 352.167L97.4955 352.179L97.6695 352.19L97.8434 352.202L98.0171 352.213L98.1906 352.225L98.364 352.237L98.5372 352.248L98.7103 352.26L98.8832 352.271L99.056 352.283L99.2286 352.294L99.4011 352.306L99.5734 352.317L99.7456 352.329L99.9176 352.34L100.089 352.352L100.261 352.363L100.433 352.374L100.604 352.386L100.776 352.397L100.947 352.409L101.118 352.42L101.289 352.432L101.459 352.443L101.63 352.454L101.801 352.466L101.971 352.477L102.141 352.488L102.311 352.5L102.481 352.511L102.651 352.522L102.821 352.534L102.991 352.545L103.16 352.556L103.329 352.568L103.499 352.579L103.668 352.59L103.837 352.601L104.006 352.613L104.174 352.624L104.343 352.635L104.512 352.646L104.68 352.658L104.848 352.669L105.017 352.68L105.185 352.691L105.353 352.702L105.521 352.714L105.688 352.725L105.856 352.736L106.024 352.747L106.191 352.758L106.358 352.77L106.526 352.781L106.693 352.792L106.86 352.803L107.027 352.814L107.194 352.825L107.361 352.836L107.527 352.847L107.694 352.859L107.86 352.87L108.027 352.881L108.193 352.892L108.359 352.903L108.526 352.914L108.692 352.925L108.858 352.936L109.024 352.947L109.189 352.958L109.355 352.969L109.521 352.98L109.687 352.991L109.852 353.002L110.018 353.013L110.183 353.024L110.348 353.036L110.513 353.047L110.679 353.058L110.844 353.069L111.009 353.08L111.174 353.091L111.339 353.102L111.504 353.113L111.668 353.124L111.833 353.134L111.998 353.145L112.162 353.156L112.327 353.167L112.491 353.178L112.656 353.189L112.82 353.2L112.985 353.211L113.149 353.222L113.313 353.233L113.477 353.244L113.641 353.255L113.806 353.266L113.97 353.277L114.134 353.288L114.298 353.299L114.461 353.31L114.625 353.321L114.789 353.332L114.953 353.342L115.117 353.353L115.28 353.364L115.444 353.375L115.608 353.386L115.771 353.397L115.935 353.408L116.099 353.419L116.262 353.43L116.426 353.441L116.589 353.452L116.753 353.462L116.916 353.473L117.079 353.484L117.243 353.495L117.406 353.506L117.569 353.517L117.733 353.528L117.896 353.539L118.059 353.55L118.223 353.56L118.386 353.571L118.549 353.582L118.712 353.593L118.876 353.604L119.039 353.615L119.202 353.626L119.365 353.637L119.529 353.648L119.692 353.658L119.855 353.669L120.018 353.68L120.181 353.691L120.345 353.702L120.508 353.713L120.671 353.724L120.834 353.735L120.997 353.745L121.161 353.756L121.324 353.767L121.487 353.778L121.65 353.789L121.814 353.8L121.977 353.811L122.14 353.822L122.304 353.833L122.467 353.843L122.63 353.854L122.794 353.865L122.957 353.876L123.12 353.887L123.284 353.898L123.447 353.909L123.611 353.92L123.774 353.931L123.938 353.941L124.101 353.952L124.265 353.963L124.429 353.974L124.592 353.985L124.756 353.996L124.92 354.007L125.084 354.018L125.247 354.029L125.411 354.04L125.575 354.051L125.739 354.062L125.903 354.072L126.067 354.083L126.231 354.094L126.395 354.105L126.559 354.116L126.723 354.127L126.888 354.138L127.052 354.149L127.216 354.16L127.381 354.171L127.545 354.182L127.71 354.193L127.874 354.204L128.039 354.215L128.203 354.226L128.368 354.237L128.533 354.248L128.698 354.259L128.863 354.27L129.028 354.281L129.193 354.292L129.358 354.303L129.523 354.314L129.688 354.325L129.854 354.336L130.019 354.347L130.185 354.358L130.35 354.369L130.516 354.38L130.681 354.391L130.847 354.402L131.013 354.413L131.179 354.424L131.345 354.435L131.511 354.446L131.677 354.457L131.844 354.469L132.01 354.48L132.176 354.491L132.343 354.502L132.51 354.513L132.676 354.524L132.843 354.535L133.01 354.546L133.177 354.557L133.344 354.569L133.511 354.58L133.678 354.591L133.846 354.602L134.013 354.613L134.181 354.624L134.349 354.636L134.516 354.647L134.684 354.658L134.852 354.669L135.02 354.68L135.189 354.692L135.357 354.703L135.525 354.714L135.694 354.725L135.863 354.736L136.031 354.748L136.2 354.759L136.369 354.77L136.538 354.782L136.708 354.793L136.877 354.804L137.047 354.815L137.216 354.827L137.386 354.838L137.556 354.849L137.726 354.861L137.896 354.872L138.066 354.883L138.237 354.895L138.407 354.906L138.578 354.917L138.749 354.929L138.919 354.94L139.09 354.952L139.262 354.963L139.433 354.974L139.604 354.986L139.776 354.997L139.948 355.009L140.12 355.02L140.292 355.032L140.464 355.043L140.636 355.055L140.809 355.066L140.981 355.078L141.154 355.089L141.327 355.101L141.5 355.112L141.673 355.124L141.847 355.135L142.02 355.147L142.194 355.159L142.368 355.17L142.542 355.182L142.716 355.193L142.891 355.205L143.065 355.217L143.24 355.228L143.415 355.24L143.59 355.252L143.765 355.263L143.94 355.275L144.116 355.287L144.292 355.298L144.467 355.31L144.643 355.322L144.82 355.334L144.996 355.345L145.173 355.357L145.349 355.369L145.526 355.381L145.703 355.393L145.881 355.404L146.058 355.416L146.236 355.428L146.414 355.44L146.592 355.452L146.77 355.464L146.949 355.476L147.127 355.487L147.306 355.499L147.485 355.511L147.664 355.523L147.844 355.535L148.023 355.547L148.203 355.559L148.383 355.571L148.563 355.583L148.744 355.595L148.924 355.607L149.105 355.619L149.286 355.631L149.467 355.643L149.649 355.656L149.83 355.668L150.012 355.68L150.194 355.692L150.377 355.704L150.559 355.716L150.742 355.728L150.925 355.741L151.108 355.753L151.291 355.765L151.475 355.777L151.658 355.79L151.843 355.802L152.027 355.814L152.211 355.826L152.396 355.839L152.581 355.851L152.766 355.863L152.951 355.876L153.137 355.888L153.323 355.9L153.509 355.913L153.695 355.925L153.882 355.938L154.069 355.95L154.256 355.963L154.443 355.975L154.63 355.988L154.818 356L155.006 356.013L155.194 356.025L155.383 356.038L155.572 356.05C168.594 356.919 180.918 362.225 191.655 369.768C195.773 372.66 200.215 375.532 204.381 377.729C208.565 379.937 212.397 381.423 215.314 381.617C227.524 382.431 237.862 373.181 238.405 360.956L243.898 237.369ZM220.303 227.779C225.73 228.141 229.933 232.839 229.692 238.272L224.39 357.555C224.149 362.988 219.554 367.099 214.127 366.738C213.675 366.707 213.107 366.546 212.477 366.311C211.835 366.072 211.08 365.737 210.24 365.328C208.558 364.51 206.495 363.375 204.229 362.055C199.694 359.415 194.308 356.012 189.449 352.859C180.493 347.05 170.297 343.465 159.759 342.763L67.0302 336.581C61.6036 336.219 57.4002 331.521 57.6417 326.088L62.0414 227.095C62.2829 221.662 66.8778 217.551 72.3043 217.913L220.303 227.779ZM228.464 238.19C228.675 233.436 224.997 229.325 220.249 229.009L72.2497 219.142C67.5014 218.826 63.4809 222.423 63.2696 227.177L58.8699 326.17C58.6586 330.924 62.3366 335.034 67.0848 335.351L159.814 341.533C170.577 342.25 180.977 345.911 190.1 351.829C194.954 354.978 200.32 358.368 204.829 360.993C207.084 362.306 209.115 363.423 210.757 364.222C211.578 364.621 212.292 364.937 212.883 365.157C213.486 365.382 213.916 365.49 214.182 365.508C218.93 365.824 222.951 362.227 223.162 357.473L228.464 238.19Z" fill="#485DF2" stroke="#151515" stroke-width="1.23093"/>
</svg>
