<svg width="152" height="168" viewBox="0 0 152 168" fill="none" xmlns="http://www.w3.org/2000/svg">
<path d="M41.9091 120.708C31.7833 125.577 12.505 106.688 27.6939 93.6416" stroke="#151515" stroke-width="5.84177"/>
<path d="M65.1897 161.317L63.7281 115.167C65.3241 115.595 69.8652 115.671 73.0502 114.956L75.0439 161.249C74.6976 165.946 65.2106 166.027 65.1897 161.317Z" fill="#30D89B"/>
<path d="M63.8143 118.04L63.8264 115.334L63.8003 114.9L72.6877 114.715L73.039 117.66C71.4048 119.503 65.9232 119.745 63.8143 118.04Z" fill="#137854"/>
<path fill-rule="evenodd" clip-rule="evenodd" d="M63.487 114.861C63.5835 114.784 63.7107 114.758 63.8297 114.79C64.5742 114.989 66.0645 115.116 67.7903 115.1C69.5066 115.083 71.4088 114.925 72.9658 114.575C73.0783 114.55 73.1962 114.576 73.2878 114.646C73.3794 114.716 73.4351 114.823 73.4401 114.939L75.4337 161.231C75.4344 161.246 75.4341 161.261 75.433 161.276C75.3356 162.598 74.5901 163.585 73.5702 164.231C72.5581 164.872 71.2642 165.189 69.9986 165.199C68.7338 165.208 67.4554 164.912 66.4786 164.279C65.4912 163.64 64.8088 162.65 64.8011 161.323L63.3396 115.178C63.3357 115.055 63.3904 114.937 63.487 114.861ZM64.1339 115.651L65.5798 161.303C65.5799 161.307 65.5799 161.31 65.58 161.314C65.5845 162.339 66.0953 163.103 66.902 163.626C67.7207 164.156 68.8396 164.429 69.9926 164.42C71.1445 164.411 72.2886 164.121 73.1534 163.573C74.0042 163.034 74.5724 162.257 74.6545 161.241L72.6817 115.431C71.1513 115.729 69.3873 115.863 67.7979 115.878C66.3597 115.892 65.032 115.809 64.1339 115.651Z" fill="#151515"/>
<path d="M101.106 95.589C139.272 108.051 153.292 66.7696 138.882 44.7656" stroke="#151515" stroke-width="5.84177"/>
<path d="M109.033 42.9158C122.368 66.0135 114.455 95.5484 91.3569 108.884C68.2593 122.219 38.7244 114.305 25.3889 91.2078C12.0535 68.1101 19.9673 38.5752 43.065 25.2397C66.1627 11.9043 95.6976 19.8181 109.033 42.9158ZM33.0047 86.8108C43.9118 105.702 68.0684 112.175 86.96 101.268C105.852 90.361 112.324 66.2044 101.417 47.3128C90.5102 28.4212 66.3536 21.9485 47.462 32.8555C28.5704 43.7626 22.0976 67.9192 33.0047 86.8108Z" fill="#30D89B" stroke="#141414" stroke-width="0.778903"/>
<path d="M86.7812 10.1581C93.9 -0.903785 116.945 12.5841 112.112 23.6425C107.513 33.6039 98.6204 33.1427 93.6911 30.5187C88.7618 27.8948 79.6625 21.22 86.7812 10.1581Z" fill="#151515" stroke="#151515" stroke-width="1.55781" stroke-linecap="round"/>
<path d="M118.461 28.4237C125.58 17.3618 148.624 30.8497 143.792 41.9081C139.192 51.8696 130.3 51.4083 125.371 48.7844C120.441 46.1604 111.342 39.4856 118.461 28.4237Z" fill="#151515" stroke="#151515" stroke-width="1.55781" stroke-linecap="round"/>
<mask id="mask0_1111_158" style="mask-type:alpha" maskUnits="userSpaceOnUse" x="84" y="6" width="61" height="45">
<path d="M86.7812 10.1581C93.9 -0.903785 116.945 12.5841 112.112 23.6425C107.513 33.6039 98.6204 33.1427 93.6911 30.5187C88.7618 27.8948 79.6625 21.22 86.7812 10.1581Z" fill="#303030"/>
<path d="M118.461 28.4237C125.58 17.3618 148.624 30.8497 143.792 41.9081C139.192 51.8696 130.3 51.4083 125.371 48.7844C120.441 46.1604 111.342 39.4856 118.461 28.4237Z" fill="#303030"/>
</mask>
<g mask="url(#mask0_1111_158)">
<path d="M99.2258 35.8363L106.253 5.87428L109.797 6.57099L105.243 37.7229L99.2258 35.8363Z" fill="#F8F8F8"/>
<path d="M123.919 53.1261L131.269 23.2416L134.805 23.9765L129.915 55.0775L123.919 53.1261Z" fill="#F8F8F8"/>
<rect x="98.1191" y="5.66016" width="2.47778" height="25.707" transform="rotate(15.3208 98.1191 5.66016)" fill="#F8F8F8"/>
<rect x="141.205" y="29.0039" width="1.54538" height="25.707" transform="rotate(15.3208 141.205 29.0039)" fill="#F8F8F8"/>
</g>
<path d="M120.314 26.3478C118.622 26.4641 114.745 25.7723 112.768 22.074" stroke="#151515" stroke-width="0.778903" stroke-linecap="round"/>
<path d="M74.9322 83.372C73.7526 63.0971 44.8861 66.4595 46.7305 85.0128C47.4894 90.1692 53.7501 89.9886 53.4379 84.6226C54.1968 89.779 60.7447 89.2757 60.4325 83.9098C61.1914 89.0662 67.6578 89.7912 67.3456 84.4253C67.7269 90.9803 75.2692 89.1648 74.9322 83.372Z" fill="#151515"/>
<path d="M52.9307 71.1422C51.8047 71.802 50.7638 72.6079 49.8492 73.5551L50.1196 74.1577C51.0174 73.1923 52.0521 72.3726 53.1787 71.7051L52.9307 71.1422Z" fill="#F8F8F8"/>
<path fill-rule="evenodd" clip-rule="evenodd" d="M46.1228 85.0744L46.1242 85.0887L46.1263 85.1029C46.5438 87.9398 48.5297 89.4622 50.5128 89.375C51.493 89.3318 52.436 88.8886 53.1046 88.0561C53.3455 87.7562 53.5463 87.4116 53.7006 87.0251C54.5951 88.3309 56.0046 88.9461 57.3916 88.8216C58.3972 88.7313 59.3641 88.2492 60.0535 87.3947C60.2984 87.0911 60.5046 86.7452 60.665 86.3599C61.5284 87.7673 62.8878 88.5979 64.2344 88.7227C65.2288 88.815 66.2258 88.5164 66.9473 87.7549C67.1251 87.5672 67.2818 87.3561 67.4156 87.1226C67.6653 87.5919 67.9758 87.9854 68.3371 88.3015C69.2501 89.1005 70.4145 89.3404 71.5221 89.1303C73.732 88.7113 75.7273 86.5226 75.542 83.3377C75.238 78.1128 73.1411 74.3526 70.1473 71.9877C69.1928 71.2337 68.1523 70.6256 67.0573 70.1578L67.0546 70.1659L66.8615 70.7385C71.1615 72.5936 74.5443 76.705 74.9322 83.3731C75.2303 88.496 69.3662 90.5083 67.742 86.3717C67.5296 85.8307 67.3897 85.1846 67.3456 84.4264C67.3908 85.2025 67.2941 85.8512 67.0935 86.3775C66.0706 89.0601 62.3449 88.5626 60.9198 85.5499C60.6915 85.0672 60.5222 84.52 60.4326 83.9109C60.4694 84.545 60.4106 85.1111 60.2768 85.6081C59.4138 88.8132 55.4346 89.1394 53.9379 86.234C53.7027 85.7775 53.5289 85.2412 53.438 84.6238C53.4748 85.2563 53.4203 85.8167 53.2942 86.3049C52.3507 89.9581 47.4 89.5626 46.7306 85.014C46.2741 80.4219 47.6989 76.7605 50.1196 74.1577L49.8492 73.5551C49.8157 73.5897 49.7824 73.6246 49.7493 73.6596C47.1595 76.3988 45.6446 80.2639 46.1228 85.0744Z" fill="#F8F8F8"/>
<path d="M67.0546 70.1659L67.0573 70.1578C66.6342 69.9766 66.3305 70.5463 66.8615 70.7385L67.0546 70.1659Z" fill="#F8F8F8"/>
<path d="M93.1969 73.0453C91.2303 77.9358 85.3347 78.8754 82.6327 78.7338L81.8252 87.5234L81.7804 88.0117" stroke="#C4C4C4" stroke-width="1.55781" stroke-linecap="round"/>
<path d="M93.003 72.3999C91.0093 77.3462 85.034 78.297 82.2955 78.1541L81.4763 87.0437L81.4307 87.5376" stroke="#151515" stroke-width="0.778903" stroke-linecap="round"/>
<path d="M33.0965 77.5445C34.9848 82.2516 39.5013 82.6957 41.5235 82.3294" stroke="#C3C3C3" stroke-width="1.55781" stroke-linecap="round"/>
<path d="M33.3912 76.8752C35.2795 81.5822 39.796 82.0264 41.8182 81.6601L43.2335 90.8301" stroke="#151515" stroke-width="0.778903" stroke-linecap="round"/>
<path d="M61.7459 47.2115C63.8767 47.3325 65.2902 47.0059 66.3301 46.2353C66.8408 45.8568 67.2013 45.4144 67.4872 45.0031C67.627 44.8019 67.7557 44.598 67.8687 44.4187L67.8735 44.4112C67.9892 44.2277 68.0906 44.0669 68.1985 43.9093C68.5892 43.3384 69.0556 42.8131 70.1091 42.4344C71.2366 42.0291 73.0838 41.7776 76.2611 41.9958C76.9395 42.0424 77.5198 41.482 77.5571 40.7442C77.5945 40.0064 77.0748 39.3705 76.3964 39.3239C73.0877 39.0968 70.8791 39.3314 69.3204 39.8917C67.6877 40.4786 66.8375 41.3981 66.2208 42.2993C66.0843 42.4988 65.9594 42.6968 65.8506 42.8694L65.8364 42.8919C65.7196 43.077 65.6213 43.2321 65.5203 43.3774C65.3245 43.6591 65.1479 43.8601 64.9339 44.0187C64.5241 44.3224 63.7366 44.6449 61.8545 44.538C61.4561 44.5383 60.538 44.5783 60.0529 44.7354L60.7946 47.3808C60.8615 47.2998 61.1219 47.1584 61.644 47.2011C61.6769 47.2038 61.7109 47.2072 61.7459 47.2115Z" fill="#C3C3C3"/>
<path d="M53.7107 47.4349L53.4267 47.348L51.5657 46.7604C45.1661 45.1562 42.1971 48.2948 41.695 49.8279C41.4986 50.4275 40.8158 50.7696 40.17 50.592C39.5242 50.4144 39.16 49.7843 39.3564 49.1847C40.2947 46.32 44.6001 42.8103 51.9119 44.5029L51.913 44.4958C51.9603 44.508 52.0334 44.5277 52.1272 44.554C52.9196 44.747 53.7467 45.0007 54.6081 45.3225C54.6991 45.3565 54.7832 45.3996 54.8597 45.4501C54.9699 45.4935 55.0762 45.5369 55.177 45.58L55.2384 46.8699L55.2879 47.9123C54.7779 47.7607 54.3279 47.6237 53.7982 47.4617C53.7689 47.4538 53.7397 47.4449 53.7107 47.4349Z" fill="#C3C3C3"/>
<path d="M53.8969 47.1547L53.5896 47.0583L51.5759 46.4068C44.6517 44.6266 41.4438 48.0921 40.9023 49.7859C40.6905 50.4484 39.9524 50.8258 39.2537 50.6287C38.5549 50.4317 38.1602 49.7349 38.372 49.0724C39.3837 45.9074 44.0369 42.0333 51.9479 43.9121L51.9491 43.9043C52.0003 43.9178 52.0793 43.9397 52.1808 43.9689C53.0382 44.183 53.9331 44.4644 54.8652 44.821C54.9637 44.8587 55.0547 44.9064 55.1375 44.9624C55.2568 45.0104 55.3718 45.0585 55.4809 45.1063L55.5487 46.5319L55.6035 47.684C55.0517 47.5159 54.5648 47.364 53.9915 47.1843C53.9599 47.1756 53.9283 47.1658 53.8969 47.1547Z" fill="#151515"/>
<path fill-rule="evenodd" clip-rule="evenodd" d="M38.541 49.3614C39.5068 46.1457 44.0122 42.1404 51.7801 44.1088L51.9574 44.1537L51.9575 44.1527L52.0034 44.1667L52.0062 44.1676L52.0091 44.1683C52.852 44.3928 53.7329 44.6874 54.6513 45.0607C54.737 45.0955 54.816 45.1394 54.8878 45.1908L54.9023 45.2012L54.9187 45.2082C55.0033 45.2444 55.0856 45.2805 55.1649 45.3165L55.2773 47.6782C55.1768 47.6454 55.0778 47.6131 54.9795 47.5807L55.0196 47.9385C55.1446 47.9794 55.2713 48.0207 55.4015 48.063L55.6268 48.136L55.5248 45.9923L55.4825 45.1025L55.3927 45.0607C55.2876 45.0119 55.1774 44.9629 55.0634 44.914C54.975 44.8523 54.8784 44.7996 54.7746 44.7574C53.8453 44.3797 52.9523 44.0808 52.0963 43.8527C51.9965 43.8222 51.9178 43.7989 51.8658 43.7843L51.6851 43.7335L51.6832 43.7474C43.8733 41.8463 39.2419 45.8894 38.2274 49.2672C38.1385 49.5635 38.1472 49.8658 38.235 50.1396L38.5094 50.0799C38.4504 49.8754 38.4753 49.5803 38.541 49.3614Z" fill="white"/>
<path d="M61.3187 46.415C63.5866 46.5247 65.0928 46.1992 66.203 45.441C66.7484 45.0686 67.1339 44.6342 67.44 44.2306C67.5897 44.0331 67.7275 43.8331 67.8486 43.6572L67.8537 43.6499C67.9777 43.4698 68.0863 43.3121 68.2018 43.1574C68.6201 42.5972 69.1188 42.0813 70.2419 41.7064C71.444 41.3053 73.4115 41.0516 76.7933 41.252C77.5154 41.2948 78.1354 40.7441 78.1782 40.022C78.221 39.3 77.6703 38.6799 76.9483 38.6371C73.4267 38.4284 71.0744 38.6671 69.4127 39.2217C67.672 39.8027 66.7632 40.7059 66.1029 41.5902C65.9567 41.7859 65.823 41.9802 65.7064 42.1495L65.6912 42.1716C65.5662 42.3532 65.4608 42.5053 65.3527 42.648C65.1431 42.9244 64.9543 43.1218 64.7257 43.2779C64.2882 43.5767 63.4485 43.8955 61.4452 43.7986C61.0211 43.8006 60.0435 43.8435 59.5264 43.9992L60.3052 46.5846C60.3767 46.5051 60.6546 46.3656 61.2102 46.4053C61.2453 46.4078 61.2814 46.411 61.3187 46.415Z" fill="#151515"/>
<path fill-rule="evenodd" clip-rule="evenodd" d="M76.957 38.4745C73.4267 38.2653 71.0503 38.503 69.3599 39.0672C67.5806 39.661 66.6462 40.5885 65.9708 41.493C65.8227 41.6913 65.6875 41.8877 65.5713 42.0565L65.5706 42.0575L65.5554 42.0796C65.4301 42.2615 65.3268 42.4107 65.2213 42.5498C65.0177 42.8184 64.8412 43.0009 64.6325 43.1435C64.237 43.4136 63.4389 43.7319 61.4522 43.6358L61.4479 43.6356L61.4435 43.6357C61.2276 43.6367 60.8728 43.648 60.506 43.6789C60.1423 43.7095 59.7542 43.7601 59.4783 43.8432L59.3215 43.8904L60.2314 46.9112L60.426 46.6949C60.426 46.6949 60.4296 46.6911 60.4375 46.6854C60.4458 46.6793 60.4578 46.6716 60.4741 46.663L60.4004 46.3369L59.7314 44.1158C59.9582 44.0653 60.2455 44.0294 60.5335 44.0052C60.8883 43.9753 61.2321 43.9642 61.4408 43.9631C63.4576 44.0601 64.338 43.7411 64.8171 43.4139C65.0655 43.2443 65.2666 43.0321 65.4822 42.7477C65.593 42.6016 65.7003 42.4464 65.8251 42.2653L65.8403 42.2431C65.9571 42.0736 66.0891 41.8818 66.2331 41.6889C66.8783 40.8248 67.7616 39.9458 69.4636 39.3778C71.0966 38.8328 73.4249 38.5932 76.9376 38.8013C77.5694 38.8388 78.0513 39.3813 78.0138 40.0131C77.9906 40.4054 77.8897 40.8222 77.5765 41.0104C77.9649 40.7657 78.3115 40.5257 78.3407 40.0325C78.3888 39.2202 77.7693 38.5226 76.957 38.4745Z" fill="white"/>
<path d="M55.0098 45.5264C55.1498 48.4699 55.3421 51.7715 57.6472 47.8594" stroke="#151515" stroke-width="0.584177" stroke-linecap="round"/>
<path d="M59.7057 44.3188C62.1117 50.1047 57.8637 52.1097 57.6225 47.0403" stroke="#151515" stroke-width="0.584177" stroke-linecap="round"/>
<path d="M59.8668 102.495C68.2889 108.301 77.009 99.9311 81.2584 93.9378L63.9117 89.1627L48.3653 91.5692C44.4094 94.5437 45.5539 97.9311 45.9588 99.5509C46.3637 101.171 50.109 107.548 58.8441 101.675C59.1606 101.969 59.5022 102.244 59.8668 102.495Z" fill="white"/>
<path d="M81.2593 93.9379C77.0099 99.9312 68.2898 108.301 59.8678 102.495C59.5032 102.244 59.1615 101.969 58.845 101.675M57.7656 92.761C55.2281 95.0884 56.0724 99.1033 58.845 101.675M58.845 101.675C50.11 107.548 46.3646 101.171 45.9598 99.5509C45.5549 97.9312 44.4103 94.5437 48.3663 91.5692" stroke="black" stroke-width="0.778903" stroke-linecap="round"/>
<ellipse cx="50.3892" cy="96.5538" rx="2.61944" ry="3.43801" transform="rotate(-2.72396 50.3892 96.5538)" fill="#E7E4E4"/>
<ellipse cx="62.8264" cy="96.1255" rx="3.2743" ry="4.25659" transform="rotate(-2.72396 62.8264 96.1255)" fill="#E7E4E4"/>
<rect x="60.1985" y="53.3705" width="26.7252" height="10.0263" rx="5.01314" transform="rotate(-2.72396 60.1985 53.3705)" stroke="#151515" stroke-width="0.778903"/>
<mask id="mask1_1111_158" style="mask-type:alpha" maskUnits="userSpaceOnUse" x="60" y="51" width="28" height="13">
<rect x="59.791" y="53" width="27.5041" height="10.8052" rx="5.40259" transform="rotate(-2.72396 59.791 53)" fill="#D9D9D9"/>
</mask>
<g mask="url(#mask1_1111_158)">
<path d="M77.2522 57.6167C77.2638 57.9624 77.2664 58.3188 77.2592 58.6858C77.2411 59.6062 77.1616 60.446 77.0313 61.2053C75.7303 68.7871 69.3696 68.352 68.6631 60.0909C68.6001 59.3545 68.5821 58.556 68.6165 57.6953C68.9966 48.2056 74.798 47.6132 76.6792 53.863L73.3898 56.6776L77.2522 57.6167Z" fill="#151515" stroke="#151515" stroke-width="0.778903"/>
</g>
<rect x="32.0735" y="54.7094" width="26.7252" height="10.0263" rx="5.01314" transform="rotate(-2.72396 32.0735 54.7094)" fill="white" stroke="#151515" stroke-width="0.778903"/>
<mask id="mask2_1111_158" style="mask-type:alpha" maskUnits="userSpaceOnUse" x="31" y="53" width="29" height="12">
<rect x="31.666" y="54.3389" width="27.5041" height="10.8052" rx="5.40259" transform="rotate(-2.72396 31.666 54.3389)" fill="#D9D9D9"/>
</mask>
<g mask="url(#mask2_1111_158)">
<path d="M49.2385 55.8082C46.6769 48.5979 40.4385 51.5491 41.5401 61.113C41.6454 62.0275 41.8043 62.8559 42.0061 63.5995C44.0211 71.0236 50.3118 69.9865 50.2307 61.6956C50.2245 61.0574 50.1805 60.3762 50.0939 59.6525L45.929 58.6399L49.2385 55.8082Z" fill="#151515" stroke="#151515" stroke-width="0.778903"/>
</g>
<path d="M140.6 55.2677C137.054 55.2879 137.274 51.6839 137.827 49.8794C139.296 43.1068 143.975 43.5101 145.983 43.7671C149.558 44.2247 149.073 47.7933 148.806 48.5301C148.138 50.372 145.033 55.2425 140.6 55.2677Z" fill="#151515"/>
<path d="M49.3343 106.265C45.7302 102.993 43.7862 108.761 42.3089 117.572C40.3938 117.649 37.48 118.858 41.146 123.07C45.7284 128.336 52.6949 128.264 55.3073 128.238C57.9197 128.211 61.4257 121.905 58.9215 115.486C56.9181 110.351 52.2636 111.664 50.1868 112.962C51.104 111.821 52.2177 108.883 49.3343 106.265Z" fill="#151515"/>
<path d="M52.7539 116.655L51.274 112.823C54.3338 110.872 62.5993 106.056 65.7483 106.154C68.8972 106.252 68.4705 108.98 67.6113 110.056C65.8171 112.302 52.7539 116.655 52.7539 116.655Z" fill="#151515" stroke="#151515" stroke-width="0.778903" stroke-linecap="round" stroke-linejoin="round"/>
<path d="M15.6773 18.5284C15.7544 18.5177 15.8381 18.5136 15.9268 18.5177C16.7355 18.4104 17.8969 17.5801 17.9371 14.9383C18.204 17.5669 19.4325 18.2945 20.2475 18.3319C20.3354 18.3202 20.4192 18.3171 20.497 18.3212C20.4199 18.3319 20.3361 18.336 20.2475 18.3319C19.4387 18.4391 18.2774 19.2693 18.2372 21.9111C17.9703 19.2825 16.7418 18.5551 15.9268 18.5177C15.8388 18.5294 15.755 18.5325 15.6773 18.5284Z" fill="#FFEF9B"/>
<path d="M15.6773 18.5284C15.7544 18.5177 15.8381 18.5136 15.9268 18.5177C16.7355 18.4104 17.8969 17.5801 17.9371 14.9383C18.204 17.5669 19.4325 18.2945 20.2475 18.3319C20.3354 18.3202 20.4192 18.3171 20.497 18.3212C20.4199 18.3319 20.3361 18.336 20.2475 18.3319C19.4387 18.4391 18.2774 19.2693 18.2372 21.9111C17.9703 19.2825 16.7418 18.5551 15.9268 18.5177C15.8388 18.5294 15.755 18.5325 15.6773 18.5284Z" fill="#FFEF9B"/>
<path d="M15.6773 18.5284C15.7544 18.5177 15.8381 18.5136 15.9268 18.5177C16.7355 18.4104 17.8969 17.5801 17.9371 14.9383C18.204 17.5669 19.4325 18.2945 20.2475 18.3319C20.3354 18.3202 20.4192 18.3171 20.497 18.3212C20.4199 18.3319 20.3361 18.336 20.2475 18.3319C19.4387 18.4391 18.2774 19.2693 18.2372 21.9111C17.9703 19.2825 16.7418 18.5551 15.9268 18.5177C15.8388 18.5294 15.755 18.5325 15.6773 18.5284Z" stroke="#151515" stroke-width="0.778902" stroke-linejoin="round"/>
<path d="M11.5083 27.9216C11.6543 27.9014 11.813 27.8936 11.981 27.9013C13.5134 27.6983 15.7139 26.1274 15.7904 21.1297C16.2957 26.1024 18.6233 27.4786 20.1676 27.5493C20.3342 27.5272 20.493 27.5213 20.6403 27.529C20.4942 27.5492 20.3355 27.557 20.1676 27.5493C18.6352 27.7522 16.4347 29.3228 16.3581 34.3205C15.8528 29.3478 13.5252 27.9719 11.981 27.9013C11.8143 27.9234 11.6555 27.9293 11.5083 27.9216Z" fill="#FFEF9B"/>
<path d="M11.5083 27.9216C11.6543 27.9014 11.813 27.8936 11.981 27.9013C13.5134 27.6983 15.7139 26.1274 15.7904 21.1297C16.2957 26.1024 18.6233 27.4786 20.1676 27.5493C20.3342 27.5272 20.493 27.5213 20.6403 27.529C20.4942 27.5492 20.3355 27.557 20.1676 27.5493C18.6352 27.7522 16.4347 29.3228 16.3581 34.3205C15.8528 29.3478 13.5252 27.9719 11.981 27.9013C11.8143 27.9234 11.6555 27.9293 11.5083 27.9216Z" fill="#FFEF9B"/>
<path d="M11.5083 27.9216C11.6543 27.9014 11.813 27.8936 11.981 27.9013C13.5134 27.6983 15.7139 26.1274 15.7904 21.1297C16.2957 26.1024 18.6233 27.4786 20.1676 27.5493C20.3342 27.5272 20.493 27.5213 20.6403 27.529C20.4942 27.5492 20.3355 27.557 20.1676 27.5493C18.6352 27.7522 16.4347 29.3228 16.3581 34.3205C15.8528 29.3478 13.5252 27.9719 11.981 27.9013C11.8143 27.9234 11.6555 27.9293 11.5083 27.9216Z" stroke="#151515" stroke-width="0.778902" stroke-linejoin="round"/>
<path d="M107.199 113.165C107.276 113.154 107.36 113.15 107.448 113.154C108.257 113.047 109.418 112.217 109.459 109.575C109.725 112.204 110.954 112.931 111.769 112.969C111.857 112.957 111.941 112.954 112.018 112.958C111.941 112.969 111.858 112.973 111.769 112.969C110.96 113.076 109.799 113.906 109.759 116.548C109.492 113.919 108.263 113.192 107.448 113.154C107.36 113.166 107.276 113.169 107.199 113.165Z" fill="#FFEF9B"/>
<path d="M107.199 113.165C107.276 113.154 107.36 113.15 107.448 113.154C108.257 113.047 109.418 112.217 109.459 109.575C109.725 112.204 110.954 112.931 111.769 112.969C111.857 112.957 111.941 112.954 112.018 112.958C111.941 112.969 111.858 112.973 111.769 112.969C110.96 113.076 109.799 113.906 109.759 116.548C109.492 113.919 108.263 113.192 107.448 113.154C107.36 113.166 107.276 113.169 107.199 113.165Z" fill="#FFEF9B"/>
<path d="M107.199 113.165C107.276 113.154 107.36 113.15 107.448 113.154C108.257 113.047 109.418 112.217 109.459 109.575C109.725 112.204 110.954 112.931 111.769 112.969C111.857 112.957 111.941 112.954 112.018 112.958C111.941 112.969 111.858 112.973 111.769 112.969C110.96 113.076 109.799 113.906 109.759 116.548C109.492 113.919 108.263 113.192 107.448 113.154C107.36 113.166 107.276 113.169 107.199 113.165Z" stroke="#151515" stroke-width="0.778902" stroke-linejoin="round"/>
<path d="M103.03 122.558C103.176 122.538 103.335 122.53 103.502 122.538C105.035 122.335 107.235 120.764 107.312 115.766C107.817 120.739 110.145 122.115 111.689 122.186C111.856 122.164 112.015 122.158 112.162 122.166C112.016 122.186 111.857 122.194 111.689 122.186C110.157 122.389 107.956 123.96 107.88 128.957C107.374 123.985 105.047 122.609 103.502 122.538C103.336 122.56 103.177 122.566 103.03 122.558Z" fill="#FFEF9B"/>
<path d="M103.03 122.558C103.176 122.538 103.335 122.53 103.502 122.538C105.035 122.335 107.235 120.764 107.312 115.766C107.817 120.739 110.145 122.115 111.689 122.186C111.856 122.164 112.015 122.158 112.162 122.166C112.016 122.186 111.857 122.194 111.689 122.186C110.157 122.389 107.956 123.96 107.88 128.957C107.374 123.985 105.047 122.609 103.502 122.538C103.336 122.56 103.177 122.566 103.03 122.558Z" fill="#FFEF9B"/>
<path d="M103.03 122.558C103.176 122.538 103.335 122.53 103.502 122.538C105.035 122.335 107.235 120.764 107.312 115.766C107.817 120.739 110.145 122.115 111.689 122.186C111.856 122.164 112.015 122.158 112.162 122.166C112.016 122.186 111.857 122.194 111.689 122.186C110.157 122.389 107.956 123.96 107.88 128.957C107.374 123.985 105.047 122.609 103.502 122.538C103.336 122.56 103.177 122.566 103.03 122.558Z" stroke="#151515" stroke-width="0.778902" stroke-linejoin="round"/>
</svg>
