<?xml version="1.0" encoding="UTF-8"?>
<!DOCTYPE svg PUBLIC "-//W3C//DTD SVG 1.1//EN" "http://www.w3.org/Graphics/SVG/1.1/DTD/svg11.dtd">
<!-- Creator: CorelDRAW 2019 (64 Bit) -->
<svg xmlns="http://www.w3.org/2000/svg" xml:space="preserve" width="225.749mm" height="56.4372mm" version="1.1" style="shape-rendering:geometricPrecision; text-rendering:geometricPrecision; image-rendering:optimizeQuality; fill-rule:evenodd; clip-rule:evenodd"
viewBox="0 0 23416.87 5854.2"
 xmlns:xlink="http://www.w3.org/1999/xlink">
 <defs>
  <style type="text/css">
   <![CDATA[
    .fil0 {fill:none}
    .fil8 {fill:#151515}
    .fil1 {fill:#30D89B}
    .fil3 {fill:#485DF2}
    .fil5 {fill:white}
    .fil4 {fill:black;fill-rule:nonzero}
    .fil2 {fill:#151515;fill-rule:nonzero}
    .fil6 {fill:white;fill-opacity:0.000000}
    .fil7 {fill:#151515}
   ]]>
  </style>
    <clipPath id="id0">
     <path d="M6555.37 965.79c0,-141.12 114.39,-255.53 255.52,-255.53l9795.12 0c141.12,0 255.49,114.4 255.49,255.53l0 2742.68c0,141.12 -114.36,255.53 -255.49,255.53l-8230.58 0c-315.95,0 -625.18,86.84 -900.55,241.8 -270.71,152.35 -586.82,320.34 -663.99,320.34 -141.12,0 -255.52,-114.4 -255.52,-255.53l0 -3304.82z"/>
    </clipPath>
    <clipPath id="id1">
     <path d="M6555.37 965.79c0,-141.12 114.39,-255.53 255.52,-255.53l9795.12 0c141.12,0 255.49,114.4 255.49,255.53l0 2742.68c0,141.12 -114.36,255.53 -255.49,255.53l-8230.58 0c-315.95,0 -625.18,86.84 -900.55,241.8 -270.71,152.35 -586.82,320.34 -663.99,320.34 -141.12,0 -255.52,-114.4 -255.52,-255.53l0 -3304.82z"/>
    </clipPath>
 </defs>
 <g id="Camada_x0020_1">
  <metadata id="CorelCorpID_0Corel-Layer"/>
  <rect class="fil0" x="-0" y="-0" width="23416.87" height="5854.2"/>
  <g id="_2042874822640">
   <path class="fil1" d="M16732.21 2334.34c0,-270.98 -219.69,-490.64 -490.67,-490.64l-7933.38 0c-270.98,0 -490.64,219.66 -490.64,490.64l0 2266.71c0,270.94 219.66,490.64 490.64,490.64l5.18 0 5.26 0 5.32 0 5.45 0 5.45 0 5.55 0 5.63 0 5.71 0 5.75 0 5.86 0 5.89 0 5.97 0 6.05 0 6.12 0 6.2 0 6.23 0 6.35 0 6.39 0 6.46 0 6.53 0 6.58 0 6.69 0 6.72 0 6.8 0 6.88 0 6.96 0 6.99 0 7.06 0 7.15 0 7.22 0 7.25 0 7.33 0 7.41 0 7.48 0 7.53 0 7.59 0 7.63 0 7.75 0 7.78 0 7.83 0 7.94 0 7.97 0 8.02 0 8.12 0 8.16 0 8.21 0 8.31 0 8.36 0 8.38 0 8.47 0 8.54 0 8.58 0 8.65 0 8.73 0 8.77 0 8.81 0 8.89 0 8.95 0 9.03 0 9.03 0 9.14 0 9.19 0 9.22 0 9.29 0 9.34 0 9.41 0 9.49 0 9.52 0 9.56 0 9.64 0 9.71 0 9.75 0 9.79 0 9.86 0 9.9 0 9.95 0 10.05 0 10.05 0 10.12 0 10.17 0 10.25 0 10.28 0 10.31 0 10.39 0 10.44 0 10.51 0 10.54 0 10.59 0 10.65 0 10.69 0 10.74 0 10.81 0 10.85 0 10.88 0 10.96 0 11 0 11.04 0 11.11 0 11.11 0 11.19 0 11.25 0 11.31 0 11.3 0 11.38 0 11.45 0 11.45 0 11.52 0 11.57 0 11.61 0 11.67 0 11.68 0 11.75 0 11.79 0 11.83 0 11.91 0 11.91 0 11.98 0 12.01 0 12.06 0 12.09 0 12.13 0 12.17 0 12.25 0 12.24 0 12.32 0 12.36 0 12.4 0 12.43 0 12.48 0 12.51 0 12.54 0 12.59 0 12.65 0 12.67 0 12.74 0 12.73 0 12.78 0 12.85 0 12.85 0 12.92 0 12.92 0 13 0 13 0 13.08 0 13.08 0 13.15 0 13.15 0 13.18 0 13.23 0 13.31 0 13.3 0 13.34 0 13.35 0 13.41 0 13.45 0 13.5 0 13.5 0 13.57 0 13.57 0 13.6 0 13.65 0 13.67 0 13.72 0 13.72 0 13.8 0 13.79 0 13.84 0 13.87 0 13.87 0 13.95 0 13.94 0 14.02 0 13.98 0 14.06 0 14.07 0 14.1 0 14.13 0 14.18 0 14.17 0 14.21 0 14.25 0 14.28 0 14.28 0 14.33 0 14.36 0 14.37 0 14.4 0 14.44 0 14.47 0 14.48 0 14.51 0 14.51 0 14.55 0 14.58 0 14.58 0 14.64 0 14.66 0 14.67 0 14.7 0 14.7 0 14.74 0 14.78 0 14.78 0 14.81 0 14.81 0 14.85 0 14.85 0 14.89 0 14.94 0 14.93 0 14.93 0 14.97 0 15 0 15.01 0 15.04 0 15.04 0 15.04 0 15.08 0 15.11 0 15.12 0 15.11 0 15.15 0 15.2 0 15.19 0 15.2 0 15.2 0 15.23 0 15.27 0 15.27 0 15.27 0 15.31 0 15.3 0 15.31 0 15.34 0 15.34 0 15.38 0 15.38 0 15.38 0 15.38 0 15.41 0 15.42 0 15.46 0 15.46 0 15.46 0 15.5 0 15.46 0 15.5 0 15.54 0 15.5 0 15.53 0 15.54 0 15.53 0 15.57 0 15.57 0 15.57 0 15.57 0 15.61 0 15.57 0 15.61 0 15.61 0 15.61 0 15.64 0 15.61 0 15.64 0 15.65 0 15.64 0 15.68 0 15.64 0 15.68 0 15.65 0 15.68 0 15.68 0 15.68 0 15.68 0 15.68 0 15.73 0 15.68 0 15.72 0 15.69 0 15.72 0 15.68 0 15.73 0 15.73 0 15.72 0 15.68 0 15.73 0 15.73 0 15.72 0 15.73 0 15.68 0 15.73 0 15.73 0 15.72 0 15.68 0 15.73 0 15.73 0 15.68 0 15.72 0 15.73 0 15.68 0 15.68 0 15.68 0 15.73 0 15.64 0 15.73 0 15.64 0 15.68 0 15.68 0 15.65 0 15.64 0 15.65 0 15.64 0 15.64 0 15.65 0 15.61 0 15.64 0 15.61 0 15.61 0 15.57 0 15.6 0 15.58 0 15.57 0 15.57 0 15.57 0 15.53 0 15.54 0 15.53 0 15.54 0 15.5 0 15.49 0 15.5 0 15.46 0 15.5 0 15.42 0 15.46 0 15.42 0 15.41 0 15.42 0 15.37 0 15.38 0 15.35 0 15.38 0 15.34 0 15.3 0 15.31 0 15.31 0 15.27 0 15.27 0 15.27 0 15.23 0 15.2 0 15.23 0 15.2 0 15.15 0 15.15 0 15.11 0 15.11 0 15.12 0 15.08 0 15.07 0 15.04 0 15.04 0 15.01 0 15 0 14.97 0 14.93 0 14.94 0 14.93 0 14.89 0 14.85 0 14.85 0 14.85 0 14.78 0 14.81 0 14.74 0 14.77 0 14.71 0 14.7 0 14.67 0 14.66 0 14.63 0 14.59 0 14.58 0 14.55 0 14.55 0 14.47 0 14.51 0 14.44 0 14.44 0 14.4 0 14.4 0 14.37 0 14.31 0 14.29 0 14.28 0 14.25 0 14.2 0 14.18 0 14.17 0 14.14 0 14.1 0 14.1 0 14.06 0 13.98 0 14.02 0 13.94 0 13.95 0 13.87 0 13.87 0 13.84 0 13.83 0 13.75 0 13.76 0 13.71 0 13.68 0 13.64 0 13.61 0 13.61 0 13.53 0 13.54 0 13.45 0 13.45 0 13.41 0 13.38 0 13.34 0 13.34 0 13.27 0 13.23 0 13.24 0 13.14 0 13.15 0 13.08 0 13.08 0 13 0 13 0 12.92 0 12.94 0 12.88 0 12.81 0 12.81 0 12.74 0 12.74 0 12.65 0 12.67 0 12.58 0 12.55 0 12.55 0 12.47 0 12.44 0 12.4 0 12.35 0 12.32 0 12.28 0 12.21 0 12.21 0 12.13 0 12.09 0 12.05 0 12.02 0 11.98 0 11.94 0 11.87 0 11.88 0 11.78 0 11.75 0 11.72 0 11.64 0 11.61 0 11.6 0 11.52 0 11.45 0 11.45 0 11.38 0 11.34 0 11.31 0 11.22 0 11.18 0 11.15 0 11.11 0 11.04 0 11 0 10.96 0 10.92 0 10.85 0 10.81 0 10.73 0 10.69 0 10.66 0 10.62 0 10.54 0 10.51 0 10.44 0 10.39 0 10.35 0 10.28 0 10.24 0 10.17 0 10.13 0 10.09 0 10.01 0 9.98 0 9.91 0 9.86 0 9.82 0 9.75 0 9.68 0 9.64 0 9.59 0 9.52 0 9.49 0 9.41 0 9.34 0c309.72,0 604.73,107.03 868.38,266.52 90.97,55.06 187.23,108.04 276.69,147.28 89.91,39.39 171.25,64.1 232.85,64.1 270.98,0 490.67,-219.66 490.67,-490.6l0 -2744.65zm-531.56 -178.47c121.08,0 219.39,98.23 219.39,219.43l0 2649.03c0,121.21 -98.3,219.43 -219.39,219.43 -9.91,0 -22.3,-2.6 -35.91,-6.61 -13.91,-4.13 -30.2,-10.06 -48.37,-17.39 -36.33,-14.74 -80.96,-35.61 -130.2,-60.13 -98.53,-49.1 -216.41,-113.42 -324.95,-174.54 -218.71,-123.05 -464.11,-191.95 -714.72,-191.95l-6597.37 0c-121.2,0 -219.43,-98.22 -219.43,-219.43l0 -2198.42c0,-121.2 98.23,-219.43 219.43,-219.43l7851.52 0z"/>
   <path class="fil2" d="M16717.58 2334.34c0,-131.45 -53.29,-250.5 -139.42,-336.62 -86.1,-86.1 -205.15,-139.38 -336.63,-139.38l-7933.36 0c-131.49,0 -250.54,53.29 -336.63,139.38 -86.1,86.1 -139.38,205.15 -139.38,336.62l0 2266.73c0,131.48 53.29,250.53 139.38,336.62 86.1,86.1 205.15,139.38 336.63,139.38l6555.43 0c148.83,0 294.6,24.6 435.12,67.69 154.16,47.28 301.97,116.93 440.79,200.94 48.3,29.22 97.78,57.72 146.26,83.52 43.62,23.21 87.04,44.68 128.73,62.93 45.99,20.14 89.73,36.43 129.4,47.35 36.13,9.91 69.09,15.46 97.62,15.46 131.49,0 250.54,-53.29 336.63,-139.38 86.14,-86.05 139.42,-205.15 139.42,-336.59l0 -2744.66zm-118.79 -357.25c91.47,91.46 148.04,217.76 148.04,357.25l0 2744.66c0,139.42 -56.62,265.81 -148.04,357.22 -91.42,91.43 -217.84,148 -357.27,148 -30.72,0 -66.32,-5.96 -105.33,-16.66 -41.19,-11.34 -86.21,-28.09 -133.33,-48.72 -42.49,-18.63 -86.58,-40.4 -130.77,-63.91 -49.93,-26.57 -99.74,-55.26 -147.62,-84.21 -137.15,-82.99 -282.81,-151.66 -434.29,-198.15 -137.52,-42.18 -280.39,-66.25 -426.58,-66.25l-6555.43 0c-139.42,0 -265.77,-56.57 -357.23,-147.99 -91.46,-91.5 -148.03,-217.85 -148.03,-357.27l0 -2266.73c0,-139.41 56.57,-265.84 148,-357.25 91.5,-91.43 217.84,-148 357.27,-148l7933.36 0c139.42,0 265.85,56.57 357.27,148zm-398.16 164.17c64.52,0 123.14,26.26 165.46,68.6 42.33,42.4 68.57,100.91 68.57,165.46l0 2649.04c0,64.55 -26.23,123.05 -68.57,165.42 -42.32,42.37 -100.94,68.64 -165.46,68.64 -5.71,0 -12.24,-0.76 -19.27,-2.12 -6.53,-1.21 -13.57,-3.03 -20.75,-5.14l-23.4 -7.78 -26.26 -10.05c-18.14,-7.33 -38.7,-16.37 -60.96,-26.69 -22.52,-10.42 -46.18,-21.88 -70.33,-33.9 -45.46,-22.63 -95.4,-48.75 -146.71,-76.3 -59.6,-32.01 -120.75,-65.84 -178.88,-98.56 -109.53,-61.6 -225.89,-109.61 -346.11,-141.88 -117.42,-31.52 -238.82,-48.19 -361.46,-48.19l-6597.36 0c-64.55,0 -123.1,-26.22 -165.46,-68.55 -42.36,-42.4 -68.6,-100.91 -68.6,-165.5l0 -2198.42c0,-64.59 26.23,-123.1 68.55,-165.46 42.4,-42.37 100.95,-68.6 165.5,-68.6l7851.5 0zm144.87 89.23c-37.08,-37.03 -88.33,-59.98 -144.87,-59.98l-7851.5 0c-56.57,0 -107.86,22.94 -144.86,59.95 -37,36.99 -59.95,88.24 -59.95,144.86l0 2198.42c0,56.62 22.94,107.87 59.95,144.87 37,37 88.28,59.93 144.86,59.93l6597.36 0c125.09,0 249.01,17.05 369.02,49.25 122.67,32.91 241.27,81.82 352.84,144.6 58.5,32.91 119.62,66.78 178.43,98.34 50.68,27.22 100.26,53.14 145.89,75.86l69.58 33.6c21.35,9.9 41.46,18.7 59.59,26.08l25.25 9.75 21.77 7.18 17.91 4.46c5.03,0.94 9.75,1.51 13.87,1.51 56.54,0 107.79,-22.94 144.83,-59.98 37,-37 59.95,-88.25 59.95,-144.83l0 -2649.04c0,-56.57 -22.94,-107.83 -59.9,-144.83z"/>
   <path class="fil3" d="M6759.79 284.37c-348.12,0 -630.32,282.21 -630.32,630.32l0 3424.06c0,348.13 282.21,630.32 630.32,630.32 161.64,0 417.47,-128.57 645.14,-266.33 327,-197.81 691.74,-329.9 1073.91,-329.9 1986.66,0 7081.58,0 8178.27,0 348.09,0 630.29,-282.21 630.29,-630.32l0 -2827.83c0,-348.12 -282.21,-630.32 -630.29,-630.32l-9897.32 0zm51.1 425.89c-141.12,0 -255.52,114.4 -255.52,255.53l0 3304.82c0,141.12 114.39,255.53 255.52,255.53 77.17,0 393.28,-167.99 663.99,-320.34 275.37,-154.96 584.6,-241.8 900.55,-241.8l8230.58 0c141.12,0 255.49,-114.4 255.49,-255.53l0 -2742.68c0,-141.12 -114.36,-255.53 -255.49,-255.53l-9795.12 0z"/>
   <path class="fil4" d="M6759.79 298.77c-170.06,0 -324.11,68.97 -435.53,180.39 -111.42,111.42 -180.4,265.43 -180.4,435.54l0 3424.08c0,170.11 68.98,324.11 180.4,435.53 111.42,111.42 265.46,180.4 435.53,180.4 70.71,0 160.7,-25.59 258.59,-65.99 121.05,-49.93 254.28,-122.71 379.15,-198.27 171.96,-104 354.46,-190.06 544.49,-248.41 173.52,-53.25 353.23,-83.56 536.83,-83.56l8178.26 0c170.07,0 324.08,-68.97 435.5,-180.39 111.42,-111.42 180.4,-265.46 180.4,-435.54l0 -2827.84c0,-170.07 -68.98,-324.12 -180.4,-435.54 -111.42,-111.42 -265.42,-180.39 -435.5,-180.39l-9897.32 0zm-455.86 160.05c116.62,-116.63 277.89,-188.85 455.86,-188.85l9897.32 0c177.97,0 339.21,72.22 455.83,188.85 116.63,116.63 188.86,277.9 188.86,455.87l0 2827.84c0,177.97 -72.23,339.24 -188.86,455.87 -116.62,116.63 -277.86,188.85 -455.83,188.85l-8178.26 0c-180.81,0 -357.68,29.82 -528.36,82.21 -187.57,57.6 -367.96,142.71 -538.15,245.62 -125.63,76 -260.17,149.43 -383.08,200.16 -101.28,41.8 -194.9,68.25 -269.47,68.25 -177.97,0 -339.24,-72.23 -455.86,-188.85 -116.63,-116.63 -188.86,-277.86 -188.86,-455.87l0 -3424.08c0,-178.01 72.23,-339.24 188.86,-455.87zm506.96 265.84c-66.58,0 -126.94,27.03 -170.52,70.57 -43.58,43.61 -70.6,103.97 -70.6,170.56l0 3304.84c0,66.58 27.02,126.94 70.6,170.52 43.58,43.58 103.94,70.6 170.52,70.6 31.45,0 108.88,-31.55 208.4,-79.59 129.7,-62.55 296.26,-153.18 448.57,-238.9 140.29,-78.95 289.38,-140.37 443.59,-181.79 150.76,-40.48 306.58,-61.86 463.99,-61.86l8230.57 0c66.59,0 126.91,-27.02 170.49,-70.6 43.58,-43.58 70.6,-103.94 70.6,-170.53l0 -2742.69c0,-66.59 -27.02,-126.95 -70.56,-170.56 -43.62,-43.54 -103.94,-70.57 -170.53,-70.57l-9795.12 0zm-190.82 50.27c48.87,-48.83 116.37,-79.06 190.82,-79.06l9795.12 0c74.46,0 142.04,30.28 190.82,79.06 48.84,48.91 79.06,116.41 79.06,190.86l0 2742.69c0,74.46 -30.23,141.95 -79.06,190.82 -48.78,48.84 -116.36,79.1 -190.82,79.1l-8230.57 0c-154.88,0 -308.21,21.05 -456.59,60.89 -151.86,40.78 -298.76,101.28 -436.93,179.07 -152.23,85.67 -319.18,176.45 -450.17,239.65 -103.18,49.77 -184.81,82.54 -220.87,82.54 -74.45,0 -141.95,-30.23 -190.82,-79.06 -48.87,-48.91 -79.09,-116.41 -79.09,-190.85l0 -3304.84c0,-74.46 30.23,-141.95 79.09,-190.86z"/>
   <path class="fil5" d="M6555.37 965.79c0,-141.12 114.39,-255.53 255.52,-255.53l9795.12 0c141.12,0 255.49,114.4 255.49,255.53l0 2742.68c0,141.12 -114.36,255.53 -255.49,255.53l-8230.58 0c-315.95,0 -625.18,86.84 -900.55,241.8 -270.71,152.35 -586.82,320.34 -663.99,320.34 -141.12,0 -255.52,-114.4 -255.52,-255.53l0 -3304.82z"/>
   <g style="clip-path:url(#id0)">
    <polygon class="fil6" points="6555.37,710.27 16861.5,710.27 16861.5,4526.14 6555.37,4526.14 "/>
   </g>
   <g style="clip-path:url(#id1)">
    <g>
     <path id="1" class="fil7" d="M6573.59 965.79c0,-131.06 106.23,-237.3 237.31,-237.3l0 -36.44c-151.19,0 -273.75,122.57 -273.75,273.74l36.44 0zm0 3304.84l0 -3304.84 -36.44 0 0 3304.84 36.44 0zm237.31 237.3c-131.08,0 -237.31,-106.24 -237.31,-237.3l-36.44 0c0,151.21 122.57,273.73 273.75,273.73l0 -36.43zm10032.43 -799.45c0,131.07 -106.2,237.31 -237.31,237.31l0 36.43c151.22,0 273.81,-122.56 273.81,-273.74l-36.5 0zm0 -2742.69l0 2742.69 36.5 0 0 -2742.69 -36.5 0zm-237.31 -237.3c131.11,0 237.31,106.24 237.31,237.3l36.5 0c0,-151.18 -122.6,-273.74 -273.81,-273.74l0 36.44zm-9795.11 0l9795.11 0 0 -36.44 -9795.11 0 0 36.44zm9795.11 3217.31l-8230.57 0 0 36.43 8230.57 0 0 -36.43zm-9140.04 244.15c-135.3,76.12 -281.68,156.01 -403.79,216.86 -61.08,30.42 -115.8,55.97 -159.91,73.86 -22.07,8.95 -41.19,15.87 -56.96,20.52 -16.14,4.76 -27.47,6.76 -34.42,6.76l0 36.43c12.31,0 27.73,-3.22 44.74,-8.24 17.34,-5.13 37.68,-12.51 60.33,-21.73 45.35,-18.37 101.01,-44.37 162.46,-74.99 122.91,-61.23 269.92,-141.5 405.37,-217.73l-17.83 -31.74zm909.47 -244.15c-319.32,0 -631.6,87.79 -909.47,244.15l17.83 31.74c272.88,-153.51 579.02,-239.46 891.64,-239.46l0 -36.43zm-2209.53 -3031.11c0,-327.96 265.91,-593.88 593.88,-593.88l0 -72.87c-368.22,0 -666.75,298.53 -666.75,666.75l72.87 0zm0 3424.08l0 -3424.08 -72.87 0 0 3424.08 72.87 0zm593.88 593.9c-327.97,0 -593.88,-265.89 -593.88,-593.9l-72.87 0c0,368.23 298.53,666.77 666.75,666.77l0 -72.87zm10491.21 -1190.13c0,328.01 -265.87,593.88 -593.89,593.88l0 72.87c368.19,0 666.79,-298.52 666.79,-666.75l-72.9 0zm0 -2827.85l0 2827.85 72.9 0 0 -2827.85 -72.9 0zm-593.89 -593.88c328.02,0 593.89,265.92 593.89,593.88l72.9 0c0,-368.22 -298.61,-666.75 -666.79,-666.75l0 72.87zm-9897.32 0l9897.32 0 0 -72.87 -9897.32 0 0 72.87zm9897.32 4015.62c-2.07,0 -4.26,0 -6.5,0 -2.07,0 -4.26,0 -6.49,0 -2.19,0 -4.5,0 -6.69,0 -2.19,0 -4.5,0 -6.69,0 -2.3,0 -4.61,0 -6.92,0 -2.29,0 -4.57,0 -6.88,0 -2.3,0 -4.72,0 -7.02,0 -2.39,0 -4.69,0 -7.06,0 -2.43,0 -4.81,0 -7.22,0 -2.39,0 -4.81,0 -7.3,0 -2.42,0 -4.92,0 -7.41,0 -2.39,0 -4.89,0 -7.42,0 -2.48,0 -4.98,0 -7.59,0 -2.49,0 -4.98,0 -7.59,0 -2.5,0 -5.1,0 -7.67,0 -2.61,0 -5.22,0 -7.83,0 -2.6,0 -5.29,0 -7.89,0 -2.69,0 -5.29,0 -8.01,0 -2.69,0 -5.37,0 -8.09,0 -2.69,0 -5.4,0 -8.09,0 -2.72,0 -5.52,0 -8.21,0 -2.8,0 -5.59,0 -8.39,0 -2.72,0 -5.52,0 -8.42,0 -2.79,0 -5.59,0 -8.5,0 -2.8,0 -5.67,0 -8.47,0 -2.91,0 -5.82,0 -8.72,0 -2.88,0 -5.79,0 -8.69,0 -3,0 -5.9,0 -8.81,0 -2.99,0 -5.97,0 -9,0 -2.87,0 -5.89,0 -8.87,0 -3.11,0 -6.13,0 -9.12,0 -2.98,0 -6.09,0 -9.18,0 -3.03,0 -6.12,0 -9.22,0 -3.1,0 -6.2,0 -9.3,0 -3.09,0 -6.32,0 -9.41,0 -3.09,0 -6.27,0 -9.48,0 -3.1,0 -6.32,0 -9.49,0 -3.22,0 -6.42,0 -9.71,0 -3.22,0 -6.39,0 -9.72,0 -3.17,0 -6.5,0 -9.78,0 -3.3,0 -6.5,0 -9.79,0 -3.39,0 -6.69,0 -10.02,0 -3.28,0 -6.68,0 -9.97,0 -3.4,0 -6.8,0 -10.13,0 -3.39,0 -6.79,0 -10.16,0 -3.41,0 -6.82,0 -10.33,0 -3.4,0 -6.92,0 -10.31,0 -3.49,0 -6.89,0 -10.4,0 -3.46,0 -6.98,0 -10.47,0 -3.52,0 -7.1,0 -10.61,0 -3.52,0 -7.11,0 -10.59,0 -3.62,0 -7.22,0 -10.81,0 -3.52,0 -7.1,0 -10.68,0 -3.7,0 -7.3,0 -10.92,0 -3.6,0 -7.3,0 -11.01,0 -3.59,0 -7.29,0 -11,0 -3.7,0 -7.41,0 -11.08,0 -3.7,0 -7.41,0 -11.11,0 -3.82,0 -7.52,0 -11.3,0 -3.74,0 -7.48,0 -11.27,0 -3.78,0 -7.6,0 -11.38,0 -3.82,0 -7.62,0 -11.48,0 -3.82,0 -7.68,0 -11.49,0 -3.85,0 -7.75,0 -11.61,0 -3.89,0 -7.78,0 -11.67,0 -3.9,0 -7.82,0 -11.76,0 -3.89,0 -7.85,0 -11.79,0 -3.92,0 -7.89,0 -11.9,0 -3.97,0 -7.95,0 -11.91,0 -4,0 -8.01,0 -12.01,0 -4.05,0 -8.05,0 -12.09,0 -4.05,0 -8.12,0 -12.17,0 -4.06,0 -8.13,0 -12.25,0 -4.08,0 -8.16,0 -12.28,0 -4.13,0 -8.24,0 -12.36,0 -4.12,0 -8.28,0 -12.43,0 -4.16,0 -8.32,0 -12.47,0 -4.2,0 -8.39,0 -12.59,0 -4.19,0 -8.42,0 -12.62,0 -4.23,0 -8.45,0 -12.69,0 -4.24,0 -8.52,0 -12.78,0 -4.27,0 -8.55,0 -12.81,0 -4.32,0 -8.63,0 -12.92,0 -4.28,0 -8.62,0 -12.94,0 -4.35,0 -8.69,0 -13.03,0 -4.36,0 -8.73,0 -13.08,0 -4.39,0 -8.78,0 -13.15,0 -4.42,0 -8.81,0 -13.24,0 -4.42,0 -8.84,0 -13.26,0 -4.46,0 -8.92,0 -13.38,0 -4.46,0 -8.92,0 -13.38,0 -4.5,0 -8.99,0 -13.48,0 -4.5,0 -9,0 -13.54,0 -4.49,0 -9.02,0 -13.57,0 -4.53,0 -9.11,0 -13.68,0 -4.54,0 -9.11,0 -13.72,0 -4.56,0 -9.14,0 -13.75,0 -4.61,0 -9.21,0 -13.84,0 -4.64,0 -9.25,0 -13.9,0 -4.65,0 -9.3,0 -13.94,0 -4.69,0 -9.38,0 -14.03,0 -4.68,0 -9.4,0 -14.09,0 -4.69,0 -9.42,0 -14.14,0 -4.72,0 -9.45,0 -14.17,0 -4.77,0 -9.53,0 -14.28,0 -4.76,0 -9.53,0 -14.29,0 -4.79,0 -9.59,0 -14.4,0 -4.8,0 -9.59,0 -14.4,0 -4.84,0 -9.67,0 -14.51,0 -4.84,0 -9.68,0 -14.51,0 -4.88,0 -9.75,0 -14.63,0 -4.88,0 -9.75,0 -14.67,0 -4.88,0 -9.78,0 -14.71,0 -4.91,0 -9.82,0 -14.73,0 -4.95,0 -9.91,0 -14.85,0 -4.96,0 -9.91,0 -14.85,0 -4.99,0 -9.94,0 -14.93,0 -5,0 -10.02,0 -15.01,0 -4.99,0 -10.02,0 -15.03,0 -5.03,0 -10.06,0 -15.09,0 -5.06,0 -10.08,0 -15.15,0 -5.06,0 -10.12,0 -15.19,0 -5.06,0 -10.18,0 -15.27,0 -5.07,0 -10.17,0 -15.31,0 -5.1,0 -10.2,0 -15.34,0 -5.13,0 -10.28,0 -15.41,0 -5.14,0 -10.29,0 -15.47,0 -5.14,0 -10.32,0 -15.5,0 -5.18,0 -10.39,0 -15.57,0 -5.19,0 -10.38,0 -15.6,0 -5.22,0 -10.44,0 -15.65,0 -5.26,0 -10.48,0 -15.73,0 -5.25,0 -10.51,0 -15.76,0 -5.3,0 -10.55,0 -15.83,0 -5.27,0 -10.55,0 -15.88,0 -5.29,0 -10.58,0 -15.91,0 -5.29,0 -10.62,0 -15.95,0 -5.32,0 -10.65,0 -15.98,0 -5.32,0 -10.69,0 -16.06,0 -5.37,0 -10.74,0 -16.11,0 -5.36,0 -10.73,0 -16.14,0 -5.39,0 -10.8,0 -16.2,0 -5.4,0 -10.81,0 -16.21,0 -5.44,0 -10.84,0 -16.3,0 -5.44,0 -10.87,0 -16.33,0 -5.48,0 -10.92,0 -16.4,0 -5.48,0 -10.92,0 -16.44,0 -5.48,0 -10.96,0 -16.43,0 -5.52,0 -11.01,0 -16.51,0 -5.53,0 -11.05,0 -16.57,0 -5.51,0 -11.07,0 -16.59,0 -5.56,0 -11.11,0 -16.67,0 -5.55,0 -11.11,0 -16.67,0 -5.59,0 -11.14,0 -16.74,0 -5.59,0 -11.18,0 -16.77,0 -5.59,0 -11.19,0 -16.82,0 -5.59,0 -11.22,0 -16.86,0 -5.63,0 -11.27,0 -16.89,0 -5.63,0 -11.31,0 -16.94,0 -5.67,0 -11.3,0 -16.97,0 -5.66,0 -11.34,0 -17.04,0 -5.67,0 -11.38,0 -17.04,0 -5.71,0 -11.41,0 -17.13,0 -5.71,0 -11.41,0 -17.13,0 -5.74,0 -11.45,0 -17.19,0 -5.75,0 -11.49,0 -17.23,0 -5.75,0 -11.49,0 -17.23,0 -5.8,0 -11.53,0 -17.31,0 -5.79,0 -11.58,0 -17.35,0 -5.78,0 -11.57,0 -17.39,0 -5.79,0 -11.57,0 -17.39,0 -5.82,0 -11.64,0 -17.46,0 -5.82,0 -11.64,0 -17.47,0 -5.86,0 -11.67,0 -17.53,0 -5.86,0 -11.72,0 -17.57,0 -5.86,0 -11.72,0 -17.58,0 -5.86,0 -11.75,0 -17.64,0 -5.85,0 -11.75,0 -17.64,0 -5.9,0 -11.79,0 -17.69,0 -5.94,0 -11.84,0 -17.77,0 -5.9,0 -11.83,0 -17.76,0 -5.94,0 -11.88,0 -17.81,0 -5.92,0 -11.86,0 -17.83,0 -5.93,0 -11.91,0 -17.88,0 -5.92,0 -11.91,0 -17.87,0 -5.97,0 -11.98,0 -17.96,0 -5.96,0 -11.98,0 -17.95,0 -6.02,0 -12.02,0 -17.99,0 -6.06,0 -12.06,0 -18.08,0 -6,0 -12.01,0 -18.06,0 -6.02,0 -12.05,0 -18.06,0 -6.05,0 -12.11,0 -18.15,0 -6.05,0 -12.09,0 -18.14,0 -6.08,0 -12.13,0 -18.21,0 -6.05,0 -12.13,0 -18.21,0 -6.05,0 -12.13,0 -18.21,0 -6.08,0 -12.21,0 -18.3,0 -6.08,0 -12.2,0 -18.28,0 -6.13,0 -12.25,0 -18.34,0 -6.13,0 -12.24,0 -18.36,0 -6.13,0 -12.25,0 -18.4,0 -6.13,0 -12.25,0 -18.41,0 -6.12,0 -12.29,0 -18.44,0 -6.16,0 -12.32,0 -18.48,0 -6.16,0 -12.32,0 -18.48,0 -6.15,0 -12.35,0 -18.52,0 -6.2,0 -12.35,0 -18.56,0 -6.2,0 -12.39,0 -18.59,0 -6.16,0 -12.36,0 -18.6,0 -6.2,0 -12.4,0 -18.6,0 -6.23,0 -12.43,0 -18.67,0 -6.23,0 -12.43,0 -18.67,0 -6.23,0 -12.47,0 -18.7,0 -6.23,0 -12.47,0 -18.7,0 -6.28,0 -12.51,0 -18.74,0 -6.29,0 -12.52,0 -18.8,0 -6.27,0 -12.5,0 -18.78,0 -6.28,0 -12.55,0 -18.83,0 -6.27,0 -12.55,0 -18.82,0 -6.31,0 -12.59,0 -18.86,0 -6.31,0 -12.62,0 -18.9,0 -6.32,0 -12.62,0 -18.89,0 -6.32,0 -12.62,0 -18.94,0 -6.31,0 -12.62,0 -18.93,0 -6.36,0 -12.67,0 -18.98,0 -6.31,0 -12.65,0 -18.97,0 -6.35,0 -12.7,0 -19,0 -6.35,0 -12.71,0 -19.06,0 -6.35,0 -12.67,0 -19.04,0 -6.35,0 -12.7,0 -19.06,0 -6.34,0 -12.73,0 -19.08,0 -6.36,0 -12.74,0 -19.09,0 -6.39,0 -12.74,0 -19.13,0 -6.39,0 -12.74,0 -19.13,0 -6.38,0 -12.77,0 -19.15,0 -6.39,0 -12.78,0 -19.17,0 -6.39,0 -12.78,0 -19.2,0 -6.39,0 -12.77,0 -19.2,0 -6.38,0 -12.77,0 -19.2,0 -6.42,0 -12.81,0 -19.23,0 -6.42,0 -12.85,0 -19.24,0 -6.42,0 -12.85,0 -19.27,0 -6.42,0 -12.84,0 -19.27,0 -6.43,0 -12.85,0 -19.31,0 -6.42,0 -12.84,0 -19.28,0 -6.45,0 -12.87,0 -19.3,0 -6.46,0 -12.89,0 -19.35,0 -6.42,0 -12.89,0 -19.36,0 -6.42,0 -12.89,0 -19.35,0 -6.46,0 -12.94,0 -19.36,0 -6.46,0 -12.92,0 -19.39,0 -6.46,0 -12.92,0 -19.42,0 -6.47,0 -12.94,0 -19.39,0 -6.47,0 -12.94,0 -19.44,0 -6.45,0 -12.92,0 -19.42,0 -6.47,0 -12.97,0 -19.44,0 -6.49,0 -12.95,0 -19.45,0 -6.46,0 -12.97,0 -19.47,0 -6.46,0 -12.97,0 -19.46,0 -6.47,0 -12.97,0 -19.47,0 -6.49,0 -13,0 -19.5,0 -6.49,0 -12.97,0 -19.46,0 -6.5,0 -13,0 -19.5,0 -6.5,0 -13,0 -19.54,0 -6.5,0 -13,0 -19.5,0 -6.49,0 -13.04,0 -19.54,0 -6.49,0 -13,0 -19.53,0 -6.49,0 -13.01,0 -19.54,0 -6.49,0 -13,0 -19.54,0 -6.49,0 -13.03,0 -19.53,0 -6.55,0 -13.04,0 -19.57,0 -6.51,0 -13.05,0 -19.54,0 -6.55,0 -13.05,0 -19.57,0 -6.5,0 -13.05,0 -19.58,0 -6.49,0 -13.04,0 -19.57,0 -6.55,0 -13.04,0 -19.57,0 -6.55,0 -13.05,0 -19.57,0 -6.55,0 -13.08,0 -19.59,0 -6.52,0 -13.07,0 -19.6,0 -6.55,0 -13.05,0 -19.57,0 -6.55,0 -13.08,0 -19.63,0 -6.53,0 -13.03,0 -19.57,0 -6.53,0 -13.08,0 -19.62,0 -6.53,0 -13.07,0 -19.62,0 -6.53,0 -13.03,0 -19.62,0 -6.49,0 -13.04,0 -19.57,0 -6.55,0 -13.07,0 -19.62,0 -6.53,0 -13.08,0 -19.62,0 -6.55,0 -13.07,0 -19.62,0 -6.5,0 -13.04,0 -19.57,0 -6.53,0 -13.08,0 -19.62,0 -6.55,0 -13.08,0 -19.62,0 -6.53,0 -13.04,0 -19.58,0 -6.52,0 -13.07,0 -19.6,0 -6.55,0 -13.08,0 -19.63,0 -6.49,0 -13.04,0 -19.57,0 -6.55,0 -13.07,0 -19.62,0 -6.53,0 -13.04,0 -19.58,0 -6.52,0 -13.07,0 -19.57,0 -6.53,0 -13.07,0 -19.6,0 -6.5,0 -13.05,0 -19.57,0 -6.5,0 -13.05,0 -19.58,0 -6.49,0 -13.04,0 -19.57,0 -6.51,0 -13.04,0 -19.54,0 -6.55,0 -13.04,0 -19.57,0 -6.55,0 -13.05,0 -19.57,0 -6.5,0 -13.05,0 -19.55,0 -6.49,0 -13.04,0 -19.54,0 -6.52,0 -13.03,0 -19.53,0 -6.53,0 -13.04,0 -19.54,0 -6.49,0 -13.04,0 -19.54,0 -6.49,0 -13,0 -19.49,0 -6.5,0 -13.01,0 -19.5,0 -6.5,0 -13,0 -19.5,0 -6.5,0 -13,0 -19.51,0 -6.49,0 -13,0 -19.5,0 -6.49,0 -12.97,0 -19.46,0 -6.5,0 -13,0 -19.46,0 -6.46,0 -12.97,0 -19.43,0 -6.5,0 -12.97,0 -19.47,0 -6.45,0 -12.96,0 -19.42,0 -6.5,0 -12.97,0 -19.43,0 -6.5,0 -12.96,0 -19.43,0 -6.46,0 -12.91,0 -19.42,0 -6.46,0 -12.94,0 -19.39,0 -6.47,0 -12.94,0 -19.39,0 -6.47,0 -12.89,0 -19.36,0 -6.47,0 -12.92,0 -19.39,0 -6.43,0 -12.89,0 -19.31,0 -6.46,0 -12.92,0 -19.36,0 -6.42,0 -12.87,0 -19.31,0 -6.45,0 -12.88,0 -19.3,0 -6.42,0 -12.85,0 -19.31,0 -6.42,0 -12.84,0 -19.27,0 -6.39,0 -12.85,0 -19.24,0 -6.42,0 -12.85,0 -19.27,0 -6.39,0 -12.81,0 -19.23,0 -6.39,0 -12.81,0 -19.2,0 -6.39,0 -12.81,0 -19.2,0 -6.39,0 -12.81,0 -19.2,0 -6.39,0 -12.77,0 -19.16,0 -6.39,0 -12.78,0 -19.17,0 -6.39,0 -12.74,0 -19.12,0 -6.39,0 -12.74,0 -19.13,0 -6.39,0 -12.74,0 -19.08,0 -6.39,0 -12.75,0 -19.1,0 -6.34,0 -12.73,0 -19.09,0 -6.35,0 -12.7,0 -19.04,0 -6.35,0 -12.65,0 -19.01,0 -6.35,0 -12.65,0 -19.01,0 -6.3,0 -12.65,0 -18.97,0 -6.34,0 -12.65,0 -18.96,0 -6.32,0 -12.67,0 -18.94,0 -6.31,0 -12.62,0 -18.93,0 -6.32,0 -12.62,0 -18.9,0 -6.32,0 -12.62,0 -18.89,0 -6.32,0 -12.59,0 -18.86,0 -6.32,0 -12.59,0 -18.86,0 -6.29,0 -12.56,0 -18.83,0 -6.28,0 -12.52,0 -18.79,0 -6.28,0 -12.51,0 -18.79,0 -6.23,0 -12.51,0 -18.75,0 -6.23,0 -12.47,0 -18.7,0 -6.23,0 -12.47,0 -18.7,0 -6.24,0 -12.48,0 -18.68,0 -6.23,0 -12.42,0 -18.67,0 -6.18,0 -12.42,0 -18.62,0 -6.2,0 -12.41,0 -18.6,0 -6.19,0 -12.4,0 -18.6,0 -6.16,0 -12.35,0 -18.55,0 -6.17,0 -12.36,0 -18.53,0 -6.16,0 -12.31,0 -18.48,0 -6.19,0 -12.31,0 -18.47,0 -6.16,0 -12.32,0 -18.44,0 -6.16,0 -12.28,0 -18.45,0 -6.11,0 -12.23,0 -18.36,0 -6.12,0 -12.24,0 -18.37,0 -6.12,0 -12.24,0 -18.33,0 -6.12,0 -12.2,0 -18.32,0 -6.1,0 -12.18,0 -18.27,0 -6.12,0 -12.17,0 -18.25,0 -6.09,0 -12.17,0 -18.21,0 -6.1,0 -12.14,0 -18.23,0 -6.04,0 -12.08,0 -18.13,0 -6.05,0 -12.09,0 -18.14,0 -6.06,0 -12.06,0 -18.1,0 -6.02,0 -12.06,0 -18.08,0 -6,0 -12.01,0 -18.02,0 -6.01,0 -12.02,0 -18,0 -6.01,0 -11.98,0 -17.98,0 -5.99,0 -11.99,0 -17.92,0 -6.02,0 -11.94,0 -17.91,0 -5.97,0 -11.94,0 -17.87,0 -5.97,0 -11.91,0 -17.84,0 -5.97,0 -11.91,0 -17.8,0 -5.93,0 -11.87,0 -17.8,0 -5.9,0 -11.84,0 -17.73,0 -5.89,0 -11.79,0 -17.73,0 -5.86,0 -11.75,0 -17.64,0 -5.9,0 -11.76,0 -17.62,0 -5.89,0 -11.74,0 -17.6,0 -5.86,0 -11.72,0 -17.58,0 -5.85,0 -11.67,0 -17.53,0 -5.82,0 -11.64,0 -17.46,0 -5.86,0 -11.64,0 -17.46,0 -5.83,0 -11.61,0 -17.43,0 -5.79,0 -11.6,0 -17.39,0 -5.78,0 -11.57,0 -17.35,0 -5.78,0 -11.52,0 -17.3,0 -5.75,0 -11.49,0 -17.24,0 -5.74,0 -11.48,0 -17.23,0 -5.75,0 -11.45,0 -17.2,0 -5.71,0 -11.41,0 -17.12,0 -5.75,0 -11.42,0 -17.13,0 -5.71,0 -11.37,0 -17.08,0 -5.67,0 -11.33,0 -17,0 -5.67,0 -11.34,0 -17.01,0 -5.62,0 -11.3,0 -16.94,0 -5.62,0 -11.24,0 -16.89,0 -5.62,0 -11.27,0 -16.86,0 -5.62,0 -11.22,0 -16.81,0 -5.63,0 -11.22,0 -16.77,0 -5.6,0 -11.19,0 -16.75,0 -5.59,0 -11.15,0 -16.7,0 -5.56,0 -11.11,0 -16.64,0 -5.55,0 -11.11,0 -16.63,0 -5.51,0 -11.03,0 -16.56,0 -5.52,0 -11.03,0 -16.51,0 -5.52,0 -11,0 -16.47,0 -5.48,0 -10.96,0 -16.44,0 -5.45,0 -10.92,0 -16.37,0 -5.45,0 -10.91,0 -16.37,0 -5.4,0 -10.84,0 -16.28,0 -5.4,0 -10.82,0 -16.22,0 -5.44,0 -10.84,0 -16.21,0 -5.4,0 -10.77,0 -16.14,0 -5.4,0 -10.77,0 -16.14,0 -5.32,0 -10.68,0 -16.06,0 -5.33,0 -10.65,0 -15.98,0 -5.33,0 -10.65,0 -15.98,0 -5.29,0 -10.62,0 -15.91,0 -5.29,0 -10.58,0 -15.88,0 -5.25,0 -10.54,0 -15.79,0 -5.26,0 -10.51,0 -15.77,0 -5.25,0 -10.5,0 -15.72,0 -5.26,0 -10.47,0 -15.68,0 -5.22,0 -10.44,0 -15.61,0 -5.22,0 -10.39,0 -15.58,0 -5.17,0 -10.35,0 -15.53,0 -5.13,0 -10.31,0 -15.46,0 -5.13,0 -10.28,0 -15.41,0 -5.14,0 -10.25,0 -15.35,0 -5.14,0 -10.24,0 -15.3,0 -5.11,0 -10.21,0 -15.28,0 -5.06,0 -10.16,0 -15.19,0 -5.06,0 -10.12,0 -15.15,0 -5.06,0 -10.09,0 -15.12,0 -5.02,0 -10.05,0 -15.03,0 -5.03,0 -10.03,0 -15.01,0 -4.99,0 -9.94,0 -14.93,0 -4.95,0 -9.95,0 -14.9,0 -4.95,0 -9.9,0 -14.81,0 -4.96,0 -9.86,0 -14.78,0 -4.91,0 -9.82,0 -14.74,0 -4.86,0 -9.74,0 -14.62,0 -4.93,0 -9.75,0 -14.63,0 -4.84,0 -9.72,0 -14.56,0 -4.82,0 -9.67,0 -14.47,0 -4.83,0 -9.64,0 -14.43,0 -4.81,0 -9.61,0 -14.41,0 -4.76,0 -9.56,0 -14.28,0 -4.76,0 -9.52,0 -14.28,0 -4.73,0 -9.49,0 -14.21,0 -4.73,0 -9.45,0 -14.14,0 -4.69,0 -9.42,0 -14.09,0 -4.66,0 -9.35,0 -14.03,0 -4.65,0 -9.29,0 -13.95,0 -4.64,0 -9.29,0 -13.9,0 -4.62,0 -9.26,0 -13.83,0 -4.62,0 -9.22,0 -13.8,0 -4.57,0 -9.19,0 -13.72,0 -4.57,0 -9.15,0 -13.68,0 -4.53,0 -9.08,0 -13.61,0 -4.49,0 -9.02,0 -13.53,0 -4.5,0 -8.99,0 -13.5,0 -4.46,0 -8.95,0 -13.41,0 -4.46,0 -8.89,0 -13.34,0 -4.42,0 -8.85,0 -13.27,0 -4.42,0 -8.84,0 -13.23,0 -4.43,0 -8.82,0 -13.19,0 -4.39,0 -8.73,0 -13.07,0 -4.35,0 -8.7,0 -13.05,0 -4.35,0 -8.65,0 -12.97,0 -4.29,0 -8.61,0 -12.87,0 -4.32,0 -8.59,0 -12.86,0 -4.26,0 -8.54,0 -12.77,0 -4.27,0 -8.46,0 -12.7,0 -4.23,0 -8.43,0 -12.67,0 -4.19,0 -8.39,0 -12.55,0 -4.18,0 -8.35,0 -12.51,0 -4.15,0 -8.31,0 -12.44,0 -4.15,0 -8.27,0 -12.39,0 -4.08,0 -8.21,0 -12.28,0 -4.08,0 -8.17,0 -12.25,0 -4.05,0 -8.12,0 -12.17,0 -4.05,0 -8.05,0 -12.09,0 -4,0 -8.02,0 -12.01,0 -4.01,0 -7.99,0 -11.95,0 -3.97,0 -7.94,0 -11.91,0 -3.97,0 -7.89,0 -11.78,0 -3.93,0 -7.87,0 -11.76,0 -3.92,0 -7.82,0 -11.67,0l0 72.87c3.85,0 7.75,0 11.67,0 3.89,0 7.83,0 11.76,0 3.89,0 7.81,0 11.78,0 3.97,0 7.94,0 11.91,0 3.96,0 7.94,0 11.95,0 3.99,0 8.01,0 12.01,0 4.05,0 8.05,0 12.09,0 4.05,0 8.12,0 12.17,0 4.08,0 8.17,0 12.25,0 4.08,0 8.21,0 12.28,0 4.12,0 8.24,0 12.39,0 4.13,0 8.29,0 12.44,0 4.16,0 8.33,0 12.51,0 4.16,0 8.36,0 12.55,0 4.23,0 8.43,0 12.67,0 4.23,0 8.42,0 12.7,0 4.23,0 8.51,0 12.77,0 4.27,0 8.55,0 12.86,0 4.26,0 8.58,0 12.87,0 4.32,0 8.62,0 12.97,0 4.35,0 8.7,0 13.05,0 4.34,0 8.68,0 13.07,0 4.38,0 8.77,0 13.19,0 4.39,0 8.81,0 13.23,0 4.42,0 8.85,0 13.27,0 4.45,0 8.88,0 13.34,0 4.46,0 8.95,0 13.41,0 4.5,0 8.99,0 13.5,0 4.5,0 9.03,0 13.53,0 4.53,0 9.08,0 13.61,0 4.53,0 9.11,0 13.68,0 4.53,0 9.15,0 13.72,0 4.57,0 9.18,0 13.8,0 4.56,0 9.21,0 13.83,0 4.61,0 9.26,0 13.9,0 4.66,0 9.3,0 13.95,0 4.69,0 9.38,0 14.03,0 4.67,0 9.4,0 14.09,0 4.69,0 9.41,0 14.14,0 4.72,0 9.48,0 14.21,0 4.76,0 9.52,0 14.28,0 4.72,0 9.52,0 14.28,0 4.8,0 9.59,0 14.41,0 4.79,0 9.59,0 14.43,0 4.8,0 9.65,0 14.47,0 4.84,0 9.72,0 14.56,0 4.88,0 9.7,0 14.63,0 4.88,0 9.75,0 14.62,0 4.92,0 9.83,0 14.74,0 4.92,0 9.82,0 14.78,0 4.92,0 9.86,0 14.81,0 4.95,0 9.95,0 14.9,0 4.99,0 9.94,0 14.93,0 4.98,0 9.98,0 15.01,0 4.98,0 10.01,0 15.03,0 5.03,0 10.06,0 15.12,0 5.03,0 10.09,0 15.15,0 5.03,0 10.12,0 15.19,0 5.07,0 10.17,0 15.28,0 5.06,0 10.16,0 15.3,0 5.1,0 10.21,0 15.35,0 5.13,0 10.28,0 15.41,0 5.14,0 10.32,0 15.46,0 5.18,0 10.36,0 15.53,0 5.19,0 10.36,0 15.58,0 5.18,0 10.39,0 15.61,0 5.22,0 10.42,0 15.68,0 5.22,0 10.47,0 15.72,0 5.26,0 10.51,0 15.77,0 5.25,0 10.54,0 15.79,0 5.3,0 10.59,0 15.88,0 5.29,0 10.62,0 15.91,0 5.33,0 10.65,0 15.98,0 5.33,0 10.65,0 15.98,0 5.37,0 10.74,0 16.06,0 5.37,0 10.74,0 16.14,0 5.37,0 10.74,0 16.14,0 5.37,0 10.78,0 16.21,0 5.4,0 10.82,0 16.22,0 5.44,0 10.87,0 16.28,0 5.46,0 10.92,0 16.37,0 5.45,0 10.92,0 16.37,0 5.48,0 10.96,0 16.44,0 5.48,0 10.95,0 16.47,0 5.49,0 11,0 16.51,0 5.53,0 11.05,0 16.56,0 5.52,0 11.08,0 16.63,0 5.53,0 11.08,0 16.64,0 5.55,0 11.11,0 16.7,0 5.56,0 11.15,0 16.75,0 5.55,0 11.14,0 16.77,0 5.59,0 11.19,0 16.81,0 5.59,0 11.23,0 16.86,0 5.64,0 11.27,0 16.89,0 5.64,0 11.32,0 16.94,0 5.67,0 11.34,0 17.01,0 5.67,0 11.33,0 17,0 5.72,0 11.38,0 17.08,0 5.71,0 11.38,0 17.13,0 5.71,0 11.41,0 17.12,0 5.75,0 11.45,0 17.2,0 5.75,0 11.49,0 17.23,0 5.75,0 11.49,0 17.24,0 5.78,0 11.52,0 17.3,0 5.79,0 11.58,0 17.35,0 5.79,0 11.6,0 17.39,0 5.82,0 11.6,0 17.43,0 5.82,0 11.6,0 17.46,0 5.82,0 11.64,0 17.46,0 5.86,0 11.68,0 17.53,0 5.86,0 11.72,0 17.58,0 5.86,0 11.71,0 17.6,0 5.86,0 11.72,0 17.62,0 5.89,0 11.78,0 17.64,0 5.93,0 11.84,0 17.73,0 5.89,0 11.83,0 17.73,0 5.93,0 11.87,0 17.8,0 5.89,0 11.83,0 17.8,0 5.93,0 11.87,0 17.84,0 5.93,0 11.9,0 17.87,0 5.97,0 11.9,0 17.91,0 5.93,0 11.94,0 17.92,0 6,0 11.97,0 17.98,0 5.97,0 11.99,0 18,0 6.01,0 12.02,0 18.02,0 6.02,0 12.06,0 18.08,0 6.04,0 12.04,0 18.1,0 6.05,0 12.09,0 18.14,0 6.05,0 12.09,0 18.13,0 6.09,0 12.13,0 18.23,0 6.05,0 12.13,0 18.21,0 6.08,0 12.13,0 18.25,0 6.09,0 12.17,0 18.27,0 6.12,0 12.2,0 18.32,0 6.09,0 12.21,0 18.33,0 6.13,0 12.25,0 18.37,0 6.13,0 12.25,0 18.36,0 6.17,0 12.29,0 18.45,0 6.12,0 12.28,0 18.44,0 6.16,0 12.28,0 18.47,0 6.17,0 12.32,0 18.48,0 6.16,0 12.35,0 18.53,0 6.19,0 12.39,0 18.55,0 6.2,0 12.41,0 18.6,0 6.19,0 12.4,0 18.6,0 6.2,0 12.44,0 18.62,0 6.25,0 12.44,0 18.67,0 6.2,0 12.44,0 18.68,0 6.23,0 12.47,0 18.7,0 6.23,0 12.47,0 18.7,0 6.24,0 12.52,0 18.75,0 6.28,0 12.51,0 18.79,0 6.27,0 12.51,0 18.79,0 6.27,0 12.54,0 18.83,0 6.27,0 12.54,0 18.86,0 6.27,0 12.54,0 18.86,0 6.27,0 12.57,0 18.89,0 6.28,0 12.58,0 18.9,0 6.31,0 12.62,0 18.93,0 6.28,0 12.62,0 18.94,0 6.31,0 12.62,0 18.96,0 6.32,0 12.68,0 18.97,0 6.36,0 12.67,0 19.01,0 6.36,0 12.67,0 19.01,0 6.35,0 12.7,0 19.04,0 6.36,0 12.75,0 19.09,0 6.35,0 12.71,0 19.1,0 6.34,0 12.69,0 19.08,0 6.39,0 12.74,0 19.13,0 6.38,0 12.73,0 19.12,0 6.39,0 12.78,0 19.17,0 6.39,0 12.77,0 19.16,0 6.39,0 12.81,0 19.2,0 6.39,0 12.81,0 19.2,0 6.39,0 12.81,0 19.2,0 6.42,0 12.84,0 19.23,0 6.42,0 12.85,0 19.27,0 6.39,0 12.85,0 19.24,0 6.43,0 12.85,0 19.27,0 6.46,0 12.89,0 19.31,0 6.42,0 12.85,0 19.3,0 6.44,0 12.89,0 19.31,0 6.43,0 12.89,0 19.36,0 6.42,0 12.88,0 19.31,0 6.46,0 12.91,0 19.39,0 6.46,0 12.88,0 19.36,0 6.45,0 12.91,0 19.39,0 6.45,0 12.92,0 19.39,0 6.5,0 12.96,0 19.42,0 6.47,0 12.92,0 19.43,0 6.46,0 12.92,0 19.43,0 6.46,0 12.97,0 19.42,0 6.5,0 12.97,0 19.47,0 6.46,0 12.97,0 19.43,0 6.46,0 12.96,0 19.46,0 6.49,0 12.97,0 19.46,0 6.5,0 13.01,0 19.5,0 6.51,0 13.01,0 19.51,0 6.5,0 13,0 19.5,0 6.49,0 13,0 19.5,0 6.49,0 13,0 19.49,0 6.5,0 13.05,0 19.54,0 6.5,0 13.01,0 19.54,0 6.5,0 13.01,0 19.53,0 6.5,0 13.05,0 19.54,0 6.5,0 13.05,0 19.55,0 6.52,0 13.03,0 19.57,0 6.53,0 13.03,0 19.57,0 6.5,0 13.03,0 19.54,0 6.53,0 13.08,0 19.57,0 6.53,0 13.08,0 19.58,0 6.52,0 13.07,0 19.57,0 6.53,0 13.07,0 19.6,0 6.5,0 13.05,0 19.57,0 6.55,0 13.05,0 19.58,0 6.55,0 13.07,0 19.62,0 6.53,0 13.08,0 19.57,0 6.55,0 13.08,0 19.63,0 6.53,0 13.08,0 19.6,0 6.55,0 13.05,0 19.58,0 6.53,0 13.07,0 19.62,0 6.53,0 13.08,0 19.62,0 6.53,0 13.07,0 19.57,0 6.55,0 13.07,0 19.62,0 6.53,0 13.08,0 19.62,0 6.55,0 13.07,0 19.62,0 6.53,0 13.08,0 19.57,0 6.59,0 13.08,0 19.62,0 6.55,0 13.08,0 19.62,0 6.53,0 13.08,0 19.62,0 6.55,0 13.04,0 19.57,0 6.55,0 13.08,0 19.63,0 6.52,0 13.03,0 19.57,0 6.53,0 13.08,0 19.6,0 6.51,0 13.05,0 19.59,0 6.52,0 13.03,0 19.57,0 6.53,0 13.03,0 19.57,0 6.53,0 13.08,0 19.57,0 6.53,0 13.08,0 19.58,0 6.52,0 13.03,0 19.57,0 6.49,0 13.03,0 19.54,0 6.53,0 13.03,0 19.57,0 6.5,0 13.04,0 19.53,0 6.55,0 13.05,0 19.54,0 6.53,0 13.05,0 19.54,0 6.53,0 13.04,0 19.53,0 6.5,0 13.05,0 19.54,0 6.5,0 13,0 19.5,0 6.55,0 13.04,0 19.54,0 6.5,0 13,0 19.5,0 6.49,0 12.97,0 19.46,0 6.5,0 13.01,0 19.5,0 6.5,0 13,0 19.47,0 6.49,0 13,0 19.46,0 6.5,0 13.01,0 19.47,0 6.5,0 12.96,0 19.45,0 6.47,0 12.97,0 19.44,0 6.49,0 12.97,0 19.42,0 6.5,0 12.97,0 19.44,0 6.45,0 12.91,0 19.39,0 6.49,0 12.96,0 19.42,0 6.46,0 12.92,0 19.39,0 6.42,0 12.89,0 19.36,0 6.45,0 12.92,0 19.35,0 6.46,0 12.94,0 19.36,0 6.45,0 12.88,0 19.35,0 6.43,0 12.85,0 19.3,0 6.44,0 12.86,0 19.28,0 6.46,0 12.88,0 19.31,0 6.43,0 12.85,0 19.27,0 6.42,0 12.85,0 19.27,0 6.39,0 12.82,0 19.24,0 6.42,0 12.81,0 19.23,0 6.43,0 12.82,0 19.2,0 6.43,0 12.81,0 19.2,0 6.42,0 12.81,0 19.2,0 6.39,0 12.78,0 19.17,0 6.38,0 12.77,0 19.15,0 6.39,0 12.74,0 19.13,0 6.39,0 12.74,0 19.13,0 6.35,0 12.73,0 19.09,0 6.35,0 12.74,0 19.08,0 6.36,0 12.71,0 19.06,0 6.38,0 12.7,0 19.04,0 6.35,0 12.71,0 19.06,0 6.31,0 12.65,0 19,0 6.32,0 12.67,0 18.97,0 6.32,0 12.62,0 18.98,0 6.31,0 12.62,0 18.93,0 6.32,0 12.62,0 18.94,0 6.27,0 12.57,0 18.89,0 6.28,0 12.59,0 18.9,0 6.27,0 12.55,0 18.86,0 6.27,0 12.55,0 18.82,0 6.28,0 12.55,0 18.83,0 6.28,0 12.51,0 18.78,0 6.28,0 12.51,0 18.8,0 6.23,0 12.47,0 18.74,0 6.23,0 12.47,0 18.7,0 6.23,0 12.47,0 18.7,0 6.24,0 12.44,0 18.67,0 6.24,0 12.44,0 18.67,0 6.2,0 12.4,0 18.6,0 6.23,0 12.44,0 18.6,0 6.2,0 12.39,0 18.59,0 6.2,0 12.35,0 18.56,0 6.16,0 12.36,0 18.52,0 6.16,0 12.32,0 18.48,0 6.16,0 12.32,0 18.48,0 6.15,0 12.32,0 18.44,0 6.16,0 12.28,0 18.41,0 6.15,0 12.27,0 18.4,0 6.12,0 12.23,0 18.36,0 6.09,0 12.21,0 18.34,0 6.08,0 12.2,0 18.28,0 6.09,0 12.22,0 18.3,0 6.09,0 12.17,0 18.21,0 6.09,0 12.17,0 18.21,0 6.09,0 12.14,0 18.21,0 6.05,0 12.09,0 18.14,0 6.05,0 12.11,0 18.15,0 6.01,0 12.04,0 18.06,0 6.05,0 12.06,0 18.06,0 6.02,0 12.02,0 18.08,0 5.96,0 11.97,0 17.99,0 5.96,0 11.98,0 17.95,0 5.97,0 11.98,0 17.96,0 5.96,0 11.95,0 17.87,0 5.97,0 11.95,0 17.88,0 5.97,0 11.91,0 17.83,0 5.93,0 11.87,0 17.81,0 5.93,0 11.86,0 17.76,0 5.93,0 11.83,0 17.77,0 5.89,0 11.78,0 17.69,0 5.89,0 11.79,0 17.64,0 5.89,0 11.78,0 17.64,0 5.86,0 11.72,0 17.58,0 5.85,0 11.71,0 17.57,0 5.86,0 11.67,0 17.53,0 5.83,0 11.65,0 17.47,0 5.82,0 11.64,0 17.46,0 5.82,0 11.6,0 17.39,0 5.82,0 11.61,0 17.39,0 5.78,0 11.57,0 17.35,0 5.78,0 11.51,0 17.31,0 5.74,0 11.48,0 17.23,0 5.74,0 11.48,0 17.23,0 5.74,0 11.45,0 17.19,0 5.72,0 11.42,0 17.13,0 5.72,0 11.42,0 17.13,0 5.66,0 11.37,0 17.04,0 5.71,0 11.38,0 17.04,0 5.67,0 11.3,0 16.97,0 5.63,0 11.31,0 16.94,0 5.62,0 11.25,0 16.89,0 5.63,0 11.27,0 16.86,0 5.63,0 11.23,0 16.82,0 5.59,0 11.18,0 16.77,0 5.6,0 11.15,0 16.74,0 5.56,0 11.12,0 16.67,0 5.56,0 11.11,0 16.67,0 5.52,0 11.08,0 16.59,0 5.52,0 11.04,0 16.57,0 5.51,0 11,0 16.51,0 5.47,0 10.95,0 16.43,0 5.52,0 10.96,0 16.44,0 5.48,0 10.92,0 16.4,0 5.46,0 10.89,0 16.33,0 5.46,0 10.86,0 16.3,0 5.4,0 10.81,0 16.21,0 5.4,0 10.81,0 16.2,0 5.41,0 10.78,0 16.14,0 5.37,0 10.74,0 16.11,0 5.36,0 10.74,0 16.06,0 5.33,0 10.66,0 15.98,0 5.33,0 10.66,0 15.95,0 5.33,0 10.62,0 15.91,0 5.33,0 10.61,0 15.88,0 5.28,0 10.53,0 15.83,0 5.25,0 10.51,0 15.76,0 5.25,0 10.47,0 15.73,0 5.22,0 10.44,0 15.65,0 5.22,0 10.41,0 15.6,0 5.18,0 10.39,0 15.57,0 5.18,0 10.35,0 15.5,0 5.18,0 10.32,0 15.47,0 5.13,0 10.28,0 15.41,0 5.14,0 10.24,0 15.34,0 5.14,0 10.24,0 15.31,0 5.09,0 10.21,0 15.27,0 5.06,0 10.12,0 15.19,0 5.07,0 10.09,0 15.15,0 5.03,0 10.06,0 15.09,0 5.01,0 10.04,0 15.03,0 4.99,0 10.01,0 15.01,0 4.99,0 9.94,0 14.93,0 4.95,0 9.9,0 14.85,0 4.95,0 9.91,0 14.85,0 4.91,0 9.82,0 14.73,0 4.93,0 9.83,0 14.71,0 4.92,0 9.79,0 14.67,0 4.88,0 9.75,0 14.63,0 4.83,0 9.67,0 14.51,0 4.84,0 9.67,0 14.51,0 4.8,0 9.59,0 14.4,0 4.8,0 9.61,0 14.4,0 4.76,0 9.53,0 14.29,0 4.75,0 9.51,0 14.28,0 4.72,0 9.45,0 14.17,0 4.72,0 9.45,0 14.14,0 4.69,0 9.41,0 14.09,0 4.66,0 9.35,0 14.03,0 4.64,0 9.29,0 13.94,0 4.65,0 9.26,0 13.9,0 4.63,0 9.23,0 13.84,0 4.62,0 9.19,0 13.75,0 4.62,0 9.18,0 13.72,0 4.57,0 9.15,0 13.68,0 4.54,0 9.08,0 13.57,0 4.53,0 9.03,0 13.54,0 4.49,0 8.98,0 13.48,0 4.46,0 8.92,0 13.38,0 4.46,0 8.92,0 13.38,0 4.42,0 8.84,0 13.26,0 4.43,0 8.82,0 13.24,0 4.38,0 8.77,0 13.15,0 4.35,0 8.72,0 13.08,0 4.34,0 8.68,0 13.03,0 4.32,0 8.65,0 12.94,0 4.29,0 8.61,0 12.92,0 4.26,0 8.54,0 12.81,0 4.26,0 8.54,0 12.78,0 4.23,0 8.45,0 12.69,0 4.2,0 8.43,0 12.62,0 4.2,0 8.39,0 12.59,0 4.15,0 8.31,0 12.47,0 4.15,0 8.31,0 12.43,0 4.13,0 8.24,0 12.36,0 4.12,0 8.21,0 12.28,0 4.12,0 8.19,0 12.25,0 4.05,0 8.12,0 12.17,0 4.05,0 8.05,0 12.09,0 4,0 8.01,0 12.01,0 3.96,0 7.94,0 11.91,0 4,0 7.98,0 11.9,0 3.94,0 7.9,0 11.79,0 3.94,0 7.86,0 11.76,0 3.89,0 7.78,0 11.67,0 3.86,0 7.76,0 11.61,0 3.82,0 7.68,0 11.49,0 3.86,0 7.67,0 11.48,0 3.78,0 7.6,0 11.38,0 3.79,0 7.52,0 11.27,0 3.78,0 7.48,0 11.3,0 3.7,0 7.41,0 11.11,0 3.67,0 7.38,0 11.08,0 3.7,0 7.41,0 11,0 3.7,0 7.41,0 11.01,0 3.62,0 7.22,0 10.92,0 3.59,0 7.17,0 10.68,0 3.59,0 7.19,0 10.81,0 3.49,0 7.07,0 10.59,0 3.52,0 7.1,0 10.61,0 3.49,0 7,0 10.47,0 3.52,0 6.92,0 10.4,0 3.39,0 6.91,0 10.31,0 3.52,0 6.92,0 10.33,0 3.36,0 6.76,0 10.16,0 3.33,0 6.73,0 10.13,0 3.29,0 6.69,0 9.97,0 3.33,0 6.63,0 10.02,0 3.29,0 6.49,0 9.79,0 3.28,0 6.61,0 9.78,0 3.33,0 6.5,0 9.72,0 3.29,0 6.49,0 9.71,0 3.17,0 6.39,0 9.49,0 3.22,0 6.39,0 9.48,0 3.09,0 6.32,0 9.41,0 3.1,0 6.2,0 9.3,0 3.1,0 6.19,0 9.22,0 3.09,0 6.2,0 9.18,0 2.99,0 6.01,0 9.12,0 2.98,0 6,0 8.87,0 3.03,0 6.02,0 9,0 2.9,0 5.81,0 8.81,0 2.9,0 5.81,0 8.69,0 2.9,0 5.81,0 8.72,0 2.8,0 5.67,0 8.47,0 2.9,0 5.71,0 8.5,0 2.9,0 5.71,0 8.42,0 2.8,0 5.59,0 8.39,0 2.69,0 5.49,0 8.21,0 2.69,0 5.4,0 8.09,0 2.72,0 5.4,0 8.09,0 2.72,0 5.32,0 8.01,0 2.6,0 5.29,0 7.89,0 2.61,0 5.22,0 7.83,0 2.56,0 5.17,0 7.67,0 2.61,0 5.1,0 7.59,0 2.61,0 5.11,0 7.59,0 2.53,0 5.03,0 7.42,0 2.49,0 4.99,0 7.41,0 2.49,0 4.92,0 7.3,0 2.41,0 4.79,0 7.22,0 2.38,0 4.68,0 7.06,0 2.3,0 4.72,0 7.02,0 2.3,0 4.58,0 6.88,0 2.31,0 4.62,0 6.92,0 2.19,0 4.5,0 6.69,0 2.19,0 4.5,0 6.69,0 2.23,0 4.42,0 6.49,0 2.24,0 4.43,0 6.5,0l0 -72.87zm-9271.03 335.17c-113.13,68.44 -232.51,134.12 -343.1,182.62 -111.64,48.94 -210.25,78.46 -283.19,78.46l0 72.87c88.71,0 198.87,-34.81 312.45,-84.59 114.62,-50.27 237.03,-117.73 351.55,-187l-37.72 -62.35zm1092.77 -335.17c-390.65,0 -761.88,134.97 -1092.77,335.17l37.72 62.35c323.06,-195.47 681.35,-324.65 1055.05,-324.65l0 -72.87z"/>
    </g>
   </g>
   <path class="fil0" d="M6555.37 965.79c0,-141.12 114.39,-255.53 255.52,-255.53l9795.12 0c141.12,0 255.49,114.4 255.49,255.53l0 2742.68c0,141.12 -114.36,255.53 -255.49,255.53l-8230.58 0c-315.95,0 -625.18,86.84 -900.55,241.8 -270.71,152.35 -586.82,320.34 -663.99,320.34 -141.12,0 -255.52,-114.4 -255.52,-255.53l0 -3304.82z"/>
   <path class="fil8" d="M8922.83 2786.08c0,82.78 -12.58,158.35 -37.79,226.73 -23.39,66.58 -66.59,124.14 -129.56,172.75 -61.19,46.79 -145.77,83.68 -253.74,110.66 -107.94,26.98 -245.62,40.48 -412.98,40.48 -167.35,0 -304.99,-13.5 -412.97,-40.48 -107.97,-26.98 -193.42,-63.87 -256.43,-110.66 -61.15,-48.61 -104.34,-106.17 -129.56,-172.75 -23.39,-68.38 -35.07,-143.96 -35.07,-226.73l0 -1336.12c0,-34.16 7.18,-58.46 21.59,-72.86 16.17,-16.21 41.38,-24.3 75.59,-24.3l423.78 0c34.17,0 58.46,8.09 72.87,24.3 16.21,14.4 24.29,38.7 24.29,72.86l0 1230.83c0,36.01 13.5,66.58 40.48,91.8 26.99,23.39 87.27,35.07 180.85,35.07 95.35,0 156.54,-11.68 183.56,-35.07 26.98,-25.22 40.48,-55.79 40.48,-91.8l0 -1230.83c0,-34.16 7.18,-58.46 21.58,-72.86 16.22,-16.21 41.39,-24.3 75.59,-24.3l410.29 0c34.17,0 58.47,8.09 72.87,24.3 16.21,14.4 24.29,38.7 24.29,72.86l0 1336.12zm874.77 510.14l-418.37 0c-34.17,0 -59.37,-7.22 -75.55,-21.58 -14.4,-16.21 -21.62,-41.39 -21.62,-75.59l0 -1749.1c0,-34.16 7.22,-58.46 21.62,-72.86 16.17,-16.21 41.38,-24.3 75.55,-24.3l1203.84 0c34.2,0 58.46,8.09 72.87,24.3 16.21,14.4 24.29,38.7 24.29,72.86l0 321.21c0,34.21 -8.08,59.37 -24.29,75.59 -14.41,14.4 -38.67,21.59 -72.87,21.59l-688.3 0 0 280.72 469.66 0c34.21,0 58.5,8.09 72.91,24.3 16.17,14.4 24.26,38.66 24.26,72.87l0 323.88c0,34.21 -8.09,59.42 -24.26,75.59 -14.41,14.41 -38.7,21.59 -72.91,21.59l-469.66 0 0 531.76c0,34.2 -8.09,59.37 -24.3,75.59 -14.36,14.36 -38.66,21.58 -72.87,21.58zm2502.59 0l-1252.41 0c-34.2,0 -59.37,-7.22 -75.59,-21.58 -14.4,-16.21 -21.58,-41.39 -21.58,-75.59l0 -1749.1c0,-34.16 7.18,-58.46 21.58,-72.86 16.21,-16.21 41.39,-24.3 75.59,-24.3l1252.41 0c34.2,0 58.5,8.09 72.9,24.3 16.17,14.4 24.26,38.7 24.26,72.86l0 315.8c0,34.21 -8.09,59.37 -24.26,75.59 -14.4,14.4 -38.7,21.59 -72.9,21.59l-744.95 0 0 207.86 526.31 0c34.21,0 58.5,8.09 72.91,24.26 16.17,14.4 24.29,38.7 24.29,72.9l0 288.82c0,34.16 -8.12,59.37 -24.29,75.55 -14.41,14.4 -38.7,21.62 -72.91,21.62l-526.31 0 0 232.13 744.95 0c34.2,0 58.5,8.09 72.9,24.3 16.17,14.37 24.26,38.66 24.26,72.87l0 315.8c0,34.2 -8.09,59.37 -24.26,75.59 -14.4,14.36 -38.7,21.58 -72.9,21.58zm1766.1 0l-1252.45 0c-34.16,0 -59.37,-7.22 -75.55,-21.58 -14.4,-16.21 -21.62,-41.39 -21.62,-75.59l0 -1749.1c0,-34.16 7.22,-58.46 21.62,-72.86 16.17,-16.21 41.39,-24.3 75.55,-24.3l1252.45 0c34.16,0 58.46,8.09 72.86,24.3 16.18,14.4 24.3,38.7 24.3,72.86l0 315.8c0,34.21 -8.12,59.37 -24.3,75.59 -14.4,14.4 -38.7,21.59 -72.86,21.59l-745 0 0 207.86 526.35 0c34.17,0 58.47,8.09 72.87,24.26 16.21,14.4 24.29,38.7 24.29,72.9l0 288.82c0,34.16 -8.08,59.37 -24.29,75.55 -14.4,14.4 -38.7,21.62 -72.87,21.62l-526.35 0 0 232.13 745 0c34.16,0 58.46,8.09 72.86,24.3 16.18,14.37 24.3,38.66 24.3,72.87l0 315.8c0,34.2 -8.12,59.37 -24.3,75.59 -14.4,14.36 -38.7,21.58 -72.86,21.58zm1423.26 0l-909.65 0c-34.17,0 -59.37,-7.22 -75.56,-21.58 -14.4,-16.21 -21.62,-41.39 -21.62,-75.59l0 -1749.1c0,-34.16 7.22,-58.46 21.62,-72.86 16.18,-16.21 41.39,-24.3 75.56,-24.3l909.65 0c224.92,0 391.39,44.98 499.33,134.96 109.79,89.99 164.67,228.54 164.67,415.69l0 842.16c0,187.12 -54.88,325.67 -164.67,415.65 -107.94,89.95 -274.42,134.96 -499.33,134.96zm-394.07 -1427.88l0 917.74 321.17 0c43.2,0 74.69,-10.81 94.49,-32.38 21.62,-21.62 32.38,-54.87 32.38,-99.89l0 -655.9c0,-44.98 -10.77,-77.37 -32.38,-97.17 -19.8,-21.58 -51.28,-32.38 -94.49,-32.38l-321.17 0z"/>
  </g>
 </g>
</svg>
