<?xml version="1.0" encoding="UTF-8"?>
<!DOCTYPE svg PUBLIC "-//W3C//DTD SVG 1.1//EN" "http://www.w3.org/Graphics/SVG/1.1/DTD/svg11.dtd">
<!-- Creator: CorelDRAW 2019 (64 Bit) -->
<svg xmlns="http://www.w3.org/2000/svg" xml:space="preserve" width="121.332mm" height="136.467mm" version="1.1" style="shape-rendering:geometricPrecision; text-rendering:geometricPrecision; image-rendering:optimizeQuality; fill-rule:evenodd; clip-rule:evenodd"
viewBox="0 0 3062.14 3444.11"
 xmlns:xlink="http://www.w3.org/1999/xlink">
 <defs>
  <style type="text/css">
   <![CDATA[
    .fil8 {fill:none;fill-rule:nonzero}
    .fil4 {fill:#151515}
    .fil11 {fill:#30D89B}
    .fil10 {fill:#F8F8F8}
    .fil16 {fill:#FFF734}
    .fil14 {fill:black;fill-rule:nonzero}
    .fil3 {fill:#137854;fill-rule:nonzero}
    .fil6 {fill:#141414;fill-rule:nonzero}
    .fil5 {fill:#151515;fill-rule:nonzero}
    .fil2 {fill:#30D89B;fill-rule:nonzero}
    .fil1 {fill:#DDDDDD;fill-rule:nonzero}
    .fil17 {fill:#E66549;fill-rule:nonzero}
    .fil0 {fill:#EEEEEE;fill-rule:nonzero}
    .fil13 {fill:#F4F4F4;fill-rule:nonzero}
    .fil9 {fill:#F8F8F8;fill-rule:nonzero}
    .fil15 {fill:#FFDC27;fill-rule:nonzero}
    .fil18 {fill:#FFF734;fill-rule:nonzero}
    .fil12 {fill:white;fill-rule:nonzero}
    .fil7 {fill:white;fill-rule:nonzero}
   ]]>
  </style>
     <clipPath id="id0" style="clip-rule:nonzero">
      <path d="M136.05 1140.61c-7.47,-323.75 648.47,-366.68 702.51,-74.54 43.64,266.57 -144.02,379.84 -280.73,394.35 -136.71,14.5 -414.32,3.95 -421.79,-319.8z"/>
     </clipPath>
     <clipPath id="id1" style="clip-rule:nonzero">
      <path d="M1033.96 1076c-7.47,-323.75 648.47,-366.68 702.51,-74.54 43.65,266.56 -144.02,379.84 -280.72,394.34 -136.71,14.51 -414.32,3.95 -421.79,-319.8z"/>
     </clipPath>
 </defs>
 <g id="Camada_x0020_1">
  <metadata id="CorelCorpID_0Corel-Layer"/>
  <g id="_2042875390112">
   <path class="fil0" d="M3062.14 3006.26c0,241.82 -685.48,437.85 -1531.07,437.85 -845.58,0 -1531.06,-196.03 -1531.06,-437.85 0,-241.82 685.48,-437.84 1531.06,-437.84 845.59,0 1531.07,196.03 1531.07,437.84z"/>
   <path class="fil1" d="M2532.26 2883.55c0,164.8 -465.73,298.41 -1040.23,298.41 -574.5,0 -1040.23,-133.6 -1040.23,-298.41 0,-164.8 465.73,-298.4 1040.23,-298.4 574.5,0 1040.23,133.6 1040.23,298.4z"/>
   <path class="fil2" d="M1357.25 2798.58l-28.62 -903.53c31.25,8.37 120.15,9.87 182.51,-4.12l39.03 906.32c-6.78,91.96 -192.52,93.54 -192.92,1.33z"/>
   <path class="fil3" d="M1330.31 1951.3l0.24 -52.96 -0.51 -8.51 174 -3.61 6.87 57.66c-31.99,36.08 -139.31,40.81 -180.6,7.42z"/>
   <path class="fil4" d="M1323.9 1889.06c1.89,-1.5 4.38,-2.01 6.71,-1.39 14.58,3.91 43.75,6.39 77.54,6.07 33.6,-0.33 70.84,-3.42 101.33,-10.26 2.2,-0.49 4.51,0.01 6.3,1.39 1.79,1.37 2.88,3.47 2.98,5.73l39.03 906.32c0.01,0.3 0.01,0.59 -0.02,0.89 -1.91,25.88 -16.5,45.2 -36.47,57.85 -19.81,12.55 -45.15,18.75 -69.93,18.94 -24.76,0.19 -49.79,-5.61 -68.91,-18 -19.33,-12.52 -32.69,-31.89 -32.84,-57.88l-28.61 -903.43c-0.08,-2.41 0.99,-4.72 2.88,-6.22zm12.67 15.48l28.31 893.79c0,0.07 0.01,0.14 0.01,0.21 0.09,20.06 10.09,35.03 25.88,45.26 16.03,10.38 37.93,15.72 60.51,15.55 22.55,-0.17 44.95,-5.85 61.88,-16.58 16.66,-10.55 27.78,-25.77 29.39,-45.66l-38.62 -896.89c-29.96,5.84 -64.5,8.47 -95.62,8.77 -28.16,0.27 -54.15,-1.35 -71.73,-4.45z"/>
   <path class="fil5" d="M960.88 1654.97c-384.62,125.59 -587.5,357.61 -660.72,590 -72.19,229.12 -17.68,460.93 116.6,575.72l54.37 -63.59c-102.08,-87.26 -156.22,-280.53 -91.16,-486.98 64.02,-203.18 244.29,-417.21 606.89,-535.61l-25.97 -79.53z"/>
   <path class="fil5" d="M2073.38 1471.98c384.63,125.59 587.5,357.61 660.72,590 72.2,229.12 17.68,460.93 -116.6,575.72l-54.36 -63.59c102.08,-87.26 156.21,-280.53 91.16,-486.98 -64.02,-203.18 -244.29,-417.21 -606.89,-535.61l25.97 -79.53z"/>
   <path class="fil2" d="M2222.18 476.71c263.19,455.86 107,1038.76 -348.86,1301.95 -455.86,263.19 -1038.76,107 -1301.95,-348.86 -263.19,-455.86 -107,-1038.76 348.86,-1301.95 455.86,-263.19 1038.76,-107 1301.95,348.86zm-1488.5 859.39c211.44,366.21 679.72,491.69 1045.93,280.25 366.22,-211.43 491.69,-679.71 280.26,-1045.93 -211.44,-366.22 -679.71,-491.69 -1045.93,-280.26 -366.22,211.44 -491.69,679.72 -280.26,1045.93z"/>
   <path class="fil6" d="M2212.52 482.29c260.11,450.52 105.75,1026.61 -344.77,1286.71l5.58 9.66c-455.86,263.19 -1038.76,107 -1301.95,-348.86l9.66 -5.58c260.11,450.52 836.19,604.88 1286.71,344.77l5.58 9.66c455.86,-263.19 612.05,-846.09 348.86,-1301.95l-9.66 5.58zm-1641.15 947.52c-263.19,-455.86 -107,-1038.76 348.86,-1301.96l5.58 9.66c-450.52,260.11 -604.89,836.19 -344.78,1286.72l-9.66 5.58zm348.86 -1301.96c455.86,-263.19 1038.76,-107 1301.95,348.86l-9.66 5.58c-260.11,-450.52 -836.19,-604.89 -1286.71,-344.78l-5.58 -9.66zm-186.55 1208.25c211.44,366.21 679.72,491.69 1045.93,280.25l5.58 9.66c-371.55,214.52 -846.65,87.21 -1061.17,-284.34l9.66 -5.58zm1045.93 280.25c366.22,-211.43 491.69,-679.71 280.26,-1045.93l9.66 -5.58c214.52,371.55 87.21,846.66 -284.34,1061.17l-5.58 -9.66zm280.26 -1045.93c-211.44,-366.22 -679.71,-491.69 -1045.93,-280.26l-5.58 -9.66c371.55,-214.52 846.65,-87.21 1061.17,284.34l-9.66 5.58zm-1045.93 -280.26c-366.22,211.44 -491.69,679.72 -280.26,1045.93l-9.66 5.58c-214.52,-371.55 -87.21,-846.65 284.34,-1061.17l5.58 9.66z"/>
   <path class="fil5" d="M838.56 1066.06l11.01 -1.8 -0.02 -0.11 -0.02 -0.11 -10.97 2.03zm-702.51 74.54l-11.15 0.26 0 0 11.15 -0.26zm713.48 -76.57c-14.35,-77.57 -68.66,-132.17 -139.89,-165.21 -71.1,-32.99 -159.96,-45.03 -246.36,-37.56 -86.39,7.47 -171.48,34.55 -234.81,81.04 -63.6,46.68 -105.54,113.27 -103.57,198.56l22.31 -0.51c-1.77,-76.58 35.49,-136.77 94.46,-180.06 59.24,-43.48 140.12,-69.58 223.53,-76.8 83.4,-7.21 168.2,4.56 235.05,35.57 66.72,30.95 114.67,80.54 127.34,149.03l21.94 -4.06zm-21.98 3.83c21.31,130.18 -13.89,221.6 -69.92,282.33 -56.4,61.13 -134.82,92.1 -200.97,99.12l2.35 22.19c70.55,-7.49 154.32,-40.4 215.02,-106.18 61.07,-66.18 97.87,-164.68 75.54,-301.06l-22.02 3.61zm-270.9 381.45c-67.71,7.19 -168.79,7.92 -253.41,-32.05 -42.09,-19.88 -80.01,-49.78 -107.93,-94.02 -27.94,-44.27 -46.28,-103.57 -48.11,-182.9l-22.31 0.51c1.9,82.55 21.06,145.97 51.55,194.29 30.51,48.34 71.93,80.87 117.27,102.29 90.23,42.62 196.3,41.38 265.3,34.06l-2.35 -22.19z"/>
   <g>
    <path class="fil5" d="M136.05 1140.61c-7.47,-323.75 648.47,-366.68 702.51,-74.54 43.64,266.57 -144.02,379.84 -280.73,394.35 -136.71,14.5 -414.32,3.95 -421.79,-319.8z"/>
    <g style="clip-path:url(#id0)">
     <g>
      <g>
       <polygon id="1" class="fil7" points="744.02,1492.5 473.93,784.66 555.8,749.97 892.73,1447.96 "/>
       <polygon class="fil7" points="1486.05,1504.33 1223.61,793.62 1305.85,759.81 1635.23,1461.39 "/>
       <polygon class="fil7" points="305.17,892.49 362.92,872.87 566.49,1472.09 508.73,1491.71 "/>
       <polygon class="fil7" points="1505.71,774.04 1541.72,761.81 1745.29,1361.03 1709.27,1373.27 "/>
      </g>
     </g>
    </g>
    <path class="fil8" d="M136.05 1140.61c-7.47,-323.75 648.47,-366.68 702.51,-74.54 43.64,266.57 -144.02,379.84 -280.73,394.35 -136.71,14.5 -414.32,3.95 -421.79,-319.8z"/>
    <path class="fil5" d="M1033.96 1076c-7.47,-323.75 648.47,-366.68 702.51,-74.54 43.65,266.56 -144.02,379.84 -280.72,394.34 -136.71,14.51 -414.32,3.95 -421.79,-319.8z"/>
    <g style="clip-path:url(#id1)">
     <g>
      <g>
       <polygon id="1" class="fil7" points="744.02,1492.5 473.93,784.66 555.8,749.97 892.73,1447.96 "/>
       <polygon class="fil7" points="1486.05,1504.33 1223.61,793.62 1305.85,759.81 1635.23,1461.39 "/>
       <polygon class="fil7" points="305.17,892.49 362.92,872.87 566.49,1472.09 508.73,1491.71 "/>
       <polygon class="fil7" points="1505.71,774.04 1541.72,761.81 1745.29,1361.03 1709.27,1373.27 "/>
      </g>
     </g>
    </g>
    <path class="fil8" d="M1033.96 1076c-7.47,-323.75 648.47,-366.68 702.51,-74.54 43.65,266.56 -144.02,379.84 -280.72,394.34 -136.71,14.51 -414.32,3.95 -421.79,-319.8z"/>
   </g>
   <path class="fil5" d="M1736.47 1001.45l11.01 -1.8 -0.02 -0.11 -0.02 -0.11 -10.97 2.03zm-702.51 74.54l-11.15 0.26 11.15 -0.26zm713.48 -76.57c-14.35,-77.57 -68.66,-132.17 -139.89,-165.22 -71.1,-32.99 -159.95,-45.03 -246.36,-37.56 -86.39,7.47 -171.48,34.55 -234.81,81.04 -63.6,46.68 -105.54,113.27 -103.57,198.56l22.3 -0.51c-1.77,-76.58 35.49,-136.77 94.47,-180.06 59.24,-43.49 140.12,-69.58 223.53,-76.8 83.4,-7.21 168.2,4.56 235.05,35.57 66.72,30.95 114.67,80.54 127.34,149.04l21.94 -4.06zm-21.98 3.83c21.32,130.18 -13.89,221.6 -69.92,282.33 -56.4,61.13 -134.82,92.11 -200.97,99.12l2.35 22.19c70.55,-7.49 154.32,-40.4 215.01,-106.18 61.07,-66.18 97.87,-164.68 75.54,-301.06l-22.02 3.6zm-270.89 381.45c-67.71,7.19 -168.79,7.92 -253.41,-32.05 -42.09,-19.88 -80.01,-49.78 -107.93,-94.02 -27.94,-44.27 -46.28,-103.57 -48.11,-182.9l-22.3 0.51c1.9,82.55 21.06,145.97 51.55,194.29 30.51,48.34 71.93,80.87 117.27,102.29 90.23,42.62 196.31,41.38 265.3,34.06l-2.35 -22.19z"/>
   <path class="fil5" d="M1046.54 1012.48c2.43,-1.9 2.86,-5.4 0.96,-7.83 -1.9,-2.43 -5.4,-2.86 -7.83,-0.96l6.87 8.79zm-213.65 7.64c-2.73,-1.44 -6.1,-0.39 -7.54,2.33 -1.44,2.73 -0.39,6.1 2.33,7.53l5.2 -9.87zm206.78 -16.43c-31.87,24.92 -118.09,63.17 -206.78,16.43l-5.2 9.87c93.97,49.52 184.95,8.99 218.85,-17.51l-6.87 -8.79z"/>
   <path class="fil5" d="M1331.56 1483.96c-47,-504.87 -764.35,-395.97 -702.26,65.37 23.4,128 179.46,118.07 167.02,-15.55 23.4,128 186.35,109.77 173.91,-23.84 23.4,128 185.38,140.49 172.94,6.87 15.19,163.23 201.81,111.39 188.39,-32.85z"/>
   <path class="fil9" d="M772.02 1197.84c-27.52,17.44 -52.8,38.45 -74.8,62.87l7.27 14.8c21.56,-24.86 46.67,-46.21 74.2,-63.85l-6.68 -13.83z"/>
   <path class="fil10" d="M614.22 1551.36l0.05 0.36 0.06 0.35c12.88,70.42 63.75,106.69 113.15,102.8 24.42,-1.93 47.57,-13.8 63.53,-35.15 5.75,-7.69 10.46,-16.46 13.98,-26.24 23.45,31.81 59.15,45.94 93.65,41.63 25.02,-3.12 48.72,-15.99 65.18,-37.91 5.85,-7.79 10.7,-16.6 14.36,-26.35 22.76,34.37 57.4,53.92 91.11,55.86 24.89,1.44 49.51,-6.87 66.85,-26.5 4.28,-4.84 8,-10.24 11.14,-16.18 6.63,11.49 14.72,21.04 24.01,28.62 23.47,19.14 52.73,24.12 80.19,17.92 54.78,-12.37 102.67,-68.71 95.29,-148.02 -12.11,-130.1 -67.69,-222.11 -144.44,-278.53 -24.47,-17.99 -50.96,-32.26 -78.69,-42.98l-0.06 0.2 -4.32 14.46c108.9,42.56 196.87,142.22 212.32,308.26 11.87,127.56 -132.7,182.85 -176.81,81.04 -5.77,-13.31 -9.82,-29.31 -11.58,-48.19 1.8,19.32 -0.05,35.59 -4.6,48.9 -23.2,67.82 -116.59,58.64 -154.76,-15.3 -6.12,-11.84 -10.81,-25.35 -13.58,-40.47 1.47,15.79 0.49,29.96 -2.42,42.48 -18.76,80.72 -117.76,92.31 -157.62,21.11 -6.26,-11.19 -11.06,-24.42 -13.87,-39.74 1.47,15.75 0.59,29.78 -2.13,42.07 -20.38,91.97 -144.25,86.39 -164.89,-26.53 -15.37,-114.18 17.01,-206.77 75.16,-273.81l-7.27 -14.8c-0.81,0.89 -1.61,1.79 -2.4,2.7 -62.24,70.59 -96.7,168.34 -80.6,287.95z"/>
   <path class="fil9" d="M1123.59 1161.24l0.06 -0.2c-10.72,-4.16 -17.8,10.32 -4.38,14.66l4.32 -14.46z"/>
   <path class="fil11" d="M2144.27 2962.53c214.77,0 388.87,-174.1 388.87,-388.86 0,-214.76 -174.1,-388.87 -388.87,-388.87 -214.76,0 -388.86,174.1 -388.86,388.87 0,214.76 174.1,388.86 388.86,388.86z"/>
   <path class="fil6" d="M2521.99 2573.66c0,208.6 -169.11,377.71 -377.71,377.71l0 11.16c214.77,0 388.87,-174.1 388.87,-388.86l-11.16 0zm11.16 0c0,-214.76 -174.1,-388.87 -388.87,-388.87l0 11.16c208.6,0 377.71,169.11 377.71,377.71l11.16 0zm-388.87 -388.87c-214.76,0 -388.86,174.1 -388.86,388.87l11.16 0c0,-208.6 169.11,-377.71 377.71,-377.71l0 -11.16zm-388.86 388.87c0,214.76 174.1,388.86 388.86,388.86l0 -11.16c-208.6,0 -377.71,-169.11 -377.71,-377.71l-11.16 0z"/>
   <path class="fil4" d="M2015.67 2170.74c-7.25,-5.15 -17.67,-7.48 -29.26,-7.69 -11.67,-0.21 -24.9,1.73 -38.11,5.49 -26.33,7.49 -53.28,22.41 -67.85,42.9 -0.76,1.08 -0.77,2.51 -0.01,3.59 0.76,1.08 2.11,1.56 3.38,1.21 45.01,-12.6 80.92,-15.92 104.16,-16.35 10.21,-0.19 21.96,-2.39 29.33,-6.39 3.58,-1.94 6.97,-4.77 7.68,-8.75 0.76,-4.23 -1.72,-8.11 -5.93,-11.46 -1.04,-0.83 -2.17,-1.68 -3.39,-2.55zm274.54 38.95c-15.16,-20.06 -42.53,-34.19 -69.07,-40.92 -13.32,-3.37 -26.6,-4.93 -38.25,-4.39 -11.58,0.54 -21.93,3.17 -29.03,8.53 -1.2,0.91 -2.3,1.79 -3.32,2.64 -4.1,3.47 -6.48,7.41 -5.6,11.62 0.83,3.96 4.29,6.69 7.93,8.53 7.48,3.78 19.29,5.64 29.5,5.54 23.24,-0.24 59.23,2.03 104.59,13.33 1.28,0.32 2.62,-0.2 3.35,-1.3 0.73,-1.1 0.68,-2.54 -0.11,-3.59z"/>
   <path class="fil12" d="M1986.41 2163.05l-0.1 5.58 0.1 -5.58zm29.26 7.69l-3.23 4.55 0 0 3.23 -4.55zm-67.37 -2.2l-1.52 -5.37 0 0 1.52 5.37zm-67.85 42.9l-4.55 -3.23 0 0 4.55 3.23zm-0.01 3.59l4.56 -3.21 0 0 -4.56 3.21zm3.38 1.21l-1.5 -5.37 0 0 1.5 5.37zm104.16 -16.35l-0.1 -5.58 0 0 0.1 5.58zm29.33 -6.39l-2.66 -4.9 0 0 2.66 4.9zm7.68 -8.75l-5.49 -0.98 0 0 5.49 0.98zm-5.93 -11.46l3.48 -4.36 0 0 -3.48 4.36zm202.08 -4.52l-1.37 5.41 0 0 1.37 -5.41zm69.07 40.92l-4.45 3.36 0 0 4.45 -3.36zm-107.32 -45.3l-0.26 -5.57 0 0 0.26 5.57zm-29.03 8.53l-3.36 -4.45 0 0 3.36 4.45zm-3.32 2.64l3.6 4.26 0 0 -3.6 -4.26zm-5.6 11.62l5.46 -1.14 0 0 -5.46 1.14zm7.93 8.53l2.52 -4.98 0 0 -2.52 4.98zm29.5 5.54l-0.06 -5.58 0 0 0.06 5.58zm104.59 13.33l1.35 -5.41 0 0 -1.35 5.41zm-300.66 -45.96c11.08,0.2 20.19,2.44 26.13,6.66l6.46 -9.09c-8.56,-6.09 -20.29,-8.51 -32.39,-8.72l-0.2 11.15zm-36.49 5.28c12.79,-3.64 25.47,-5.48 36.49,-5.28l0.2 -11.15c-12.32,-0.22 -26.1,1.82 -39.74,5.7l3.05 10.73zm-64.83 40.77c13.56,-19.07 39.16,-33.47 64.83,-40.77l-3.05 -10.73c-26.99,7.68 -55.29,23.12 -70.87,45.03l9.09 6.46zm0.01 -2.85c0.6,0.85 0.6,2 -0.01,2.85l-9.09 -6.46c-2.14,3 -2.14,7.02 -0.03,10.03l9.12 -6.42zm-2.68 -0.96c1.01,-0.28 2.08,0.1 2.68,0.96l-9.12 6.42c2.12,3.01 5.9,4.36 9.45,3.37l-3.01 -10.74zm105.56 -16.56c-23.66,0.44 -60.05,3.81 -105.56,16.56l3.01 10.74c44.51,-12.46 79.95,-15.72 102.76,-16.14l-0.2 -11.15zm26.77 -5.72c-6.27,3.4 -17.02,5.53 -26.77,5.72l0.2 11.15c10.67,-0.2 23.42,-2.47 31.89,-7.06l-5.32 -9.8zm4.85 -4.84c-0.24,1.37 -1.63,3.09 -4.85,4.84l5.32 9.8c3.94,-2.14 9.33,-6.07 10.51,-12.68l-10.98 -1.97zm-3.91 -6.11c3.67,2.93 4.12,4.95 3.91,6.11l10.98 1.97c1.31,-7.31 -3.21,-13.03 -7.94,-16.8l-6.95 8.72zm-3.15 -2.36c1.15,0.82 2.2,1.61 3.15,2.36l6.95 -8.72c-1.13,-0.9 -2.34,-1.81 -3.64,-2.73l-6.46 9.09zm207.33 -1.11c25.87,6.56 51.88,20.21 65.98,38.87l8.9 -6.72c-16.21,-21.46 -44.94,-36.07 -72.14,-42.96l-2.74 10.81zm-36.62 -4.22c11.01,-0.51 23.73,0.96 36.62,4.22l2.74 -10.81c-13.74,-3.48 -27.58,-5.13 -39.88,-4.55l0.52 11.14zm-25.93 7.41c5.81,-4.39 14.86,-6.89 25.93,-7.41l-0.52 -11.14c-12.1,0.57 -23.75,3.32 -32.13,9.65l6.72 8.9zm-3.08 2.46c0.93,-0.79 1.95,-1.61 3.08,-2.46l-6.72 -8.9c-1.27,0.96 -2.46,1.91 -3.56,2.84l7.2 8.52zm-3.74 6.22c-0.24,-1.15 0.15,-3.19 3.74,-6.22l-7.2 -8.52c-4.62,3.91 -8.97,9.75 -7.45,17.02l10.92 -2.28zm4.99 4.7c-3.28,-1.66 -4.7,-3.34 -4.99,-4.7l-10.92 2.28c1.37,6.57 6.87,10.34 10.87,12.37l5.03 -9.95zm26.93 4.94c-9.75,0.1 -20.56,-1.72 -26.93,-4.94l-5.03 9.95c8.6,4.35 21.41,6.25 32.08,6.14l-0.12 -11.16zm106 13.49c-45.86,-11.42 -82.33,-13.74 -106,-13.49l0.12 11.16c22.81,-0.24 58.33,2 103.18,13.16l2.7 -10.82zm-2.65 1.03c0.58,-0.87 1.64,-1.28 2.65,-1.03l-2.7 10.82c3.57,0.89 7.32,-0.57 9.35,-3.64l-9.31 -6.15zm0.09 2.85c-0.63,-0.83 -0.67,-1.97 -0.09,-2.85l9.31 6.15c2.03,-3.07 1.9,-7.09 -0.32,-10.03l-8.9 6.72z"/>
   <path class="fil4" d="M2245.5 2334.96c-18.04,-72.21 -84.44,-68.6 -93.91,39.28 -0.86,9.78 -1.09,18.89 -0.77,27.31 1.08,28.49 8.4,49.16 18.62,61.77 17.42,-4.78 37.48,-6.65 56.98,-1.36 8.11,-9.83 14.92,-24.2 19.12,-43.18 1.9,-8.58 3.26,-18.1 3.96,-28.57 0.28,-4.18 0.44,-8.24 0.5,-12.18l-43.49 -12.79 38.99 -30.28zm-245.53 -0.18l-39.23 30.46 46.89 13.79c0.6,8.29 0.73,16.07 0.45,23.35 -1.13,29.97 -9.18,51.29 -20.24,63.68 -16.6,-4.47 -35.53,-6.27 -54.08,-1.77 -8.66,-9.85 -15.98,-24.71 -20.39,-44.68 -1.9,-8.58 -3.26,-18.1 -3.96,-28.57 -7.36,-109.53 65.3,-139.77 90.56,-56.25z"/>
   <path class="fil5" d="M2151.59 2374.24l2.78 0.24 0 0 -2.78 -0.24zm93.91 -39.28l1.71 2.2 1.44 -1.12 -0.44 -1.76 -2.71 0.68zm-94.68 66.59l2.79 -0.11 0 0 -2.79 0.11zm18.62 61.77l-2.17 1.76 1.15 1.42 1.76 -0.48 -0.74 -2.69zm56.98 -1.36l-0.73 2.69 1.74 0.47 1.15 -1.39 -2.15 -1.77zm19.12 -43.18l-2.72 -0.6 0 0 2.72 0.6zm3.96 -28.57l2.78 0.19 0 0 -2.78 -0.19zm0.5 -12.18l2.79 0.04 0.03 -2.12 -2.03 -0.6 -0.79 2.68zm-43.49 -12.79l-1.71 -2.2 -4.3 3.34 5.22 1.54 0.79 -2.68zm-245.76 0l-1.71 -2.2 -4.3 3.34 5.23 1.54 0.79 -2.68zm39.23 -30.46l1.71 2.2 1.51 -1.18 -0.56 -1.83 -2.67 0.81zm7.66 44.25l2.78 -0.2 -0.14 -1.93 -1.86 -0.55 -0.79 2.68zm0.45 23.35l-2.79 -0.11 0 0 2.79 0.11zm-20.24 63.68l-0.72 2.69 1.66 0.45 1.15 -1.28 -2.08 -1.85zm-54.08 -1.77l-2.09 1.84 1.11 1.26 1.64 -0.4 -0.66 -2.71zm-20.39 -44.68l2.72 -0.6 0 0 -2.72 0.6zm-3.96 -28.57l-2.78 0.19 0 0 2.78 -0.19zm244.95 -16.54c2.35,-26.72 8.2,-46.77 15.8,-60.72 7.61,-13.97 16.84,-21.59 25.88,-24.01 8.94,-2.39 18.27,0.15 26.62,7.76 8.39,7.65 15.71,20.42 20.13,38.11l5.41 -1.35c-4.6,-18.41 -12.35,-32.27 -21.78,-40.88 -9.48,-8.65 -20.72,-12 -31.82,-9.03 -11,2.94 -21.27,11.93 -29.34,26.73 -8.08,14.82 -14.07,35.67 -16.46,62.9l5.55 0.49zm-0.76 26.96c-0.31,-8.3 -0.09,-17.29 0.76,-26.96l-5.55 -0.49c-0.87,9.89 -1.1,19.12 -0.78,27.66l5.57 -0.21zm17.99 60.12c-9.71,-12 -16.93,-32 -17.99,-60.12l-5.57 0.21c1.09,28.86 8.51,50.19 19.23,63.42l4.33 -3.51zm-1.43 4.44c17.1,-4.69 36.63,-6.48 55.52,-1.36l1.46 -5.38c-20.12,-5.46 -40.71,-3.51 -58.45,1.36l1.48 5.38zm72.64 -47.84c-4.13,18.68 -10.79,32.6 -18.54,42.01l4.3 3.55c8.45,-10.25 15.42,-25.06 19.69,-44.36l-5.45 -1.2zm3.9 -28.16c-0.69,10.35 -2.04,19.73 -3.9,28.16l5.45 1.2c1.93,-8.73 3.31,-18.39 4.02,-28.99l-5.56 -0.37zm0.49 -12.03c-0.05,3.89 -0.22,7.9 -0.49,12.03l5.56 0.37c0.29,-4.22 0.45,-8.33 0.51,-12.33l-5.58 -0.08zm-41.49 -10.07l43.49 12.79 1.57 -5.35 -43.49 -12.79 -1.57 5.35zm38.07 -35.16l-38.99 30.28 3.42 4.4 38.99 -30.28 -3.42 -4.41zm-281.33 34.68l39.23 -30.46 -3.42 -4.41 -39.23 30.46 3.42 4.4zm45.96 8.91l-46.89 -13.79 -1.57 5.35 46.89 13.79 1.57 -5.35zm2.45 26.13c0.28,-7.38 0.15,-15.27 -0.46,-23.65l-5.56 0.4c0.59,8.19 0.72,15.88 0.45,23.04l5.57 0.21zm-20.94 65.43c11.64,-13.04 19.79,-35.07 20.94,-65.43l-5.57 -0.21c-1.12,29.59 -9.05,50.19 -19.53,61.93l4.16 3.71zm-55.51 -0.91c17.97,-4.36 36.41,-2.64 52.7,1.75l1.45 -5.39c-16.91,-4.56 -36.34,-6.43 -55.47,-1.79l1.32 5.42zm-23.77 -46.79c4.48,20.3 11.97,35.63 21.02,45.93l4.19 -3.68c-8.27,-9.4 -15.42,-23.79 -19.76,-43.44l-5.45 1.2zm-4.02 -28.99c0.71,10.6 2.09,20.26 4.02,28.99l5.45 -1.2c-1.86,-8.43 -3.21,-17.81 -3.9,-28.16l-5.56 0.37zm96.01 -57.24c-6.42,-21.22 -15.97,-35.64 -26.91,-43.32 -11.08,-7.78 -23.42,-8.52 -34.58,-2.6 -11.01,5.83 -20.55,17.95 -26.87,35.29 -6.33,17.37 -9.51,40.2 -7.65,67.88l5.56 -0.37c-1.82,-27.09 1.32,-49.11 7.33,-65.6 6.03,-16.53 14.85,-27.29 24.24,-32.27 9.24,-4.9 19.34,-4.38 28.76,2.24 9.56,6.71 18.56,19.83 24.78,40.38l5.34 -1.62z"/>
   <path class="fil5" d="M2032.28 2478.81c2.56,1.71 3.26,5.17 1.55,7.74 -1.71,2.56 -5.17,3.26 -7.74,1.55l6.19 -9.28zm-130.05 8.81c-2.3,2.05 -5.83,1.84 -7.87,-0.46 -2.05,-2.3 -1.84,-5.83 0.46,-7.87l7.41 8.34zm123.86 0.47c-11.84,-7.9 -32.49,-17.48 -55.44,-20.26 -22.82,-2.77 -47.52,1.21 -68.42,19.79l-7.41 -8.34c23.9,-21.24 52.09,-25.56 77.17,-22.52 24.96,3.03 47.25,13.36 60.29,22.05l-6.19 9.28z"/>
   <path class="fil5" d="M2125.63 2475.91c-2.56,1.71 -3.26,5.17 -1.55,7.74 1.71,2.56 5.17,3.26 7.74,1.55l-6.19 -9.28zm130.04 8.81c2.3,2.05 5.83,1.84 7.87,-0.46 2.05,-2.3 1.84,-5.83 -0.46,-7.87l-7.41 8.34zm-123.86 0.47c11.84,-7.9 32.49,-17.48 55.44,-20.26 22.82,-2.77 47.52,1.21 68.42,19.79l7.41 -8.34c-23.9,-21.25 -52.09,-25.56 -77.17,-22.52 -24.96,3.03 -47.25,13.36 -60.29,22.05l6.19 9.28z"/>
   <path class="fil13" d="M1939.55 2693.33c-81.08,-37.4 -60.81,-154.03 0,-123.72l0 123.72z"/>
   <path class="fil13" d="M1939.55 2569.61l0 123.72c18.98,8.75 42.04,16.25 67.01,21.82l0 -119.51c-26.56,-6.79 -48.97,-17.05 -67.01,-26.04z"/>
   <path class="fil13" d="M2006.56 2595.65l0 119.51c24.87,5.55 51.63,9.18 78.13,10.24l0 -123c-29.05,2.4 -55.14,-0.87 -78.13,-6.75z"/>
   <path class="fil13" d="M2226.54 2693.34c65.56,-46.77 20.51,-142.54 -26.98,-127.39l19.15 132.8c2.72,-1.71 5.33,-3.51 7.83,-5.41z"/>
   <path class="fil13" d="M2191.33 2569.61c-13.63,7.19 -26.84,13.04 -39.63,17.71l5.98 133.55c23.07,-4.24 44.03,-11.43 61.02,-22.13l-19.15 -132.8c-2.74,0.88 -5.49,2.09 -8.22,3.67z"/>
   <path class="fil13" d="M2084.69 2602.4l0 123c25.17,1 50.11,-0.31 72.99,-4.52l-5.98 -133.55c-23.82,8.7 -46.17,13.35 -67.01,15.07z"/>
   <path class="fil14" d="M1939.55 2569.61l2.49 -4.99 0 0 -2.49 4.99zm251.78 0l2.6 4.93 0.09 -0.05 0.09 -0.05 -2.79 -4.83zm35.2 123.73l-3.24 -4.54 -0.06 0.05 -0.06 0.05 3.36 4.45zm-219.98 21.82l-1.21 5.44 1.21 -5.44zm78.13 10.24l-0.22 5.57 0.22 -5.57zm67.01 -138.07l-1.92 -5.24 1.92 5.24zm5.98 133.55l1.01 5.48 0 0 -1.01 -5.48zm41.88 -154.93l-1.69 -5.31 1.69 5.31zm19.15 132.8l2.97 4.72 -2.97 -4.72zm-276.81 -10.48c-38.17,-17.61 -52.35,-53.75 -49.99,-81.72 1.19,-14.06 6.47,-25.29 14.05,-31.28 7.19,-5.68 17.47,-7.47 31.11,-0.67l4.97 -9.98c-16.77,-8.36 -31.82,-6.93 -43,1.9 -10.79,8.52 -16.91,23.11 -18.25,39.09 -2.71,32.11 13.52,72.99 56.43,92.79l4.67 -10.13zm-7.91 -118.66l0 123.72 11.16 0 0 -123.72 -11.16 0zm3.09 4.99c18.16,9.05 40.99,19.51 68.11,26.45l2.76 -10.81c-25.99,-6.65 -48,-16.7 -65.9,-25.62l-4.97 9.98zm70.71 135.11c-24.67,-5.5 -47.34,-12.89 -65.89,-21.44l-4.67 10.13c19.41,8.95 42.86,16.57 68.13,22.2l2.43 -10.89zm-6.79 -114.07l0 119.51 11.16 0 0 -119.51 -11.16 0zm4.2 5.4c23.5,6.01 50.22,9.37 79.98,6.91l-0.92 -11.12c-28.34,2.34 -53.81,-0.85 -76.29,-6.6l-2.76 10.81zm79.74 118.77c-26.16,-1.04 -52.59,-4.63 -77.14,-10.11l-2.43 10.89c25.18,5.62 52.27,9.3 79.13,10.37l0.45 -11.14zm-5.8 -117.43l0 123 11.16 0 0 -123 -11.16 0zm6.04 5.56c21.34,-1.76 44.18,-6.52 68.46,-15.39l-3.83 -10.48c-23.35,8.53 -45.22,13.07 -65.55,14.75l0.92 11.12zm68.46 -15.39c13.04,-4.76 26.48,-10.71 40.32,-18.02l-5.21 -9.87c-13.41,7.08 -26.4,12.82 -38.94,17.41l3.83 10.48zm3.06 122.82c-22.39,4.12 -46.91,5.43 -71.75,4.44l-0.45 11.14c25.49,1.02 50.86,-0.31 74.22,-4.61l-2.02 -10.97zm-10.54 -127.81l5.98 133.55 11.14 -0.5 -5.98 -133.55 -11.14 0.5zm47.99 -13.13c2.41,-1.39 4.79,-2.44 7.13,-3.19l-3.39 -10.63c-3.14,1 -6.25,2.38 -9.32,4.15l5.58 9.66zm7.13 -3.19c9.77,-3.12 19.62,-0.67 28.38,6.05 8.83,6.78 16.29,17.76 20.5,30.83 8.4,26.02 3.62,58.94 -26.83,80.66l6.48 9.08c35.11,-25.05 40.58,-63.4 30.97,-93.17 -4.79,-14.83 -13.4,-27.87 -24.33,-36.25 -11,-8.44 -24.59,-12.28 -38.56,-7.83l3.39 10.63zm21.92 117.63c-2.37,1.79 -4.86,3.51 -7.45,5.14l5.95 9.44c2.84,-1.79 5.59,-3.68 8.22,-5.68l-6.73 -8.9zm-7.45 5.14c-16.22,10.22 -36.46,17.2 -59.06,21.36l2.02 10.97c23.53,-4.33 45.23,-11.71 62.99,-22.89l-5.95 -9.44zm-21.69 -127.28l19.14 132.8 11.04 -1.59 -19.14 -132.8 -11.04 1.59z"/>
   <path class="fil15" d="M2361.43 2157.03c0.97,-0.09 2.03,-0.1 3.14,0 10.21,-0.89 25.23,-10.48 27.16,-42.93 1.93,32.45 16.96,42.04 27.17,42.93 1.11,-0.1 2.16,-0.09 3.14,0 -0.97,0.09 -2.03,0.1 -3.14,0 -10.21,0.89 -25.23,10.48 -27.16,42.92 -1.93,-32.45 -16.96,-42.04 -27.17,-42.92 -1.11,0.1 -2.16,0.09 -3.14,0z"/>
   <path class="fil5" d="M2361.43 2157.03l-0.52 -5.55c-2.87,0.27 -5.06,2.68 -5.06,5.55 0,2.88 2.19,5.28 5.06,5.55l0.52 -5.55zm30.3 42.92l-5.57 0.33c0.17,2.95 2.61,5.25 5.57,5.25 2.95,0 5.39,-2.3 5.57,-5.25l-5.57 -0.33zm30.3 -42.92l0.52 5.55c2.87,-0.27 5.06,-2.67 5.06,-5.55 0,-2.88 -2.19,-5.29 -5.06,-5.55l-0.52 5.55zm-30.3 -42.93l5.57 -0.33c-0.17,-2.95 -2.62,-5.25 -5.57,-5.25 -2.95,0 -5.39,2.3 -5.57,5.25l5.57 0.33zm-29.78 48.48c0.63,-0.06 1.35,-0.07 2.14,0l0.97 -11.11c-1.43,-0.13 -2.82,-0.12 -4.14,0l1.03 11.11zm2.14 0c3.6,0.32 8.51,2.2 12.82,7.57 4.35,5.41 8.34,14.7 9.26,30.13l11.13 -0.66c-1.01,-17.01 -5.5,-28.74 -11.7,-36.46 -6.23,-7.76 -13.94,-11.12 -20.55,-11.69l-0.97 11.11zm58.47 -11.11c-1.32,-0.12 -2.71,-0.13 -4.14,-0l0.97 11.11c0.79,-0.07 1.5,-0.06 2.13,-0l1.04 -11.11zm-4.14 -0c-6.61,0.58 -14.32,3.93 -20.55,11.69 -6.2,7.72 -10.68,19.45 -11.7,36.46l11.13 0.66c0.92,-15.43 4.91,-24.72 9.26,-30.13 4.32,-5.37 9.22,-7.25 12.82,-7.57l-0.97 -11.11zm3.1 0c-0.63,0.06 -1.35,0.07 -2.13,-0l-0.97 11.11c1.43,0.13 2.82,0.12 4.14,-0l-1.04 -11.11zm-2.13 -0c-3.6,-0.31 -8.51,-2.2 -12.82,-7.57 -4.35,-5.41 -8.34,-14.7 -9.26,-30.14l-11.13 0.66c1.01,17.01 5.5,28.75 11.7,36.46 6.23,7.76 13.94,11.12 20.55,11.69l0.97 -11.11zm-58.47 11.11c1.32,0.12 2.71,0.13 4.14,0l-0.97 -11.11c-0.79,0.07 -1.51,0.06 -2.14,0l-1.03 11.11zm4.14 0c6.61,-0.58 14.32,-3.94 20.55,-11.69 6.2,-7.72 10.68,-19.45 11.7,-36.46l-11.13 -0.66c-0.92,15.44 -4.91,24.72 -9.26,30.14 -4.31,5.37 -9.22,7.25 -12.82,7.57l0.97 11.11z"/>
   <path class="fil15" d="M2305.87 2270.66c1.78,-0.17 3.71,-0.18 5.75,0 18.72,-1.68 46.26,-19.73 49.8,-80.81 3.54,61.08 31.09,79.13 49.8,80.81 2.04,-0.18 3.97,-0.17 5.75,0 -1.78,0.17 -3.71,0.18 -5.75,0 -18.72,1.68 -46.26,19.73 -49.8,80.8 -3.54,-61.08 -31.09,-79.13 -49.8,-80.8 -2.04,0.18 -3.97,0.17 -5.75,0z"/>
   <path class="fil5" d="M2305.87 2270.66l-0.53 -5.55c-2.86,0.28 -5.05,2.68 -5.05,5.55 0,2.87 2.19,5.28 5.05,5.55l0.53 -5.55zm55.56 80.8l-5.57 0.32c0.17,2.95 2.61,5.25 5.57,5.25 2.95,0 5.4,-2.3 5.57,-5.25l-5.57 -0.32zm55.55 -80.8l0.53 5.55c2.86,-0.27 5.05,-2.68 5.05,-5.55 0,-2.87 -2.19,-5.28 -5.05,-5.55l-0.53 5.55zm-55.56 -80.81l5.57 -0.32c-0.17,-2.95 -2.61,-5.25 -5.57,-5.25 -2.95,0 -5.4,2.3 -5.57,5.25l5.57 0.32zm-55.02 86.36c1.43,-0.14 3.02,-0.15 4.72,0l0.99 -11.11c-2.37,-0.21 -4.64,-0.2 -6.78,0l1.07 11.1zm4.72 0c7.8,0.7 17.97,4.85 26.7,16.01 8.77,11.21 16.31,29.79 18.03,59.56l11.14 -0.65c-1.81,-31.3 -9.82,-52.28 -20.39,-65.79 -10.6,-13.56 -23.57,-19.27 -34.49,-20.24l-0.99 11.11zm106.38 -11.11c-2.14,-0.2 -4.41,-0.21 -6.78,-0l0.99 11.11c1.71,-0.15 3.29,-0.14 4.72,-0.01l1.07 -11.1zm-6.78 -0c-10.91,0.98 -23.88,6.69 -34.48,20.24 -10.57,13.5 -18.57,34.49 -20.38,65.79l11.14 0.65c1.73,-29.78 9.26,-48.35 18.03,-59.56 8.73,-11.16 18.89,-15.31 26.69,-16.01l-0.99 -11.11zm5.72 0c-1.43,0.14 -3.02,0.15 -4.72,-0l-0.99 11.11c2.36,0.21 4.64,0.2 6.78,-0.01l-1.07 -11.1zm-4.72 -0c-7.8,-0.7 -17.97,-4.85 -26.7,-16.01 -8.77,-11.21 -16.31,-29.79 -18.03,-59.56l-11.14 0.65c1.81,31.3 9.82,52.29 20.39,65.79 10.6,13.56 23.57,19.27 34.49,20.25l0.99 -11.11zm-106.38 11.11c2.14,0.2 4.42,0.21 6.78,0l-0.99 -11.11c-1.71,0.15 -3.29,0.14 -4.72,0l-1.07 11.1zm6.78 0c10.91,-0.98 23.88,-6.69 34.48,-20.25 10.57,-13.51 18.57,-34.49 20.38,-65.79l-11.14 -0.65c-1.73,29.78 -9.26,48.36 -18.03,59.56 -8.73,11.16 -18.89,15.31 -26.69,16.01l0.99 11.11z"/>
   <path class="fil16" d="M832.78 2960.46c214.76,0 388.87,-174.1 388.87,-388.87 0,-214.76 -174.1,-388.86 -388.87,-388.86 -214.76,0 -388.86,174.1 -388.86,388.86 0,214.76 174.1,388.87 388.86,388.87z"/>
   <path class="fil6" d="M1210.49 2571.59c0,208.6 -169.11,377.71 -377.71,377.71l0 11.16c214.76,0 388.87,-174.1 388.87,-388.87l-11.16 0zm11.16 0c0,-214.76 -174.1,-388.86 -388.87,-388.86l0 11.16c208.6,0 377.71,169.11 377.71,377.71l11.16 0zm-388.87 -388.86c-214.76,0 -388.86,174.1 -388.86,388.86l11.16 0c0,-208.6 169.11,-377.71 377.71,-377.71l0 -11.16zm-388.86 388.86c0,214.76 174.1,388.87 388.86,388.87l0 -11.16c-208.6,0 -377.71,-169.11 -377.71,-377.71l-11.16 0z"/>
   <path class="fil4" d="M814.58 2190.43c-7.25,-5.15 -17.67,-7.49 -29.26,-7.69 -11.67,-0.21 -24.9,1.73 -38.11,5.49 -26.33,7.49 -53.28,22.41 -67.85,42.9 -0.76,1.08 -0.77,2.51 -0.01,3.59 0.76,1.08 2.11,1.56 3.38,1.21 45.01,-12.6 80.92,-15.92 104.16,-16.35 10.21,-0.19 21.96,-2.39 29.33,-6.39 3.58,-1.95 6.97,-4.77 7.68,-8.76 0.76,-4.23 -1.73,-8.11 -5.93,-11.46 -1.04,-0.83 -2.17,-1.68 -3.39,-2.55zm274.53 38.95c-15.15,-20.07 -42.53,-34.19 -69.06,-40.92 -13.32,-3.37 -26.6,-4.93 -38.26,-4.39 -11.58,0.54 -21.93,3.17 -29.03,8.53 -1.2,0.91 -2.3,1.79 -3.32,2.65 -4.1,3.47 -6.47,7.41 -5.59,11.62 0.83,3.96 4.29,6.69 7.93,8.53 7.48,3.79 19.3,5.65 29.51,5.54 23.24,-0.24 59.23,2.03 104.59,13.33 1.28,0.32 2.62,-0.2 3.35,-1.3 0.73,-1.1 0.68,-2.54 -0.11,-3.59z"/>
   <path class="fil12" d="M785.31 2182.74l-0.1 5.58 0.1 -5.58zm29.26 7.69l-3.23 4.55 0 0 3.23 -4.55zm-67.37 -2.2l-1.53 -5.36 0 0 1.53 5.36zm-67.85 42.9l-4.55 -3.23 0 0 4.55 3.23zm-0.01 3.59l4.56 -3.21 0 0 -4.56 3.21zm3.38 1.21l-1.5 -5.37 0 0 1.5 5.37zm104.16 -16.35l-0.1 -5.58 0 0 0.1 5.58zm29.33 -6.39l-2.66 -4.9 0 0 2.66 4.9zm7.68 -8.76l-5.49 -0.98 0 0 5.49 0.98zm-5.93 -11.46l3.48 -4.36 0 0 -3.48 4.36zm202.08 -4.52l-1.37 5.41 0 0 1.37 -5.41zm69.06 40.92l-4.45 3.36 0 0 4.45 -3.36zm-107.32 -45.31l-0.26 -5.57 0 0 0.26 5.57zm-29.03 8.53l-3.36 -4.45 0 0 3.36 4.45zm-3.32 2.65l3.6 4.26 0 0 -3.6 -4.26zm-5.59 11.62l5.46 -1.14 0 0 -5.46 1.14zm7.93 8.53l2.52 -4.98 0 0 -2.52 4.98zm29.51 5.54l-0.06 -5.58 0 0 0.06 5.58zm104.59 13.33l1.35 -5.41 0 0 -1.35 5.41zm-300.66 -45.96c11.08,0.19 20.19,2.44 26.13,6.66l6.46 -9.09c-8.56,-6.08 -20.29,-8.51 -32.4,-8.72l-0.2 11.16zm-36.49 5.28c12.79,-3.64 25.47,-5.47 36.49,-5.28l0.2 -11.16c-12.32,-0.22 -26.1,1.83 -39.74,5.71l3.05 10.73zm-64.83 40.77c13.56,-19.07 39.16,-33.47 64.83,-40.77l-3.05 -10.73c-26.99,7.68 -55.29,23.12 -70.87,45.03l9.09 6.46zm0.01 -2.85c0.6,0.86 0.6,2 -0.01,2.85l-9.09 -6.46c-2.13,3 -2.14,7.02 -0.03,10.03l9.13 -6.42zm-2.68 -0.96c1.01,-0.28 2.08,0.1 2.68,0.96l-9.13 6.42c2.12,3.01 5.91,4.36 9.45,3.37l-3.01 -10.74zm105.56 -16.56c-23.66,0.44 -60.05,3.81 -105.56,16.56l3.01 10.74c44.51,-12.46 79.95,-15.72 102.76,-16.14l-0.21 -11.15zm26.78 -5.72c-6.27,3.4 -17.03,5.53 -26.78,5.72l0.21 11.15c10.67,-0.2 23.42,-2.47 31.89,-7.06l-5.32 -9.8zm4.85 -4.84c-0.24,1.37 -1.63,3.09 -4.85,4.84l5.32 9.8c3.94,-2.14 9.33,-6.07 10.51,-12.67l-10.98 -1.97zm-3.92 -6.11c3.67,2.93 4.12,4.95 3.92,6.11l10.98 1.97c1.31,-7.31 -3.21,-13.03 -7.94,-16.8l-6.96 8.72zm-3.15 -2.36c1.15,0.82 2.2,1.61 3.15,2.36l6.96 -8.72c-1.13,-0.9 -2.34,-1.81 -3.64,-2.74l-6.46 9.09zm207.33 -1.11c25.87,6.55 51.88,20.2 65.98,38.87l8.9 -6.72c-16.21,-21.46 -44.94,-36.07 -72.14,-42.96l-2.74 10.81zm-36.62 -4.22c11.01,-0.51 23.73,0.95 36.62,4.22l2.74 -10.81c-13.74,-3.48 -27.58,-5.13 -39.89,-4.55l0.52 11.14zm-25.92 7.41c5.81,-4.39 14.86,-6.9 25.92,-7.41l-0.52 -11.14c-12.09,0.57 -23.74,3.32 -32.13,9.65l6.72 8.9zm-3.08 2.46c0.93,-0.79 1.96,-1.61 3.08,-2.46l-6.72 -8.9c-1.27,0.96 -2.46,1.91 -3.56,2.84l7.2 8.52zm-3.74 6.22c-0.24,-1.15 0.15,-3.19 3.74,-6.22l-7.2 -8.52c-4.62,3.91 -8.97,9.76 -7.45,17.03l10.92 -2.28zm4.99 4.69c-3.28,-1.66 -4.71,-3.34 -4.99,-4.69l-10.92 2.28c1.38,6.57 6.87,10.34 10.87,12.36l5.03 -9.95zm26.93 4.94c-9.75,0.1 -20.56,-1.72 -26.93,-4.94l-5.03 9.95c8.6,4.35 21.41,6.25 32.08,6.14l-0.12 -11.16zm106 13.49c-45.86,-11.42 -82.33,-13.74 -106,-13.49l0.12 11.16c22.81,-0.24 58.33,1.99 103.18,13.16l2.7 -10.82zm-2.66 1.03c0.58,-0.87 1.64,-1.29 2.66,-1.03l-2.7 10.82c3.57,0.89 7.32,-0.57 9.35,-3.64l-9.31 -6.15zm0.09 2.85c-0.63,-0.84 -0.67,-1.98 -0.09,-2.85l9.31 6.15c2.03,-3.07 1.9,-7.09 -0.32,-10.03l-8.9 6.72z"/>
   <path class="fil5" d="M1048.88 2397.71c-0.06,3.94 -0.22,8.01 -0.5,12.18 -0.7,10.47 -2.07,20 -3.96,28.57 -18.93,85.66 -91.14,77.25 -94.71,-17.23 -0.32,-8.42 -0.09,-17.53 0.77,-27.31 9.47,-107.88 75.87,-111.49 93.91,-39.28l-38.99 30.28 43.49 12.79z"/>
   <path class="fil5" d="M798.86 2354.46c-25.27,-83.51 -97.93,-53.28 -90.56,56.25 0.7,10.47 2.07,20 3.96,28.57 18.93,85.66 91.14,77.25 94.71,-17.23 0.28,-7.27 0.14,-15.06 -0.45,-23.34l-46.89 -13.79 39.23 -30.46z"/>
   <path class="fil5" d="M1048.38 2409.89l-5.56 -0.37 0 0 5.56 0.37zm0.5 -12.18l5.58 0.08 0.06 -4.23 -4.06 -1.19 -1.57 5.35zm-4.46 40.75l-5.45 -1.2 0 0 5.45 1.2zm-94.71 -17.23l5.57 -0.21 0 0 -5.57 0.21zm0.77 -27.31l5.56 0.49 0 0 -5.56 -0.49zm93.91 -39.28l3.42 4.41 2.87 -2.23 -0.88 -3.53 -5.41 1.35zm-38.99 30.28l-3.42 -4.41 -8.61 6.68 10.45 3.07 1.57 -5.35zm-297.09 25.79l-5.56 0.38 0 0 5.56 -0.38zm90.56 -56.25l3.42 4.41 3.03 -2.35 -1.11 -3.67 -5.34 1.62zm-86.6 84.83l-5.45 1.2 0 0 5.45 -1.2zm94.71 -17.23l5.57 0.21 0 0 -5.57 -0.21zm-0.45 -23.34l5.56 -0.4 -0.28 -3.86 -3.71 -1.09 -1.57 5.35zm-46.89 -13.79l-3.42 -4.41 -8.61 6.68 10.45 3.07 1.57 -5.35zm294.31 25.35c0.29,-4.27 0.45,-8.43 0.51,-12.48l-11.16 -0.16c-0.05,3.84 -0.21,7.8 -0.49,11.88l11.13 0.75zm-4.08 29.4c1.96,-8.88 3.36,-18.68 4.08,-29.4l-11.13 -0.75c-0.69,10.22 -2.01,19.46 -3.84,27.75l10.89 2.41zm-105.73 -18.22c0.92,24.27 6.25,43.49 14.42,57.24 8.17,13.75 19.39,22.31 31.9,24.23 12.59,1.93 25.22,-3.05 35.68,-13.84 10.41,-10.73 18.84,-27.31 23.72,-49.41l-10.89 -2.41c-4.58,20.73 -12.27,35.22 -20.84,44.05 -8.52,8.78 -17.7,11.85 -25.98,10.58 -8.36,-1.28 -17.04,-7.18 -24.01,-18.9 -6.97,-11.73 -12,-28.99 -12.87,-51.96l-11.15 0.42zm0.79 -28.01c-0.88,10 -1.11,19.34 -0.79,28.01l11.15 -0.42c-0.31,-8.17 -0.09,-17.04 0.75,-26.61l-11.11 -0.98zm104.88 -40.15c-4.69,-18.77 -12.65,-33.18 -22.61,-42.27 -10.05,-9.17 -22.24,-12.92 -34.42,-9.66 -11.98,3.2 -22.78,12.88 -31.07,28.09 -8.31,15.25 -14.38,36.51 -16.79,63.99l11.11 0.98c2.32,-26.46 8.11,-46.11 15.47,-59.63 7.39,-13.55 16.09,-20.49 24.16,-22.65 7.86,-2.1 16.25,0.04 24.02,7.13 7.87,7.18 14.97,19.39 19.3,36.73l10.82 -2.7zm-8.83 -3.05l-38.99 30.28 6.84 8.81 38.99 -30.28 -6.84 -8.81zm-37.14 40.03l43.48 12.79 3.15 -10.7 -43.49 -12.79 -3.15 10.7zm-289.96 20.07c-1.8,-26.78 1.32,-48.41 7.16,-64.46 5.88,-16.13 14.34,-26.21 22.93,-30.76 8.28,-4.39 17.26,-3.98 25.85,2.06 8.86,6.22 17.6,18.7 23.71,38.9l10.68 -3.23c-6.52,-21.56 -16.34,-36.62 -27.98,-44.79 -11.91,-8.36 -25.37,-9.21 -37.49,-2.78 -11.82,6.26 -21.72,19.06 -28.18,36.79 -6.49,17.81 -9.69,41.05 -7.81,69.03l11.13 -0.75zm3.84 27.75c-1.83,-8.28 -3.15,-17.53 -3.84,-27.75l-11.13 0.75c0.72,10.73 2.12,20.53 4.08,29.4l10.89 -2.41zm83.69 -16.24c-0.87,22.97 -5.9,40.23 -12.86,51.96 -6.97,11.72 -15.65,17.62 -24.01,18.9 -8.28,1.27 -17.47,-1.8 -25.98,-10.58 -8.57,-8.83 -16.26,-23.32 -20.84,-44.05l-10.89 2.41c4.88,22.1 13.32,38.68 23.72,49.41 10.46,10.78 23.1,15.77 35.68,13.84 12.51,-1.92 23.73,-10.48 31.9,-24.23 8.17,-13.75 13.5,-32.96 14.42,-57.24l-11.15 -0.42zm-0.44 -22.74c0.58,8.1 0.71,15.68 0.44,22.74l11.15 0.42c0.28,-7.49 0.15,-15.48 -0.46,-23.95l-11.12 0.8zm-42.9 -8.84l46.89 13.79 3.15 -10.7 -46.89 -13.79 -3.15 10.7zm37.38 -40.22l-39.23 30.46 6.84 8.81 39.23 -30.46 -6.84 -8.81z"/>
   <path class="fil14" d="M659.16 2635.1c-1,-2.91 -4.18,-4.46 -7.09,-3.46 -2.91,1 -4.46,4.18 -3.45,7.09l10.54 -3.64zm434.4 5.55c2.06,-2.29 1.88,-5.81 -0.4,-7.88 -2.29,-2.06 -5.81,-1.88 -7.88,0.4l8.28 7.47zm-12.19 -25.84c-1.9,-2.43 -5.41,-2.85 -7.83,-0.96 -2.43,1.9 -2.85,5.41 -0.95,7.83l8.79 -6.87zm19.21 42.65c1.9,2.43 5.4,2.85 7.83,0.96 2.43,-1.9 2.85,-5.41 0.96,-7.83l-8.79 6.87zm-451.96 -18.73c1.49,4.33 4.82,7.88 8.78,10.8 4.03,2.97 9.2,5.66 15.2,8.11 12,4.9 28.07,9.17 46.76,12.75 37.45,7.17 86.33,11.76 136.41,12.93 50.08,1.17 101.61,-1.07 144.35,-7.65 21.36,-3.29 40.67,-7.68 56.57,-13.35 15.78,-5.62 28.76,-12.69 36.87,-21.68l-8.28 -7.47c-6.28,6.96 -17.21,13.25 -32.33,18.64 -15,5.35 -33.57,9.6 -54.52,12.83 -41.89,6.45 -92.73,8.68 -142.39,7.52 -49.66,-1.16 -97.9,-5.71 -134.58,-12.73 -18.37,-3.52 -33.62,-7.61 -44.64,-12.12 -5.52,-2.25 -9.78,-4.53 -12.8,-6.76 -3.08,-2.27 -4.41,-4.15 -4.86,-5.46l-10.54 3.64zm423.96 -17.05l28 35.77 8.79 -6.87 -28 -35.77 -8.79 6.87z"/>
   <path class="fil14" d="M672.35 2621.6c1.85,-2.47 1.35,-5.96 -1.12,-7.81 -2.46,-1.85 -5.96,-1.35 -7.81,1.12l8.92 6.69zm-36.92 30.64c-1.85,2.46 -1.35,5.96 1.12,7.81 2.47,1.85 5.96,1.35 7.81,-1.12l-8.92 -6.69zm28 -37.33l-28 37.33 8.92 6.69 28 -37.33 -8.92 -6.69z"/>
   <path class="fil17" d="M1496.16 3135.82c240.03,0 434.61,-194.58 434.61,-434.61 0,-240.03 -194.58,-434.61 -434.61,-434.61 -240.03,0 -434.61,194.58 -434.61,434.61 0,240.03 194.58,434.61 434.61,434.61z"/>
   <path class="fil6" d="M1919.61 2701.21c0,233.87 -189.59,423.46 -423.45,423.46l0 11.16c240.03,0 434.61,-194.58 434.61,-434.61l-11.16 0zm11.16 0c0,-240.03 -194.58,-434.61 -434.61,-434.61l0 11.16c233.87,0 423.45,189.59 423.45,423.46l11.16 0zm-434.61 -434.61c-240.03,0 -434.61,194.58 -434.61,434.61l11.16 0c0,-233.87 189.59,-423.46 423.46,-423.46l0 -11.16zm-434.61 434.61c0,240.03 194.58,434.61 434.61,434.61l0 -11.16c-233.87,0 -423.46,-189.59 -423.46,-423.46l-11.16 0z"/>
   <path class="fil5" d="M1725.58 2586.87c-0.06,4.41 -0.24,8.95 -0.56,13.61 -0.79,11.71 -2.31,22.35 -4.43,31.94 -21.15,95.73 -101.86,86.34 -105.85,-19.25 -0.36,-9.41 -0.1,-19.59 0.86,-30.53 10.59,-120.58 84.8,-124.61 104.96,-43.9l-43.58 33.84 48.6 14.29z"/>
   <path class="fil5" d="M1446.15 2538.53c-28.24,-93.34 -109.45,-59.55 -101.22,62.87 0.79,11.71 2.31,22.35 4.43,31.94 21.15,95.73 101.86,86.34 105.85,-19.25 0.31,-8.13 0.16,-16.83 -0.5,-26.09l-52.41 -15.41 43.85 -34.05z"/>
   <path class="fil5" d="M1725.02 2600.49l-5.56 -0.37 0 0 5.56 0.37zm0.56 -13.61l5.58 0.08 0.06 -4.23 -4.06 -1.19 -1.57 5.35zm-4.99 45.55l-5.45 -1.2 0 0 5.45 1.2zm-105.85 -19.25l5.57 -0.21 0 0 -5.57 0.21zm0.86 -30.53l5.55 0.49 0 0 -5.55 -0.49zm104.96 -43.9l3.42 4.4 2.87 -2.23 -0.88 -3.53 -5.41 1.35zm-43.58 33.84l-3.42 -4.41 -8.61 6.68 10.45 3.07 1.57 -5.35zm-332.04 28.82l-5.56 0.38 0 0 5.56 -0.38zm101.22 -62.87l3.42 4.41 3.03 -2.35 -1.11 -3.67 -5.34 1.62zm-96.79 94.81l-5.45 1.2 0 0 5.45 -1.2zm105.85 -19.25l5.58 0.21 0 0 -5.58 -0.21zm-0.5 -26.09l5.56 -0.4 -0.28 -3.86 -3.71 -1.09 -1.57 5.35zm-52.41 -15.41l-3.42 -4.41 -8.61 6.68 10.45 3.07 1.57 -5.35zm328.28 28.28c0.32,-4.76 0.51,-9.4 0.57,-13.91l-11.16 -0.16c-0.06,4.31 -0.24,8.74 -0.55,13.32l11.13 0.75zm-4.55 32.77c2.19,-9.89 3.74,-20.81 4.55,-32.77l-11.13 -0.75c-0.77,11.45 -2.26,21.82 -4.31,31.11l10.89 2.41zm-116.88 -20.25c1.02,27.05 6.97,48.41 16.03,63.66 9.06,15.25 21.45,24.66 35.19,26.77 13.81,2.12 27.73,-3.34 39.31,-15.27 11.53,-11.88 20.91,-30.29 26.35,-54.91l-10.89 -2.41c-5.14,23.25 -13.78,39.57 -23.46,49.55 -9.63,9.93 -20.1,13.47 -29.61,12.01 -9.58,-1.47 -19.44,-8.22 -27.29,-21.44 -7.86,-13.22 -13.5,-32.63 -14.47,-58.38l-11.15 0.42zm0.88 -31.22c-0.98,11.15 -1.24,21.56 -0.88,31.22l11.15 -0.42c-0.35,-9.16 -0.1,-19.1 0.84,-29.83l-11.11 -0.98zm115.93 -44.77c-5.22,-20.89 -14.07,-36.87 -25.07,-46.91 -11.1,-10.13 -24.5,-14.23 -37.86,-10.66 -13.16,3.52 -25.1,14.17 -34.31,31.07 -9.23,16.94 -16,40.6 -18.69,71.26l11.11 0.98c2.6,-29.63 9.09,-51.69 17.37,-66.9 8.31,-15.25 18.16,-23.16 27.4,-25.64 9.04,-2.42 18.64,0.07 27.45,8.12 8.92,8.14 16.9,21.91 21.77,41.37l10.82 -2.7zm-8.83 -3.05l-43.58 33.84 6.84 8.81 43.58 -33.84 -6.84 -8.81zm-41.74 43.6l48.6 14.29 3.15 -10.7 -48.6 -14.3 -3.15 10.7zm-324.9 23.1c-2.02,-30.01 1.47,-54.27 8.05,-72.31 6.6,-18.12 16.15,-29.55 25.93,-34.73 9.48,-5.02 19.78,-4.54 29.58,2.34 10.07,7.07 19.9,21.16 26.75,43.82l10.68 -3.23c-7.27,-24.01 -18.18,-40.7 -31.02,-49.72 -13.11,-9.21 -27.9,-10.13 -41.22,-3.07 -13.02,6.9 -24,21.04 -31.19,40.77 -7.22,19.8 -10.79,45.68 -8.69,76.88l11.13 -0.75zm4.31 31.11c-2.05,-9.29 -3.54,-19.65 -4.31,-31.11l-11.13 0.75c0.8,11.96 2.36,22.88 4.55,32.76l10.89 -2.41zm94.84 -18.26c-0.97,25.75 -6.61,45.16 -14.47,58.38 -7.86,13.22 -17.71,19.97 -27.29,21.44 -9.5,1.46 -19.98,-2.08 -29.61,-12.01 -9.68,-9.98 -18.33,-26.3 -23.46,-49.55l-10.89 2.41c5.44,24.62 14.82,43.03 26.35,54.91 11.58,11.93 25.5,17.39 39.31,15.27 13.74,-2.11 26.13,-11.52 35.19,-26.77 9.06,-15.24 15.01,-36.6 16.03,-63.66l-11.15 -0.42zm-0.49 -25.48c0.65,9.08 0.79,17.57 0.49,25.48l11.15 0.42c0.32,-8.34 0.16,-17.25 -0.51,-26.7l-11.13 0.8zm-48.42 -10.46l52.41 15.41 3.15 -10.7 -52.41 -15.42 -3.15 10.7zm42 -43.8l-43.84 34.04 6.84 8.81 43.85 -34.04 -6.84 -8.81z"/>
   <path class="fil5" d="M1475.68 2409.54c-4.1,-9.06 -12.86,-17.17 -23.94,-23.88 -11.15,-6.76 -25.02,-12.33 -39.9,-16.13 -29.64,-7.57 -64.06,-8.33 -89.66,3.27 -1.34,0.61 -2.15,2 -2.03,3.47 0.12,1.47 1.16,2.7 2.59,3.07 50.56,13.14 87.11,30.14 109.79,42.79 9.97,5.56 22.55,10.04 31.92,10.32 4.56,0.14 9.41,-0.69 12.34,-4.14 3.11,-3.66 2.89,-8.8 0.72,-14.4 -0.54,-1.39 -1.15,-2.84 -1.84,-4.37z"/>
   <path class="fil5" d="M1749.71 2354.27c-26.59,-9.11 -60.78,-5.09 -89.56,5.27 -14.45,5.2 -27.73,12.06 -38.18,19.85 -10.39,7.74 -18.33,16.65 -21.55,26.05 -0.55,1.59 -1.02,3.1 -1.42,4.53 -1.63,5.78 -1.36,10.92 2.08,14.26 3.25,3.15 8.16,3.51 12.68,2.94 9.3,-1.17 21.4,-6.83 30.8,-13.32 21.38,-14.75 56.14,-35.15 105.22,-53.05 1.38,-0.5 2.3,-1.83 2.29,-3.3 -0.02,-1.47 -0.96,-2.78 -2.35,-3.26z"/>
   <path class="fil14" d="M1779.94 2875.54c2.65,1.57 6.07,0.69 7.64,-1.96 1.57,-2.65 0.7,-6.07 -1.95,-7.64l-5.69 9.6zm-486.94 -9.48c-2.59,1.67 -3.33,5.12 -1.66,7.71 1.67,2.59 5.12,3.33 7.71,1.66l-6.05 -9.37zm492.63 -0.11c-48.03,-28.46 -136.41,-50.73 -229.68,-54.88 -93.28,-4.15 -192.87,9.75 -262.95,55l6.05 9.37c67.26,-43.42 164.11,-57.33 256.41,-53.22 92.31,4.11 178.65,26.17 224.49,53.33l5.69 -9.6z"/>
   <path class="fil14" d="M1782.78 2838.09c-1.69,-2.58 -5.14,-3.3 -7.72,-1.62 -2.58,1.69 -3.3,5.14 -1.62,7.72l9.34 -6.11zm-28.83 40.94c-3.08,-0.1 -5.65,2.32 -5.75,5.4 -0.1,3.08 2.32,5.66 5.4,5.75l0.36 -11.15zm19.49 -34.83c2.24,3.42 4.4,7.65 5.77,11.97 1.39,4.38 1.83,8.43 1.14,11.73 -0.64,3.05 -2.3,5.73 -5.92,7.75 -3.84,2.15 -10.23,3.71 -20.48,3.38l-0.36 11.15c11.31,0.37 19.98,-1.27 26.27,-4.79 6.53,-3.64 10.11,-9.09 11.39,-15.2 1.23,-5.86 0.29,-11.99 -1.42,-17.39 -1.73,-5.46 -4.38,-10.6 -7.06,-14.71l-9.34 6.11z"/>
   <path class="fil14" d="M1326.75 2886.51c3.07,-0.27 5.34,-2.98 5.06,-6.05 -0.27,-3.07 -2.98,-5.34 -6.05,-5.06l0.99 11.11zm-22.53 -44.71c1.54,-2.67 0.62,-6.08 -2.05,-7.62 -2.67,-1.54 -6.08,-0.62 -7.62,2.05l9.67 5.57zm21.54 33.6c-4.07,0.36 -8.82,0.27 -13.28,-0.56 -4.52,-0.84 -8.3,-2.36 -10.88,-4.52 -2.39,-2.01 -3.97,-4.73 -4.05,-8.87 -0.08,-4.4 1.55,-10.77 6.67,-19.66l-9.67 -5.57c-5.65,9.8 -8.29,18.22 -8.15,25.43 0.14,7.48 3.26,13.2 8.04,17.21 4.59,3.85 10.44,5.91 16.01,6.94 5.63,1.05 11.41,1.13 16.31,0.7l-0.99 -11.11z"/>
   <path class="fil5" d="M635.55 2636.51c-20.02,-25.69 -136.7,-41.13 -192.84,60.32l-31.82 89.84c-81.83,185.38 187.24,241.02 246.14,250.56 98.5,15.96 288.1,-189.98 -59.44,-304.97 66.85,-28.9 57.98,-70.06 37.96,-95.75z"/>
   <path class="fil18" d="M568.76 2710.88c-2.97,-0.8 -6.03,0.96 -6.84,3.93 -0.8,2.97 0.96,6.04 3.93,6.84l2.9 -10.77zm69.29 19.28c-9.97,-1.36 -15.12,-2.87 -23.85,-5.7 -8.9,-2.88 -21.29,-7.07 -45.44,-13.59l-2.9 10.77c23.85,6.44 36.02,10.54 44.9,13.42 9.06,2.94 14.9,4.66 25.79,6.14l1.5 -11.05z"/>
   <path class="fil5" d="M2398.67 2453.51c20.02,-25.69 136.7,-41.13 192.84,60.32l31.82 89.84c81.83,185.38 -187.24,241.02 -246.14,250.56 -98.49,15.96 -288.1,-189.98 59.44,-304.96 -66.86,-28.9 -57.99,-70.06 -37.97,-95.76z"/>
   <path class="fil2" d="M2465.46 2527.89c2.98,-0.8 6.04,0.96 6.84,3.93 0.8,2.97 -0.96,6.04 -3.93,6.84l-2.91 -10.77zm-69.29 19.28c9.97,-1.36 15.12,-2.87 23.85,-5.7 8.9,-2.88 21.3,-7.07 45.44,-13.59l2.91 10.77c-23.85,6.44 -36.02,10.54 -44.9,13.43 -9.06,2.94 -14.9,4.66 -25.79,6.14l-1.5 -11.05z"/>
  </g>
 </g>
</svg>
