<svg width="112" height="53" viewBox="0 0 112 53" fill="none" xmlns="http://www.w3.org/2000/svg">
<path d="M106.032 20.5003C106.032 17.7905 103.835 15.5938 101.125 15.5938H21.7877C19.0779 15.5938 16.8812 17.7905 16.8812 20.5003V43.1684C16.8812 45.8782 19.0779 48.0749 21.7877 48.0749H21.8395H21.8922H21.9455H21.9996H22.0543H22.1098H22.1661H22.223H22.2807H22.339H22.3981H22.4579H22.5184H22.5796H22.6414H22.704H22.7673H22.8312H22.8959H22.9612H23.0272H23.0939H23.1613H23.2294H23.2981H23.3675H23.4375H23.5082H23.5796H23.6517H23.7244H23.7977H23.8717H23.9464H24.0217H24.0976H24.1742H24.2515H24.3293H24.4078H24.487H24.5667H24.6471H24.7281H24.8098H24.892H24.9749H25.0584H25.1425H25.2272H25.3125H25.3984H25.4849H25.572H25.6597H25.748H25.8369H25.9264H26.0165H26.1071H26.1983H26.2902H26.3825H26.4755H26.569H26.6631H26.7578H26.853H26.9488H27.0451H27.142H27.2395H27.3375H27.4361H27.5351H27.6348H27.735H27.8357H27.9369H28.0387H28.141H28.2439H28.3472H28.4511H28.5555H28.6604H28.7659H28.8718H28.9783H29.0853H29.1927H29.3007H29.4092H29.5181H29.6276H29.7375H29.848H29.9589H30.0703H30.1822H30.2946H30.4075H30.5208H30.6346H30.7488H30.8636H30.9788H31.0944H31.2105H31.3271H31.4441H31.5616H31.6795H31.7979H31.9167H32.0359H32.1556H32.2758H32.3963H32.5173H32.6387H32.7606H32.8828H33.0055H33.1286H33.2522H33.3761H33.5004H33.6252H33.7503H33.8759H34.0018H34.1282H34.2549H34.3821H34.5096H34.6375H34.7658H34.8945H35.0236H35.153H35.2828H35.413H35.5436H35.6745H35.8058H35.9375H36.0695H36.2018H36.3346H36.4676H36.6011H36.7348H36.8689H37.0034H37.1382H37.2733H37.4088H37.5446H37.6807H37.8171H37.9539H38.091H38.2284H38.3661H38.5042H38.6425H38.7812H38.9201H39.0594H39.199H39.3389H39.479H39.6195H39.7602H39.9012H40.0426H40.1842H40.326H40.4682H40.6106H40.7534H40.8963H41.0396H41.1831H41.3269H41.4709H41.6152H41.7597H41.9045H42.0496H42.1949H42.3404H42.4862H42.6322H42.7785H42.925H43.0717H43.2186H43.3658H43.5132H43.6608H43.8087H43.9568H44.105H44.2535H44.4022H44.5511H44.7002H44.8495H44.999H45.1487H45.2986H45.4487H45.599H45.7495H45.9001H46.0509H46.2019H46.3531H46.5045H46.656H46.8077H46.9596H47.1116H47.2638H47.4161H47.5686H47.7212H47.874H48.027H48.1801H48.3333H48.4867H48.6402H48.7939H48.9476H49.1015H49.2556H49.4098H49.564H49.7184H49.873H50.0276H50.1824H50.3372H50.4922H50.6473H50.8024H50.9577H51.1131H51.2685H51.4241H51.5797H51.7355H51.8913H52.0472H52.2032H52.3592H52.5153H52.6715H52.8278H52.9841H53.1405H53.297H53.4535H53.6101H53.7667H53.9234H54.0801H54.2369H54.3937H54.5506H54.7075H54.8644H55.0214H55.1784H55.3354H55.4924H55.6495H55.8066H55.9637H56.1208H56.278H56.4351H56.5923H56.7494H56.9066H57.0638H57.2209H57.3781H57.5352H57.6924H57.8495H58.0066H58.1637H58.3208H58.4779H58.6349H58.7919H58.9488H59.1058H59.2627H59.4195H59.5764H59.7331H59.8899H60.0466H60.2032H60.3598H60.5163H60.6728H60.8292H60.9855H61.1418H61.298H61.4541H61.6102H61.7662H61.9221H62.0779H62.2337H62.3893H62.5449H62.7004H62.8557H63.011H63.1662H63.3213H63.4763H63.6311H63.7859H63.9406H64.0951H64.2495H64.4038H64.558H64.712H64.866H65.0198H65.1734H65.327H65.4804H65.6336H65.7867H65.9397H66.0925H66.2452H66.3977H66.55H66.7022H66.8543H67.0062H67.1579H67.3094H67.4608H67.612H67.763H67.9139H68.0645H68.215H68.3653H68.5154H68.6654H68.8151H68.9646H69.1139H69.2631H69.412H69.5607H69.7092H69.8575H70.0056H70.1535H70.3011H70.4486H70.5958H70.7428H70.8895H71.036H71.1823H71.3284H71.4742H71.6197H71.7651H71.9101H72.055H72.1996H72.3439H72.4879H72.6317H72.7753H72.9186H73.0616H73.2043H73.3468H73.489H73.6309H73.7725H73.9139H74.0549H74.1957H74.3362H74.4764H74.6163H74.7559H74.8952H75.0342H75.1729H75.3113H75.4494H75.5872H75.7246H75.8617H75.9985H76.135H76.2712H76.407H76.5425H76.6777H76.8125H76.947H77.0812H77.215H77.3484H77.4816H77.6143H77.7467H77.8788H78.0105H78.1418H78.2728H78.4034H78.5336H78.6635H78.793H78.9221H79.0508H79.1791H79.3071H79.4347H79.5619H79.6887H79.8151H79.9411H80.0667H80.1919H80.3167H80.4411H80.5651H80.6886H80.8118H80.9345H81.0568H81.1787H81.3002H81.4212H81.5418H81.662H81.7818H81.9011H82.0199H82.1383H82.2563H82.3738H82.4909H82.6075H82.7237H82.8394H82.9547H83.0695H83.1838H83.2976H83.411H83.5239H83.6364H83.7483H83.8598H83.9708H84.0813H84.1913H84.3008H84.4098H84.5184H84.6264H84.7339H84.8409H84.9475H85.0535H85.159H85.264H85.3684H85.4724H85.5758H85.6787H85.7811H85.8829H85.9842H86.085H86.1853H86.285H86.3841H86.4827H86.5808H86.6783H86.7753H86.8717H86.9675H87.0628H87.1576H87.2517H87.3453C90.4426 48.0749 93.3926 49.1453 96.0292 50.7405C96.9389 51.2909 97.9018 51.8211 98.7965 52.2132C99.6954 52.6072 100.509 52.8544 101.125 52.8544C103.835 52.8544 106.032 50.6576 106.032 47.9479V20.5003ZM100.716 18.7156C101.927 18.7156 102.91 19.698 102.91 20.91V47.4016C102.91 48.6135 101.927 49.596 100.716 49.596C100.617 49.596 100.493 49.57 100.357 49.5298C100.218 49.4887 100.055 49.4294 99.8733 49.3558C99.5098 49.2084 99.0634 49 98.571 48.7546C97.5856 48.2636 96.4071 47.6202 95.3213 47.0093C93.1342 45.7787 90.68 45.0897 88.1741 45.0897H22.1973C20.9854 45.0897 20.003 44.1072 20.003 42.8953V20.91C20.003 19.698 20.9854 18.7156 22.1973 18.7156H100.716Z" fill="#30D89B" stroke="#151515" stroke-width="0.292074"/>
<mask id="path-2-inside-1_1111_19" fill="white">
<path fill-rule="evenodd" clip-rule="evenodd" d="M6.3033 0C2.82209 0 0 2.82208 0 6.3033V40.5456C0 44.0268 2.82208 46.8489 6.3033 46.8489C7.91997 46.8489 10.4783 45.563 12.7551 44.1855C16.0249 42.2072 19.6728 40.8863 23.4944 40.8863C43.3621 40.8863 94.3133 40.8863 105.281 40.8863C108.762 40.8863 111.584 38.0642 111.584 34.583V6.3033C111.584 2.82209 108.762 0 105.281 0H6.3033ZM6.81438 4.25899C5.40308 4.25899 4.25899 5.40308 4.25899 6.81438V39.8641C4.25899 41.2754 5.40308 42.4195 6.81438 42.4195C7.58596 42.4195 10.7472 40.7392 13.4547 39.2158C16.2084 37.6664 19.3007 36.7977 22.4604 36.7977H104.77C106.181 36.7977 107.325 35.6536 107.325 34.2423V6.81438C107.325 5.40308 106.181 4.25899 104.77 4.25899H6.81438Z"/>
<path d="M4.25899 6.81438C4.25899 5.40308 5.40308 4.25899 6.81438 4.25899H104.77C106.181 4.25899 107.325 5.40308 107.325 6.81438V34.2423C107.325 35.6536 106.181 36.7977 104.77 36.7977H22.4604C19.3007 36.7977 16.2084 37.6664 13.4547 39.2158C10.7472 40.7392 7.58596 42.4195 6.81438 42.4195C5.40308 42.4195 4.25899 41.2754 4.25899 39.8641V6.81438Z"/>
</mask>
<path fill-rule="evenodd" clip-rule="evenodd" d="M6.3033 0C2.82209 0 0 2.82208 0 6.3033V40.5456C0 44.0268 2.82208 46.8489 6.3033 46.8489C7.91997 46.8489 10.4783 45.563 12.7551 44.1855C16.0249 42.2072 19.6728 40.8863 23.4944 40.8863C43.3621 40.8863 94.3133 40.8863 105.281 40.8863C108.762 40.8863 111.584 38.0642 111.584 34.583V6.3033C111.584 2.82209 108.762 0 105.281 0H6.3033ZM6.81438 4.25899C5.40308 4.25899 4.25899 5.40308 4.25899 6.81438V39.8641C4.25899 41.2754 5.40308 42.4195 6.81438 42.4195C7.58596 42.4195 10.7472 40.7392 13.4547 39.2158C16.2084 37.6664 19.3007 36.7977 22.4604 36.7977H104.77C106.181 36.7977 107.325 35.6536 107.325 34.2423V6.81438C107.325 5.40308 106.181 4.25899 104.77 4.25899H6.81438Z" fill="#485DF2"/>
<path d="M4.25899 6.81438C4.25899 5.40308 5.40308 4.25899 6.81438 4.25899H104.77C106.181 4.25899 107.325 5.40308 107.325 6.81438V34.2423C107.325 35.6536 106.181 36.7977 104.77 36.7977H22.4604C19.3007 36.7977 16.2084 37.6664 13.4547 39.2158C10.7472 40.7392 7.58596 42.4195 6.81438 42.4195C5.40308 42.4195 4.25899 41.2754 4.25899 39.8641V6.81438Z" fill="white"/>
<path d="M4.44118 6.81438C4.44118 5.5037 5.5037 4.44118 6.81438 4.44118V4.0768C5.30246 4.0768 4.0768 5.30246 4.0768 6.81438H4.44118ZM4.44118 39.8641V6.81438H4.0768V39.8641H4.44118ZM6.81438 42.2373C5.5037 42.2373 4.44118 41.1748 4.44118 39.8641H4.0768C4.0768 41.3761 5.30246 42.6017 6.81438 42.6017V42.2373ZM107.143 34.2423C107.143 35.553 106.081 36.6155 104.77 36.6155V36.9799C106.282 36.9799 107.508 35.7542 107.508 34.2423H107.143ZM107.143 6.81438V34.2423H107.508V6.81438H107.143ZM104.77 4.44118C106.081 4.44118 107.143 5.5037 107.143 6.81438H107.508C107.508 5.30246 106.282 4.0768 104.77 4.0768V4.44118ZM6.81438 4.44118H104.77V4.0768H6.81438V4.44118ZM104.77 36.6155H22.4604V36.9799H104.77V36.6155ZM13.3653 39.0571C12.0125 39.8182 10.5484 40.6174 9.32732 41.2259C8.7165 41.5302 8.16915 41.7855 7.72824 41.9643C7.5077 42.0538 7.31635 42.123 7.15856 42.1696C6.99733 42.2173 6.88393 42.2373 6.81438 42.2373V42.6017C6.93773 42.6017 7.0919 42.5693 7.26181 42.5191C7.43517 42.4679 7.63853 42.3939 7.86517 42.302C8.31861 42.1181 8.87546 41.8581 9.48983 41.552C10.7191 40.9395 12.1894 40.1368 13.544 39.3746L13.3653 39.0571ZM22.4604 36.6155C19.2672 36.6155 16.1443 37.4934 13.3653 39.0571L13.544 39.3746C16.2725 37.8394 19.3342 36.9799 22.4604 36.9799V36.6155ZM0.364377 6.3033C0.364377 3.02332 3.02333 0.364377 6.3033 0.364377V-0.364377C2.62085 -0.364377 -0.364377 2.62084 -0.364377 6.3033H0.364377ZM0.364377 40.5456V6.3033H-0.364377V40.5456H0.364377ZM6.3033 46.4845C3.02332 46.4845 0.364377 43.8256 0.364377 40.5456H-0.364377C-0.364377 44.228 2.62084 47.2133 6.3033 47.2133V46.4845ZM111.22 34.583C111.22 37.863 108.561 40.5219 105.281 40.5219V41.2507C108.963 41.2507 111.949 38.2654 111.949 34.583H111.22ZM111.22 6.3033V34.583H111.949V6.3033H111.22ZM105.281 0.364377C108.561 0.364377 111.22 3.02333 111.22 6.3033H111.949C111.949 2.62085 108.963 -0.364377 105.281 -0.364377V0.364377ZM6.3033 0.364377H105.281V-0.364377H6.3033V0.364377ZM105.281 40.5219C105.26 40.5219 105.238 40.5219 105.216 40.5219C105.195 40.5219 105.173 40.5219 105.151 40.5219C105.129 40.5219 105.106 40.5219 105.084 40.5219C105.062 40.5219 105.039 40.5219 105.017 40.5219C104.994 40.5219 104.971 40.5219 104.948 40.5219C104.925 40.5219 104.902 40.5219 104.879 40.5219C104.856 40.5219 104.832 40.5219 104.809 40.5219C104.785 40.5219 104.762 40.5219 104.738 40.5219C104.714 40.5219 104.69 40.5219 104.666 40.5219C104.642 40.5219 104.618 40.5219 104.593 40.5219C104.569 40.5219 104.544 40.5219 104.519 40.5219C104.495 40.5219 104.47 40.5219 104.445 40.5219C104.42 40.5219 104.395 40.5219 104.369 40.5219C104.344 40.5219 104.319 40.5219 104.293 40.5219C104.268 40.5219 104.242 40.5219 104.216 40.5219C104.19 40.5219 104.164 40.5219 104.138 40.5219C104.112 40.5219 104.085 40.5219 104.059 40.5219C104.032 40.5219 104.006 40.5219 103.979 40.5219C103.952 40.5219 103.925 40.5219 103.898 40.5219C103.871 40.5219 103.844 40.5219 103.817 40.5219C103.79 40.5219 103.762 40.5219 103.735 40.5219C103.707 40.5219 103.679 40.5219 103.651 40.5219C103.624 40.5219 103.596 40.5219 103.567 40.5219C103.539 40.5219 103.511 40.5219 103.482 40.5219C103.454 40.5219 103.425 40.5219 103.397 40.5219C103.368 40.5219 103.339 40.5219 103.31 40.5219C103.281 40.5219 103.252 40.5219 103.223 40.5219C103.193 40.5219 103.164 40.5219 103.135 40.5219C103.105 40.5219 103.075 40.5219 103.045 40.5219C103.016 40.5219 102.986 40.5219 102.956 40.5219C102.925 40.5219 102.895 40.5219 102.865 40.5219C102.835 40.5219 102.804 40.5219 102.773 40.5219C102.743 40.5219 102.712 40.5219 102.681 40.5219C102.65 40.5219 102.619 40.5219 102.588 40.5219C102.557 40.5219 102.525 40.5219 102.494 40.5219C102.463 40.5219 102.431 40.5219 102.399 40.5219C102.368 40.5219 102.336 40.5219 102.304 40.5219C102.272 40.5219 102.24 40.5219 102.207 40.5219C102.175 40.5219 102.143 40.5219 102.11 40.5219C102.078 40.5219 102.045 40.5219 102.012 40.5219C101.979 40.5219 101.947 40.5219 101.914 40.5219C101.88 40.5219 101.847 40.5219 101.814 40.5219C101.781 40.5219 101.747 40.5219 101.714 40.5219C101.68 40.5219 101.646 40.5219 101.613 40.5219C101.579 40.5219 101.545 40.5219 101.511 40.5219C101.477 40.5219 101.443 40.5219 101.408 40.5219C101.374 40.5219 101.339 40.5219 101.305 40.5219C101.27 40.5219 101.236 40.5219 101.201 40.5219C101.166 40.5219 101.131 40.5219 101.096 40.5219C101.061 40.5219 101.025 40.5219 100.99 40.5219C100.955 40.5219 100.919 40.5219 100.884 40.5219C100.848 40.5219 100.812 40.5219 100.776 40.5219C100.741 40.5219 100.705 40.5219 100.669 40.5219C100.632 40.5219 100.596 40.5219 100.56 40.5219C100.524 40.5219 100.487 40.5219 100.45 40.5219C100.414 40.5219 100.377 40.5219 100.34 40.5219C100.303 40.5219 100.266 40.5219 100.229 40.5219C100.192 40.5219 100.155 40.5219 100.118 40.5219C100.08 40.5219 100.043 40.5219 100.005 40.5219C99.9678 40.5219 99.9301 40.5219 99.8923 40.5219C99.8545 40.5219 99.8165 40.5219 99.7785 40.5219C99.7404 40.5219 99.7022 40.5219 99.6639 40.5219C99.6256 40.5219 99.5872 40.5219 99.5487 40.5219C99.5102 40.5219 99.4715 40.5219 99.4327 40.5219C99.3939 40.5219 99.355 40.5219 99.316 40.5219C99.277 40.5219 99.2379 40.5219 99.1986 40.5219C99.1594 40.5219 99.12 40.5219 99.0806 40.5219C99.0411 40.5219 99.0015 40.5219 98.9617 40.5219C98.922 40.5219 98.8822 40.5219 98.8423 40.5219C98.8023 40.5219 98.7622 40.5219 98.7221 40.5219C98.6819 40.5219 98.6416 40.5219 98.6012 40.5219C98.5608 40.5219 98.5202 40.5219 98.4796 40.5219C98.439 40.5219 98.3982 40.5219 98.3573 40.5219C98.3165 40.5219 98.2755 40.5219 98.2344 40.5219C98.1933 40.5219 98.1521 40.5219 98.1108 40.5219C98.0694 40.5219 98.028 40.5219 97.9865 40.5219C97.9449 40.5219 97.9033 40.5219 97.8615 40.5219C97.8197 40.5219 97.7778 40.5219 97.7358 40.5219C97.6938 40.5219 97.6517 40.5219 97.6095 40.5219C97.5673 40.5219 97.525 40.5219 97.4825 40.5219C97.4401 40.5219 97.3976 40.5219 97.3549 40.5219C97.3122 40.5219 97.2695 40.5219 97.2266 40.5219C97.1837 40.5219 97.1407 40.5219 97.0976 40.5219C97.0546 40.5219 97.0114 40.5219 96.968 40.5219C96.9247 40.5219 96.8813 40.5219 96.8378 40.5219C96.7943 40.5219 96.7506 40.5219 96.7069 40.5219C96.6632 40.5219 96.6193 40.5219 96.5754 40.5219C96.5314 40.5219 96.4873 40.5219 96.4432 40.5219C96.399 40.5219 96.3547 40.5219 96.3104 40.5219C96.266 40.5219 96.2215 40.5219 96.1769 40.5219C96.1323 40.5219 96.0876 40.5219 96.0428 40.5219C95.9981 40.5219 95.9531 40.5219 95.9081 40.5219C95.8631 40.5219 95.818 40.5219 95.7728 40.5219C95.7276 40.5219 95.6823 40.5219 95.6369 40.5219C95.5915 40.5219 95.5459 40.5219 95.5003 40.5219C95.4547 40.5219 95.409 40.5219 95.3631 40.5219C95.3173 40.5219 95.2714 40.5219 95.2254 40.5219C95.1793 40.5219 95.1332 40.5219 95.087 40.5219C95.0407 40.5219 94.9944 40.5219 94.948 40.5219C94.9015 40.5219 94.855 40.5219 94.8084 40.5219C94.7617 40.5219 94.715 40.5219 94.6682 40.5219C94.6214 40.5219 94.5744 40.5219 94.5274 40.5219C94.4804 40.5219 94.4333 40.5219 94.386 40.5219C94.3388 40.5219 94.2915 40.5219 94.2441 40.5219C94.1966 40.5219 94.1491 40.5219 94.1015 40.5219C94.0539 40.5219 94.0062 40.5219 93.9584 40.5219C93.9106 40.5219 93.8627 40.5219 93.8147 40.5219C93.7667 40.5219 93.7186 40.5219 93.6704 40.5219C93.6222 40.5219 93.5739 40.5219 93.5255 40.5219C93.4771 40.5219 93.4287 40.5219 93.3801 40.5219C93.3315 40.5219 93.2829 40.5219 93.2341 40.5219C93.1853 40.5219 93.1365 40.5219 93.0875 40.5219C93.0386 40.5219 92.9896 40.5219 92.9404 40.5219C92.8913 40.5219 92.8421 40.5219 92.7928 40.5219C92.7434 40.5219 92.694 40.5219 92.6445 40.5219C92.595 40.5219 92.5454 40.5219 92.4958 40.5219C92.4461 40.5219 92.3963 40.5219 92.3465 40.5219C92.2966 40.5219 92.2466 40.5219 92.1966 40.5219C92.1465 40.5219 92.0964 40.5219 92.0462 40.5219C91.996 40.5219 91.9456 40.5219 91.8952 40.5219C91.8448 40.5219 91.7943 40.5219 91.7438 40.5219C91.6932 40.5219 91.6425 40.5219 91.5918 40.5219C91.541 40.5219 91.4902 40.5219 91.4392 40.5219C91.3883 40.5219 91.3373 40.5219 91.2862 40.5219C91.2351 40.5219 91.1839 40.5219 91.1326 40.5219C91.0813 40.5219 91.0299 40.5219 90.9785 40.5219C90.927 40.5219 90.8755 40.5219 90.8239 40.5219C90.7723 40.5219 90.7206 40.5219 90.6688 40.5219C90.617 40.5219 90.5651 40.5219 90.5131 40.5219C90.4612 40.5219 90.4091 40.5219 90.357 40.5219C90.3049 40.5219 90.2527 40.5219 90.2004 40.5219C90.1481 40.5219 90.0957 40.5219 90.0432 40.5219C89.9908 40.5219 89.9382 40.5219 89.8856 40.5219C89.833 40.5219 89.7803 40.5219 89.7275 40.5219C89.6747 40.5219 89.6218 40.5219 89.5688 40.5219C89.5159 40.5219 89.4629 40.5219 89.4097 40.5219C89.3566 40.5219 89.3034 40.5219 89.2502 40.5219C89.1969 40.5219 89.1435 40.5219 89.0901 40.5219C89.0367 40.5219 88.9831 40.5219 88.9296 40.5219C88.876 40.5219 88.8223 40.5219 88.7685 40.5219C88.7148 40.5219 88.661 40.5219 88.607 40.5219C88.5531 40.5219 88.4992 40.5219 88.4451 40.5219C88.391 40.5219 88.3369 40.5219 88.2827 40.5219C88.2285 40.5219 88.1742 40.5219 88.1198 40.5219C88.0654 40.5219 88.011 40.5219 87.9565 40.5219C87.9019 40.5219 87.8474 40.5219 87.7927 40.5219C87.738 40.5219 87.6833 40.5219 87.6284 40.5219C87.5736 40.5219 87.5187 40.5219 87.4637 40.5219C87.4088 40.5219 87.3537 40.5219 87.2986 40.5219C87.2435 40.5219 87.1883 40.5219 87.133 40.5219C87.0778 40.5219 87.0224 40.5219 86.967 40.5219C86.9116 40.5219 86.8561 40.5219 86.8006 40.5219C86.745 40.5219 86.6894 40.5219 86.6337 40.5219C86.578 40.5219 86.5222 40.5219 86.4664 40.5219C86.4105 40.5219 86.3546 40.5219 86.2986 40.5219C86.2427 40.5219 86.1866 40.5219 86.1305 40.5219C86.0744 40.5219 86.0182 40.5219 85.9619 40.5219C85.9056 40.5219 85.8493 40.5219 85.7929 40.5219C85.7365 40.5219 85.68 40.5219 85.6235 40.5219C85.567 40.5219 85.5104 40.5219 85.4537 40.5219C85.397 40.5219 85.3403 40.5219 85.2834 40.5219C85.2266 40.5219 85.1698 40.5219 85.1128 40.5219C85.0559 40.5219 84.9989 40.5219 84.9418 40.5219C84.8847 40.5219 84.8276 40.5219 84.7704 40.5219C84.7132 40.5219 84.6559 40.5219 84.5985 40.5219C84.5412 40.5219 84.4838 40.5219 84.4263 40.5219C84.3689 40.5219 84.3113 40.5219 84.2537 40.5219C84.1961 40.5219 84.1385 40.5219 84.0807 40.5219C84.023 40.5219 83.9652 40.5219 83.9074 40.5219C83.8495 40.5219 83.7916 40.5219 83.7336 40.5219C83.6757 40.5219 83.6176 40.5219 83.5595 40.5219C83.5014 40.5219 83.4432 40.5219 83.385 40.5219C83.3268 40.5219 83.2685 40.5219 83.2102 40.5219C83.1518 40.5219 83.0934 40.5219 83.0349 40.5219C82.9765 40.5219 82.9179 40.5219 82.8593 40.5219C82.8008 40.5219 82.7421 40.5219 82.6834 40.5219C82.6247 40.5219 82.5659 40.5219 82.5071 40.5219C82.4483 40.5219 82.3894 40.5219 82.3304 40.5219C82.2715 40.5219 82.2125 40.5219 82.1534 40.5219C82.0944 40.5219 82.0353 40.5219 81.9761 40.5219C81.9169 40.5219 81.8577 40.5219 81.7984 40.5219C81.7391 40.5219 81.6798 40.5219 81.6204 40.5219C81.561 40.5219 81.5015 40.5219 81.442 40.5219C81.3825 40.5219 81.3229 40.5219 81.2633 40.5219C81.2037 40.5219 81.144 40.5219 81.0842 40.5219C81.0245 40.5219 80.9647 40.5219 80.9049 40.5219C80.845 40.5219 80.7851 40.5219 80.7252 40.5219C80.6652 40.5219 80.6052 40.5219 80.5452 40.5219C80.4851 40.5219 80.425 40.5219 80.3648 40.5219C80.3047 40.5219 80.2445 40.5219 80.1842 40.5219C80.1239 40.5219 80.0636 40.5219 80.0033 40.5219C79.9429 40.5219 79.8825 40.5219 79.822 40.5219C79.7615 40.5219 79.701 40.5219 79.6404 40.5219C79.5798 40.5219 79.5192 40.5219 79.4585 40.5219C79.3979 40.5219 79.3372 40.5219 79.2764 40.5219C79.2156 40.5219 79.1548 40.5219 79.0939 40.5219C79.0331 40.5219 78.9721 40.5219 78.9112 40.5219C78.8502 40.5219 78.7892 40.5219 78.7281 40.5219C78.6671 40.5219 78.6059 40.5219 78.5448 40.5219C78.4836 40.5219 78.4224 40.5219 78.3612 40.5219C78.2999 40.5219 78.2386 40.5219 78.1773 40.5219C78.1159 40.5219 78.0545 40.5219 77.9931 40.5219C77.9317 40.5219 77.8702 40.5219 77.8087 40.5219C77.7471 40.5219 77.6856 40.5219 77.6239 40.5219C77.5623 40.5219 77.5007 40.5219 77.439 40.5219C77.3773 40.5219 77.3155 40.5219 77.2537 40.5219C77.1919 40.5219 77.1301 40.5219 77.0682 40.5219C77.0063 40.5219 76.9444 40.5219 76.8824 40.5219C76.8205 40.5219 76.7585 40.5219 76.6964 40.5219C76.6344 40.5219 76.5723 40.5219 76.5102 40.5219C76.448 40.5219 76.3859 40.5219 76.3236 40.5219C76.2614 40.5219 76.1992 40.5219 76.1369 40.5219C76.0746 40.5219 76.0123 40.5219 75.9499 40.5219C75.8875 40.5219 75.8251 40.5219 75.7626 40.5219C75.7002 40.5219 75.6377 40.5219 75.5752 40.5219C75.5126 40.5219 75.4501 40.5219 75.3874 40.5219C75.3248 40.5219 75.2622 40.5219 75.1995 40.5219C75.1368 40.5219 75.0741 40.5219 75.0113 40.5219C74.9486 40.5219 74.8858 40.5219 74.823 40.5219C74.7601 40.5219 74.6973 40.5219 74.6344 40.5219C74.5714 40.5219 74.5085 40.5219 74.4455 40.5219C74.3826 40.5219 74.3195 40.5219 74.2565 40.5219C74.1934 40.5219 74.1304 40.5219 74.0672 40.5219C74.0041 40.5219 73.941 40.5219 73.8778 40.5219C73.8146 40.5219 73.7514 40.5219 73.6881 40.5219C73.6249 40.5219 73.5616 40.5219 73.4983 40.5219C73.435 40.5219 73.3716 40.5219 73.3082 40.5219C73.2449 40.5219 73.1814 40.5219 73.118 40.5219C73.0545 40.5219 72.9911 40.5219 72.9275 40.5219C72.864 40.5219 72.8005 40.5219 72.7369 40.5219C72.6733 40.5219 72.6097 40.5219 72.5461 40.5219C72.4825 40.5219 72.4188 40.5219 72.3551 40.5219C72.2914 40.5219 72.2277 40.5219 72.1639 40.5219C72.1002 40.5219 72.0364 40.5219 71.9726 40.5219C71.9088 40.5219 71.845 40.5219 71.7811 40.5219C71.7172 40.5219 71.6533 40.5219 71.5894 40.5219C71.5255 40.5219 71.4615 40.5219 71.3976 40.5219C71.3336 40.5219 71.2696 40.5219 71.2055 40.5219C71.1415 40.5219 71.0775 40.5219 71.0134 40.5219C70.9493 40.5219 70.8852 40.5219 70.821 40.5219C70.7569 40.5219 70.6927 40.5219 70.6286 40.5219C70.5644 40.5219 70.5002 40.5219 70.4359 40.5219C70.3717 40.5219 70.3074 40.5219 70.2432 40.5219C70.1789 40.5219 70.1146 40.5219 70.0502 40.5219C69.9859 40.5219 69.9216 40.5219 69.8572 40.5219C69.7928 40.5219 69.7284 40.5219 69.664 40.5219C69.5996 40.5219 69.5351 40.5219 69.4707 40.5219C69.4062 40.5219 69.3417 40.5219 69.2772 40.5219C69.2127 40.5219 69.1482 40.5219 69.0836 40.5219C69.0191 40.5219 68.9545 40.5219 68.8899 40.5219C68.8253 40.5219 68.7607 40.5219 68.6961 40.5219C68.6314 40.5219 68.5668 40.5219 68.5021 40.5219C68.4374 40.5219 68.3728 40.5219 68.3081 40.5219C68.2433 40.5219 68.1786 40.5219 68.1139 40.5219C68.0491 40.5219 67.9844 40.5219 67.9196 40.5219C67.8548 40.5219 67.79 40.5219 67.7252 40.5219C67.6604 40.5219 67.5956 40.5219 67.5307 40.5219C67.4659 40.5219 67.401 40.5219 67.3361 40.5219C67.2712 40.5219 67.2064 40.5219 67.1414 40.5219C67.0765 40.5219 67.0116 40.5219 66.9467 40.5219C66.8817 40.5219 66.8168 40.5219 66.7518 40.5219C66.6868 40.5219 66.6218 40.5219 66.5568 40.5219C66.4919 40.5219 66.4268 40.5219 66.3618 40.5219C66.2968 40.5219 66.2318 40.5219 66.1667 40.5219C66.1016 40.5219 66.0366 40.5219 65.9715 40.5219C65.9064 40.5219 65.8413 40.5219 65.7762 40.5219C65.7111 40.5219 65.646 40.5219 65.5809 40.5219C65.5158 40.5219 65.4507 40.5219 65.3855 40.5219C65.3204 40.5219 65.2552 40.5219 65.19 40.5219C65.1249 40.5219 65.0597 40.5219 64.9945 40.5219C64.9293 40.5219 64.8641 40.5219 64.7989 40.5219C64.7337 40.5219 64.6685 40.5219 64.6033 40.5219C64.5381 40.5219 64.4728 40.5219 64.4076 40.5219C64.3424 40.5219 64.2771 40.5219 64.2119 40.5219C64.1466 40.5219 64.0814 40.5219 64.0161 40.5219C63.9508 40.5219 63.8855 40.5219 63.8203 40.5219C63.755 40.5219 63.6897 40.5219 63.6244 40.5219C63.5591 40.5219 63.4938 40.5219 63.4285 40.5219C63.3632 40.5219 63.2979 40.5219 63.2326 40.5219C63.1673 40.5219 63.102 40.5219 63.0366 40.5219C62.9713 40.5219 62.906 40.5219 62.8406 40.5219C62.7753 40.5219 62.71 40.5219 62.6446 40.5219C62.5793 40.5219 62.514 40.5219 62.4486 40.5219C62.3833 40.5219 62.3179 40.5219 62.2526 40.5219C62.1872 40.5219 62.1219 40.5219 62.0565 40.5219C61.9912 40.5219 61.9258 40.5219 61.8605 40.5219C61.7951 40.5219 61.7298 40.5219 61.6644 40.5219C61.599 40.5219 61.5337 40.5219 61.4683 40.5219C61.403 40.5219 61.3376 40.5219 61.2722 40.5219C61.2069 40.5219 61.1415 40.5219 61.0762 40.5219C61.0108 40.5219 60.9455 40.5219 60.8801 40.5219C60.8148 40.5219 60.7494 40.5219 60.6841 40.5219C60.6187 40.5219 60.5534 40.5219 60.488 40.5219C60.4227 40.5219 60.3573 40.5219 60.292 40.5219C60.2267 40.5219 60.1613 40.5219 60.096 40.5219C60.0307 40.5219 59.9653 40.5219 59.9 40.5219C59.8347 40.5219 59.7694 40.5219 59.704 40.5219C59.6387 40.5219 59.5734 40.5219 59.5081 40.5219C59.4428 40.5219 59.3775 40.5219 59.3122 40.5219C59.2469 40.5219 59.1816 40.5219 59.1163 40.5219C59.0511 40.5219 58.9858 40.5219 58.9205 40.5219C58.8553 40.5219 58.79 40.5219 58.7247 40.5219C58.6595 40.5219 58.5942 40.5219 58.529 40.5219C58.4638 40.5219 58.3985 40.5219 58.3333 40.5219C58.2681 40.5219 58.2029 40.5219 58.1377 40.5219C58.0724 40.5219 58.0073 40.5219 57.9421 40.5219C57.8769 40.5219 57.8117 40.5219 57.7465 40.5219C57.6814 40.5219 57.6162 40.5219 57.5511 40.5219C57.4859 40.5219 57.4208 40.5219 57.3557 40.5219C57.2905 40.5219 57.2254 40.5219 57.1603 40.5219C57.0952 40.5219 57.0301 40.5219 56.965 40.5219C56.9 40.5219 56.8349 40.5219 56.7698 40.5219C56.7048 40.5219 56.6397 40.5219 56.5747 40.5219C56.5097 40.5219 56.4447 40.5219 56.3797 40.5219C56.3147 40.5219 56.2497 40.5219 56.1847 40.5219C56.1197 40.5219 56.0548 40.5219 55.9898 40.5219C55.9249 40.5219 55.86 40.5219 55.795 40.5219C55.7301 40.5219 55.6652 40.5219 55.6003 40.5219C55.5355 40.5219 55.4706 40.5219 55.4057 40.5219C55.3409 40.5219 55.2761 40.5219 55.2112 40.5219C55.1464 40.5219 55.0816 40.5219 55.0168 40.5219C54.9521 40.5219 54.8873 40.5219 54.8225 40.5219C54.7578 40.5219 54.6931 40.5219 54.6284 40.5219C54.5636 40.5219 54.499 40.5219 54.4343 40.5219C54.3696 40.5219 54.305 40.5219 54.2403 40.5219C54.1757 40.5219 54.1111 40.5219 54.0465 40.5219C53.9819 40.5219 53.9173 40.5219 53.8527 40.5219C53.7882 40.5219 53.7237 40.5219 53.6591 40.5219C53.5946 40.5219 53.5301 40.5219 53.4657 40.5219C53.4012 40.5219 53.3367 40.5219 53.2723 40.5219C53.2079 40.5219 53.1435 40.5219 53.0791 40.5219C53.0147 40.5219 52.9504 40.5219 52.886 40.5219C52.8217 40.5219 52.7574 40.5219 52.6931 40.5219C52.6288 40.5219 52.5645 40.5219 52.5003 40.5219C52.4361 40.5219 52.3718 40.5219 52.3077 40.5219C52.2435 40.5219 52.1793 40.5219 52.1152 40.5219C52.051 40.5219 51.9869 40.5219 51.9228 40.5219C51.8587 40.5219 51.7947 40.5219 51.7306 40.5219C51.6666 40.5219 51.6026 40.5219 51.5386 40.5219C51.4746 40.5219 51.4107 40.5219 51.3467 40.5219C51.2828 40.5219 51.2189 40.5219 51.155 40.5219C51.0911 40.5219 51.0273 40.5219 50.9635 40.5219C50.8997 40.5219 50.8359 40.5219 50.7721 40.5219C50.7084 40.5219 50.6446 40.5219 50.5809 40.5219C50.5172 40.5219 50.4536 40.5219 50.3899 40.5219C50.3263 40.5219 50.2627 40.5219 50.1991 40.5219C50.1355 40.5219 50.072 40.5219 50.0084 40.5219C49.9449 40.5219 49.8814 40.5219 49.818 40.5219C49.7545 40.5219 49.6911 40.5219 49.6277 40.5219C49.5643 40.5219 49.501 40.5219 49.4376 40.5219C49.3743 40.5219 49.311 40.5219 49.2477 40.5219C49.1845 40.5219 49.1213 40.5219 49.0581 40.5219C48.9949 40.5219 48.9317 40.5219 48.8686 40.5219C48.8055 40.5219 48.7424 40.5219 48.6793 40.5219C48.6163 40.5219 48.5532 40.5219 48.4903 40.5219C48.4273 40.5219 48.3643 40.5219 48.3014 40.5219C48.2385 40.5219 48.1756 40.5219 48.1128 40.5219C48.0499 40.5219 47.9871 40.5219 47.9244 40.5219C47.8616 40.5219 47.7989 40.5219 47.7362 40.5219C47.6735 40.5219 47.6108 40.5219 47.5482 40.5219C47.4856 40.5219 47.423 40.5219 47.3605 40.5219C47.2979 40.5219 47.2354 40.5219 47.173 40.5219C47.1105 40.5219 47.0481 40.5219 46.9857 40.5219C46.9233 40.5219 46.861 40.5219 46.7987 40.5219C46.7364 40.5219 46.6741 40.5219 46.6119 40.5219C46.5497 40.5219 46.4875 40.5219 46.4253 40.5219C46.3632 40.5219 46.3011 40.5219 46.239 40.5219C46.177 40.5219 46.115 40.5219 46.053 40.5219C45.991 40.5219 45.9291 40.5219 45.8672 40.5219C45.8053 40.5219 45.7435 40.5219 45.6817 40.5219C45.6199 40.5219 45.5581 40.5219 45.4964 40.5219C45.4347 40.5219 45.373 40.5219 45.3114 40.5219C45.2497 40.5219 45.1882 40.5219 45.1266 40.5219C45.0651 40.5219 45.0036 40.5219 44.9421 40.5219C44.8807 40.5219 44.8193 40.5219 44.7579 40.5219C44.6966 40.5219 44.6353 40.5219 44.574 40.5219C44.5127 40.5219 44.4515 40.5219 44.3904 40.5219C44.3292 40.5219 44.2681 40.5219 44.207 40.5219C44.1459 40.5219 44.0849 40.5219 44.0239 40.5219C43.9629 40.5219 43.902 40.5219 43.8411 40.5219C43.7802 40.5219 43.7194 40.5219 43.6586 40.5219C43.5978 40.5219 43.5371 40.5219 43.4764 40.5219C43.4157 40.5219 43.3551 40.5219 43.2945 40.5219C43.2339 40.5219 43.1734 40.5219 43.1129 40.5219C43.0524 40.5219 42.992 40.5219 42.9316 40.5219C42.8712 40.5219 42.8109 40.5219 42.7506 40.5219C42.6903 40.5219 42.6301 40.5219 42.5699 40.5219C42.5098 40.5219 42.4496 40.5219 42.3896 40.5219C42.3295 40.5219 42.2695 40.5219 42.2095 40.5219C42.1496 40.5219 42.0897 40.5219 42.0298 40.5219C41.9699 40.5219 41.9101 40.5219 41.8504 40.5219C41.7906 40.5219 41.731 40.5219 41.6713 40.5219C41.6117 40.5219 41.5521 40.5219 41.4926 40.5219C41.433 40.5219 41.3736 40.5219 41.3142 40.5219C41.2547 40.5219 41.1954 40.5219 41.1361 40.5219C41.0768 40.5219 41.0175 40.5219 40.9584 40.5219C40.8992 40.5219 40.84 40.5219 40.781 40.5219C40.7219 40.5219 40.6629 40.5219 40.6039 40.5219C40.545 40.5219 40.4861 40.5219 40.4272 40.5219C40.3684 40.5219 40.3096 40.5219 40.2509 40.5219C40.1921 40.5219 40.1335 40.5219 40.0749 40.5219C40.0163 40.5219 39.9577 40.5219 39.8992 40.5219C39.8408 40.5219 39.7823 40.5219 39.724 40.5219C39.6656 40.5219 39.6073 40.5219 39.5491 40.5219C39.4908 40.5219 39.4327 40.5219 39.3745 40.5219C39.3164 40.5219 39.2584 40.5219 39.2004 40.5219C39.1424 40.5219 39.0844 40.5219 39.0266 40.5219C38.9687 40.5219 38.9109 40.5219 38.8532 40.5219C38.7954 40.5219 38.7378 40.5219 38.6801 40.5219C38.6225 40.5219 38.565 40.5219 38.5075 40.5219C38.45 40.5219 38.3926 40.5219 38.3352 40.5219C38.2779 40.5219 38.2206 40.5219 38.1634 40.5219C38.1061 40.5219 38.049 40.5219 37.9919 40.5219C37.9348 40.5219 37.8778 40.5219 37.8208 40.5219C37.7639 40.5219 37.707 40.5219 37.6501 40.5219C37.5933 40.5219 37.5366 40.5219 37.4799 40.5219C37.4232 40.5219 37.3665 40.5219 37.31 40.5219C37.2534 40.5219 37.197 40.5219 37.1405 40.5219C37.0841 40.5219 37.0278 40.5219 36.9715 40.5219C36.9152 40.5219 36.859 40.5219 36.8029 40.5219C36.7467 40.5219 36.6907 40.5219 36.6347 40.5219C36.5787 40.5219 36.5227 40.5219 36.4669 40.5219C36.411 40.5219 36.3552 40.5219 36.2995 40.5219C36.2438 40.5219 36.1881 40.5219 36.1326 40.5219C36.077 40.5219 36.0215 40.5219 35.9661 40.5219C35.9106 40.5219 35.8553 40.5219 35.8 40.5219C35.7447 40.5219 35.6895 40.5219 35.6344 40.5219C35.5792 40.5219 35.5242 40.5219 35.4692 40.5219C35.4142 40.5219 35.3593 40.5219 35.3044 40.5219C35.2496 40.5219 35.1948 40.5219 35.1401 40.5219C35.0855 40.5219 35.0308 40.5219 34.9763 40.5219C34.9218 40.5219 34.8673 40.5219 34.8129 40.5219C34.7585 40.5219 34.7042 40.5219 34.65 40.5219C34.5957 40.5219 34.5416 40.5219 34.4875 40.5219C34.4334 40.5219 34.3794 40.5219 34.3255 40.5219C34.2716 40.5219 34.2177 40.5219 34.164 40.5219C34.1102 40.5219 34.0565 40.5219 34.0029 40.5219C33.9493 40.5219 33.8957 40.5219 33.8423 40.5219C33.7888 40.5219 33.7355 40.5219 33.6822 40.5219C33.6289 40.5219 33.5757 40.5219 33.5225 40.5219C33.4694 40.5219 33.4163 40.5219 33.3634 40.5219C33.3104 40.5219 33.2575 40.5219 33.2047 40.5219C33.1519 40.5219 33.0992 40.5219 33.0465 40.5219C32.9939 40.5219 32.9413 40.5219 32.8888 40.5219C32.8363 40.5219 32.7839 40.5219 32.7316 40.5219C32.6793 40.5219 32.6271 40.5219 32.5749 40.5219C32.5228 40.5219 32.4707 40.5219 32.4187 40.5219C32.3667 40.5219 32.3148 40.5219 32.263 40.5219C32.2112 40.5219 32.1595 40.5219 32.1078 40.5219C32.0562 40.5219 32.0046 40.5219 31.9532 40.5219C31.9017 40.5219 31.8503 40.5219 31.799 40.5219C31.7477 40.5219 31.6965 40.5219 31.6454 40.5219C31.5942 40.5219 31.5432 40.5219 31.4923 40.5219C31.4413 40.5219 31.3904 40.5219 31.3397 40.5219C31.2889 40.5219 31.2382 40.5219 31.1876 40.5219C31.137 40.5219 31.0865 40.5219 31.0361 40.5219C30.9856 40.5219 30.9353 40.5219 30.885 40.5219C30.8348 40.5219 30.7846 40.5219 30.7346 40.5219C30.6845 40.5219 30.6345 40.5219 30.5847 40.5219C30.5348 40.5219 30.485 40.5219 30.4353 40.5219C30.3856 40.5219 30.336 40.5219 30.2864 40.5219C30.2369 40.5219 30.1875 40.5219 30.1381 40.5219C30.0888 40.5219 30.0396 40.5219 29.9904 40.5219C29.9413 40.5219 29.8922 40.5219 29.8432 40.5219C29.7943 40.5219 29.7454 40.5219 29.6966 40.5219C29.6478 40.5219 29.5991 40.5219 29.5505 40.5219C29.502 40.5219 29.4535 40.5219 29.405 40.5219C29.3566 40.5219 29.3083 40.5219 29.2601 40.5219C29.2119 40.5219 29.1638 40.5219 29.1158 40.5219C29.0677 40.5219 29.0198 40.5219 28.972 40.5219C28.9242 40.5219 28.8764 40.5219 28.8288 40.5219C28.7812 40.5219 28.7336 40.5219 28.6862 40.5219C28.6387 40.5219 28.5914 40.5219 28.5441 40.5219C28.4969 40.5219 28.4497 40.5219 28.4027 40.5219C28.3556 40.5219 28.3087 40.5219 28.2618 40.5219C28.215 40.5219 28.1682 40.5219 28.1216 40.5219C28.0749 40.5219 28.0284 40.5219 27.9819 40.5219C27.9354 40.5219 27.8891 40.5219 27.8428 40.5219C27.7966 40.5219 27.7504 40.5219 27.7044 40.5219C27.6583 40.5219 27.6124 40.5219 27.5665 40.5219C27.5207 40.5219 27.4749 40.5219 27.4293 40.5219C27.3836 40.5219 27.3381 40.5219 27.2926 40.5219C27.2472 40.5219 27.2019 40.5219 27.1566 40.5219C27.1114 40.5219 27.0662 40.5219 27.0212 40.5219C26.9762 40.5219 26.9313 40.5219 26.8864 40.5219C26.8416 40.5219 26.7969 40.5219 26.7523 40.5219C26.7077 40.5219 26.6632 40.5219 26.6188 40.5219C26.5744 40.5219 26.5301 40.5219 26.4859 40.5219C26.4417 40.5219 26.3976 40.5219 26.3536 40.5219C26.3097 40.5219 26.2658 40.5219 26.222 40.5219C26.1782 40.5219 26.1346 40.5219 26.091 40.5219C26.0475 40.5219 26.004 40.5219 25.9607 40.5219C25.9174 40.5219 25.8741 40.5219 25.831 40.5219C25.7879 40.5219 25.7449 40.5219 25.702 40.5219C25.6591 40.5219 25.6163 40.5219 25.5736 40.5219C25.5309 40.5219 25.4884 40.5219 25.4459 40.5219C25.4034 40.5219 25.3611 40.5219 25.3188 40.5219C25.2766 40.5219 25.2345 40.5219 25.1925 40.5219C25.1504 40.5219 25.1085 40.5219 25.0667 40.5219C25.0249 40.5219 24.9832 40.5219 24.9417 40.5219C24.9001 40.5219 24.8586 40.5219 24.8173 40.5219C24.7759 40.5219 24.7347 40.5219 24.6936 40.5219C24.6525 40.5219 24.6114 40.5219 24.5706 40.5219C24.5297 40.5219 24.4889 40.5219 24.4482 40.5219C24.4075 40.5219 24.367 40.5219 24.3265 40.5219C24.2861 40.5219 24.2458 40.5219 24.2056 40.5219C24.1654 40.5219 24.1253 40.5219 24.0853 40.5219C24.0453 40.5219 24.0055 40.5219 23.9657 40.5219C23.926 40.5219 23.8863 40.5219 23.8468 40.5219C23.8073 40.5219 23.7679 40.5219 23.7287 40.5219C23.6894 40.5219 23.6502 40.5219 23.6112 40.5219C23.5721 40.5219 23.5332 40.5219 23.4944 40.5219V41.2507C23.5332 41.2507 23.5721 41.2507 23.6112 41.2507C23.6502 41.2507 23.6894 41.2507 23.7287 41.2507C23.7679 41.2507 23.8073 41.2507 23.8468 41.2507C23.8863 41.2507 23.926 41.2507 23.9657 41.2507C24.0055 41.2507 24.0453 41.2507 24.0853 41.2507C24.1253 41.2507 24.1654 41.2507 24.2056 41.2507C24.2458 41.2507 24.2861 41.2507 24.3265 41.2507C24.367 41.2507 24.4075 41.2507 24.4482 41.2507C24.4889 41.2507 24.5297 41.2507 24.5706 41.2507C24.6114 41.2507 24.6525 41.2507 24.6936 41.2507C24.7347 41.2507 24.7759 41.2507 24.8173 41.2507C24.8586 41.2507 24.9001 41.2507 24.9417 41.2507C24.9832 41.2507 25.0249 41.2507 25.0667 41.2507C25.1085 41.2507 25.1504 41.2507 25.1925 41.2507C25.2345 41.2507 25.2766 41.2507 25.3188 41.2507C25.3611 41.2507 25.4034 41.2507 25.4459 41.2507C25.4884 41.2507 25.5309 41.2507 25.5736 41.2507C25.6163 41.2507 25.6591 41.2507 25.702 41.2507C25.7449 41.2507 25.7879 41.2507 25.831 41.2507C25.8741 41.2507 25.9174 41.2507 25.9607 41.2507C26.004 41.2507 26.0475 41.2507 26.091 41.2507C26.1346 41.2507 26.1782 41.2507 26.222 41.2507C26.2658 41.2507 26.3097 41.2507 26.3536 41.2507C26.3976 41.2507 26.4417 41.2507 26.4859 41.2507C26.5301 41.2507 26.5744 41.2507 26.6188 41.2507C26.6632 41.2507 26.7077 41.2507 26.7523 41.2507C26.7969 41.2507 26.8416 41.2507 26.8864 41.2507C26.9313 41.2507 26.9762 41.2507 27.0212 41.2507C27.0662 41.2507 27.1114 41.2507 27.1566 41.2507C27.2019 41.2507 27.2472 41.2507 27.2926 41.2507C27.3381 41.2507 27.3836 41.2507 27.4293 41.2507C27.4749 41.2507 27.5207 41.2507 27.5665 41.2507C27.6124 41.2507 27.6583 41.2507 27.7044 41.2507C27.7504 41.2507 27.7966 41.2507 27.8428 41.2507C27.8891 41.2507 27.9354 41.2507 27.9819 41.2507C28.0284 41.2507 28.0749 41.2507 28.1216 41.2507C28.1682 41.2507 28.215 41.2507 28.2618 41.2507C28.3087 41.2507 28.3556 41.2507 28.4027 41.2507C28.4497 41.2507 28.4969 41.2507 28.5441 41.2507C28.5914 41.2507 28.6387 41.2507 28.6862 41.2507C28.7336 41.2507 28.7812 41.2507 28.8288 41.2507C28.8764 41.2507 28.9242 41.2507 28.972 41.2507C29.0198 41.2507 29.0677 41.2507 29.1158 41.2507C29.1638 41.2507 29.2119 41.2507 29.2601 41.2507C29.3083 41.2507 29.3566 41.2507 29.405 41.2507C29.4535 41.2507 29.502 41.2507 29.5505 41.2507C29.5991 41.2507 29.6478 41.2507 29.6966 41.2507C29.7454 41.2507 29.7943 41.2507 29.8432 41.2507C29.8922 41.2507 29.9413 41.2507 29.9904 41.2507C30.0396 41.2507 30.0888 41.2507 30.1381 41.2507C30.1875 41.2507 30.2369 41.2507 30.2864 41.2507C30.336 41.2507 30.3856 41.2507 30.4353 41.2507C30.485 41.2507 30.5348 41.2507 30.5847 41.2507C30.6345 41.2507 30.6845 41.2507 30.7346 41.2507C30.7846 41.2507 30.8348 41.2507 30.885 41.2507C30.9353 41.2507 30.9856 41.2507 31.0361 41.2507C31.0865 41.2507 31.137 41.2507 31.1876 41.2507C31.2382 41.2507 31.2889 41.2507 31.3397 41.2507C31.3904 41.2507 31.4413 41.2507 31.4923 41.2507C31.5432 41.2507 31.5942 41.2507 31.6454 41.2507C31.6965 41.2507 31.7477 41.2507 31.799 41.2507C31.8503 41.2507 31.9017 41.2507 31.9532 41.2507C32.0046 41.2507 32.0562 41.2507 32.1078 41.2507C32.1595 41.2507 32.2112 41.2507 32.263 41.2507C32.3148 41.2507 32.3667 41.2507 32.4187 41.2507C32.4707 41.2507 32.5228 41.2507 32.5749 41.2507C32.6271 41.2507 32.6793 41.2507 32.7316 41.2507C32.7839 41.2507 32.8363 41.2507 32.8888 41.2507C32.9413 41.2507 32.9939 41.2507 33.0465 41.2507C33.0992 41.2507 33.1519 41.2507 33.2047 41.2507C33.2575 41.2507 33.3104 41.2507 33.3634 41.2507C33.4163 41.2507 33.4694 41.2507 33.5225 41.2507C33.5757 41.2507 33.6289 41.2507 33.6822 41.2507C33.7355 41.2507 33.7888 41.2507 33.8423 41.2507C33.8957 41.2507 33.9493 41.2507 34.0029 41.2507C34.0565 41.2507 34.1102 41.2507 34.164 41.2507C34.2177 41.2507 34.2716 41.2507 34.3255 41.2507C34.3794 41.2507 34.4334 41.2507 34.4875 41.2507C34.5416 41.2507 34.5957 41.2507 34.65 41.2507C34.7042 41.2507 34.7585 41.2507 34.8129 41.2507C34.8673 41.2507 34.9218 41.2507 34.9763 41.2507C35.0308 41.2507 35.0855 41.2507 35.1401 41.2507C35.1948 41.2507 35.2496 41.2507 35.3044 41.2507C35.3593 41.2507 35.4142 41.2507 35.4692 41.2507C35.5242 41.2507 35.5792 41.2507 35.6344 41.2507C35.6895 41.2507 35.7447 41.2507 35.8 41.2507C35.8553 41.2507 35.9106 41.2507 35.9661 41.2507C36.0215 41.2507 36.077 41.2507 36.1326 41.2507C36.1881 41.2507 36.2438 41.2507 36.2995 41.2507C36.3552 41.2507 36.411 41.2507 36.4669 41.2507C36.5227 41.2507 36.5787 41.2507 36.6347 41.2507C36.6907 41.2507 36.7467 41.2507 36.8029 41.2507C36.859 41.2507 36.9152 41.2507 36.9715 41.2507C37.0278 41.2507 37.0841 41.2507 37.1405 41.2507C37.197 41.2507 37.2534 41.2507 37.31 41.2507C37.3665 41.2507 37.4232 41.2507 37.4799 41.2507C37.5366 41.2507 37.5933 41.2507 37.6501 41.2507C37.707 41.2507 37.7639 41.2507 37.8208 41.2507C37.8778 41.2507 37.9348 41.2507 37.9919 41.2507C38.049 41.2507 38.1061 41.2507 38.1634 41.2507C38.2206 41.2507 38.2779 41.2507 38.3352 41.2507C38.3926 41.2507 38.45 41.2507 38.5075 41.2507C38.565 41.2507 38.6225 41.2507 38.6801 41.2507C38.7378 41.2507 38.7954 41.2507 38.8532 41.2507C38.9109 41.2507 38.9687 41.2507 39.0266 41.2507C39.0844 41.2507 39.1424 41.2507 39.2004 41.2507C39.2584 41.2507 39.3164 41.2507 39.3745 41.2507C39.4327 41.2507 39.4908 41.2507 39.5491 41.2507C39.6073 41.2507 39.6656 41.2507 39.724 41.2507C39.7823 41.2507 39.8408 41.2507 39.8992 41.2507C39.9577 41.2507 40.0163 41.2507 40.0749 41.2507C40.1335 41.2507 40.1921 41.2507 40.2509 41.2507C40.3096 41.2507 40.3684 41.2507 40.4272 41.2507C40.4861 41.2507 40.545 41.2507 40.6039 41.2507C40.6629 41.2507 40.7219 41.2507 40.781 41.2507C40.84 41.2507 40.8992 41.2507 40.9584 41.2507C41.0175 41.2507 41.0768 41.2507 41.1361 41.2507C41.1954 41.2507 41.2547 41.2507 41.3142 41.2507C41.3736 41.2507 41.433 41.2507 41.4926 41.2507C41.5521 41.2507 41.6117 41.2507 41.6713 41.2507C41.731 41.2507 41.7906 41.2507 41.8504 41.2507C41.9101 41.2507 41.9699 41.2507 42.0298 41.2507C42.0897 41.2507 42.1496 41.2507 42.2095 41.2507C42.2695 41.2507 42.3295 41.2507 42.3896 41.2507C42.4496 41.2507 42.5098 41.2507 42.5699 41.2507C42.6301 41.2507 42.6903 41.2507 42.7506 41.2507C42.8109 41.2507 42.8712 41.2507 42.9316 41.2507C42.992 41.2507 43.0524 41.2507 43.1129 41.2507C43.1734 41.2507 43.2339 41.2507 43.2945 41.2507C43.3551 41.2507 43.4157 41.2507 43.4764 41.2507C43.5371 41.2507 43.5978 41.2507 43.6586 41.2507C43.7194 41.2507 43.7802 41.2507 43.8411 41.2507C43.902 41.2507 43.9629 41.2507 44.0239 41.2507C44.0849 41.2507 44.1459 41.2507 44.207 41.2507C44.2681 41.2507 44.3292 41.2507 44.3904 41.2507C44.4515 41.2507 44.5127 41.2507 44.574 41.2507C44.6353 41.2507 44.6966 41.2507 44.7579 41.2507C44.8193 41.2507 44.8807 41.2507 44.9421 41.2507C45.0036 41.2507 45.0651 41.2507 45.1266 41.2507C45.1882 41.2507 45.2497 41.2507 45.3114 41.2507C45.373 41.2507 45.4347 41.2507 45.4964 41.2507C45.5581 41.2507 45.6199 41.2507 45.6817 41.2507C45.7435 41.2507 45.8053 41.2507 45.8672 41.2507C45.9291 41.2507 45.991 41.2507 46.053 41.2507C46.115 41.2507 46.177 41.2507 46.239 41.2507C46.3011 41.2507 46.3632 41.2507 46.4253 41.2507C46.4875 41.2507 46.5497 41.2507 46.6119 41.2507C46.6741 41.2507 46.7364 41.2507 46.7987 41.2507C46.861 41.2507 46.9233 41.2507 46.9857 41.2507C47.0481 41.2507 47.1105 41.2507 47.173 41.2507C47.2354 41.2507 47.2979 41.2507 47.3605 41.2507C47.423 41.2507 47.4856 41.2507 47.5482 41.2507C47.6108 41.2507 47.6735 41.2507 47.7362 41.2507C47.7989 41.2507 47.8616 41.2507 47.9244 41.2507C47.9871 41.2507 48.0499 41.2507 48.1128 41.2507C48.1756 41.2507 48.2385 41.2507 48.3014 41.2507C48.3643 41.2507 48.4273 41.2507 48.4903 41.2507C48.5532 41.2507 48.6163 41.2507 48.6793 41.2507C48.7424 41.2507 48.8055 41.2507 48.8686 41.2507C48.9317 41.2507 48.9949 41.2507 49.0581 41.2507C49.1213 41.2507 49.1845 41.2507 49.2477 41.2507C49.311 41.2507 49.3743 41.2507 49.4376 41.2507C49.501 41.2507 49.5643 41.2507 49.6277 41.2507C49.6911 41.2507 49.7545 41.2507 49.818 41.2507C49.8814 41.2507 49.9449 41.2507 50.0084 41.2507C50.072 41.2507 50.1355 41.2507 50.1991 41.2507C50.2627 41.2507 50.3263 41.2507 50.3899 41.2507C50.4536 41.2507 50.5172 41.2507 50.5809 41.2507C50.6446 41.2507 50.7084 41.2507 50.7721 41.2507C50.8359 41.2507 50.8997 41.2507 50.9635 41.2507C51.0273 41.2507 51.0911 41.2507 51.155 41.2507C51.2189 41.2507 51.2828 41.2507 51.3467 41.2507C51.4107 41.2507 51.4746 41.2507 51.5386 41.2507C51.6026 41.2507 51.6666 41.2507 51.7306 41.2507C51.7947 41.2507 51.8587 41.2507 51.9228 41.2507C51.9869 41.2507 52.051 41.2507 52.1152 41.2507C52.1793 41.2507 52.2435 41.2507 52.3077 41.2507C52.3718 41.2507 52.4361 41.2507 52.5003 41.2507C52.5645 41.2507 52.6288 41.2507 52.6931 41.2507C52.7574 41.2507 52.8217 41.2507 52.886 41.2507C52.9504 41.2507 53.0147 41.2507 53.0791 41.2507C53.1435 41.2507 53.2079 41.2507 53.2723 41.2507C53.3367 41.2507 53.4012 41.2507 53.4657 41.2507C53.5301 41.2507 53.5946 41.2507 53.6591 41.2507C53.7237 41.2507 53.7882 41.2507 53.8527 41.2507C53.9173 41.2507 53.9819 41.2507 54.0465 41.2507C54.1111 41.2507 54.1757 41.2507 54.2403 41.2507C54.305 41.2507 54.3696 41.2507 54.4343 41.2507C54.499 41.2507 54.5636 41.2507 54.6284 41.2507C54.6931 41.2507 54.7578 41.2507 54.8225 41.2507C54.8873 41.2507 54.9521 41.2507 55.0168 41.2507C55.0816 41.2507 55.1464 41.2507 55.2112 41.2507C55.2761 41.2507 55.3409 41.2507 55.4057 41.2507C55.4706 41.2507 55.5355 41.2507 55.6003 41.2507C55.6652 41.2507 55.7301 41.2507 55.795 41.2507C55.86 41.2507 55.9249 41.2507 55.9898 41.2507C56.0548 41.2507 56.1197 41.2507 56.1847 41.2507C56.2497 41.2507 56.3147 41.2507 56.3797 41.2507C56.4447 41.2507 56.5097 41.2507 56.5747 41.2507C56.6397 41.2507 56.7048 41.2507 56.7698 41.2507C56.8349 41.2507 56.9 41.2507 56.965 41.2507C57.0301 41.2507 57.0952 41.2507 57.1603 41.2507C57.2254 41.2507 57.2905 41.2507 57.3557 41.2507C57.4208 41.2507 57.4859 41.2507 57.5511 41.2507C57.6162 41.2507 57.6814 41.2507 57.7465 41.2507C57.8117 41.2507 57.8769 41.2507 57.9421 41.2507C58.0073 41.2507 58.0724 41.2507 58.1377 41.2507C58.2029 41.2507 58.2681 41.2507 58.3333 41.2507C58.3985 41.2507 58.4638 41.2507 58.529 41.2507C58.5942 41.2507 58.6595 41.2507 58.7247 41.2507C58.79 41.2507 58.8553 41.2507 58.9205 41.2507C58.9858 41.2507 59.0511 41.2507 59.1163 41.2507C59.1816 41.2507 59.2469 41.2507 59.3122 41.2507C59.3775 41.2507 59.4428 41.2507 59.5081 41.2507C59.5734 41.2507 59.6387 41.2507 59.704 41.2507C59.7694 41.2507 59.8347 41.2507 59.9 41.2507C59.9653 41.2507 60.0307 41.2507 60.096 41.2507C60.1613 41.2507 60.2267 41.2507 60.292 41.2507C60.3573 41.2507 60.4227 41.2507 60.488 41.2507C60.5534 41.2507 60.6187 41.2507 60.6841 41.2507C60.7494 41.2507 60.8148 41.2507 60.8801 41.2507C60.9455 41.2507 61.0108 41.2507 61.0762 41.2507C61.1415 41.2507 61.2069 41.2507 61.2722 41.2507C61.3376 41.2507 61.403 41.2507 61.4683 41.2507C61.5337 41.2507 61.599 41.2507 61.6644 41.2507C61.7298 41.2507 61.7951 41.2507 61.8605 41.2507C61.9258 41.2507 61.9912 41.2507 62.0565 41.2507C62.1219 41.2507 62.1872 41.2507 62.2526 41.2507C62.3179 41.2507 62.3833 41.2507 62.4486 41.2507C62.514 41.2507 62.5793 41.2507 62.6446 41.2507C62.71 41.2507 62.7753 41.2507 62.8406 41.2507C62.906 41.2507 62.9713 41.2507 63.0366 41.2507C63.102 41.2507 63.1673 41.2507 63.2326 41.2507C63.2979 41.2507 63.3632 41.2507 63.4285 41.2507C63.4938 41.2507 63.5591 41.2507 63.6244 41.2507C63.6897 41.2507 63.755 41.2507 63.8203 41.2507C63.8855 41.2507 63.9508 41.2507 64.0161 41.2507C64.0814 41.2507 64.1466 41.2507 64.2119 41.2507C64.2771 41.2507 64.3424 41.2507 64.4076 41.2507C64.4728 41.2507 64.5381 41.2507 64.6033 41.2507C64.6685 41.2507 64.7337 41.2507 64.7989 41.2507C64.8641 41.2507 64.9293 41.2507 64.9945 41.2507C65.0597 41.2507 65.1249 41.2507 65.19 41.2507C65.2552 41.2507 65.3204 41.2507 65.3855 41.2507C65.4507 41.2507 65.5158 41.2507 65.5809 41.2507C65.646 41.2507 65.7111 41.2507 65.7762 41.2507C65.8413 41.2507 65.9064 41.2507 65.9715 41.2507C66.0366 41.2507 66.1016 41.2507 66.1667 41.2507C66.2318 41.2507 66.2968 41.2507 66.3618 41.2507C66.4268 41.2507 66.4919 41.2507 66.5568 41.2507C66.6218 41.2507 66.6868 41.2507 66.7518 41.2507C66.8168 41.2507 66.8817 41.2507 66.9467 41.2507C67.0116 41.2507 67.0765 41.2507 67.1414 41.2507C67.2064 41.2507 67.2712 41.2507 67.3361 41.2507C67.401 41.2507 67.4659 41.2507 67.5307 41.2507C67.5956 41.2507 67.6604 41.2507 67.7252 41.2507C67.79 41.2507 67.8548 41.2507 67.9196 41.2507C67.9844 41.2507 68.0491 41.2507 68.1139 41.2507C68.1786 41.2507 68.2433 41.2507 68.3081 41.2507C68.3728 41.2507 68.4374 41.2507 68.5021 41.2507C68.5668 41.2507 68.6314 41.2507 68.6961 41.2507C68.7607 41.2507 68.8253 41.2507 68.8899 41.2507C68.9545 41.2507 69.0191 41.2507 69.0836 41.2507C69.1482 41.2507 69.2127 41.2507 69.2772 41.2507C69.3417 41.2507 69.4062 41.2507 69.4707 41.2507C69.5351 41.2507 69.5996 41.2507 69.664 41.2507C69.7284 41.2507 69.7928 41.2507 69.8572 41.2507C69.9216 41.2507 69.9859 41.2507 70.0502 41.2507C70.1146 41.2507 70.1789 41.2507 70.2432 41.2507C70.3074 41.2507 70.3717 41.2507 70.4359 41.2507C70.5002 41.2507 70.5644 41.2507 70.6286 41.2507C70.6927 41.2507 70.7569 41.2507 70.821 41.2507C70.8852 41.2507 70.9493 41.2507 71.0134 41.2507C71.0775 41.2507 71.1415 41.2507 71.2055 41.2507C71.2696 41.2507 71.3336 41.2507 71.3976 41.2507C71.4615 41.2507 71.5255 41.2507 71.5894 41.2507C71.6533 41.2507 71.7172 41.2507 71.7811 41.2507C71.845 41.2507 71.9088 41.2507 71.9726 41.2507C72.0364 41.2507 72.1002 41.2507 72.1639 41.2507C72.2277 41.2507 72.2914 41.2507 72.3551 41.2507C72.4188 41.2507 72.4825 41.2507 72.5461 41.2507C72.6097 41.2507 72.6733 41.2507 72.7369 41.2507C72.8005 41.2507 72.864 41.2507 72.9275 41.2507C72.9911 41.2507 73.0545 41.2507 73.118 41.2507C73.1814 41.2507 73.2449 41.2507 73.3082 41.2507C73.3716 41.2507 73.435 41.2507 73.4983 41.2507C73.5616 41.2507 73.6249 41.2507 73.6881 41.2507C73.7514 41.2507 73.8146 41.2507 73.8778 41.2507C73.941 41.2507 74.0041 41.2507 74.0672 41.2507C74.1304 41.2507 74.1934 41.2507 74.2565 41.2507C74.3195 41.2507 74.3826 41.2507 74.4455 41.2507C74.5085 41.2507 74.5714 41.2507 74.6344 41.2507C74.6973 41.2507 74.7601 41.2507 74.823 41.2507C74.8858 41.2507 74.9486 41.2507 75.0113 41.2507C75.0741 41.2507 75.1368 41.2507 75.1995 41.2507C75.2622 41.2507 75.3248 41.2507 75.3874 41.2507C75.4501 41.2507 75.5126 41.2507 75.5752 41.2507C75.6377 41.2507 75.7002 41.2507 75.7626 41.2507C75.8251 41.2507 75.8875 41.2507 75.9499 41.2507C76.0123 41.2507 76.0746 41.2507 76.1369 41.2507C76.1992 41.2507 76.2614 41.2507 76.3236 41.2507C76.3859 41.2507 76.448 41.2507 76.5102 41.2507C76.5723 41.2507 76.6344 41.2507 76.6964 41.2507C76.7585 41.2507 76.8205 41.2507 76.8824 41.2507C76.9444 41.2507 77.0063 41.2507 77.0682 41.2507C77.1301 41.2507 77.1919 41.2507 77.2537 41.2507C77.3155 41.2507 77.3773 41.2507 77.439 41.2507C77.5007 41.2507 77.5623 41.2507 77.6239 41.2507C77.6856 41.2507 77.7471 41.2507 77.8087 41.2507C77.8702 41.2507 77.9317 41.2507 77.9931 41.2507C78.0545 41.2507 78.1159 41.2507 78.1773 41.2507C78.2386 41.2507 78.2999 41.2507 78.3612 41.2507C78.4224 41.2507 78.4836 41.2507 78.5448 41.2507C78.6059 41.2507 78.6671 41.2507 78.7281 41.2507C78.7892 41.2507 78.8502 41.2507 78.9112 41.2507C78.9721 41.2507 79.0331 41.2507 79.0939 41.2507C79.1548 41.2507 79.2156 41.2507 79.2764 41.2507C79.3372 41.2507 79.3979 41.2507 79.4585 41.2507C79.5192 41.2507 79.5798 41.2507 79.6404 41.2507C79.701 41.2507 79.7615 41.2507 79.822 41.2507C79.8825 41.2507 79.9429 41.2507 80.0033 41.2507C80.0636 41.2507 80.1239 41.2507 80.1842 41.2507C80.2445 41.2507 80.3047 41.2507 80.3648 41.2507C80.425 41.2507 80.4851 41.2507 80.5452 41.2507C80.6052 41.2507 80.6652 41.2507 80.7252 41.2507C80.7851 41.2507 80.845 41.2507 80.9049 41.2507C80.9647 41.2507 81.0245 41.2507 81.0842 41.2507C81.144 41.2507 81.2037 41.2507 81.2633 41.2507C81.3229 41.2507 81.3825 41.2507 81.442 41.2507C81.5015 41.2507 81.561 41.2507 81.6204 41.2507C81.6798 41.2507 81.7391 41.2507 81.7984 41.2507C81.8577 41.2507 81.9169 41.2507 81.9761 41.2507C82.0353 41.2507 82.0944 41.2507 82.1534 41.2507C82.2125 41.2507 82.2715 41.2507 82.3304 41.2507C82.3894 41.2507 82.4483 41.2507 82.5071 41.2507C82.5659 41.2507 82.6247 41.2507 82.6834 41.2507C82.7421 41.2507 82.8008 41.2507 82.8593 41.2507C82.9179 41.2507 82.9765 41.2507 83.0349 41.2507C83.0934 41.2507 83.1518 41.2507 83.2102 41.2507C83.2685 41.2507 83.3268 41.2507 83.385 41.2507C83.4432 41.2507 83.5014 41.2507 83.5595 41.2507C83.6176 41.2507 83.6757 41.2507 83.7336 41.2507C83.7916 41.2507 83.8495 41.2507 83.9074 41.2507C83.9652 41.2507 84.023 41.2507 84.0807 41.2507C84.1385 41.2507 84.1961 41.2507 84.2537 41.2507C84.3113 41.2507 84.3689 41.2507 84.4263 41.2507C84.4838 41.2507 84.5412 41.2507 84.5985 41.2507C84.6559 41.2507 84.7132 41.2507 84.7704 41.2507C84.8276 41.2507 84.8847 41.2507 84.9418 41.2507C84.9989 41.2507 85.0559 41.2507 85.1128 41.2507C85.1698 41.2507 85.2266 41.2507 85.2834 41.2507C85.3403 41.2507 85.397 41.2507 85.4537 41.2507C85.5104 41.2507 85.567 41.2507 85.6235 41.2507C85.68 41.2507 85.7365 41.2507 85.7929 41.2507C85.8493 41.2507 85.9056 41.2507 85.9619 41.2507C86.0182 41.2507 86.0744 41.2507 86.1305 41.2507C86.1866 41.2507 86.2427 41.2507 86.2986 41.2507C86.3546 41.2507 86.4105 41.2507 86.4664 41.2507C86.5222 41.2507 86.578 41.2507 86.6337 41.2507C86.6894 41.2507 86.745 41.2507 86.8006 41.2507C86.8561 41.2507 86.9116 41.2507 86.967 41.2507C87.0224 41.2507 87.0778 41.2507 87.133 41.2507C87.1883 41.2507 87.2435 41.2507 87.2986 41.2507C87.3537 41.2507 87.4088 41.2507 87.4637 41.2507C87.5187 41.2507 87.5736 41.2507 87.6284 41.2507C87.6833 41.2507 87.738 41.2507 87.7927 41.2507C87.8474 41.2507 87.9019 41.2507 87.9565 41.2507C88.011 41.2507 88.0654 41.2507 88.1198 41.2507C88.1742 41.2507 88.2285 41.2507 88.2827 41.2507C88.3369 41.2507 88.391 41.2507 88.4451 41.2507C88.4992 41.2507 88.5531 41.2507 88.607 41.2507C88.661 41.2507 88.7148 41.2507 88.7685 41.2507C88.8223 41.2507 88.876 41.2507 88.9296 41.2507C88.9831 41.2507 89.0367 41.2507 89.0901 41.2507C89.1435 41.2507 89.1969 41.2507 89.2502 41.2507C89.3034 41.2507 89.3566 41.2507 89.4097 41.2507C89.4629 41.2507 89.5159 41.2507 89.5688 41.2507C89.6218 41.2507 89.6747 41.2507 89.7275 41.2507C89.7803 41.2507 89.833 41.2507 89.8856 41.2507C89.9382 41.2507 89.9908 41.2507 90.0432 41.2507C90.0957 41.2507 90.1481 41.2507 90.2004 41.2507C90.2527 41.2507 90.3049 41.2507 90.357 41.2507C90.4091 41.2507 90.4612 41.2507 90.5131 41.2507C90.5651 41.2507 90.617 41.2507 90.6688 41.2507C90.7206 41.2507 90.7723 41.2507 90.8239 41.2507C90.8755 41.2507 90.927 41.2507 90.9785 41.2507C91.0299 41.2507 91.0813 41.2507 91.1326 41.2507C91.1839 41.2507 91.2351 41.2507 91.2862 41.2507C91.3373 41.2507 91.3883 41.2507 91.4392 41.2507C91.4902 41.2507 91.541 41.2507 91.5918 41.2507C91.6425 41.2507 91.6932 41.2507 91.7438 41.2507C91.7943 41.2507 91.8448 41.2507 91.8952 41.2507C91.9456 41.2507 91.996 41.2507 92.0462 41.2507C92.0964 41.2507 92.1465 41.2507 92.1966 41.2507C92.2466 41.2507 92.2966 41.2507 92.3465 41.2507C92.3963 41.2507 92.4461 41.2507 92.4958 41.2507C92.5454 41.2507 92.595 41.2507 92.6445 41.2507C92.694 41.2507 92.7434 41.2507 92.7928 41.2507C92.8421 41.2507 92.8913 41.2507 92.9404 41.2507C92.9896 41.2507 93.0386 41.2507 93.0875 41.2507C93.1365 41.2507 93.1853 41.2507 93.2341 41.2507C93.2829 41.2507 93.3315 41.2507 93.3801 41.2507C93.4287 41.2507 93.4771 41.2507 93.5255 41.2507C93.5739 41.2507 93.6222 41.2507 93.6704 41.2507C93.7186 41.2507 93.7667 41.2507 93.8147 41.2507C93.8627 41.2507 93.9106 41.2507 93.9584 41.2507C94.0062 41.2507 94.0539 41.2507 94.1015 41.2507C94.1491 41.2507 94.1966 41.2507 94.2441 41.2507C94.2915 41.2507 94.3388 41.2507 94.386 41.2507C94.4333 41.2507 94.4804 41.2507 94.5274 41.2507C94.5744 41.2507 94.6214 41.2507 94.6682 41.2507C94.715 41.2507 94.7617 41.2507 94.8084 41.2507C94.855 41.2507 94.9015 41.2507 94.948 41.2507C94.9944 41.2507 95.0407 41.2507 95.087 41.2507C95.1332 41.2507 95.1793 41.2507 95.2254 41.2507C95.2714 41.2507 95.3173 41.2507 95.3631 41.2507C95.409 41.2507 95.4547 41.2507 95.5003 41.2507C95.5459 41.2507 95.5915 41.2507 95.6369 41.2507C95.6823 41.2507 95.7276 41.2507 95.7728 41.2507C95.818 41.2507 95.8631 41.2507 95.9081 41.2507C95.9531 41.2507 95.9981 41.2507 96.0428 41.2507C96.0876 41.2507 96.1323 41.2507 96.1769 41.2507C96.2215 41.2507 96.266 41.2507 96.3104 41.2507C96.3547 41.2507 96.399 41.2507 96.4432 41.2507C96.4873 41.2507 96.5314 41.2507 96.5754 41.2507C96.6193 41.2507 96.6632 41.2507 96.7069 41.2507C96.7506 41.2507 96.7943 41.2507 96.8378 41.2507C96.8813 41.2507 96.9247 41.2507 96.968 41.2507C97.0114 41.2507 97.0546 41.2507 97.0976 41.2507C97.1407 41.2507 97.1837 41.2507 97.2266 41.2507C97.2695 41.2507 97.3122 41.2507 97.3549 41.2507C97.3976 41.2507 97.4401 41.2507 97.4825 41.2507C97.525 41.2507 97.5673 41.2507 97.6095 41.2507C97.6517 41.2507 97.6938 41.2507 97.7358 41.2507C97.7778 41.2507 97.8197 41.2507 97.8615 41.2507C97.9033 41.2507 97.9449 41.2507 97.9865 41.2507C98.028 41.2507 98.0694 41.2507 98.1108 41.2507C98.1521 41.2507 98.1933 41.2507 98.2344 41.2507C98.2755 41.2507 98.3165 41.2507 98.3573 41.2507C98.3982 41.2507 98.439 41.2507 98.4796 41.2507C98.5202 41.2507 98.5608 41.2507 98.6012 41.2507C98.6416 41.2507 98.6819 41.2507 98.7221 41.2507C98.7622 41.2507 98.8023 41.2507 98.8423 41.2507C98.8822 41.2507 98.922 41.2507 98.9617 41.2507C99.0015 41.2507 99.0411 41.2507 99.0806 41.2507C99.12 41.2507 99.1594 41.2507 99.1986 41.2507C99.2379 41.2507 99.277 41.2507 99.316 41.2507C99.355 41.2507 99.3939 41.2507 99.4327 41.2507C99.4715 41.2507 99.5102 41.2507 99.5487 41.2507C99.5872 41.2507 99.6256 41.2507 99.6639 41.2507C99.7022 41.2507 99.7404 41.2507 99.7785 41.2507C99.8165 41.2507 99.8545 41.2507 99.8923 41.2507C99.9301 41.2507 99.9678 41.2507 100.005 41.2507C100.043 41.2507 100.08 41.2507 100.118 41.2507C100.155 41.2507 100.192 41.2507 100.229 41.2507C100.266 41.2507 100.303 41.2507 100.34 41.2507C100.377 41.2507 100.414 41.2507 100.45 41.2507C100.487 41.2507 100.524 41.2507 100.56 41.2507C100.596 41.2507 100.632 41.2507 100.669 41.2507C100.705 41.2507 100.741 41.2507 100.776 41.2507C100.812 41.2507 100.848 41.2507 100.884 41.2507C100.919 41.2507 100.955 41.2507 100.99 41.2507C101.025 41.2507 101.061 41.2507 101.096 41.2507C101.131 41.2507 101.166 41.2507 101.201 41.2507C101.236 41.2507 101.27 41.2507 101.305 41.2507C101.339 41.2507 101.374 41.2507 101.408 41.2507C101.443 41.2507 101.477 41.2507 101.511 41.2507C101.545 41.2507 101.579 41.2507 101.613 41.2507C101.646 41.2507 101.68 41.2507 101.714 41.2507C101.747 41.2507 101.781 41.2507 101.814 41.2507C101.847 41.2507 101.88 41.2507 101.914 41.2507C101.947 41.2507 101.979 41.2507 102.012 41.2507C102.045 41.2507 102.078 41.2507 102.11 41.2507C102.143 41.2507 102.175 41.2507 102.207 41.2507C102.24 41.2507 102.272 41.2507 102.304 41.2507C102.336 41.2507 102.368 41.2507 102.399 41.2507C102.431 41.2507 102.463 41.2507 102.494 41.2507C102.525 41.2507 102.557 41.2507 102.588 41.2507C102.619 41.2507 102.65 41.2507 102.681 41.2507C102.712 41.2507 102.743 41.2507 102.773 41.2507C102.804 41.2507 102.835 41.2507 102.865 41.2507C102.895 41.2507 102.925 41.2507 102.956 41.2507C102.986 41.2507 103.016 41.2507 103.045 41.2507C103.075 41.2507 103.105 41.2507 103.135 41.2507C103.164 41.2507 103.193 41.2507 103.223 41.2507C103.252 41.2507 103.281 41.2507 103.31 41.2507C103.339 41.2507 103.368 41.2507 103.397 41.2507C103.425 41.2507 103.454 41.2507 103.482 41.2507C103.511 41.2507 103.539 41.2507 103.567 41.2507C103.596 41.2507 103.624 41.2507 103.651 41.2507C103.679 41.2507 103.707 41.2507 103.735 41.2507C103.762 41.2507 103.79 41.2507 103.817 41.2507C103.844 41.2507 103.871 41.2507 103.898 41.2507C103.925 41.2507 103.952 41.2507 103.979 41.2507C104.006 41.2507 104.032 41.2507 104.059 41.2507C104.085 41.2507 104.112 41.2507 104.138 41.2507C104.164 41.2507 104.19 41.2507 104.216 41.2507C104.242 41.2507 104.268 41.2507 104.293 41.2507C104.319 41.2507 104.344 41.2507 104.369 41.2507C104.395 41.2507 104.42 41.2507 104.445 41.2507C104.47 41.2507 104.495 41.2507 104.519 41.2507C104.544 41.2507 104.569 41.2507 104.593 41.2507C104.618 41.2507 104.642 41.2507 104.666 41.2507C104.69 41.2507 104.714 41.2507 104.738 41.2507C104.762 41.2507 104.785 41.2507 104.809 41.2507C104.832 41.2507 104.856 41.2507 104.879 41.2507C104.902 41.2507 104.925 41.2507 104.948 41.2507C104.971 41.2507 104.994 41.2507 105.017 41.2507C105.039 41.2507 105.062 41.2507 105.084 41.2507C105.106 41.2507 105.129 41.2507 105.151 41.2507C105.173 41.2507 105.195 41.2507 105.216 41.2507C105.238 41.2507 105.26 41.2507 105.281 41.2507V40.5219ZM12.5665 43.8737C11.4352 44.5582 10.2414 45.2152 9.13538 45.7C8.01881 46.1894 7.03274 46.4845 6.3033 46.4845V47.2133C7.19053 47.2133 8.29198 46.8654 9.42794 46.3675C10.5744 45.8649 11.7983 45.1903 12.9437 44.4972L12.5665 43.8737ZM23.4944 40.5219C19.5881 40.5219 15.8753 41.8718 12.5665 43.8737L12.9437 44.4972C16.1744 42.5426 19.7574 41.2507 23.4944 41.2507V40.5219Z" fill="#151515" mask="url(#path-2-inside-1_1111_19)"/>
<path d="M27.9346 25.0179C27.9346 25.8457 27.8087 26.6015 27.5567 27.2854C27.3228 27.9512 26.8909 28.527 26.2611 29.0129C25.6492 29.4808 24.8034 29.8497 23.7237 30.1196C22.644 30.3896 21.2674 30.5245 19.5938 30.5245C17.9202 30.5245 16.5436 30.3896 15.4639 30.1196C14.3841 29.8497 13.5294 29.4808 12.8995 29.0129C12.2877 28.527 11.8558 27.9512 11.6039 27.2854C11.3699 26.6015 11.2529 25.8457 11.2529 25.0179V11.6564C11.2529 11.3145 11.3249 11.0715 11.4689 10.9276C11.6308 10.7656 11.8828 10.6846 12.2247 10.6846H16.4626C16.8045 10.6846 17.0474 10.7656 17.1914 10.9276C17.3534 11.0715 17.4343 11.3145 17.4343 11.6564V23.9652C17.4343 24.3251 17.5693 24.631 17.8392 24.883C18.1092 25.1169 18.712 25.2339 19.6478 25.2339C20.6015 25.2339 21.2134 25.1169 21.4833 24.883C21.7532 24.631 21.8882 24.3251 21.8882 23.9652V11.6564C21.8882 11.3145 21.9602 11.0715 22.1041 10.9276C22.2661 10.7656 22.518 10.6846 22.8599 10.6846H26.9629C27.3048 10.6846 27.5477 10.7656 27.6917 10.9276C27.8537 11.0715 27.9346 11.3145 27.9346 11.6564V25.0179ZM36.6829 30.1196H32.499C32.1571 30.1196 31.9051 30.0476 31.7432 29.9037C31.5992 29.7417 31.5272 29.4898 31.5272 29.1479V11.6564C31.5272 11.3145 31.5992 11.0715 31.7432 10.9276C31.9051 10.7656 32.1571 10.6846 32.499 10.6846H44.5379C44.8798 10.6846 45.1227 10.7656 45.2667 10.9276C45.4286 11.0715 45.5096 11.3145 45.5096 11.6564V14.8686C45.5096 15.2105 45.4286 15.4624 45.2667 15.6244C45.1227 15.7683 44.8798 15.8403 44.5379 15.8403H37.6547V18.6476H42.3514C42.6934 18.6476 42.9363 18.7286 43.0803 18.8905C43.2422 19.0345 43.3232 19.2774 43.3232 19.6193V22.8585C43.3232 23.2004 43.2422 23.4524 43.0803 23.6143C42.9363 23.7583 42.6934 23.8303 42.3514 23.8303H37.6547V29.1479C37.6547 29.4898 37.5737 29.7417 37.4117 29.9037C37.2678 30.0476 37.0248 30.1196 36.6829 30.1196ZM61.7099 30.1196H49.1851C48.8432 30.1196 48.5913 30.0476 48.4293 29.9037C48.2853 29.7417 48.2134 29.4898 48.2134 29.1479V11.6564C48.2134 11.3145 48.2853 11.0715 48.4293 10.9276C48.5913 10.7656 48.8432 10.6846 49.1851 10.6846H61.7099C62.0518 10.6846 62.2947 10.7656 62.4387 10.9276C62.6006 11.0715 62.6816 11.3145 62.6816 11.6564V14.8146C62.6816 15.1565 62.6006 15.4084 62.4387 15.5704C62.2947 15.7143 62.0518 15.7863 61.7099 15.7863H54.2598V17.8648H59.5234C59.8654 17.8648 60.1083 17.9458 60.2523 18.1077C60.4142 18.2517 60.4952 18.4946 60.4952 18.8365V21.7248C60.4952 22.0667 60.4142 22.3186 60.2523 22.4806C60.1083 22.6246 59.8654 22.6965 59.5234 22.6965H54.2598V25.0179H61.7099C62.0518 25.0179 62.2947 25.0989 62.4387 25.2609C62.6006 25.4048 62.6816 25.6478 62.6816 25.9897V29.1479C62.6816 29.4898 62.6006 29.7417 62.4387 29.9037C62.2947 30.0476 62.0518 30.1196 61.7099 30.1196ZM79.3713 30.1196H66.8466C66.5047 30.1196 66.2527 30.0476 66.0908 29.9037C65.9468 29.7417 65.8748 29.4898 65.8748 29.1479V11.6564C65.8748 11.3145 65.9468 11.0715 66.0908 10.9276C66.2527 10.7656 66.5047 10.6846 66.8466 10.6846H79.3713C79.7132 10.6846 79.9562 10.7656 80.1001 10.9276C80.2621 11.0715 80.3431 11.3145 80.3431 11.6564V14.8146C80.3431 15.1565 80.2621 15.4084 80.1001 15.5704C79.9562 15.7143 79.7132 15.7863 79.3713 15.7863H71.9213V17.8648H77.1849C77.5268 17.8648 77.7697 17.9458 77.9137 18.1077C78.0757 18.2517 78.1566 18.4946 78.1566 18.8365V21.7248C78.1566 22.0667 78.0757 22.3186 77.9137 22.4806C77.7697 22.6246 77.5268 22.6965 77.1849 22.6965H71.9213V25.0179H79.3713C79.7132 25.0179 79.9562 25.0989 80.1001 25.2609C80.2621 25.4048 80.3431 25.6478 80.3431 25.9897V29.1479C80.3431 29.4898 80.2621 29.7417 80.1001 29.9037C79.9562 30.0476 79.7132 30.1196 79.3713 30.1196ZM93.6047 30.1196H84.508C84.1661 30.1196 83.9142 30.0476 83.7522 29.9037C83.6083 29.7417 83.5363 29.4898 83.5363 29.1479V11.6564C83.5363 11.3145 83.6083 11.0715 83.7522 10.9276C83.9142 10.7656 84.1661 10.6846 84.508 10.6846H93.6047C95.8541 10.6846 97.5187 11.1345 98.5984 12.0343C99.6961 12.9341 100.245 14.3197 100.245 16.1912V24.6131C100.245 26.4846 99.6961 27.8702 98.5984 28.77C97.5187 29.6697 95.8541 30.1196 93.6047 30.1196ZM89.6637 15.8403V25.0179H92.8759C93.3077 25.0179 93.6227 24.91 93.8206 24.694C94.0366 24.4781 94.1445 24.1452 94.1445 23.6953V17.136C94.1445 16.6861 94.0366 16.3622 93.8206 16.1642C93.6227 15.9483 93.3077 15.8403 92.8759 15.8403H89.6637Z" fill="#151515"/>
</svg>
